<?xml version="1.0" encoding="UTF-8" standalone="no"?>
<svg width="230px" height="45px" viewBox="0 0 230 45" version="1.1" xmlns="http://www.w3.org/2000/svg" xmlns:xlink="http://www.w3.org/1999/xlink" xmlns:sketch="http://www.bohemiancoding.com/sketch/ns">
    <!-- Generator: Sketch 3.0.4 (8054) - http://www.bohemiancoding.com/sketch -->
    <title>Artboard 1</title>
    <desc>Created with Sketch.</desc>
    <defs></defs>
    <g id="Page-1" stroke="none" stroke-width="1" fill="none" fill-rule="evenodd" sketch:type="MSPage">
        <g id="Artboard-1" sketch:type="MSArtboardGroup" fill="#FFFFFF">
            <g id="Imported-Layers" sketch:type="MSLayerGroup" transform="translate(1.000000, 1.000000)">
                <path d="M30.6312857,10.71517 L30.6312857,14.00166 L22.2694286,14.00166 L22.2694286,18.69941 L29.6018571,18.69941 L29.6018571,21.95494 L22.2694286,21.95494 L22.2694286,29.71945 L18.6162857,29.71945 L18.6162857,10.71517 L30.6312857,10.71517" id="Fill-1" sketch:type="MSShapeGroup"></path>
                <path d="M34.071,10.68808 L37.7237143,10.68808 L37.7237143,29.69365 L34.071,29.69365 L34.071,10.68808 Z" id="Fill-2" sketch:type="MSShapeGroup"></path>
                <path d="M45.7075714,10.68808 L45.7075714,26.43597 L53.9871429,26.43597 L53.9871429,29.69408 L42.0552857,29.69408 L42.0552857,10.68808 L45.7075714,10.68808" id="Fill-3" sketch:type="MSShapeGroup"></path>
                <path d="M76.9915714,10.68808 L76.9915714,29.69408 L73.3362857,29.69408 L73.3362857,18.80648 L67.9247143,29.15185 L66.0304286,29.15185 L60.6188571,18.75273 L60.6188571,29.69408 L57.0745714,29.69408 L57.0745714,10.68808 L59.9961429,10.68808 L67.113,24.37197 L73.9864286,10.68808 L76.9915714,10.68808" id="Fill-4" sketch:type="MSShapeGroup"></path>
                <path d="M97.1275714,27.68727 C95.2315714,29.23355 92.3635714,30.01959 90.0085714,30.01959 C85.0577143,30.01959 80.7814286,27.03281 80.7814286,20.43704 C80.7814286,13.459 85.1108571,10.36343 89.3871429,10.36343 C93.4191429,10.36343 95.6104286,12.10106 96.693,13.05179 L94.7725714,15.68382 C93.5811429,14.38006 92.0661429,13.59402 89.793,13.59402 C86.382,13.59402 84.6231429,16.06437 84.6231429,20.43704 C84.6231429,24.50699 86.4107143,26.78599 89.8461429,26.78599 C91.7404286,26.78599 92.634,26.38265 93.5258571,25.86493 L93.4727143,22.22842 L89.2255714,22.22842 L89.2255714,18.96859 L97.1275714,18.96859 L97.1275714,27.68727" id="Fill-5" sketch:type="MSShapeGroup"></path>
                <path d="M113.635286,10.68808 L113.635286,13.94619 L104.76,13.94619 L104.76,18.42593 L112.606286,18.42593 L112.606286,21.68361 L104.76,21.68361 L104.76,26.43597 L113.635286,26.43597 L113.635286,29.69408 L101.106429,29.69408 L101.106429,10.68808 L113.635286,10.68808" id="Fill-6" sketch:type="MSShapeGroup"></path>
                <path d="M128.733,29.69408 L124.567714,22.76936 L121.615286,22.76936 L121.615286,29.69408 L117.966857,29.69408 L117.966857,10.68808 L124.707429,10.68808 C129.93,10.68808 131.545714,13.32312 131.545714,16.66121 C131.545714,19.05115 130.061571,20.81587 128.142857,21.76574 L132.906429,29.69408 L128.733,29.69408 L128.733,29.69408 Z M121.615286,19.51383 L124.592143,19.51383 C126.814286,19.51383 127.871571,18.04538 127.871571,16.66121 C127.871571,14.9253 126.600857,13.94619 124.460571,13.94619 L121.615286,13.94619 L121.615286,19.51383 L121.615286,19.51383 Z" id="Fill-7" sketch:type="MSShapeGroup"></path>
                <path d="M142.672286,10.68808 C146.411571,10.68808 148.707429,12.56202 148.707429,15.60384 C148.707429,17.33975 147.928286,18.59019 146.436,19.43127 C148.248,19.97436 149.978143,21.30478 149.978143,24.10021 C149.978143,28.11942 146.682,29.69408 143.164714,29.69408 L136.013571,29.69408 L136.013571,10.68808 L142.672286,10.68808 L142.672286,10.68808 Z M139.670571,18.39927 L142.106571,18.39927 C144.000857,18.39927 144.918857,17.47563 144.918857,16.17359 C144.918857,14.40887 143.779714,13.94619 142.024714,13.94619 L139.670571,13.94619 L139.670571,18.39927 L139.670571,18.39927 Z M142.893429,26.43597 C145.058143,26.43597 146.059286,25.4044 146.059286,24.0198 C146.059286,22.63391 145.247143,21.65652 143.131286,21.65652 L139.670571,21.65652 L139.670571,26.43597 L142.893429,26.43597 L142.893429,26.43597 Z" id="Fill-8" sketch:type="MSShapeGroup"></path>
                <path d="M166.303286,10.68808 L166.303286,13.94619 L157.422857,13.94619 L157.422857,18.42593 L165.270429,18.42593 L165.270429,21.68361 L157.422857,21.68361 L157.422857,26.43597 L166.303286,26.43597 L166.303286,29.69408 L153.774429,29.69408 L153.774429,10.68808 L166.303286,10.68808" id="Fill-9" sketch:type="MSShapeGroup"></path>
                <path d="M181.398857,29.69408 L177.233571,22.76936 L174.282,22.76936 L174.282,29.69408 L170.632714,29.69408 L170.632714,10.68808 L177.372429,10.68808 C182.595857,10.68808 184.211143,13.32312 184.211143,16.66121 C184.211143,19.05115 182.727857,20.81587 180.808714,21.76574 L185.564571,29.69408 L181.398857,29.69408 L181.398857,29.69408 Z M174.282,19.51383 L177.258429,19.51383 C179.480143,19.51383 180.538286,18.04538 180.538286,16.66121 C180.538286,14.9253 179.267571,13.94619 177.127286,13.94619 L174.282,13.94619 L174.282,19.51383 L174.282,19.51383 Z" id="Fill-10" sketch:type="MSShapeGroup"></path>
                <path d="M201.209143,10.68808 L201.209143,13.94619 L192.337286,13.94619 L192.337286,18.42593 L200.184857,18.42593 L200.184857,21.68361 L192.337286,21.68361 L192.337286,26.43597 L201.209143,26.43597 L201.209143,29.69408 L188.680286,29.69408 L188.680286,10.68808 L201.209143,10.68808" id="Fill-11" sketch:type="MSShapeGroup"></path>
                <path d="M205.214571,10.68808 L208.871571,10.68808 L208.871571,29.69365 L205.214571,29.69365 L205.214571,10.68808 Z" id="Fill-12" sketch:type="MSShapeGroup"></path>
                <path d="M16.5561429,38.67807 C16.0572857,34.74529 13.3581429,32.89156 11.0862857,32.2887 C7.92728571,31.4502 4.33114286,33.08979 2.65885714,34.85967 L2.64985714,28.0618 C9.07885714,26.04596 10.3547143,22.62617 10.4112857,20.47875 C10.4678571,18.33133 9.76628571,15.72166 2.76857143,12.09547 L2.76471429,7.96489 C3.55071429,8.20698 5.919,8.70922 7.52485714,8.70922 C9.135,8.70922 14.5058571,8.12829 15.9737143,0.65661 L16.1421429,-0.1935 L13.1871429,-0.1935 L13.1344286,0.46526 C13.1297143,0.52546 13.014,1.95736 12.2588571,3.36819 C11.319,5.12302 9.77528571,6.05096 7.80085714,6.05096 C7.80085714,6.05096 4.90285714,6.18598 2.337,4.66077 L2.16342857,4.57563 L0.197142857,4.56875 L0.203571429,14.10271 L0.777857143,14.25923 C0.777857143,14.25923 8.01,16.73345 7.62557143,20.56819 C7.30414286,23.77556 4.95428571,25.17865 0.825428571,25.63488 L0.198857143,25.71013 L0.198857143,39.26373 L1.83,39.26373 C3.86528571,36.7091 6.135,34.6623 9.486,34.6623 C12.5631429,34.6623 14.085,37.0058 14.2662857,41.47092 C14.2782857,41.77364 14.2847143,42.08625 14.2847143,42.40875 L16.5561429,42.4066 C16.5561429,42.4066 16.6697143,42.17397 16.7095714,41.47092 C16.7421429,40.89773 16.7254286,40.01279 16.5561429,38.67807" id="Fill-13" sketch:type="MSShapeGroup"></path>
                <path d="M211.221429,38.67807 C211.720286,34.74529 214.419429,32.89156 216.690857,32.2887 C219.849857,31.4502 223.446,33.08979 225.118286,34.85967 L225.127714,28.0618 C218.698714,26.04596 217.422429,22.62617 217.366286,20.47875 C217.309714,18.33133 218.010857,15.72166 225.009,12.09547 L225.012429,7.96489 C224.226429,8.20698 221.858143,8.70922 220.252714,8.70922 C218.642143,8.70922 213.271714,8.12829 211.803429,0.65661 L211.635,-0.1935 L214.59,-0.1935 L214.642714,0.46526 C214.647857,0.52546 214.763143,1.95736 215.518286,3.36819 C216.458143,5.12302 218.002286,6.05096 219.976286,6.05096 C219.976286,6.05096 222.874286,6.18598 225.440143,4.66077 L225.614143,4.57563 L227.580429,4.56875 L227.574,14.10271 L226.999286,14.25923 C226.999286,14.25923 219.767143,16.73345 220.151571,20.56819 C220.473,23.77556 222.822857,25.17865 226.952143,25.63488 L227.578714,25.71013 L227.578714,39.26373 L225.947571,39.26373 C223.911857,36.7091 221.642571,34.6623 218.291571,34.6623 C215.214,34.6623 213.692143,37.0058 213.511286,41.47092 C213.498857,41.77364 213.492429,42.08625 213.492429,42.40875 L211.221429,42.4066 C211.221429,42.4066 211.107429,42.17397 211.067571,41.47092 C211.035429,40.89773 211.052143,40.01279 211.221429,38.67807" id="Fill-14" sketch:type="MSShapeGroup"></path>
            </g>
        </g>
    </g>
</svg>