<?xml version="1.0" encoding="utf-8"?>
<!-- Generator: Adobe Illustrator 21.0.0, SVG Export Plug-In . SVG Version: 6.00 Build 0)  -->
<!DOCTYPE svg PUBLIC "-//W3C//DTD SVG 1.1//EN" "http://www.w3.org/Graphics/SVG/1.1/DTD/svg11.dtd">
<svg version="1.1" id="Layer_1" xmlns:sketch="http://www.bohemiancoding.com/sketch/ns"
	 xmlns="http://www.w3.org/2000/svg" xmlns:xlink="http://www.w3.org/1999/xlink" x="0px" y="0px" viewBox="0 0 230 32"
	 style="enable-background:new 0 0 230 32;" xml:space="preserve">
<g>
	<path d="M4,25.5l3.6-17h3.8l-3.6,17H4z"/>
	<path d="M22.2,25.5l-4.5-11.1l-2.4,11.1h-3.7l3.6-17h4.3l4.1,10.4l2.2-10.4h3.8l-3.6,17H22.2z"/>
	<path d="M39.9,12.1l-2.9,13.4h-3.8l2.8-13.4h-5l0.8-3.6h13.5l-0.8,3.6H39.9z"/>
	<path d="M44.2,25.5l3.6-17h10.8L57.8,12h-7l-0.7,3.2h6.3l-0.7,3.3h-6.3l-0.7,3.3h7l-0.8,3.6H44.2z"/>
	<path d="M65,19.1h-1.8l-1.3,6.3h-3.8l3.6-17h6.1c3.3,0,5,1.9,5,4.4c0,2.8-1.7,4.9-4.1,5.7l2.5,6.9h-4L65,19.1z M66.1,15.9
		c1.8,0,2.8-1,2.8-2.4c0-1-0.6-1.7-2-1.7h-2.1l-0.9,4.1H66.1z"/>
	<path d="M83.9,25.5l-4.5-11.1l-2.4,11.1h-3.7l3.6-17h4.3l4.1,10.4l2.2-10.4h3.8l-3.6,17H83.9z"/>
	<path d="M91.4,25.5l3.6-17h10.8L105,12h-7l-0.7,3.2h6.3l-0.7,3.3h-6.3l-0.7,3.3h7l-0.8,3.6H91.4z"/>
	<path d="M115.6,12.1l-2.9,13.4H109l2.8-13.4h-5l0.8-3.6h13.5l-0.8,3.6H115.6z"/>
	<path d="M126.1,25.5l3.6-17h10.9l-0.8,3.6h-7.2l-0.7,3.6h6.3l-0.7,3.5h-6.3l-1.4,6.4H126.1z"/>
	<path d="M149,22h-6.3l-1.9,3.5h-4.2l9.9-17h4.4l2.6,17h-3.9L149,22z M144.6,18.6h3.9l-0.7-5.8L144.6,18.6z"/>
	<path d="M170.5,25.5l2.4-11.2l-6.7,11.2h-3l-2.2-11.1l-2.4,11.1H155l3.6-17h4.7l2.3,11.5l6.7-11.5h5.5l-3.6,17H170.5z"/>
	<path d="M187.7,8.1c4.6,0,7.6,3.1,7.6,7.7c0,6.3-4.5,10-9.2,10c-4.5,0-7.6-3.1-7.6-7.7C178.6,11.9,183,8.1,187.7,8.1z M187.6,11.8
		c-2.5,0-5.1,2.2-5.1,6.1c0,2.5,1.4,4.2,3.9,4.2c2.5,0,5.1-2.2,5.1-6.2C191.5,13.5,190.1,11.8,187.6,11.8z"/>
	<path d="M212.6,8.5L210.1,20c-0.8,3.9-3.6,5.8-6.9,5.8c-3.7,0-6.1-2.3-6.1-5.6c0-0.8,0.1-1.3,0.3-2.2l2-9.6h3.8l-2.1,9.8
		c-0.1,0.6-0.2,1.1-0.2,1.4c0,1.4,0.7,2.4,2.6,2.4c1.5,0,2.5-0.9,2.9-2.8l2.3-10.8H212.6z"/>
	<path d="M221,20.8c0-0.7-0.3-1.2-1.2-1.6l-2-0.8c-2.3-0.9-3.4-2.6-3.4-4.7c0-3.4,2.9-5.5,6.2-5.5c4.7,0,5.9,3.2,5.9,5l-3.5,0.6
		c0-0.5-0.2-2.3-2.5-2.3c-1.4,0-2.2,1-2.2,1.9c0,0.9,0.5,1.3,1.2,1.6l1.8,0.8c2.6,1.1,3.7,2.7,3.7,4.8c0,2.7-2.2,5.3-6.2,5.3
		c-4.8,0-6.5-3.2-6.5-5.4c0-0.3,0-0.5,0-0.6l3.5-0.6c0,0.1,0,0.3,0,0.6c0,1.4,0.9,2.8,2.9,2.9C220.2,22.5,221,21.9,221,20.8z"/>
</g>
</svg>
