<?xml version="1.0" encoding="utf-8"?>
<!-- Generator: Adobe Illustrator 21.0.0, SVG Export Plug-In . SVG Version: 6.00 Build 0)  -->
<!DOCTYPE svg PUBLIC "-//W3C//DTD SVG 1.1//EN" "http://www.w3.org/Graphics/SVG/1.1/DTD/svg11.dtd">
<svg version="1.1" id="Layer_1" xmlns="http://www.w3.org/2000/svg" xmlns:xlink="http://www.w3.org/1999/xlink" x="0px" y="0px"
	 viewBox="0 0 337.833 43.333" enable-background="new 0 0 337.833 43.333" xml:space="preserve">
<g>
	<path fill="#FFFFFF" d="M1.115,42.031V1.635h7.863V34.51h18.004v7.521H1.115z"/>
	<path fill="#FFFFFF" d="M33.02,42.031V1.635h7.977v40.396H33.02z"/>
	<path fill="#FFFFFF" d="M50.225,42.031V1.635H75.75v7.464H58.088v9.971h15.725v7.236H58.145v15.726H50.225z"/>
	<path fill="#FFFFFF" d="M82.244,42.031V1.635h25.297v7.407H90.107v9.23h15.782v7.008H90.107v9.344h17.435v7.407H82.244z"/>
	<path fill="#FFFFFF" d="M147.82,0.78c10.997,0,20.796,8.034,20.796,21.082c0,12.99-9.8,21.024-20.796,21.024
		c-10.939,0-20.739-8.034-20.739-21.024C127.081,8.814,136.88,0.78,147.82,0.78z M147.82,35.251c6.268,0,12.649-4.33,12.649-13.446
		S154.087,8.358,147.82,8.358c-6.21,0-12.592,4.33-12.592,13.446S141.609,35.251,147.82,35.251z"/>
	<path fill="#FFFFFF" d="M201.659,42.031l-18.346-28.659v28.659h-7.863V1.635h9.799l16.809,26.722V1.635h7.862v40.396H201.659z"/>
	<path fill="#FFFFFF" d="M219.148,42.031V1.635h7.862V34.51h18.005v7.521H219.148z"/>
	<path fill="#FFFFFF" d="M251.054,42.031V1.635h7.977v40.396H251.054z"/>
	<path fill="#FFFFFF" d="M294.468,42.031l-18.347-28.659v28.659h-7.862V1.635h9.8l16.808,26.722V1.635h7.863v40.396H294.468z"/>
	<path fill="#FFFFFF" d="M311.957,42.031V1.635h25.297v7.407h-17.435v9.23h15.782v7.008h-15.782v9.344h17.435v7.407H311.957z"/>
</g>
</svg>
