<?xml version="1.0" encoding="utf-8"?>
<!-- Generator: Adobe Illustrator 21.0.0, SVG Export Plug-In . SVG Version: 6.00 Build 0)  -->
<!DOCTYPE svg PUBLIC "-//W3C//DTD SVG 1.1//EN" "http://www.w3.org/Graphics/SVG/1.1/DTD/svg11.dtd">
<svg version="1.1" id="Layer_1" xmlns:sketch="http://www.bohemiancoding.com/sketch/ns"
	 xmlns="http://www.w3.org/2000/svg" xmlns:xlink="http://www.w3.org/1999/xlink" x="0px" y="0px" viewBox="0 0 230 32"
	 enable-background="new 0 0 230 32" xml:space="preserve">
<title>Artboard 1</title>
<desc>Created with Sketch.</desc>
<g>
	<path d="M3.74,28.176V2.925h5.627v19.873h10.898v5.378H3.74z"/>
	<path d="M18.874,2.925h6.589l5.164,9.367l5.235-9.367h6.268l-8.868,14.708v10.542h-5.627V17.634L18.874,2.925z"/>
	<path d="M45.224,28.176V2.925H61.5v5.342H50.851v5.342h9.367v5.128h-9.331v9.438H45.224z"/>
	<path d="M65.449,28.176V2.925H81.44v5.307H71.076v4.808h9.402v4.95h-9.402v4.844h10.399v5.342H65.449z"/>
	<path d="M106.649,2.391c7.087,0,13.106,5.164,13.106,13.177c0,7.978-6.02,13.142-13.106,13.142
		c-7.123,0-13.142-5.164-13.142-13.142C93.508,7.555,99.526,2.391,106.649,2.391z M106.649,23.154c3.49,0,7.265-2.351,7.265-7.621
		c0-5.271-3.775-7.657-7.265-7.657c-3.526,0-7.301,2.386-7.301,7.657C99.348,20.804,103.124,23.154,106.649,23.154z"/>
	<path d="M139.767,28.176L129.367,11.58v16.596h-5.592V2.925h6.838l9.474,15.35V2.925h5.627v25.25H139.767z"/>
	<path d="M151.157,28.176V2.925h5.627v19.873h10.898v5.378H151.157z"/>
	<path d="M171.312,28.176V2.925h5.698v25.25H171.312z"/>
	<path d="M198.448,28.176L188.049,11.58v16.596h-5.592V2.925h6.838l9.474,15.35V2.925h5.627v25.25H198.448z"/>
	<path d="M209.84,28.176V2.925h15.991v5.307h-10.364v4.808h9.402v4.95h-9.402v4.844h10.399v5.342H209.84z"/>
</g>
</svg>
