<?xml version="1.0" encoding="utf-8"?>
<!-- Generator: Adobe Illustrator 17.1.0, SVG Export Plug-In . SVG Version: 6.00 Build 0)  -->
<!DOCTYPE svg PUBLIC "-//W3C//DTD SVG 1.1//EN" "http://www.w3.org/Graphics/SVG/1.1/DTD/svg11.dtd">
<svg version="1.1" id="Layer_1" xmlns="http://www.w3.org/2000/svg" xmlns:xlink="http://www.w3.org/1999/xlink" x="0px" y="0px"
	 viewBox="0 0 355.8 138.7" enable-background="new 0 0 355.8 138.7" xml:space="preserve">
<path fill="#5A5121" d="M41.4,138.7C18.6,138.7,0,120.9,0,99.1s18.6-39.6,41.4-39.6s41.4,17.8,41.4,39.6S64.2,138.7,41.4,138.7z
	 M41.4,79.3c-11.8,0-21.5,8.9-21.5,19.8s9.6,19.8,21.5,19.8s21.5-8.9,21.5-19.8S53.2,79.3,41.4,79.3z"/>
<path fill="#EA118D" d="M81.3,88.3H51.1V78c17.1-4.4,29.7-20,29.7-38.4C80.8,17.8,63,0,41.1,0S1.5,17.8,1.5,39.6
	c0,18.4,12.6,34,29.7,38.4v10.3H2v19.9h29.2v29.3h19.9v-29.3h30.2V88.3z M21.4,39.6c0-10.9,8.9-19.8,19.8-19.8s19.8,8.9,19.8,19.8
	s-8.9,19.8-19.8,19.8S21.4,50.5,21.4,39.6z"/>
<g>
	<path fill="none" d="M151.8,18.5c0,0-1,18.3-1.3,27.5c0,0.8-3.3,38.4-3.3,39.1h8.8c0-0.7-2.7-38.3-2.7-39.1
		C153,37,151.8,18.5,151.8,18.5z"/>
	<path fill="#010101" d="M96.1,106.5c0,3.7-1.3,7-6,7.3c-2.5,0.2-4.5,0.2-7.2,0v21.6c4.2,0.5,3.7,0.7,9,0.7c19,0,27.1-6.5,27.1-25.5
		V2.9h-23V106.5z"/>
	<polygon fill="#010101" points="331.3,114.2 331.3,79.2 353.4,79.2 353.4,58.4 331.3,58.4 331.3,25.1 355.6,25.1 355.6,2.9 
		308.2,2.9 308.2,136 355.8,136 355.8,114.2 	"/>
</g>
<path fill="#2BACE2" d="M208.7,47.8c4.2,0,7.6-3.4,7.6-7.6c0-4.2-3.4-7.6-7.6-7.6c-4.2,0-7.6,3.4-7.6,7.6
	C201.1,44.4,204.5,47.8,208.7,47.8"/>
<path fill="#2BACE2" d="M40.7,47.8c4.2,0,7.6-3.4,7.6-7.6c0-4.2-3.4-7.6-7.6-7.6c-4.2,0-7.6,3.4-7.6,7.6
	C33.1,44.4,36.6,47.8,40.7,47.8"/>
<path fill="#010101" d="M280.2,2.9v58.7l-13-58.7H247v22.7C241.3,10.7,226.8,0,209.9,0c-18,0-33.3,12.1-38.1,28.6l-2.4-25.8h-33.6
	L121.4,136h22.8c0,0,1.8-23.3,2.2-33.4c0.2,0,10.5,0,10.5,0c0.3,10.1,1.8,33.4,1.8,33.4h23.1l-7.3-78.5c2.6,5.1,6.2,9.6,10.6,13.1
	V136h22.3V79.6h2.5l10,56.4H243l-12-62.7c7.3-4.6,13-11.4,16-19.6V136h21.3V76.2l12.5,59.7h20.8V2.9H280.2z M147.1,85
	c0-0.7,3.3-38.3,3.3-39.1c0.3-9.2,1.3-27.5,1.3-27.5s1.2,18.5,1.5,27.5c0,0.8,2.7,38.4,2.7,39.1H147.1z M209.9,59.4
	c-10.9,0-19.8-8.9-19.8-19.8s8.9-19.8,19.8-19.8s19.8,8.9,19.8,19.8S220.8,59.4,209.9,59.4z"/>
</svg>
