<?xml version="1.0" encoding="utf-8"?>
<!-- Generator: Adobe Illustrator 18.0.0, SVG Export Plug-In . SVG Version: 6.00 Build 0)  -->
<!DOCTYPE svg PUBLIC "-//W3C//DTD SVG 1.1//EN" "http://www.w3.org/Graphics/SVG/1.1/DTD/svg11.dtd">
<svg version="1.1" id="Layer_1" xmlns="http://www.w3.org/2000/svg" xmlns:xlink="http://www.w3.org/1999/xlink" x="0px" y="0px"
	 viewBox="214.9 235.8 182.3 316.1" enable-background="new 214.9 235.8 182.3 316.1" xml:space="preserve">
<g display="none">
	<path display="inline" fill="#010101" d="M2055.7,784.3c-11.9,0-10.8-0.5-20.3-1.6v-48.6c6,0.5,10.6,0.5,16.2,0
		c10.6-0.6,13.5-8.4,13.5-16.5V484.1h51.8v242.7C2116.7,769.6,2098.5,784.3,2055.7,784.3z"/>
	<path display="inline" fill="#010101" d="M2173.4,783.8h-51.3l32.5-299.7h75.7l27.7,299.7h-52c0,0-3.3-52.4-4.1-75.2
		c0,0-23.1,0-23.6,0C2177.5,731.4,2173.4,783.8,2173.4,783.8z M2194,581.1c-0.6-20.3-3.3-61.9-3.3-61.9s-2.2,41.2-2.9,61.9
		c0,1.7-7.4,86.5-7.4,88.1h19.8C2200,667.9,2194,583.1,2194,581.1z"/>
	<path display="inline" fill="#010101" d="M2383.9,620.5c-3.8,10.6-10.1,18.5-15.4,20.9l27.2,142.2h-52l-22.5-127h-5.7v127.2h-50.2
		V484.1h69.5c19.2,0,37.4,8.6,45,25c5.7,12.4,10.1,33.7,10.1,60.8C2390.3,594,2387.6,609.7,2383.9,620.5z M2336.3,546.7
		c-0.6-7.9-4.1-14.3-10.8-14.3h-9c0,0,0,73.3,0,79.7c0.6,0,7.4,0,10.1-0.5c4.9-0.6,7.1-4.1,8.4-8.4c1.7-5.2,2.7-19.2,2.7-28.2
		C2337.4,564.7,2336.7,550,2336.3,546.7z"/>
	<path display="inline" fill="#010101" d="M2480.7,783.8l-28.2-134.5v134.5h-48V484.1h45.8l29.3,132.1V484.1h48v299.7H2480.7
		L2480.7,783.8z"/>
	<path display="inline" fill="#010101" d="M2542.7,783.8V484.1h106.8v50.2h-54.6v74.9h50.1v46.9h-49.9v78.6h55.1v49.1H2542.7z"/>
</g>
<path display="none" fill="#010101" d="M2036.4,833.5h-68v-43.4h-3.6c40.2-8.6,70.5-44.5,70.5-87.3c0-23.1-9-44.4-23.6-60.4
	c-3.2-6.3-8.6-11.2-16.2-13.9c-1.6-1.1-3.2-2.1-4.8-2.9c11.1-2.9,16.6-9.7,20.3-20.4c5.7-10.1,6.8-33.3,6.8-52.9
	c0-18.1-2.7-39.6-7.9-48.6c-6.3-14.4-22-22.3-45.3-22.3h-74.9v152.7c-20,16.2-32.9,41.2-32.9,69.1c0,42.8,30.1,78.6,70.5,87.3h-3.6
	v43.4h-65.7v44.8h65.7v65.9h44.8v-65.9h68V833.5z M1941.4,523.9h10.6c6.3,0,10.8,4.4,11.2,11.7c0.5,5.7,0.6,18.1,0.6,30.4
	c0,14.6,0,28.4-0.5,33.7c-0.5,8.4-5.7,10.8-8.6,10.8h-13.5L1941.4,523.9L1941.4,523.9z M1901.4,702.9c0-24.6,20-44.5,44.5-44.5
	s44.5,20,44.5,44.5s-20,44.5-44.5,44.5C1921.6,747.5,1901.4,727.4,1901.4,702.9z"/>
<path fill="#FFFFFF" d="M328.9,415.2c39.3-10.2,68.3-45.9,68.3-88.3c0-50.2-40.9-91.1-91.1-91.1s-91.1,40.9-91.1,91.1
	c0,42.4,29,78.1,68.3,88.3v35.1h-62.6V496h62.6v55.9h45.7V496h62.6v-45.7h-62.6L328.9,415.2L328.9,415.2z M260.6,327
	c0-25,20.5-45.4,45.4-45.4c25,0,45.4,20.5,45.4,45.4c0,25-20.5,45.4-45.4,45.4C281.1,372.4,260.6,352,260.6,327z"/>
<g display="none">
	<path display="inline" fill="#010101" d="M2051.3,1344.9c-11.9,0-10.8-0.5-20.3-1.6v-48.6c6,0.5,10.6,0.5,16.2,0
		c10.6-0.6,13.5-8.4,13.5-16.5v-233.5h51.8v242.8C2112.3,1330.3,2094.1,1344.9,2051.3,1344.9z"/>
	<path display="inline" fill="#010101" d="M2169,1344.4h-51.3l32.5-299.7h75.7l27.7,299.7h-52c0,0-3.3-52.4-4.1-75.2
		c0,0-23.1,0-23.6,0C2172.9,1292,2169,1344.4,2169,1344.4z M2189.4,1141.8c-0.6-20.3-3.3-61.9-3.3-61.9s-2.2,41.2-2.9,61.9
		c0,1.7-7.4,86.5-7.4,88.1h19.8C2195.6,1228.6,2189.4,1143.9,2189.4,1141.8z"/>
	<path display="inline" fill="#010101" d="M2379.5,1181.2c-3.8,10.6-10.1,18.5-15.4,20.9l27.2,142.2h-52l-22.5-127h-5.7v127H2261
		v-299.7h69.5c19.2,0,37.4,8.6,45,25c5.7,12.4,10.1,33.7,10.1,60.8C2385.8,1154.6,2383.1,1170.5,2379.5,1181.2z M2331.7,1107.4
		c-0.6-7.9-4.1-14.3-10.8-14.3h-9c0,0,0,73.3,0,79.7c0.6,0,7.4,0,10.1-0.5c4.9-0.6,7.1-4.1,8.4-8.4c1.7-5.2,2.7-19.2,2.7-28.2
		C2332.9,1125.5,2332.1,1110.7,2331.7,1107.4z"/>
	<path display="inline" fill="#010101" d="M2476.3,1344.4l-28.2-134.5v134.5h-48v-299.7h45.8l29.3,132.1v-132.1h48v299.7H2476.3
		L2476.3,1344.4z"/>
	<path display="inline" fill="#010101" d="M2538.2,1344.4v-299.7H2645v50.2h-54.8v74.9h50.1v46.9h-49.7v78.6h55.1v49.1H2538.2z"/>
</g>
<path display="none" fill="#010101" d="M2031.8,1394.3h-68v-43.4h-3.6c40.2-8.6,70.5-44.5,70.5-87.3c0-23.1-9-44.4-23.6-60.4
	c-3.2-6.3-8.6-11.2-16.2-13.9c-1.6-1.1-3.2-2.1-4.8-2.9c11.1-2.9,16.6-9.7,20.3-20.4c5.7-10.1,6.8-33.3,6.8-52.9
	c0-18.1-2.7-39.6-7.9-48.6c-6.3-14.4-22-22.3-45.3-22.3h-74.9v152.7c-20,16.2-32.9,41.2-32.9,69.1c0,42.8,30.1,78.6,70.5,87.3h-3.6
	v43.4h-65.7v44.8h65.7v65.9h44.8v-65.9h68V1394.3z M1936.9,1084.6h10.6c6.3,0,10.8,4.4,11.2,11.7c0.5,5.7,0.6,18.1,0.6,30.4
	c0,14.6,0,28.4-0.5,33.7c-0.5,8.4-5.7,10.8-8.6,10.8h-13.5L1936.9,1084.6L1936.9,1084.6z M1897,1263.6c0-24.6,20-44.5,44.5-44.5
	s44.5,20,44.5,44.5s-20,44.5-44.5,44.5S1897,1288.2,1897,1263.6z"/>
</svg>
