<?xml version="1.0" encoding="utf-8"?>
<!-- Generator: Adobe Illustrator 18.0.0, SVG Export Plug-In . SVG Version: 6.00 Build 0)  -->
<!DOCTYPE svg PUBLIC "-//W3C//DTD SVG 1.1//EN" "http://www.w3.org/Graphics/SVG/1.1/DTD/svg11.dtd">
<svg version="1.1" id="Layer_1" xmlns="http://www.w3.org/2000/svg" xmlns:xlink="http://www.w3.org/1999/xlink" x="0px" y="0px"
	 viewBox="0 0 259.2 282.6" enable-background="new 0 0 259.2 282.6" xml:space="preserve">
<g>
	<path fill="#010101" d="M120.4,38.8C120.4,16.7,94.5,0,60.2,0C25.9,0,0,16.7,0,38.8c0,22.1,25.9,38.8,60.2,38.8
		C94.5,77.6,120.4,60.9,120.4,38.8z M60,29.5c0.4,0,0.8,0.3,0.8,0.8c0,0.9-1.6,0.9-1.6,0C59.2,29.8,59.5,29.5,60,29.5z M60.2,52.7
		c-21.6,0-35.3-9.1-35.3-13.9c0-2.9,5.1-7.4,14-10.5c-0.1,0.7-0.1,1.3-0.1,2c0,11.7,9.5,21.2,21.2,21.2s21.2-9.5,21.2-21.2
		c0-0.7,0-1.4-0.1-2.2c9.2,3.1,14.5,7.7,14.5,10.7C95.5,43.6,81.8,52.7,60.2,52.7z"/>
	<path fill="#010101" d="M199,0c-34.3,0-60.2,16.7-60.2,38.8c0,22.1,25.9,38.8,60.2,38.8s60.2-16.7,60.2-38.8
		C259.2,16.7,233.3,0,199,0z M199,29.5c0.4,0,0.8,0.3,0.8,0.8c0,0.9-1.6,0.9-1.6,0C198.2,29.8,198.6,29.5,199,29.5z M199,52.7
		c-21.6,0-35.3-9.1-35.3-13.9c0-2.9,5.2-7.5,14.2-10.6c-0.1,0.7-0.1,1.4-0.1,2.1c0,11.7,9.5,21.2,21.2,21.2s21.2-9.5,21.2-21.2
		c0-0.7,0-1.4-0.1-2.1c9,3.1,14.2,7.7,14.2,10.6C234.3,43.6,220.5,52.7,199,52.7z"/>
	<path fill="#010101" d="M178.5,159.2c0-27.4-22.3-49.7-49.7-49.7c-27.4,0-49.7,22.3-49.7,49.7c0,23.1,15.8,42.5,37.2,48v20H82.3
		v24.9h34.1v30.4h24.9v-30.4h34.1v-24.9h-34.1v-20C162.6,201.7,178.5,182.3,178.5,159.2z M104,159.2c0-13.7,11.1-24.8,24.8-24.8
		c13.7,0,24.8,11.1,24.8,24.8c0,13.7-11.1,24.8-24.8,24.8C115.1,184,104,172.9,104,159.2z"/>
</g>
</svg>
