<?xml version="1.0" encoding="utf-8"?>
<!-- Generator: Adobe Illustrator 17.1.0, SVG Export Plug-In . SVG Version: 6.00 Build 0)  -->
<!DOCTYPE svg PUBLIC "-//W3C//DTD SVG 1.1//EN" "http://www.w3.org/Graphics/SVG/1.1/DTD/svg11.dtd">
<svg version="1.1" id="Layer_1" xmlns="http://www.w3.org/2000/svg" xmlns:xlink="http://www.w3.org/1999/xlink" x="0px" y="0px"
	 viewBox="0 0 354.3 136" enable-background="new 0 0 354.3 136" xml:space="preserve">
<path fill="#010101" d="M49.6,88.3V78c17.1-4.4,29.7-20,29.7-38.4C79.3,17.8,61.5,0,39.6,0C17.8,0,0,17.8,0,39.6
	c0,18.4,12.6,34,29.7,38.4v10.3H0.5v19.9h29.2v29.3h19.9v-29.3h30.2V88.3H49.6z M19.9,39.6c0-10.9,8.9-19.8,19.8-19.8
	c10.9,0,19.8,8.9,19.8,19.8c0,10.9-8.9,19.8-19.8,19.8C28.7,59.4,19.9,50.6,19.9,39.6z"/>
<g>
	<path fill="#010101" d="M94.6,106.5c0,3.7-1.3,7-6,7.3c-2.5,0.2-4.5,0.2-7.2,0v21.6c4.2,0.5,3.7,0.7,9,0.7c19,0,27.1-6.5,27.1-25.5
		V2.9h-23V106.5z"/>
	<path fill="#010101" d="M278.7,61.6l-13-58.7h-20.3v22.7C239.8,10.7,225.3,0,208.4,0c-5.2,0-10.2,1-14.7,2.9h-10.1v5.9
		c-6.3,5-11,11.9-13.3,19.9l-2.4-25.8h-33.6L119.9,136h22.8c0,0,1.8-23.3,2.2-33.4c0.2,0,10.5,0,10.5,0c0.3,10.1,1.8,33.4,1.8,33.4
		h23.1L173,57.4c2.6,5.1,6.2,9.5,10.6,13.1V136h22.3V79.6h2.5l10,56.4h23.1l-12-62.7c7.3-4.6,12.9-11.4,16-19.5V136h21.3V76.2
		l12.5,59.7H300V2.9h-21.3V61.6z M145.6,85c0-0.7,3.3-38.3,3.3-39.1c0.3-9.2,1.3-27.5,1.3-27.5s1.2,18.5,1.5,27.5
		c0,0.8,2.7,38.4,2.7,39.1H145.6z M208.4,59.4c-0.7,0-1.5,0-2.2-0.1c0-4.8,0-35,0-35h4c3,0,4.5,2.8,4.8,6.3c0.2,1.5,0.5,8,0.5,12.8
		c0,4-0.3,10.1-1.2,12.5c-0.4,1.3-1,2.4-2.1,3.1C211,59.3,209.7,59.4,208.4,59.4z"/>
	<polygon fill="#010101" points="329.8,114.2 329.8,79.2 352,79.2 352,58.4 329.8,58.4 329.8,25.1 354.1,25.1 354.1,2.9 306.7,2.9 
		306.7,136 354.3,136 354.3,114.2 	"/>
</g>
</svg>
