<?xml version="1.0" encoding="utf-8"?>
<!-- Generator: Adobe Illustrator 18.0.0, SVG Export Plug-In . SVG Version: 6.00 Build 0)  -->
<!DOCTYPE svg PUBLIC "-//W3C//DTD SVG 1.1//EN" "http://www.w3.org/Graphics/SVG/1.1/DTD/svg11.dtd">
<svg version="1.1" id="Layer_1" xmlns="http://www.w3.org/2000/svg" xmlns:xlink="http://www.w3.org/1999/xlink" x="0px" y="0px"
	 viewBox="0 0 361.1 326.1" enable-background="new 0 0 361.1 326.1" xml:space="preserve">
<g>
	<path fill="#010101" d="M42,80.8l-3.2,18.7l-17.3-3l3.2-18.2c0.5-2.6,1.4-4.1,2.4-4.9c0.9-0.7,2-0.8,3-0.6s1.8,0.6,2.4,1.2
		c0.6,0.6,0.9,1.4,0.9,2.4c0.4-1.4,1.3-2.6,2.3-3.1c0.7-0.4,1.7-0.5,2.6-0.4c1.2,0.2,2.2,0.7,2.9,1.4C42.4,75.6,42.5,78,42,80.8z
		 M29.1,79.8c-0.4,0.3-0.6,0.9-0.8,2l-1.6,9.1l2.4,0.4l1.6-9.2c0.2-1,0.2-1.7,0-2.1c-0.2-0.3-0.5-0.4-0.8-0.5
		C29.6,79.5,29.4,79.6,29.1,79.8z M36.6,79.4c-0.4-0.1-0.6,0-0.8,0.2c-0.4,0.3-0.6,1-0.9,2.3L33.2,92l2.6,0.4l1.7-10
		c0.3-1.5,0.3-2.2-0.1-2.7C37.2,79.5,37,79.4,36.6,79.4z"/>
</g>
<g>
	<path fill="#010101" d="M44.7,66.7c-0.4,2.4-1,4.9-1.2,5.3l-4.8-0.9c0.1-0.3,0.6-3.2,0.8-4.3c0.4-2.5-0.9-3.7-2.5-4l-9.5-1.7
		l1.2-6.5l10.4,1.9C43.2,57.2,45.8,60.9,44.7,66.7z"/>
</g>
<g>
	<path fill="#010101" d="M46.9,48.1l-6.4,2.9l3.7-20.8l6.9-3.1l17.4,11.4l-6.6,2.9l-2.8-1.8l-11.6,5.2L46.9,48.1z M50.8,34.1l-1.4-1
		l-0.3,1.8l-0.9,5.1l6.9-3.1C55.1,36.8,50.8,34.1,50.8,34.1z"/>
</g>
<g>
	<path fill="#010101" d="M95.3,34.1c-0.7,0.8-1.8,1.6-3.4,1.8l6.4,7.3l-7.2,0l-5.6-6.5l-7.2,0l0,6.4l-6.6,0l0-17.5l16.8,0
		c3.2,0,5.3,0.7,6.5,1.7c0.9,0.8,1.3,1.9,1.3,3.4C96.3,32.1,95.9,33.3,95.3,34.1z M89.8,30.7c-0.4-0.6-1.1-0.7-2.2-0.7l-9.3,0l0,2.9
		l9.4,0c1.3,0,1.9-0.2,2.1-0.6c0.2-0.2,0.2-0.5,0.2-0.7C90,31.1,89.9,30.9,89.8,30.7z"/>
</g>
<g>
	<path fill="#010101" d="M118.6,43.2l-11.4-10.1l0,10.1l-6.4,0l0-17.5l6.8,0l11.2,9.9l0-9.9l6.3,0l0,17.5L118.6,43.2z"/>
</g>
<g>
	<path fill="#010101" d="M129.6,43.2l0-17.5l21.7,0.1l0,4.6l-15.2,0l0,2l14.8,0l0,4.4l-14.8,0l0,2l15.4,0l0,4.6L129.6,43.2z"/>
</g>
<text transform="matrix(1 2.089248e-03 -2.089248e-03 1 152.792 43.3001)" fill="#010101" font-family="'TitlingGothicFBExtended-Bold'" font-size="22.4487"> </text>
<g>
	<path fill="#010101" d="M187.7,43.4l0-9l-5.2,9l-5.5,0l-5.1-9l0,9l-6.3,0l0-17.5l8.4,0l5.8,10.5l6-10.5l8.2,0l0,17.5L187.7,43.4z"
		/>
</g>
<g>
	<path fill="#010101" d="M198.4,43.4l0.1-17.5l21.7,0.1l0,4.6l-15.2,0l0,2l14.8,0l0,4.4l-14.8,0l0,2l15.4,0l0,4.6L198.4,43.4z"/>
</g>
<g>
	<path fill="#010101" d="M223.8,43.4l0.1-17.5l6.6,0l0,12.5l12.9,0l0,5L223.8,43.4z"/>
</g>
<g>
	<path fill="#010101" d="M264.9,45l0.1-1.9c-1.9,1-4.7,1.7-8.9,1.2c-4.2-0.5-7.9-2-9.8-4.7c-1.1-1.5-1.6-3.4-1.3-5.7
		c0.2-2,1.1-3.7,2.5-4.9c2.5-2.2,6.6-3.2,12-2.6c6.4,0.7,10.2,3.1,11.5,6.4c0.2,0.6,0.3,1.2,0.3,1.6l-6.3-0.7c0-0.2-0.5-0.6-0.8-0.9
		c-0.7-0.6-2.4-1.4-5.3-1.7s-4.9,0-6.1,1.1c-0.7,0.6-1.1,1.4-1.2,2.5c-0.1,1,0.1,1.9,0.7,2.6c0.9,1.2,2.9,2.1,5.7,2.4
		c2.6,0.3,4.7,0.1,6-0.5c0.4-0.2,1-0.5,1.2-0.8l-8-0.9l0.4-3.7l13.9,1.6c0,0-0.4,3.8-0.5,4.6c-0.3,2.3-0.6,5.5-0.6,5.7L264.9,45z"/>
</g>
<g>
	<path fill="#010101" d="M278.6,47.8l-6.5-2.6l17.5-11.9l7,2.8l3.9,20.5l-6.7-2.7l-0.6-3.2L281.3,46L278.6,47.8z M291.3,40.8
		l-0.3-1.7l-1.5,1l-4.3,2.9l7,2.8C292.3,45.9,291.3,40.8,291.3,40.8z"/>
</g>
<g>
	<path fill="#010101" d="M306,61.4l-5-5l20.8-4l5.3,5.3L322.6,78l-5.1-5.1l0.7-3.2l-9-9L306,61.4z M320.4,59.9l0.4-1.7l-1.7,0.4
		l-5.1,1l5.3,5.3C319.4,65,320.4,59.9,320.4,59.9z"/>
</g>
<g>
	<path fill="#010101" d="M339.2,100.4c-1-0.4-2.1-1.2-2.8-2.6l-4.9,8.4l-2.3-6.9l4.4-7.3l-2.3-6.9l-6.1,2l-2.1-6.2l16.6-5.5
		l5.3,15.9c1,3,1,5.2,0.4,6.7c-0.5,1.1-1.4,1.9-2.8,2.4C341.4,100.7,340.1,100.7,339.2,100.4z M340.6,94.1c0.4-0.6,0.4-1.3,0-2.3
		l-2.9-8.8l-2.7,0.9l3,8.9c0.4,1.2,0.8,1.7,1.3,1.8c0.3,0.1,0.5,0,0.8-0.1C340.3,94.4,340.5,94.3,340.6,94.1z"/>
</g>
<g>
	<path fill="#010101" d="M330.3,123.7L332,109l17.4,2.1l-1.8,14.8c-0.6,5.2-2.6,8-5.3,9c-1.3,0.5-2.8,0.6-4.4,0.4
		c-1.7-0.2-3.2-0.7-4.5-1.5C331,132.2,329.6,129,330.3,123.7z M338.6,128.7c0.9,0.1,1.7,0,2.3-0.2c1.4-0.5,2.1-1.9,2.4-4.2l0.9-7.2
		l-8.5-1l-0.9,7.2c-0.3,2.4,0.1,3.9,1.3,4.7C336.7,128.3,337.6,128.6,338.6,128.7z"/>
</g>
<text transform="matrix(-0.1791 0.9838 -0.9838 -0.1791 328.4762 135.0429)" fill="#010101" font-family="'TitlingGothicFBExtended-Bold'" font-size="22.4488"> </text>
<g>
	<path fill="#010101" d="M327.9,159.5c-1.1-7.6,0.5-11.3,2.8-13.1c0.5-0.4,1-0.6,1.6-0.8l1,7.2c-0.3,0.1-0.5,0.4-0.8,0.7
		c-0.5,0.8-0.7,2.9-0.2,6.1c0.6,4.4,1.2,5.2,2,5.1c0.8-0.1,0.9-0.8,0.6-4.5c-0.1-1.7-0.3-4-0.4-5.1c-0.7-7.5,1-9.7,3.7-10.1
		c3.2-0.5,6.4,3.5,7.5,11.5c1,7-0.5,10.6-2.3,12.3c-0.6,0.5-1.3,1-1.9,1.2l-1.1-7.2c0.3-0.1,0.4-0.2,0.7-0.6
		c0.5-0.8,0.7-2.5,0.3-5.3c-0.6-4-1.1-5.1-1.9-5c-0.7,0.1-0.8,0.9-0.5,5.2c0.2,2,0.4,5.4,0.5,6.1c0.4,5.5-1,7.8-3.8,8.2
		C331.7,172,329.1,168,327.9,159.5z"/>
</g>
<g>
	<path fill="#010101" d="M328.5,187.3c1.3-7.6,3.9-10.6,6.7-11.6c0.6-0.2,1.1-0.3,1.7-0.3l-1.2,7.2c-0.3,0-0.6,0.2-0.9,0.4
		c-0.8,0.6-1.5,2.5-2.1,5.7c-0.8,4.4-0.5,5.3,0.3,5.5c0.8,0.1,1.1-0.4,2-4.1c0.4-1.6,0.9-3.9,1.2-5c1.7-7.3,4-8.9,6.7-8.5
		c3.2,0.6,5,5.3,3.6,13.3c-1.2,7-3.8,9.9-6.1,11c-0.8,0.3-1.5,0.5-2.2,0.5l1.2-7.2c0.3,0,0.4-0.1,0.8-0.4c0.7-0.6,1.5-2.1,1.9-4.9
		c0.7-4,0.6-5.2-0.3-5.3c-0.7-0.1-1,0.6-2.1,4.8c-0.5,2-1.3,5.3-1.5,6c-1.3,5.4-3.4,7.1-6.2,6.6C328.2,200.4,327,195.8,328.5,187.3z
		"/>
</g>
<g>
	<path fill="#010101" d="M322.1,201.1l0.9-2.9l17.4,15.8l-0.9,2.9L322.1,201.1z"/>
</g>
<g>
	<path fill="#010101" d="M320.2,217l10.2,4.6l1.9-5.5l4.7,2.1c-1.5,4.4-2,6.2-1.2,7.2l-2.2,4.9l-16.2-7.2L320.2,217z"/>
</g>
<g>
	<path fill="#010101" d="M309.3,236.3c3.6-5.3,6.9-7.5,10-6.6c0.5,0.2,0.9,0.3,1.5,0.6l-3.7,5.5c-1.2-0.5-2.4-0.2-4,2.1
		c-1.4,2-1.3,3.6-0.3,4.4c0.1,0.1,0.1,0.1,0.2,0.1c1.1,0.7,2.5,0.3,3.9-1.9c1-1.5,1.4-2.9,0.8-3.9l3.6-5.3l8.7,5.9l-11.3,16.6
		l-3.9-2.6l7.9-11.6l-2-1.4c0.5,1.4-1.1,4.6-2.4,6.4c-3.4,5-6.9,5.8-9.9,4c-0.2-0.1-0.4-0.3-0.5-0.3
		C305.3,246.3,305.3,242.1,309.3,236.3z"/>
</g>
<text transform="matrix(-0.7025 0.7116 -0.7116 -0.7025 302.8452 245.4232)" fill="#010101" font-family="'TitlingGothicFBExtended-Bold'" font-size="22.4488"> </text>
<g>
	<path fill="#010101" d="M279.4,265l15.1,2l-5.6-8.4l5.3-3.5l9.8,14.5l-5.6,3.8l-14.8-1.9l5.5,8.2l-5.2,3.5l-9.8-14.5L279.4,265z"/>
</g>
<g>
	<path fill="#010101" d="M256.8,281.5l-2-5.4l6.2-2.3l2,5.4l15,7.1l-7.3,2.7l-9.3-4.2L257,294l-7.1,2.6L256.8,281.5z"/>
</g>
<g>
	<path fill="#010101" d="M237.2,294.4l-0.4-2.3l-13.8,2.5l-0.8-4.5l13.8-2.5l-1.1-5.9l6.5-1.1l3.1,17.3l-20.9,3.7l-0.8-4.6
		L237.2,294.4z"/>
</g>
<g>
	<path fill="#010101" d="M188.2,284.5l7.2,0l4.4,10.8l4.3-10.9l7.2,0l8.2,17.5l-7.2,0l-5-11.2l-4.3,11.2l-7,0l-4.5-11.2l-4.9,11.2
		l-6.3,0L188.2,284.5z"/>
</g>
<text transform="matrix(-1 0 0 -1 180.3286 284.3579)" fill="#010101" font-family="'TitlingGothicFBExtended-Bold'" font-size="22.4488"> </text>
<g>
	<path fill="#010101" d="M161.9,284.4h1.8l1.1,2.7l1.1-2.7h1.8l2,4.4h-1.8l-1.2-2.8l-1.1,2.8h-1.8l-1.1-2.8l-1.2,2.8h-1.6
		L161.9,284.4z"/>
</g>
<g>
	<path fill="#010101" d="M152.1,284.4h1.8l1.1,2.7l1.1-2.7h1.8l2,4.4h-1.8l-1.2-2.8l-1.1,2.8H154l-1.1-2.8l-1.2,2.8h-1.6
		L152.1,284.4z"/>
</g>
<text transform="matrix(-1 0 0 -1 150.0571 284.3579)" fill="#010101" font-family="'TitlingGothicFBExtended-Bold'" font-size="5.6122">W</text>
<text transform="matrix(-1 0 0 -1 141.1001 284.3579)" fill="#010101" font-family="'TitlingGothicFBExtended-Bold'" font-size="5.6122">.</text>
<g>
	<path fill="#010101" d="M133,284.4h4.7v4.4h-4.6c-0.7,0-1.1-0.2-1.3-0.4c-0.2-0.2-0.3-0.5-0.3-0.7c0-0.3,0.1-0.5,0.2-0.6
		c0.1-0.2,0.3-0.3,0.6-0.3c-0.4,0-0.7-0.2-0.9-0.4c-0.1-0.2-0.2-0.4-0.2-0.6c0-0.3,0.1-0.6,0.2-0.8
		C131.8,284.5,132.3,284.4,133,284.4z M132.9,285.7c0,0.1,0,0.2,0.1,0.2c0.1,0.1,0.3,0.1,0.6,0.1h2.6v-0.7h-2.5
		c-0.4,0-0.6,0-0.7,0.1C132.9,285.6,132.9,285.7,132.9,285.7z M133.4,287.6c0.1,0.1,0.3,0.1,0.5,0.1h2.3v-0.6h-2.3
		c-0.2,0-0.4,0-0.5,0.1c-0.1,0.1-0.1,0.1-0.1,0.2S133.3,287.5,133.4,287.6z"/>
</g>
<g>
	<path fill="#010101" d="M129.5,284.3c0.6,0,1.3,0,1.4,0.1v1.2c-0.1,0-0.8,0-1.1,0c-0.6,0-0.9,0.4-0.9,0.8v2.4h-1.7v-2.6
		C127.2,285.1,128,284.3,129.5,284.3z"/>
</g>
<g>
	<path fill="#010101" d="M125.2,284.4h1.8l-3,4.4h-1.9l-2.8-4.4h1.8l0.4,0.7h3.2L125.2,284.4z M122.9,287.2l0.2,0.4l0.2-0.4l0.7-1.1
		h-1.9C122.2,286.1,122.9,287.2,122.9,287.2z"/>
</g>
<g>
	<path fill="#010101" d="M112.9,286.6c0.2-0.2,0.5-0.4,0.8-0.4l-1.6-1.8h1.8l1.4,1.6h1.8v-1.6h1.6v4.4h-4.2c-0.8,0-1.3-0.2-1.6-0.4
		c-0.2-0.2-0.3-0.5-0.3-0.9C112.6,287.1,112.7,286.8,112.9,286.6z M114.3,287.5c0.1,0.1,0.3,0.2,0.6,0.2h2.3v-0.7h-2.3
		c-0.3,0-0.5,0-0.5,0.2c0,0.1,0,0.1,0,0.2C114.2,287.4,114.2,287.4,114.3,287.5z"/>
</g>
<g>
	<path fill="#010101" d="M107,284.4l2.9,2.5v-2.5h1.6v4.4h-1.7l-2.8-2.5v2.5h-1.6v-4.4H107z"/>
</g>
<g>
	<path fill="#010101" d="M104.3,284.4v4.4h-5.4v-1.2h3.8v-0.5H99V286h3.7v-0.5h-3.8v-1.2H104.3z"/>
</g>
<g>
	<path fill="#010101" d="M92.4,284.4v2.3l1.3-2.3h1.4l1.3,2.3v-2.3h1.6v4.4h-2.1l-1.4-2.6l-1.5,2.6h-2v-4.4H92.4z"/>
</g>
<g>
	<path fill="#010101" d="M89.8,284.4v4.4h-5.4v-1.2h3.8v-0.5h-3.7V286h3.7v-0.5h-3.8v-1.2H89.8z"/>
</g>
<g>
	<path fill="#010101" d="M83.4,284.4v4.4h-1.7v-3.1h-3.2v-1.3H83.4z"/>
</g>
<g>
	<path fill="#010101" d="M73.1,284.4l0,0.5c0.4-0.3,1.1-0.5,2.2-0.5c1.1,0,2,0.3,2.6,0.9c0.3,0.3,0.5,0.8,0.5,1.4
		c0,0.5-0.2,0.9-0.5,1.3c-0.6,0.6-1.6,1-2.9,1c-1.6,0-2.6-0.5-3-1.3c-0.1-0.1-0.1-0.3-0.1-0.4h1.6c0,0.1,0.1,0.1,0.2,0.2
		c0.2,0.1,0.6,0.3,1.4,0.3s1.2-0.1,1.5-0.4c0.2-0.2,0.2-0.4,0.2-0.6c0-0.3-0.1-0.5-0.2-0.6c-0.3-0.3-0.8-0.4-1.5-0.4
		c-0.7,0-1.2,0.1-1.5,0.3c-0.1,0.1-0.2,0.2-0.3,0.2h2v0.9h-3.5c0,0,0-1,0-1.2c0-0.6,0-1.4,0-1.4H73.1z"/>
</g>
<g>
	<path fill="#010101" d="M69.6,284.4h1.8l-3,4.4h-1.9l-2.8-4.4h1.8L66,285h3.2L69.6,284.4z M67.3,287.2l0.2,0.4l0.2-0.4l0.7-1.1
		h-1.9C66.6,286.1,67.3,287.2,67.3,287.2z"/>
</g>
<g>
	<path fill="#010101" d="M62,284.4h1.8l-3,4.4h-1.9l-2.8-4.4h1.8l0.4,0.7h3.2L62,284.4z M59.7,287.2l0.2,0.4l0.2-0.4l0.7-1.1H59
		C59,286.1,59.7,287.2,59.7,287.2z"/>
</g>
<g>
	<path fill="#010101" d="M49.7,286.6c0.2-0.2,0.5-0.4,0.8-0.4l-1.6-1.8h1.8l1.4,1.6h1.8v-1.6h1.6v4.4h-4.2c-0.8,0-1.3-0.2-1.6-0.4
		c-0.2-0.2-0.3-0.5-0.3-0.9C49.4,287.1,49.5,286.8,49.7,286.6z M51,287.5c0.1,0.1,0.3,0.2,0.6,0.2h2.3v-0.7h-2.3
		c-0.3,0-0.5,0-0.5,0.2c0,0.1,0,0.1,0,0.2C51,287.4,51,287.4,51,287.5z"/>
</g>
<g>
	<path fill="#010101" d="M44.6,284.4l3.7,0l0.1,4.4l-3.7,0c-1.3,0-2.1-0.4-2.4-1c-0.2-0.3-0.2-0.7-0.3-1.1c0-0.4,0.1-0.8,0.2-1.2
		C42.5,284.9,43.2,284.5,44.6,284.4z M43.6,286.7c0,0.2,0,0.4,0.1,0.6c0.2,0.3,0.5,0.5,1.1,0.5l1.8,0l0-2.1l-1.8,0
		c-0.6,0-1,0.2-1.1,0.5C43.6,286.2,43.6,286.4,43.6,286.7z"/>
</g>
<text transform="matrix(-0.9999 1.211643e-02 -1.211643e-02 -0.9999 41.7267 284.4772)" fill="#010101" font-family="'TitlingGothicFBExtended-Bold'" font-size="5.6122">.</text>
<text transform="matrix(-0.9999 1.211643e-02 -1.211643e-02 -0.9999 39.0269 284.5109)" fill="#010101" font-family="'TitlingGothicFBExtended-Bold'" font-size="5.6122">C</text>
<g>
	<path fill="#010101" d="M25.3,288.9c-0.4-0.3-0.6-0.8-0.7-1.4c-0.1-0.6,0.1-1.1,0.4-1.5c0.5-0.6,1.5-1,2.9-1.1
		c1.3-0.1,2.4,0.1,3,0.6c0.4,0.3,0.7,0.8,0.7,1.4c0,0.5-0.1,1-0.4,1.4c-0.6,0.7-1.5,1.1-2.9,1.2C27,289.6,25.9,289.4,25.3,288.9z
		 M26.3,287.3c0,0.5,0.6,1,2,0.9c1.3-0.1,1.8-0.7,1.8-1.2c0-0.6-0.6-1-1.9-0.9C26.7,286.2,26.2,286.8,26.3,287.3z"/>
</g>
<g>
	<path fill="#010101" d="M18.1,284.6l-0.3,2.2l1.6-2.1l1.4,0.2l1,2.4l0.3-2.2l1.6,0.2l-0.6,4.3l-2.1-0.3l-1.1-2.8L18,289l-2-0.3
		l0.6-4.3L18.1,284.6z"/>
</g>
<path fill="#010101" d="M312.2,127.3c-1.5,8.8-5.2,18.7-3.3,28.6c0.9,4.7,1.5,9.3,2.4,14.3c1.2,7-0.1,15.4-1.5,21.1
	c-4.1,16.3-10,28.2-18.7,39.5c-13.6,17.4-33.2,27.9-58.1,34.1c-14.7,3.6-33,3.1-51,3.1h-75.3c-16.3,0-32.7,0.1-49,0.1h-5.9
	c-7.6,1.2-14.1-1.5-17-5.5c-2.6-3.6-2.5-10-1.3-15.1c2.7-11.4,3.9-23.5,6.5-35.2C45.9,178,52,143.8,58.1,109.7
	c1.4-7.9,2.8-15.7,4.1-23.6c1.5-7,1.8-13.4,5.4-18c2.2-2.8,5.7-4.8,9.8-5.7c1.6-0.2,3.2-0.3,4.8-0.5c41.3,0,82.7,0.1,124,0.1
	c11.2,0,22.5,0.1,33.7,0.1h4.6c4.1,0.3,8.2,0.6,12.4,0.9c20.9,3.7,36.1,10.1,46.2,24.4C309.4,96.4,315,111.3,312.2,127.3
	 M323.5,124.2c0.5-2.8,0.3-6.5-0.1-9.2c-0.6-3.6-0.4-6.8-1.2-10c-2.6-10.4-6.5-18.7-12-26c-8.8-11.6-21.9-19-37.6-23.7
	c-5.2-1.6-10.9-2.1-16.6-3.1c-5.3-0.9-10.8,0.1-16.5-0.8c-12.8,0-25.6-0.1-38.4-0.1c-43.8,0-88.2-0.2-131.6-0.2
	c-1.2,0.2-2.4,0.3-3.7,0.5c-3,0.8-5.9,2.2-7.5,4.4c-3.3,4.3-3.5,10.2-4.8,16.7c-1.5,8.8-3.1,17.6-4.6,26.4
	c-7.3,41.3-14.7,82.6-22,123.9c-2.7,12.2-3.7,25-6.8,36.5c-1.2,4.5-1.9,11.2,0.5,15c3,4.8,11.9,6,20.2,4.7c6.5-0.1,13-0.2,19.4-0.2
	h37.5h83.4c19.4,0,39.3,0.7,55.2-3.2c27.4-6.8,48.7-17.8,63.6-36.9c10.9-14,18-29.5,21.9-50.8c2.1-11.2,0.1-23.8-1.5-33.9
	c-1-6.4,1-14,2.1-19C322.6,131.4,323.1,127.8,323.5,124.2"/>
<path fill="#010101" d="M280.1,157.5c1.2,6.7,3.5,11.9,4.7,18.9c2.5,14.5-6.3,31.3-12,38.9c-9.1,12.1-22.4,19.9-39.4,24.2
	c-12.9,3.3-29.2,2.8-45.1,2.8h-65.1c-12.5,0-25,0.1-37.5,0.1c-8.9,0-16.3,0.3-20.3-4.8c-2.4-3.1-3.4-8.5-2.2-13.8
	c1.9-8.8,3.1-17.9,5.1-27c4.2-23.5,8.4-47.1,12.6-70.6c2.4-10.9,2.2-25.2,8.1-32.6c2.1-2.6,5.7-4.6,9.5-5.4c1.7-0.2,3.4-0.3,5.1-0.5
	c37.2,0,74.4,0.1,111.6,0.1c29.2,0,52.9-0.2,65.1,17c5.6,7.9,7.5,20.7,4,32.4C282.6,143,278.7,149.3,280.1,157.5 M206,76.4
	c-38.3,0-77.2-0.2-115.1-0.2c-1.1,0.2-2.3,0.3-3.4,0.5c-3.5,0.9-6.6,2.6-8.5,5.1c-5.5,7.1-6,25.6-8.4,36.3
	c-5.3,29.5-10.5,59-15.8,88.5c-2.2,9.9-3.4,20-5.7,29.3c-1.1,4.6-0.6,10,1.5,13c3,4.3,10.4,6.4,18.5,5.1c4.9-0.8,10.6-0.4,15.9-0.4
	h29.1h75c16.9,0,34.4,0.7,48.2-2.7c19.5-4.9,34.3-12.7,44.8-26.5c6-7.9,10.1-17.3,12.8-28.4c0.8-3.1,0.7-6.1,1.3-9.7
	c0.5-2.9,0.5-6.7,0-9.7c-1-6.1-2.4-11.2-3.4-17.1c-1.7-9.2,2.7-18.1,4.2-25.8c2.8-13.9-1.9-27.4-7.4-35.2
	C273.5,75.6,244.5,76.4,206,76.4"/>
<path fill="#010101" d="M258,137.7c-1.9,4.6-5.4,7.9-9.5,10.4c-5,3-10.9,4.6-12,11.5c-1.2,6.9,5.7,10.8,9.9,12.6
	c7.3,3.2,14.5,9.6,11.3,21.2c-0.7,2.6-1.9,5.2-3.2,7.3c-9.9,15.9-30.6,16.1-55.6,15h-60.3c-13.7,0-36.4,4.8-42.9-4.1
	c-2.4-3.3-3.2-8.8-2.1-14.3c1.6-8.7,3.1-17.4,4.7-26.2c2-11.3,4-22.6,6-33.9c2.1-8.8,2.5-16.3,8.8-20.7c5-3.5,14.7-4,22.9-2.7
	c2.4,0.1,4.9,0.2,7.3,0.4c20.1,0,40.2-0.1,60.3-0.1c7.3-0.3,14.7-0.6,22-0.9c15.3-0.2,28.2,1.6,32.6,12.4
	C259.7,129,259.4,134.3,258,137.7 M268.1,117.7c-9.1-15.3-30.1-15.6-54.7-15.6c-33.7,0-67.9-0.2-101.2-0.2c-1.2,0.2-2.4,0.3-3.5,0.5
	c-3.4,0.8-6.5,2.6-8.4,5c-4.7,6-4.5,16.3-6.5,25.2c-3.5,19.3-6.9,38.7-10.4,58c-0.7,3.8-1.3,7.6-2,11.4c-1.7,6.9-4.4,16.2,0.1,21.9
	c2.6,3.4,8.9,5.6,15.8,4.5c3-0.1,6-0.2,9.1-0.4c7.7,0,15.4-0.1,23.1-0.1H195c30.1,0,54.9-0.2,67.5-17.8c4.8-6.7,10.3-20.9,6-32.1
	c-2.4-6.1-7-9.8-8.2-17c-1-6,4.2-11.3,6.2-14.6C271.2,139,273.2,126.3,268.1,117.7"/>
<path fill="#010101" d="M157.6,152.4c5.2,0,10.5,0.1,15.7,0.1c5.2-0.9,11,0.4,15.8-0.4c4.1-0.7,10-0.4,10.8-4.2
	c0.6-2.9-3.2-3.8-5.2-4.4c-7.3-2-18-1.2-26.6-1.2c-1.9,0-3.8,0.1-5.8,0.1c-4.9,0-9.9,0.2-13.1,2c-1.7,1-3.6,2.9-1.9,5.2
	C149.3,152.3,153.5,151.8,157.6,152.4"/>
<path fill="#010101" d="M193.5,179.3c-4.4-0.8-9.6,0.2-14.5-0.6c-7.7,0-15.5-0.1-23.2-0.1c-1.9,0-3.8,0.1-5.8,0.1
	c-5.2,0.8-12.1,0.5-13.2,5.3c-1.5,6.3,9.4,5.5,14.3,6.2c5.4,0,10.8,0.1,16.3,0.1c8.2,0,17.4,0.6,24.8-0.7c4.1-0.7,9.4-1.1,10.1-5.1
	C202.9,180.8,196.6,179.9,193.5,179.3"/>
</svg>
