<?xml version="1.0" encoding="utf-8"?>
<!-- Generator: Adobe Illustrator 18.0.0, SVG Export Plug-In . SVG Version: 6.00 Build 0)  -->
<!DOCTYPE svg PUBLIC "-//W3C//DTD SVG 1.1//EN" "http://www.w3.org/Graphics/SVG/1.1/DTD/svg11.dtd">
<svg version="1.1" id="Layer_1" xmlns="http://www.w3.org/2000/svg" xmlns:xlink="http://www.w3.org/1999/xlink" x="0px" y="0px"
	 viewBox="0 0 486.7 609.7" enable-background="new 0 0 486.7 609.7" xml:space="preserve">
<g>
	<path fill="#010101" d="M66,165.5H6.9v-54.7h57.8c8.3,0,13.4,2,16.3,4.8c2.5,2.5,3.4,5.7,3.4,8.8s-0.8,6-2.3,8s-3.9,3.6-7,3.9
		c4.6,0.6,8.5,2.5,10.7,5.5c1.8,2,2.5,5,2.5,7.8c0,3.7-0.8,7.1-2.8,9.6C82,163.9,74.8,165.5,66,165.5z M62.1,125.2
		c-1.1-1-3.1-1.3-6.5-1.3H26.9v7.7h29.1c3.1,0,5.3-0.3,6.4-1.2c0.7-0.6,1-1.7,1-2.7S62.9,126,62.1,125.2z M67.4,148.2
		c0-1.1-0.3-1.9-1-2.5c-1.2-1.1-3.4-1.4-7.6-1.4H26.9v8.1h31.6c4.6,0,7-0.4,8.2-1.7C67.2,150.1,67.4,149.3,67.4,148.2z"/>
	<path fill="#010101" d="M110.5,166.3c-7.7,0-15.8-0.5-16.9-0.6v-15.3c1,0.1,10.2,0.2,13.7,0.2c7.8,0,10.9-4.8,10.9-9.7v-30h20.7
		v32.9C138.9,156.5,128.9,166.3,110.5,166.3z"/>
	<path fill="#010101" d="M163.8,165.5h-22l37-54.7h23.5l35.1,54.7h-22.5l-5.6-8.6h-39.6L163.8,165.5z M192.6,130.5l-2.8-4.7l-3,4.7
		l-9,13.4h23.5C201.4,143.9,192.6,130.5,192.6,130.5z"/>
	<path fill="#010101" d="M317.6,137.2c-2.1,2.6-5.7,5.1-10.5,5.6l20.1,22.7h-22.6l-17.4-20.1h-22.6v20.1H244v-54.7h52.3
		c9.9,0,16.5,2.1,20.2,5.4c2.8,2.5,4.2,5.9,4.2,10.6C320.7,130.9,319.5,134.8,317.6,137.2z M300.3,126.7c-1.3-1.8-3.4-2.3-6.9-2.3
		h-28.9v8.9h29.3c4,0,5.8-0.6,6.7-2c0.5-0.8,0.6-1.6,0.6-2.3C301,128.1,300.8,127.4,300.3,126.7z"/>
	<path fill="#010101" d="M390.4,165.5L354.7,134v31.5h-19.8v-54.7h21.2l34.9,30.7v-30.7h19.6v54.7H390.4z"/>
	<path fill="#010101" d="M424.4,165.5v-54.7h67.6v14.4h-47.3v6.1h46.1V145h-46.1v6.2h48v14.4H424.4z"/>
</g>
<g>
	<path fill="#010101" d="M64.6,55.9H0.2V1.2h63.7c9,0,14.2,2,17.1,5c2.5,2.5,3.4,5.7,3.4,8.7c0,3.2-0.8,6-2.2,8
		c-1.7,2.3-4.2,3.8-7.4,4.1c5.1,0.8,9,2.9,10.9,6.6c1,1.8,1.5,4.1,1.5,6.7c0,3.9-0.8,6.9-2.5,9.1C80.8,54.5,73.1,55.9,64.6,55.9z
		 M51.4,16.1H25.9v5.5h25.6c4.1,0,5.5-0.7,5.5-2.7C57,16.9,56.2,16.1,51.4,16.1z M54.2,35.4H25.9v5.7h28.4c4.5,0,5.9-0.7,5.9-2.9
		C60.1,36,58.6,35.4,54.2,35.4z"/>
	<path fill="#010101" d="M107.4,56.7c-7.3,0-15.8-0.4-15.8-0.4V38.3c0,0,9.6-0.1,11.6-0.1c4.8,0,6.5-4,6.5-7.4V1.2h26.9V34
		C136.5,46.2,127.1,56.7,107.4,56.7z"/>
	<path fill="#010101" d="M165.3,55.9h-28.4l37.4-54.7h30.4l34.9,54.7h-29l-4.2-6.5h-36.8L165.3,55.9z M190.9,24.5l-2.5-4.1l-2.8,4.2
		L178.8,35h19L190.9,24.5z"/>
	<path fill="#010101" d="M322.7,28.6c-2.3,2.2-5.6,4.6-10,5L333,55.9h-28.9l-16.2-19h-17.3v19H244V1.2h57c10.2,0,16.8,1.8,20.9,4.8
		c3.4,2.7,4.9,6.3,4.9,11.5C326.7,21.9,325.2,26.2,322.7,28.6z M301.1,19c-0.9-2.2-3.4-2.4-5.8-2.4h-24.8v7.6h24.8
		c3.4,0,5.2-0.6,5.8-2.2c0.1-0.4,0.2-0.9,0.2-1.5C301.3,19.7,301.3,19.3,301.1,19z"/>
	<path fill="#010101" d="M392.2,55.9l-29.3-26.2v26.2h-25.4V1.2h27.2l27.7,24.6V1.2h25.4v54.7H392.2z"/>
	<path fill="#010101" d="M427.9,55.9V1.2h69.8v16.7H454v3h42.6v15.5H454v3.1h44.4v16.5H427.9z"/>
</g>
<g>
	<path fill="#010101" d="M67.2,274.2H13.6v-54.7h51.7c7.6,0,12.7,1.9,15.5,4.7c2.5,2.5,3.5,5.7,3.5,9c0,3-0.8,6-2.4,7.8
		c-1.4,1.8-3.6,3.4-6.7,3.8c4.1,0.4,8.1,2.1,10.6,4.3c2.5,2.2,3.5,6.2,3.5,9.4c0,3.5-0.8,7.4-3.1,10.1
		C83.2,272.3,76.5,274.2,67.2,274.2z M67.7,232.3c-1.6-1.4-4.1-1.7-7.1-1.7H27.7V241h33.4c2.9,0,5.7-0.3,7.1-1.5
		c0.9-0.8,1.3-2.5,1.3-3.7C69.4,234.5,68.9,233.3,67.7,232.3z M74.6,257.3c0-1.3-0.3-2.3-1.4-3.2c-1.6-1.4-4.2-2-9.1-2H27.7v11.1
		h36.1c5.4,0,8.3-0.8,9.9-2.7C74.5,259.7,74.6,258.6,74.6,257.3z"/>
	<path fill="#010101" d="M113.5,275c-8.1,0-15.8-0.6-18.1-0.9v-12c2,0.4,10.8,0.7,15.9,0.7c10.7,0,15.2-5.8,15.2-12.5v-30.7h14.6v33
		C141.1,266,130.6,275,113.5,275z"/>
	<path fill="#010101" d="M162.3,274.2h-15.5l36.6-54.7h16.4l35.4,54.7h-16.1l-7.1-11.2h-42.5L162.3,274.2z M194.2,234.8l-3.1-5.3
		l-3.2,5.3l-11,16.9h27.9C204.9,251.7,194.2,234.8,194.2,234.8z"/>
	<path fill="#010101" d="M312.2,244.6c-1.9,2.7-5.7,5.9-10.8,6.6l20,23H305l-18.6-21.4h-28.1v21.4h-14.4v-54.7h47.5
		c9.6,0,16.2,2.5,19.6,6c2.2,2.4,3.5,5.4,3.5,9.7C314.6,238.9,313.9,242.2,312.2,244.6z M299.4,233.3c-1.5-1.5-3.4-2.3-8-2.3h-33
		v10.5h33.9c4.5,0,6.3-0.7,7.3-2c0.8-1.2,1-2.2,1-3.2C300.6,235.2,300.3,234.2,299.4,233.3z"/>
	<path fill="#010101" d="M388.6,274.2l-42.2-38v38h-14.1v-54.7h15.1l42,38.2v-38.2h13.7v54.7H388.6z"/>
	<path fill="#010101" d="M420.9,274.2v-54.7h65.2v11.8h-50.9v9.7h49.7v11.4h-49.7v10h51.5v11.8H420.9z"/>
</g>
<g>
	<path fill="#010101" d="M69.1,383.8H19.4v-54.7h46.7c7.1,0,12.1,1.8,15,4.5c2.5,2.5,3.5,5.7,3.5,9.2c0,2.9-0.8,5.9-2.3,7.9
		c-1.3,1.8-3.4,3.5-6.2,3.9c4.7,0.3,8.9,2,11.3,4.5c2.2,2.2,3.3,5.8,3.3,9c0,3.3-0.7,6.8-2.5,9.3C85.2,381.7,78.7,383.8,69.1,383.8z
		 M72.8,339.6c-1.8-1.7-4.9-2.2-8.8-2.2H28.5V352h37.1c3.2,0,6.2-0.8,7.8-2.6c1-1.2,1.5-3.1,1.5-4.8
		C74.9,342.8,74.3,341.1,72.8,339.6z M81,367.4c0-1.7-0.5-3.1-1.8-4.3c-2-1.9-4.8-2.9-10.3-2.9H28.5v15.5h40.1
		c6.1,0,9.3-1.3,11.3-3.9C80.8,370.6,81,369.1,81,367.4z"/>
	<path fill="#010101" d="M116.2,384.6c-8.5,0-15.8-0.6-19-1.2v-8.9c2.9,0.6,11.3,1.1,17.8,1.1c13.2,0,18.8-6.4,18.8-15.2v-31.3h9.4
		v33.2C143.1,376.6,132.1,384.6,116.2,384.6z"/>
	<path fill="#010101" d="M161,383.8h-10l36.3-54.7h10.5l35.6,54.7h-10.4l-8.9-13.2h-44.1L161,383.8z M195.6,341.8l-3.4-5.4l-3.4,5.4
		l-14,20.5h34.5L195.6,341.8z"/>
	<path fill="#010101" d="M307.6,353.1c-2,3.2-5.8,6.1-11.3,6.7l20.3,24.1h-11l-19.1-22.9h-33v22.9h-9.3v-54.7h44.4
		c9.4,0,15.3,2.6,18.4,6.4c1.8,2.3,2.7,5.1,2.7,8.9C309.6,347.9,309,350.9,307.6,353.1z M299.2,341.1c-1.8-2.3-4.8-3.6-9.5-3.6
		h-36.2v15h36.5c5.3,0,8.1-1.1,9.5-3.3c0.8-1.3,1.1-2.7,1.1-4.1C300.4,343.6,300.1,342.3,299.2,341.1z"/>
	<path fill="#010101" d="M386.9,383.8l-47.7-43.1v43.1h-9.2v-54.7h10.1l47.7,42.9v-42.9h8.8v54.7H386.9z"/>
	<path fill="#010101" d="M417.6,383.8v-54.7h63.3v8.6h-54.1v14.3h52.9v8.3h-52.9v14.8h54.7v8.6H417.6z"/>
</g>
<g>
	<path fill="#010101" d="M22.9,493.5v-54.7h43.7c12.7,0,18.1,5.5,18.1,13.8c0,5.6-2.5,10.9-8.2,11.9c8.7,0.6,14.7,5,14.7,13.4
		c0,10.3-5.8,15.6-20.9,15.6H22.9z M66.1,444.4H29v18.3h39.3c5.7,0,9.9-2.8,9.9-9.2C78.1,448.2,74.5,444.4,66.1,444.4z M70.9,468.5
		H29v19.3h41.5c9.7,0,14.3-2.8,14.3-10.4C84.7,472.2,80.8,468.5,70.9,468.5z"/>
	<path fill="#010101" d="M117.8,494.2c-8.6,0-15.8-0.7-19.6-1.4v-6.2c3.4,0.8,11.6,1.5,18.8,1.5c14.6,0,21-7,21-17.5v-31.9h6.3v33.3
		C144.3,487,133.1,494.2,117.8,494.2z"/>
	<path fill="#010101" d="M160.7,493.5h-7.1l36.1-54.7h7l35.7,54.7h-7.1l-10-15h-44.8L160.7,493.5z M196.3,449.1l-3.4-5.5l-3.4,5.5
		l-15.8,23.7H212L196.3,449.1z"/>
	<path fill="#010101" d="M293.1,468.5l20.4,25h-7.8l-19.5-24.2h-35.8v24.2h-6.2v-54.7h42.5c14.1,0,19.9,6.1,19.9,15
		C306.6,461,303.2,466.9,293.1,468.5z M286.1,444.4h-35.7v19.3h38c8.5,0,11.8-3.7,11.8-9.7C300.3,448,295.9,444.4,286.1,444.4z"/>
	<path fill="#010101" d="M386,493.5l-51-46.8v46.8h-6.2v-54.7h7.1l51.2,47v-47h5.9v54.7H386z"/>
	<path fill="#010101" d="M415.7,493.5v-54.7h62v5.8h-55.9v18.3h54.7v5.7h-54.7v19h56.6v5.9H415.7z"/>
</g>
<g>
	<path fill="#010101" d="M27.4,603.1v-54.7h39.8c12.7,0,17.6,5.5,17.6,13.2c0,7.8-3.6,11.6-7.7,12.7c9.9,0.6,15,6,15,14.3
		c0,9.4-5.8,14.5-19.9,14.5H27.4z M68.9,550.6H29.6v23.7h42.2c6.6,0,10.7-5.1,10.7-12.3C82.5,556.8,79.1,550.6,68.9,550.6z
		 M74.2,576.2H29.6V601h44.2c10.7,0,16-4.2,16-12.4C89.8,581.3,84.9,576.2,74.2,576.2z"/>
	<path fill="#010101" d="M120,603.9c-8.9,0-15.8-0.8-20.4-1.8V600c4.1,1,12,1.9,20.3,1.9c16.6,0,23.8-7.8,23.8-20.7v-32.7h2.2v33.5
		C145.9,597.8,134.4,603.9,120,603.9z"/>
	<path fill="#010101" d="M159.6,603.1H157l35.8-54.7h2.4l35.8,54.7h-2.5l-11.5-17.5H171L159.6,603.1z M197.7,555.5l-3.6-5.7
		l-3.6,5.7l-18.1,28.1h43.5L197.7,555.5z"/>
	<path fill="#010101" d="M289.2,576.8l20.7,26.3h-3.4l-20.1-26h-39.8v26h-2.2v-54.7h41.4c13.2,0,17,6.4,17,14.5
		C302.8,571.2,298.1,576.5,289.2,576.8z M284.9,550.6h-38.3v24.4h40.1c9,0,13.5-3.9,13.5-12C300.3,554.9,296.6,550.6,284.9,550.6z"
		/>
	<path fill="#010101" d="M384.8,603.1l-55.3-52.6v52.6h-2.2v-54.7h3.2l55.7,52.9v-52.9h2v54.7H384.8z"/>
	<path fill="#010101" d="M413.3,603.1v-54.7h60.6v1.9h-58.5v23.9h57.2v1.9h-57.2v25h59.1v2H413.3z"/>
</g>
</svg>
