<?xml version="1.0" encoding="utf-8"?>
<!-- Generator: Adobe Illustrator 17.1.0, SVG Export Plug-In . SVG Version: 6.00 Build 0)  -->
<!DOCTYPE svg PUBLIC "-//W3C//DTD SVG 1.1//EN" "http://www.w3.org/Graphics/SVG/1.1/DTD/svg11.dtd">
<svg version="1.1" id="Layer_1" xmlns="http://www.w3.org/2000/svg" xmlns:xlink="http://www.w3.org/1999/xlink" x="0px" y="0px"
	 viewBox="0 0 375.8 123" enable-background="new 0 0 375.8 123" xml:space="preserve">
<g>
	<path fill="#010101" d="M52.1,41.5H7.3L0,0h43.8c6.3,0,10.5,1.5,13,3.7c2.2,1.9,3.4,4.3,3.8,6.7c0.4,2.4,0.2,4.5-0.7,6.1
		c-0.9,1.5-2.5,2.7-4.8,3c3.6,0.4,6.8,1.9,8.9,4.2c1.6,1.5,2.6,3.8,3,5.9c0.5,2.8,0.3,5.4-0.8,7.3C64.1,40.2,58.8,41.5,52.1,41.5z
		 M43.8,10.9c-1-0.7-2.6-1-5.1-1H16.9l1,5.8h22c2.3,0,4-0.2,4.7-0.9c0.4-0.5,0.5-1.3,0.4-2.1C44.9,12.1,44.5,11.5,43.8,10.9z
		 M50.9,28.4c-0.1-0.8-0.5-1.4-1.1-1.9c-1-0.8-2.7-1.1-6-1.1H19.6l1.1,6.2h24c3.5,0,5.3-0.3,6-1.3C51,29.8,51,29.1,50.9,28.4z"/>
	<path fill="#010101" d="M86,42c-5.8,0-12-0.4-12.9-0.5l-2-11.6c0.8,0.1,7.7,0.2,10.4,0.2c5.9,0,7.6-3.7,6.9-7.4L84.4,0h15.7l4.4,25
		C106.2,34.6,100,42,86,42z"/>
	<path fill="#010101" d="M126.4,41.5h-16.7L130.5,0h17.8l34,41.5h-17.1l-5.4-6.5h-30.1L126.4,41.5z M143.6,14.9l-2.8-3.6l-1.7,3.6
		l-5,10.1h17.8C152,25.1,143.6,14.9,143.6,14.9z"/>
	<path fill="#010101" d="M239.2,20c-1.2,2-3.7,3.9-7.2,4.2l18.3,17.2h-17.2l-15.9-15.2h-17.2l2.7,15.2h-15.6L179.9,0h39.7
		c7.5,0,12.8,1.6,16.1,4.1c2.5,1.9,4,4.5,4.6,8.1C240.8,15.2,240.4,18.2,239.2,20z M224.8,12.1c-1.2-1.4-2.9-1.8-5.6-1.8h-21.9
		l1.2,6.7h22.2c3,0,4.3-0.4,4.8-1.5c0.3-0.6,0.2-1.2,0.1-1.8C225.4,13.1,225.2,12.5,224.8,12.1z"/>
	<path fill="#010101" d="M298.2,41.5l-31.3-23.9l4.2,23.9h-15L248.8,0h16.1l30.6,23.3L291.3,0h14.9l7.3,41.5H298.2z"/>
	<path fill="#010101" d="M324,41.5L316.7,0H368l1.9,10.9H334l0.8,4.6h35l1.8,10.4h-35l0.8,4.7h36.4l1.9,10.9H324z"/>
</g>
<g>
	<polygon fill="#010101" points="140,70.3 117.7,47 101.6,47 94.3,88.5 109.3,88.5 113.5,64.6 136.4,88.5 151.7,88.5 159,47 
		144.1,47 	"/>
	<polygon fill="#010101" points="217.1,47 196.9,64 182.6,47 164.2,47 187,74.9 184.6,88.5 200.1,88.5 202.5,74.8 235.1,47 	"/>
	<path fill="#010101" d="M245.9,63.9c2.9-3.8,9.2-5.8,17-5.8c8.2,0,12.7,2.3,14.1,4.6c0.4,0.6,0.7,1.3,0.7,1.9h16.4
		c0.1-1,0.2-3-0.4-4.9c-2-6.5-8.8-13.4-28.6-13.4c-15.6,0-25.9,4.4-31.8,10.9c-2.6,2.9-4.3,6.6-5,10.6c-0.7,4.2-0.2,8,1.4,11.1
		c3.1,5.7,10.7,9.6,23.8,10.2l-1.4,8.1h-16.3v11.1H250l-2.3,12.9l11.1,2l2.6-14.8h16.3V97.1h-14.3l1.5-8.3
		c13.3-1.2,21.4-5.5,25.8-12.4c1-1.5,1.9-4.1,2.4-5.4h-16.4c-0.1,0.5-0.4,1.2-0.9,1.6c-3,3.6-9,4.6-16.3,4.6c-6.7,0-13-1.6-14.9-5.7
		c-0.4-1.1-0.6-2.3-0.3-3.7C244.6,66.3,245.1,65,245.9,63.9z"/>
</g>
</svg>
