<?xml version="1.0" encoding="utf-8"?>
<!-- Generator: Adobe Illustrator 18.0.0, SVG Export Plug-In . SVG Version: 6.00 Build 0)  -->
<!DOCTYPE svg PUBLIC "-//W3C//DTD SVG 1.1//EN" "http://www.w3.org/Graphics/SVG/1.1/DTD/svg11.dtd">
<svg version="1.1" id="Layer_1" xmlns="http://www.w3.org/2000/svg" xmlns:xlink="http://www.w3.org/1999/xlink" x="0px" y="0px"
	 viewBox="0 0 361.1 272.7" enable-background="new 0 0 361.1 272.7" xml:space="preserve">
<g>
	<path fill="#010101" d="M83.3,43.5l-4.4,0l0-17.6l4.4,0c1.4,0,2.3,0.5,2.7,1.3c0.3,0.5,0.5,1.8,0.5,2.9c0,1.1-0.1,2.5-0.4,3.1
		c-0.2,0.7-0.6,1.1-1.4,1.3c0.8,0.1,1.3,0.5,1.6,1.1c0.4,0.6,0.4,2,0.4,3.1c0,1.3-0.2,2.9-0.5,3.5C85.7,43,84.9,43.5,83.3,43.5z
		 M83.3,38.3c0-0.5,0-1.5,0-1.9c0-0.5-0.3-0.6-0.5-0.6l-0.8,0l0,5.2l0.8,0c0.3,0,0.5-0.2,0.6-0.7C83.3,40,83.3,38.9,83.3,38.3z
		 M83.2,29.1c0-0.4-0.3-0.7-0.7-0.7l-0.6,0l0,5.1l0.8,0c0.2,0,0.5-0.2,0.5-0.6c0-0.3,0-1.1,0-2C83.3,30.2,83.2,29.4,83.2,29.1z"/>
</g>
<g>
	<path fill="#010101" d="M90.9,43.5c-0.7,0-0.6,0-1.2-0.1l0-2.9c0.4,0,0.6,0,0.9,0c0.6,0,0.8-0.5,0.8-1l0-13.7l3,0l0,14.3
		C94.5,42.7,93.5,43.5,90.9,43.5z"/>
</g>
<g>
	<path fill="#010101" d="M100.6,43.5l-3,0l1.9-17.6l4.4,0l1.6,17.6l-3.1,0c0,0-0.2-3.1-0.2-4.4c0,0-1.4,0-1.4,0
		C100.8,40.5,100.6,43.5,100.6,43.5z M101.8,31.6c0-1.2-0.2-3.6-0.2-3.6s-0.1,2.4-0.2,3.6c0,0.1-0.4,5.1-0.5,5.2l1.2,0
		C102.1,36.7,101.8,31.7,101.8,31.6z"/>
</g>
<g>
	<path fill="#010101" d="M115.7,34c-0.2,0.6-0.6,1.1-0.9,1.2l1.6,8.4l-3.1,0l-1.3-7.5l-0.3,0l0,7.5l-2.9,0l0-17.6l4.1,0
		c1.1,0,2.2,0.5,2.6,1.5c0.3,0.7,0.6,2,0.6,3.6C116.1,32.4,115.9,33.3,115.7,34z M112.9,29.6c0-0.5-0.2-0.8-0.6-0.8l-0.5,0
		c0,0,0,4.3,0,4.7c0,0,0.4,0,0.6,0c0.3,0,0.4-0.2,0.5-0.5c0.1-0.3,0.2-1.1,0.2-1.6C113,30.7,112.9,29.8,112.9,29.6z"/>
</g>
<g>
	<path fill="#010101" d="M124.1,43.6l-1.6-7.9l0,7.9l-2.8,0l0-17.6l2.7,0l1.7,7.8l0-7.8l2.8,0l0,17.6L124.1,43.6z"/>
</g>
<g>
	<path fill="#010101" d="M130.5,43.6l0.1-17.6l6.3,0l0,2.9l-3.2,0l0,4.4l2.9,0l0,2.8l-2.9,0l0,4.6l3.2,0l0,2.9L130.5,43.6z"/>
</g>
<g>
	<path fill="#010101" d="M151.4,43.7l0.1-10.6L150,43.7l-2.6,0L146.1,33l0,10.6l-2.8,0l0.1-17.6l4,0l1.4,10.7l1.5-10.7l3.9,0
		l-0.1,17.6L151.4,43.7z"/>
</g>
<g>
	<path fill="#010101" d="M157.8,43.7l0.1-17.6l6.3,0l0,2.9l-3.2,0l0,4.4l2.9,0l0,2.8l-2.9,0l0,4.6l3.2,0l0,2.9L157.8,43.7z"/>
</g>
<g>
	<path fill="#010101" d="M167.3,43.7l0.1-17.6l3.1,0l0,14.7l3.5,0l0,2.9L167.3,43.7z"/>
</g>
<g>
	<path fill="#010101" d="M182.2,43.8l-0.1-0.6c-0.3,0.4-1.1,0.7-1.9,0.7c-1.9,0-3.1-1-3.2-3c0-0.6-0.1-4.2-0.1-5.9
		c0-1.6,0-4.5,0.1-6c0.2-1.4,1.1-3,3.7-3c2.6,0,3.4,1.6,3.6,2.9c0,0.6,0,3.2,0,3.2l-3,0c0,0,0-1.4,0-2.4c0-0.7-0.2-0.9-0.6-0.9
		c-0.4,0-0.6,0.3-0.6,1c0,1.2,0,4,0,5.2c0,1.1,0,4.5,0,5.2c0,0.8,0.2,1.1,0.7,1.1c0.4,0,0.7-0.3,0.7-1.1c0-0.5,0-3.7,0-3.7l-0.9,0
		l0-2.7l3.8,0c0,0,0,4.8,0,6c0,2,0,3.9,0,3.9L182.2,43.8z"/>
</g>
<g>
	<path fill="#010101" d="M190.5,43.8l-3,0l2-17.6l4.4,0l1.6,17.6l-3.1,0c0,0-0.2-3.1-0.2-4.4c0,0-1.4,0-1.4,0
		C190.7,40.7,190.5,43.8,190.5,43.8z M191.7,31.9c0-1.2-0.2-3.6-0.2-3.6s-0.1,2.4-0.2,3.6c0,0.1-0.5,5.1-0.5,5.2l1.2,0
		C192,37,191.7,32,191.7,31.9z"/>
</g>
<g>
	<path fill="#010101" d="M201.2,43.8l-3,0l1.9-17.6l4.4,0l1.6,17.6l-3.1,0c0,0-0.2-3.1-0.2-4.4c0,0-1.4,0-1.4,0
		C201.4,40.7,201.2,43.8,201.2,43.8z M202.4,31.9c0-1.2-0.2-3.6-0.2-3.6s-0.1,2.4-0.2,3.6c0,0.1-0.4,5.1-0.4,5.2l1.2,0
		C202.8,37,202.4,32,202.4,31.9z"/>
</g>
<g>
	<path fill="#010101" d="M216.3,34.3c-0.2,0.6-0.6,1.1-0.9,1.2l1.6,8.4l-3.1,0l-1.3-7.5l-0.3,0l0,7.5l-2.9,0l0-17.6l4.1,0
		c1.1,0,2.2,0.5,2.6,1.5c0.3,0.7,0.6,2,0.6,3.6C216.7,32.7,216.5,33.6,216.3,34.3z M213.5,29.9c0-0.5-0.2-0.8-0.6-0.8l-0.5,0
		c0,0,0,4.3,0,4.7c0,0,0.4,0,0.6,0c0.3,0,0.4-0.2,0.5-0.5c0.1-0.3,0.2-1.1,0.2-1.7C213.6,31,213.5,30.1,213.5,29.9z"/>
</g>
<g>
	<path fill="#010101" d="M224.2,43.9l-3.9,0l0-17.6l3.5,0c1.6,0,2.6,0.5,3.1,1.5c0.6,0.9,0.7,4.3,0.7,6.9c0,3.6,0,6.6-0.7,7.7
		C226.4,43.2,225.8,43.9,224.2,43.9z M224.6,34.6c0-0.6,0-4.2-0.1-4.8c0-0.7-0.3-1.1-0.7-1.1h-0.5l0,12.7h0.7c0.3,0,0.6-0.3,0.6-0.9
		C224.6,39.9,224.6,35.2,224.6,34.6z"/>
</g>
<g>
	<path fill="#010101" d="M234.6,35.9c0-1.7,1.4-3.1,3-3.1c1.6,0,3,1.4,2.9,3.2c0,1.7-1.4,3.1-3,3.1C236,39,234.6,37.5,234.6,35.9z"
		/>
</g>
<g>
	<path fill="#010101" d="M252.1,44.3l-4.4-0.2l0.9-17.6l4.4,0.2c1.4,0.1,2.3,0.6,2.6,1.5c0.3,0.5,0.4,1.8,0.3,2.9
		c-0.1,1.1-0.2,2.5-0.5,3.1c-0.3,0.7-0.7,1.1-1.5,1.2c0.8,0.2,1.3,0.6,1.5,1.2c0.3,0.6,0.3,2,0.3,3.1c-0.1,1.3-0.3,2.9-0.7,3.4
		C254.5,43.9,253.7,44.4,252.1,44.3z M252.3,39.1c0-0.5,0.1-1.5,0-1.9c0-0.5-0.2-0.7-0.5-0.7l-0.8,0l-0.3,5.2l0.8,0
		c0.3,0,0.5-0.2,0.6-0.6C252.3,40.8,252.3,39.7,252.3,39.1z M252.7,29.9c0-0.4-0.2-0.7-0.6-0.7l-0.6,0l-0.3,5.1l0.8,0
		c0.2,0,0.5-0.1,0.5-0.6c0-0.3,0.1-1.1,0.1-2C252.7,31,252.7,30.2,252.7,29.9z"/>
</g>
<g>
	<path fill="#010101" d="M259.7,44.8c-0.7-0.1-0.6-0.1-1.2-0.2l0.3-2.8c0.3,0.1,0.6,0.1,0.9,0.1c0.6,0,0.8-0.4,0.9-0.9l1.3-13.6
		l3,0.3l-1.3,14.2C263.4,44.3,262.2,45.1,259.7,44.8z"/>
</g>
<g>
	<path fill="#010101" d="M269.3,46l-3-0.5l4.9-17l4.4,0.8l-1.4,17.6l-3-0.5c0,0,0.3-3.1,0.5-4.4c0,0-1.3-0.2-1.4-0.2
		C270,43,269.3,46,269.3,46z M272.5,34.5c0.2-1.2,0.4-3.6,0.4-3.6s-0.5,2.4-0.8,3.5c0,0.1-1.3,4.9-1.3,5l1.1,0.2
		C272,39.5,272.5,34.6,272.5,34.5z"/>
</g>
<g>
	<path fill="#010101" d="M286.7,40.4c-0.4,0.5-0.9,0.9-1.2,0.9l-0.9,8.5l-2.9-0.9l0.9-7.5l-0.3-0.1l-2.2,7.1l-2.8-0.9l5.2-16.8
		l3.9,1.2c1.1,0.3,2,1.1,2.1,2.2c0.1,0.8,0,2.1-0.5,3.6C287.5,39,287.1,39.9,286.7,40.4z M285.3,35.5c0.1-0.5,0-0.9-0.4-1l-0.5-0.2
		c0,0-1.3,4.1-1.4,4.5c0,0,0.4,0.1,0.6,0.2c0.3,0,0.5-0.1,0.6-0.3c0.2-0.3,0.5-1,0.6-1.5C285.1,36.5,285.3,35.7,285.3,35.5z"/>
</g>
<g>
	<path fill="#010101" d="M291.5,53.3l2.3-7.7l-3.8,6.9l-2.5-1.3l8.4-15.4l2.4,1.3l-2.2,7.6l3.7-6.8l2.5,1.3l-8.4,15.4L291.5,53.3z"
		/>
</g>
<g>
	<path fill="#010101" d="M296.8,56.9L309,44.2l4.5,4.3l-2,2.1l-2.3-2.2l-3,3.2l2.1,2l-1.9,2l-2.1-2l-3.2,3.3l2.3,2.2l-2,2.1
		L296.8,56.9z"/>
</g>
<g>
	<path fill="#010101" d="M308,74.2l10.1-3.3l-10.5,2l-0.8-2.4l9.6-4.7l-10.1,3.4l-0.9-2.6l16.7-5.5l1.3,3.8l-9.7,4.7l10.6-1.9
		l1.2,3.7l-16.7,5.5L308,74.2z"/>
</g>
<g>
	<path fill="#010101" d="M309,80.5l17.6-0.4l0.1,6.3l-2.9,0.1l-0.1-3.2l-4.4,0.1l0.1,2.9l-2.8,0.1l-0.1-2.9l-4.6,0.1l0.1,3.2
		l-2.9,0.1L309,80.5z"/>
</g>
<g>
	<path fill="#010101" d="M308.8,90l17.3,3.2l-0.6,3.1L311,93.6l-0.6,3.4l-2.8-0.5L308.8,90z"/>
</g>
<g>
	<path fill="#010101" d="M304.6,104.2l0.6,0.1c-0.3-0.5-0.2-1.3,0.1-2c0.7-1.7,2.2-2.5,4.1-1.8c0.5,0.2,3.9,1.6,5.4,2.2
		s4.2,1.8,5.4,2.5c1.2,0.7,2.3,2.2,1.3,4.6c-1,2.4-2.8,2.5-4.1,2.1c-0.6-0.2-3-1.3-3-1.3l1.2-2.7c0,0,1.3,0.5,2.2,1
		c0.6,0.3,0.9,0.2,1.1-0.2c0.1-0.3,0-0.7-0.7-1c-1.1-0.5-3.7-1.6-4.7-2.1c-1-0.4-4.1-1.8-4.8-2c-0.7-0.3-1.1-0.3-1.3,0.1
		c-0.2,0.4,0,0.7,0.7,1c0.4,0.2,3.4,1.5,3.4,1.5l0.4-0.8l2.5,1.1l-1.5,3.5c0,0-4.4-1.9-5.5-2.4c-1.8-0.8-3.6-1.5-3.6-1.5
		L304.6,104.2z"/>
</g>
<g>
	<path fill="#010101" d="M300.3,111.3l1.8-2.4l13.1,11.9l-2.6,3.6l-15.2-9l1.8-2.5c0,0,2.6,1.6,3.7,2.4c0,0,0.8-1.1,0.8-1.1
		C302.7,113.3,300.3,111.3,300.3,111.3z M309.3,119.2c1,0.7,3.1,2,3.1,2s-1.9-1.5-2.8-2.3c-0.1-0.1-3.9-3.3-3.9-3.4l-0.7,0.9
		C304.9,116.5,309.2,119.2,309.3,119.2z"/>
</g>
<g>
	<path fill="#010101" d="M294.7,120.4l1.1-2.8l15.8,8l-1.6,4.2l-17-4.7l1.1-2.9c0,0,3,0.9,4.2,1.3c0,0,0.5-1.3,0.5-1.3
		C297.5,121.7,294.7,120.4,294.7,120.4z M305.4,125.8c1.1,0.4,3.5,1.1,3.5,1.1s-2.2-1-3.3-1.5c-0.1,0-4.6-2.2-4.7-2.2l-0.4,1.1
		C300.6,124.3,305.3,125.7,305.4,125.8z"/>
</g>
<g>
	<path fill="#010101" d="M304.2,132.7c-0.7-0.1-1.2-0.3-1.4-0.6l-7.7,3.7l-0.8-3l6.9-3.2l-0.1-0.3l-7.2,1.9l-0.7-2.9l17-4.4l1,4
		c0.3,1.1,0.1,2.3-0.8,2.9c-0.6,0.5-1.8,1.1-3.3,1.5C305.8,132.7,304.9,132.8,304.2,132.7z M307.7,128.9c0.4-0.2,0.7-0.4,0.6-0.8
		l-0.1-0.5c0,0-4.2,1.1-4.5,1.2c0,0,0.1,0.4,0.2,0.6c0.1,0.3,0.3,0.3,0.6,0.3c0.3,0,1.1-0.1,1.6-0.3
		C306.7,129.2,307.5,129,307.7,128.9z"/>
</g>
<g>
	<path fill="#010101" d="M298.8,142l-2.1-3.3l15-9.3l1.8,3c0.9,1.4,1,2.5,0.3,3.4c-0.5,1-3.3,2.8-5.5,4.2c-3.1,1.9-5.6,3.4-6.9,3.5
		C300.6,143.6,299.6,143.4,298.8,142z M306.9,137.5c0.5-0.3,3.5-2.2,4-2.6c0.6-0.4,0.7-0.8,0.5-1.2l-0.3-0.4l-10.8,6.7l0.4,0.6
		c0.2,0.3,0.5,0.3,1,0.1C302.4,140.3,306.4,137.8,306.9,137.5z"/>
</g>
<g>
	<path fill="#010101" d="M311.7,147.9c1.6-0.7,3.4,0.1,4,1.6c0.6,1.5-0.2,3.3-1.8,3.9c-1.6,0.6-3.4-0.1-4-1.6
		C309.3,150.3,310.1,148.5,311.7,147.9z"/>
</g>
<g>
	<path fill="#010101" d="M307.7,167.9l0-4.4l17.6,0.1l0,4.4c0,1.4-0.5,2.3-1.3,2.7c-0.5,0.3-1.8,0.5-2.9,0.4c-1.1,0-2.5-0.1-3.1-0.4
		c-0.7-0.2-1.1-0.6-1.2-1.4c-0.1,0.8-0.5,1.3-1.2,1.6c-0.6,0.4-2,0.4-3.1,0.4c-1.3,0-2.9-0.2-3.5-0.5
		C308.2,170.3,307.7,169.5,307.7,167.9z M312.9,167.9c0.5,0,1.5,0,1.9,0c0.5,0,0.6-0.3,0.6-0.5l0-0.8l-5.2,0l0,0.8
		c0,0.3,0.2,0.5,0.7,0.6C311.2,167.9,312.3,167.9,312.9,167.9z M322.1,167.9c0.4,0,0.7-0.3,0.7-0.7l0-0.6l-5.1,0l0,0.8
		c0,0.2,0.2,0.5,0.6,0.5c0.3,0,1.1,0,2,0C321.1,167.9,321.8,167.9,322.1,167.9z"/>
</g>
<g>
	<path fill="#010101" d="M306.9,175.5c0.1-0.7,0.1-0.6,0.3-1.1l2.8,0.6c-0.1,0.3-0.1,0.6-0.2,0.9c-0.1,0.6,0.3,0.9,0.8,1l13.4,2.7
		l-0.6,3l-14-2.8C307,179.2,306.4,177.9,306.9,175.5z"/>
</g>
<g>
	<path fill="#010101" d="M304.5,184.8l1-2.8l15.9,7.8l-1.5,4.2l-17.1-4.5l1-2.9c0,0,3,0.9,4.2,1.3c0,0,0.5-1.3,0.5-1.3
		C307.3,186.1,304.5,184.8,304.5,184.8z M315.2,190c1.1,0.4,3.5,1.1,3.5,1.1s-2.2-0.9-3.4-1.4c-0.1,0-4.6-2.1-4.7-2.2l-0.4,1.1
		C310.4,188.6,315.1,190,315.2,190z"/>
</g>
<g>
	<path fill="#010101" d="M306.4,203.2c-0.4-0.5-0.6-1-0.6-1.4l-8.1-2.7l1.5-2.7l7.1,2.5l0.2-0.3L300,195l1.5-2.6l15.3,8.7l-2,3.6
		c-0.6,1-1.5,1.7-2.6,1.6c-0.8-0.1-2-0.5-3.4-1.2C307.6,204.3,306.9,203.7,306.4,203.2z M311.6,202.9c0.4,0.2,0.8,0.2,1-0.1l0.3-0.5
		c0,0-3.8-2.1-4.1-2.3c0,0-0.2,0.4-0.3,0.5c-0.1,0.3,0,0.5,0.2,0.7c0.2,0.2,0.9,0.7,1.4,0.9C310.6,202.4,311.4,202.8,311.6,202.9z"
		/>
</g>
<g>
	<path fill="#010101" d="M292.8,205.1l7,4l-5.9-5.2l1.9-2.1l13.2,11.6l-1.8,2l-7-3.9l5.8,5.1l-1.9,2.1L291,207.1L292.8,205.1z"/>
</g>
<g>
	<path fill="#010101" d="M288.2,209.5l10.6,14.1l-5,3.8L292,225l2.6-1.9l-2.6-3.5l-2.3,1.8l-1.7-2.2l2.3-1.8l-2.8-3.7l-2.6,1.9
		l-1.7-2.3L288.2,209.5z"/>
</g>
<g>
	<path fill="#010101" d="M270,219.5l3.9,9.9l-2.6-10.4l2.4-0.9l5.2,9.4l-3.9-9.9l2.6-1l6.4,16.4l-3.8,1.5l-5.2-9.4l2.5,10.5
		l-3.6,1.4l-6.4-16.4L270,219.5z"/>
</g>
<g>
	<path fill="#010101" d="M263.9,221.3l4,17.1l-6.1,1.4l-0.7-2.9l3.1-0.7l-1-4.3l-2.9,0.7l-0.6-2.7l2.9-0.7l-1-4.5l-3.2,0.7l-0.7-2.8
		L263.9,221.3z"/>
</g>
<g>
	<path fill="#010101" d="M254.5,223.3l2.6,17.4l-3.1,0.5l-2.2-14.6l-3.4,0.5l-0.4-2.9L254.5,223.3z"/>
</g>
<g>
	<path fill="#010101" d="M239.8,225l0.2,0.6c0.3-0.5,1.1-0.8,1.8-0.9c1.9-0.2,3.2,0.7,3.5,2.7c0.1,0.6,0.5,4.2,0.6,5.8
		c0.1,1.6,0.4,4.5,0.4,6c0,1.4-0.8,3.1-3.4,3.3c-2.6,0.2-3.5-1.3-3.8-2.6c-0.1-0.6-0.3-3.2-0.3-3.2l3-0.3c0,0,0.1,1.4,0.2,2.4
		c0.1,0.7,0.3,0.9,0.7,0.9c0.4,0,0.6-0.3,0.5-1.1c-0.1-1.2-0.3-4-0.4-5.2c-0.1-1.1-0.4-4.5-0.5-5.2c-0.1-0.8-0.3-1.1-0.8-1.1
		c-0.4,0-0.6,0.3-0.6,1.1c0,0.5,0.3,3.7,0.3,3.7l0.9-0.1l0.2,2.7l-3.8,0.3c0,0-0.4-4.8-0.5-5.9c-0.2-2-0.4-3.9-0.4-3.9L239.8,225z"
		/>
</g>
<g>
	<path fill="#010101" d="M231.5,225.5l3-0.1l-1.1,17.7l-4.4,0.2l-2.4-17.5l3.1-0.1c0,0,0.3,3.1,0.4,4.4c0,0,1.4-0.1,1.4-0.1
		C231.4,228.6,231.5,225.5,231.5,225.5z M230.8,237.5c0.1,1.2,0.4,3.6,0.4,3.6s0-2.4,0-3.6c0-0.1,0.2-5.1,0.2-5.2l-1.2,0.1
		C230.2,232.4,230.8,237.4,230.8,237.5z"/>
</g>
<g>
	<path fill="#010101" d="M220.8,225.9l3-0.1l-1.6,17.6l-4.4,0.1l-2-17.6l3.1-0.1c0,0,0.3,3.1,0.3,4.4c0,0,1.4,0,1.4,0
		C220.6,229,220.8,225.9,220.8,225.9z M219.8,237.8c0.1,1.2,0.3,3.6,0.3,3.6s0.1-2.4,0.1-3.6c0-0.1,0.3-5.1,0.3-5.2l-1.2,0
		C219.3,232.7,219.8,237.7,219.8,237.8z"/>
</g>
<g>
	<path fill="#010101" d="M205.7,235.6c0.2-0.6,0.6-1.1,0.9-1.2L205,226l3.1,0l1.3,7.5l0.3,0l0-7.5l2.9,0l0.1,17.6l-4.1,0
		c-1.1,0-2.2-0.5-2.6-1.5c-0.3-0.7-0.6-2-0.6-3.6C205.3,237.2,205.5,236.3,205.7,235.6z M208.5,239.9c0,0.5,0.2,0.8,0.6,0.8l0.5,0
		c0,0,0-4.3,0-4.7c0,0-0.4,0-0.6,0c-0.3,0-0.4,0.2-0.5,0.5c-0.1,0.3-0.1,1.1-0.1,1.7C208.4,238.9,208.5,239.7,208.5,239.9z"/>
</g>
<g>
	<path fill="#010101" d="M197.8,226h3.9v17.6h-3.5c-1.6,0-2.6-0.5-3.1-1.5c-0.6-0.9-0.7-4.3-0.7-6.9c0-3.6,0-6.6,0.7-7.7
		C195.6,226.7,196.2,226,197.8,226z M197.4,235.2c0,0.6,0,4.2,0.1,4.8c0,0.7,0.3,1.1,0.7,1.1h0.5v-12.7H198c-0.3,0-0.6,0.3-0.6,0.9
		C197.4,229.9,197.4,234.7,197.4,235.2z"/>
</g>
<g>
	<path fill="#010101" d="M187.4,234c0,1.7-1.4,3.1-3,3.1c-1.6,0-3-1.4-3-3.1c0-1.7,1.3-3.1,3-3.1C186,230.9,187.4,232.3,187.4,234z"
		/>
</g>
<g>
	<path fill="#010101" d="M169.8,226h4.4v17.6h-4.4c-1.4,0-2.3-0.5-2.7-1.3c-0.3-0.5-0.5-1.8-0.5-2.9c0-1.1,0.1-2.5,0.4-3.1
		c0.2-0.7,0.6-1.1,1.4-1.3c-0.8-0.1-1.3-0.5-1.6-1.1c-0.4-0.6-0.4-2-0.4-3.1c0-1.3,0.2-2.9,0.5-3.5C167.5,226.5,168.3,226,169.8,226
		z M169.9,231.2c0,0.5,0,1.5,0,1.9c0,0.5,0.3,0.6,0.5,0.6h0.8v-5.2h-0.8c-0.3,0-0.5,0.2-0.6,0.7
		C169.9,229.5,169.9,230.7,169.9,231.2z M169.9,240.4c0,0.4,0.3,0.7,0.7,0.7h0.6V236h-0.8c-0.2,0-0.5,0.2-0.5,0.6c0,0.3,0,1.1,0,2
		C169.9,239.4,169.9,240.1,169.9,240.4z"/>
</g>
<g>
	<path fill="#010101" d="M162.2,226c0.7,0,0.6,0,1.2,0.1v2.9c-0.4,0-0.6,0-0.9,0c-0.6,0-0.8,0.5-0.8,1v13.7h-3v-14.3
		C158.6,226.9,159.7,226,162.2,226z"/>
</g>
<g>
	<path fill="#010101" d="M152.6,226h3l-1.9,17.6h-4.4l-1.6-17.6h3.1c0,0,0.2,3.1,0.2,4.4c0,0,1.4,0,1.4,0
		C152.3,229.1,152.6,226,152.6,226z M151.4,237.9c0,1.2,0.2,3.6,0.2,3.6s0.1-2.4,0.2-3.6c0-0.1,0.4-5.1,0.4-5.2H151
		C151,232.8,151.4,237.8,151.4,237.9z"/>
</g>
<g>
	<path fill="#010101" d="M137.4,235.6c0.2-0.6,0.6-1.1,0.9-1.2l-1.6-8.4h3.1l1.3,7.5h0.3V226h2.9v17.6h-4.1c-1.1,0-2.2-0.5-2.6-1.5
		c-0.3-0.7-0.6-2-0.6-3.6C137.1,237.2,137.2,236.3,137.4,235.6z M140.2,240c0,0.5,0.2,0.8,0.6,0.8h0.5c0,0,0-4.3,0-4.7
		c0,0-0.4,0-0.6,0c-0.3,0-0.4,0.2-0.5,0.5c-0.1,0.3-0.2,1.1-0.2,1.6C140.2,238.9,140.2,239.8,140.2,240z"/>
</g>
<g>
	<path fill="#010101" d="M129,226l1.7,7.9V226h2.8v17.6h-2.7l-1.7-7.8v7.8h-2.8V226H129z"/>
</g>
<g>
	<path fill="#010101" d="M122.6,226v17.6h-6.3v-2.9h3.2v-4.4h-2.9v-2.8h2.9v-4.6h-3.2V226H122.6z"/>
</g>
<g>
	<path fill="#010101" d="M101.7,226l0,10.6l1.4-10.6h2.6l1.4,10.6l0-10.6h2.8v17.6h-4l-1.4-10.7l-1.5,10.7h-3.9V226H101.7z"/>
</g>
<g>
	<path fill="#010101" d="M95.4,226.1l0.1,17.6l-6.3,0l0-2.9l3.2,0l0-4.4l-2.9,0l0-2.8l2.9,0l0-4.6l-3.2,0l0-2.9L95.4,226.1z"/>
</g>
<g>
	<path fill="#010101" d="M85.9,226.1l0.1,17.6l-3.1,0L82.7,229l-3.5,0l0-2.9L85.9,226.1z"/>
</g>
<g>
	<path fill="#010101" d="M71,226.2l0.1,0.6c0.3-0.4,1.1-0.7,1.9-0.7c1.9,0,3.2,1,3.2,3c0,0.6,0.1,4.2,0.1,5.9c0,1.6,0.1,4.5-0.1,6
		c-0.1,1.4-1.1,3-3.7,3c-2.6,0-3.4-1.6-3.6-2.9c0-0.6-0.1-3.2-0.1-3.2l3,0c0,0,0,1.4,0,2.4c0,0.7,0.2,0.9,0.6,0.9
		c0.4,0,0.6-0.3,0.6-1c0-1.2,0-4,0-5.2c0-1.1,0-4.5-0.1-5.2c0-0.8-0.2-1.1-0.7-1.1c-0.4,0-0.7,0.3-0.7,1.1c0,0.5,0,3.7,0,3.7l0.9,0
		l0,2.7l-3.8,0c0,0,0-4.8,0-6c0-2-0.1-3.9-0.1-3.9L71,226.2z"/>
</g>
<g>
	<path fill="#010101" d="M62.7,226.5l3-0.1L64.5,244l-4.4,0.2l-2.3-17.5l3.1-0.1c0,0,0.3,3.1,0.4,4.4c0,0,1.4-0.1,1.4-0.1
		C62.6,229.6,62.7,226.5,62.7,226.5z M62,238.4c0.1,1.2,0.3,3.6,0.3,3.6s0-2.4,0-3.6c0-0.1,0.2-5.1,0.2-5.2l-1.2,0
		C61.4,233.4,62,238.3,62,238.4z"/>
</g>
<g>
	<path fill="#010101" d="M52,227.1l3,0.1l-2.3,17.6l-4.4-0.1L47,227l3.1,0.1c0,0,0.1,3.1,0.1,4.4c0,0,1.4,0,1.4,0
		C51.7,230.2,52,227.1,52,227.1z M50.5,239c0,1.2,0.1,3.6,0.1,3.6s0.2-2.4,0.3-3.6c0-0.1,0.6-5.1,0.6-5.2l-1.2,0
		C50.3,233.9,50.5,238.9,50.5,239z"/>
</g>
<g>
	<path fill="#010101" d="M33.5,232c0.5-0.5,1-0.7,1.3-0.7l2.1-8.3l2.8,1.3l-1.9,7.3l0.3,0.1l3.1-6.8l2.7,1.2l-7.4,16l-3.7-1.7
		c-1-0.5-1.8-1.4-1.8-2.4c0-0.8,0.3-2,1-3.5C32.5,233.3,33,232.5,33.5,232z M34.2,237.1c-0.2,0.4-0.1,0.9,0.2,1l0.5,0.2
		c0,0,1.8-3.9,2-4.3c0,0-0.4-0.2-0.5-0.2c-0.3-0.1-0.5,0-0.6,0.2c-0.2,0.2-0.6,1-0.8,1.4C34.6,236.2,34.3,237,34.2,237.1z"/>
</g>
<g>
	<path fill="#010101" d="M32.6,217.1l1.7,3.6l-16,7.4l-1.5-3.2c-0.7-1.5-0.7-2.6,0.1-3.4c0.6-0.9,3.6-2.4,6-3.5
		c3.2-1.5,6-2.7,7.2-2.6C31.1,215.4,32,215.7,32.6,217.1z M24.1,220.7c-0.5,0.3-3.7,1.8-4.3,2.1c-0.6,0.3-0.8,0.7-0.7,1.1l0.2,0.5
		l11.5-5.4l-0.3-0.6c-0.1-0.3-0.5-0.4-1-0.2C28.9,218.4,24.7,220.4,24.1,220.7z"/>
</g>
<g>
	<path fill="#010101" d="M22.9,206.3c-1.7-0.2-3-1.7-2.9-3.3c0.2-1.6,1.7-2.8,3.4-2.7c1.7,0.2,3,1.6,2.9,3.2
		C26.2,205.2,24.6,206.4,22.9,206.3z"/>
</g>
<g>
	<path fill="#010101" d="M34,189.8l-1.1,4.3l-17.1-4.3l1.1-4.3c0.3-1.3,1-2.1,1.9-2.3c0.6-0.2,1.9,0,2.9,0.2
		c1.1,0.3,2.4,0.7,2.9,1.1c0.6,0.4,0.9,0.9,0.9,1.7c0.3-0.8,0.8-1.2,1.5-1.2c0.6-0.2,2.1,0.1,3.1,0.3c1.3,0.3,2.8,0.8,3.2,1.3
		C34.1,187.3,34.4,188.3,34,189.8z M20,186.4c-0.4-0.1-0.7,0.1-0.8,0.5l-0.1,0.6l4.9,1.2l0.2-0.8c0-0.2,0-0.5-0.5-0.6
		c-0.3-0.1-1.1-0.3-1.9-0.5C21,186.6,20.3,186.5,20,186.4z M29,188.5c-0.5-0.1-1.5-0.3-1.8-0.4c-0.5-0.1-0.7,0.1-0.7,0.4l-0.2,0.8
		l5,1.3l0.2-0.8c0.1-0.3,0-0.6-0.5-0.7C30.6,188.9,29.5,188.7,29,188.5z"/>
</g>
<g>
	<path fill="#010101" d="M35.4,182.3c-0.1,0.7-0.1,0.6-0.3,1.2l-2.8-0.5c0.1-0.3,0.1-0.6,0.2-0.9c0.1-0.6-0.3-0.9-0.8-0.9l-13.5-2.4
		l0.5-3l14,2.5C35.2,178.6,35.9,179.8,35.4,182.3z"/>
</g>
<g>
	<path fill="#010101" d="M37.1,172.8l-0.5,3l-17-5l0.8-4.4l17.6,1.5l-0.5,3c0,0-3.1-0.3-4.4-0.5c0,0-0.2,1.3-0.2,1.4
		C34.1,172,37.1,172.8,37.1,172.8z M25.6,169.5c-1.2-0.2-3.6-0.4-3.6-0.4s2.4,0.6,3.5,0.8c0.1,0,4.9,1.3,5,1.3l0.2-1.1
		C30.6,170.1,25.7,169.5,25.6,169.5z"/>
</g>
<g>
	<path fill="#010101" d="M30.3,156.2c0.6,0.3,1,0.8,1.1,1.1l8.5-0.1l-0.5,3l-7.6,0l-0.1,0.3l7.3,1.3l-0.5,2.9l-17.3-3.1l0.7-4
		c0.2-1.1,0.9-2.1,1.9-2.3c0.8-0.2,2.1-0.2,3.6,0C28.8,155.6,29.7,155.9,30.3,156.2z M25.5,158.2c-0.5,0-0.9,0.1-0.9,0.5l-0.1,0.5
		c0,0,4.2,0.8,4.6,0.8c0,0,0.1-0.4,0.1-0.6c0-0.3-0.2-0.5-0.4-0.6c-0.3-0.2-1.1-0.3-1.6-0.4C26.6,158.3,25.7,158.2,25.5,158.2z"/>
</g>
<g>
	<path fill="#010101" d="M41.2,149.6l-8.1,0.2l7.8,1.4l-0.5,2.8l-17.3-3.1l0.5-2.6l7.9-0.3l-7.6-1.4l0.5-2.8l17.3,3.1L41.2,149.6z"
		/>
</g>
<g>
	<path fill="#010101" d="M42.3,143.3L25,140.2l1.1-6.2l2.9,0.5l-0.6,3.2l4.3,0.8l0.5-2.9l2.7,0.5l-0.5,2.9l4.5,0.8l0.6-3.2l2.8,0.5
		L42.3,143.3z"/>
</g>
<g>
	<path fill="#010101" d="M46,122.7l-10.5-1.9l10.2,3.2l-0.5,2.5l-10.7-0.5l10.5,1.8l-0.5,2.7l-17.3-3.1l0.7-4l10.8,0.5l-10.2-3.4
		l0.7-3.9l17.3,3.1L46,122.7z"/>
</g>
<g>
	<path fill="#010101" d="M47.1,116.4l-17.3-3.1l1.1-6.2l2.9,0.5l-0.6,3.2l4.3,0.8l0.5-2.9l2.7,0.5l-0.5,2.9l4.5,0.8l0.6-3.2l2.8,0.5
		L47.1,116.4z"/>
</g>
<g>
	<path fill="#010101" d="M48.8,107l-17.3-3.1l0.6-3.1l14.5,2.6l0.6-3.4l2.8,0.5L48.8,107z"/>
</g>
<g>
	<path fill="#010101" d="M51.4,92.4l-0.6,0c0.4,0.4,0.5,1.2,0.4,2c-0.3,1.8-1.5,2.9-3.6,2.6c-0.6-0.1-4.2-0.6-5.8-0.9
		c-1.6-0.3-4.4-0.8-5.8-1.2c-1.3-0.4-2.8-1.6-2.3-4.1c0.5-2.6,2.2-3.1,3.5-3c0.6,0.1,3.2,0.5,3.2,0.5l-0.5,2.9c0,0-1.3-0.2-2.4-0.4
		c-0.7-0.1-1,0-1,0.4c-0.1,0.4,0.2,0.6,0.9,0.8c1.2,0.2,3.9,0.7,5.1,0.9c1.1,0.2,4.4,0.8,5.1,0.9c0.8,0.1,1.2,0,1.2-0.4
		c0.1-0.4-0.2-0.7-0.9-0.8c-0.5-0.1-3.7-0.7-3.7-0.7L44,92.8l-2.6-0.5l0.7-3.8c0,0,4.8,0.9,5.9,1c2,0.4,3.9,0.7,3.9,0.7L51.4,92.4z"
		/>
</g>
<g>
	<path fill="#010101" d="M53,84.3l-0.5,3l-17-4.9l0.8-4.4l17.6,1.4l-0.5,3c0,0-3.1-0.3-4.4-0.5c0,0-0.2,1.3-0.2,1.4
		C50,83.6,53,84.3,53,84.3z M41.4,81.1c-1.2-0.2-3.6-0.4-3.6-0.4s2.4,0.5,3.5,0.8c0.1,0,4.9,1.3,5,1.3l0.2-1.1
		C46.5,81.6,41.5,81.1,41.4,81.1z"/>
</g>
<g>
	<path fill="#010101" d="M54.6,73.7l-0.4,3L37,72.2l0.7-4.4l17.6,1l-0.5,3c0,0-3.1-0.3-4.4-0.4c0,0-0.2,1.3-0.2,1.4
		C51.5,73,54.6,73.7,54.6,73.7z M43,70.8c-1.2-0.1-3.6-0.3-3.6-0.3s2.4,0.5,3.6,0.7c0.1,0,5,1.2,5,1.2l0.2-1.2
		C48,71.2,43.1,70.8,43,70.8z"/>
</g>
<g>
	<path fill="#010101" d="M48.4,56.4c0.5,0.4,0.9,0.9,0.9,1.2l8.5,0.7L57,61.2l-7.5-0.7l-0.1,0.3l7.2,2l-0.8,2.8l-17-4.7l1.1-3.9
		c0.3-1.1,1.1-2,2.1-2.2c0.8-0.1,2.1,0,3.6,0.4C47,55.6,47.8,56,48.4,56.4z M43.4,57.9c-0.5-0.1-0.9,0-1,0.4l-0.1,0.5
		c0,0,4.2,1.1,4.5,1.2c0,0,0.1-0.4,0.1-0.6c0-0.3-0.1-0.5-0.3-0.6c-0.3-0.2-1-0.4-1.6-0.6C44.5,58.1,43.6,58,43.4,57.9z"/>
</g>
<g>
	<path fill="#010101" d="M61.2,51.9L59,55.2l-14.7-9.7l1.9-2.9c0.9-1.4,1.9-1.9,3-1.7c1.1,0,3.9,1.8,6.1,3.3c3,2,5.4,3.7,6,4.8
		C61.9,49.7,62.1,50.6,61.2,51.9z M53.8,46.5c-0.5-0.3-3.5-2.3-4-2.6c-0.6-0.4-1.1-0.3-1.3,0l-0.3,0.4l10.6,7l0.4-0.6
		c0.2-0.3,0.1-0.6-0.4-1C58.2,49.4,54.3,46.8,53.8,46.5z"/>
</g>
<g>
	<path fill="#010101" d="M67,37.9c-0.5-1.7,0.4-3.4,2-3.9c1.6-0.5,3.2,0.5,3.8,2.2c0.5,1.6-0.4,3.4-1.9,3.9
		C69.2,40.5,67.4,39.5,67,37.9z"/>
</g>
<g>
	<path fill="#010101" d="M153.2,110c-9.3,0-13.4-2.5-15.2-5.6c-0.4-0.7-0.6-1.3-0.7-2h8.8c0.1,0.3,0.4,0.7,0.7,1
		c0.8,0.8,3.3,1.3,7.2,1.3c5.4,0,6.4-0.5,6.4-1.5c0-1-0.8-1.2-5.3-1.5c-2-0.1-4.8-0.3-6.2-0.4c-9.1-0.5-11.4-2.9-11.4-6.2
		c0-3.9,5.3-7,15.1-7c8.6,0,12.6,2.4,14.3,4.9c0.5,0.8,0.9,1.7,1.1,2.5l-8.8,0c-0.1-0.3-0.2-0.5-0.6-0.9c-0.8-0.7-2.8-1.3-6.2-1.3
		c-4.9,0-6.3,0.4-6.3,1.4c0,0.9,0.9,1.1,6.2,1.5c2.4,0.2,6.6,0.5,7.4,0.5c6.7,0.5,9.2,2.5,9.2,6C168.8,107.7,163.6,110,153.2,110z"
		/>
	<path fill="#010101" d="M171.9,114h-3.6l11.8-25.8h3.7L171.9,114z"/>
	<path fill="#010101" d="M200.2,110c-9.3,0-13.4-2.5-15.2-5.6c-0.4-0.7-0.6-1.3-0.7-2h8.8c0.1,0.3,0.4,0.7,0.7,1
		c0.8,0.8,3.3,1.3,7.2,1.3c5.4,0,6.4-0.5,6.4-1.5c0-1-0.8-1.2-5.3-1.5c-2-0.1-4.8-0.3-6.2-0.4c-9.1-0.5-11.4-2.9-11.4-6.2
		c0-3.9,5.3-7,15.1-7c8.6,0,12.6,2.4,14.3,4.9c0.5,0.8,0.9,1.7,1.1,2.5l-8.8,0c-0.1-0.3-0.2-0.5-0.6-0.9c-0.8-0.7-2.8-1.3-6.2-1.3
		c-4.9,0-6.3,0.4-6.3,1.4c0,0.9,0.9,1.1,6.2,1.5c2.4,0.2,6.6,0.5,7.4,0.5c6.7,0.5,9.2,2.5,9.2,6C215.8,107.7,210.6,110,200.2,110z"
		/>
</g>
<g>
	<path fill="#010101" d="M123.9,173.1v-6c12.2-3,16.1-4,16.1-6.9c0-0.3,0-0.7,0-0.9c0-1.4-1.1-2.2-3.8-2.2c-2.1,0-3.2,0.8-3.6,2
		c-0.1,0.5-0.2,1.5-0.2,2.1h-8.3c0.1-1.4,0.2-2.5,0.5-3.3c0.9-3.5,4.4-6.4,12.4-6.4c9.7,0,12.1,3.5,12.1,6.7c0,0.2,0,0.8,0,1.2
		c0,3.6-3.5,6.4-9.7,7.7h10.8v5.9H123.9z"/>
	<path fill="#010101" d="M180.6,162.6c0,6.3-5.7,10.9-14.1,10.9c-8.9,0-14.1-4.4-14.1-10.9c0-6,5-10.9,14.1-10.9
		C175.4,151.6,180.6,156.3,180.6,162.6z M166.6,157.2c-3.8,0-5.7,2.2-5.7,5.3c0,3.6,2.2,5.4,5.7,5.4c3.5,0,5.6-1.7,5.6-5.4
		C172.2,159.4,170.3,157.2,166.6,157.2z"/>
	<path fill="#010101" d="M190,173.1v-13.5l-7,0.6V154c5.6-0.5,7.8-0.9,8.5-2.2h6.4v21.4H190z"/>
	<path fill="#010101" d="M217.2,173.5c-7.8,0-12.2-1.8-13.4-5.6c-0.2-0.7-0.3-1.1-0.4-1.9h8c0.3,1.6,1.4,2.5,4.8,2.5
		c3,0,4.6-1.1,4.6-2.7c0-0.2,0-0.1,0-0.3c0-1.6-1.4-2.7-4.6-2.7c-2.1,0-3.8,0.5-4.4,1.8h-7.7V152h24.2v5.6h-17l0,3
		c1.1-1.5,5.3-2,8-2c7.2,0,10.5,2.9,10.7,7.2c0,0.2,0,0.5,0,0.7C229.9,170.6,225.7,173.5,217.2,173.5z"/>
</g>
</svg>
