<?xml version="1.0" encoding="utf-8"?>
<!-- Generator: Adobe Illustrator 18.0.0, SVG Export Plug-In . SVG Version: 6.00 Build 0)  -->
<!DOCTYPE svg PUBLIC "-//W3C//DTD SVG 1.1//EN" "http://www.w3.org/Graphics/SVG/1.1/DTD/svg11.dtd">
<svg version="1.1" id="Layer_1" xmlns="http://www.w3.org/2000/svg" xmlns:xlink="http://www.w3.org/1999/xlink" x="0px" y="0px"
	 viewBox="0 0 462 543.4" enable-background="new 0 0 462 543.4" xml:space="preserve">
<g>
	<path fill="none" stroke="#5A5121" stroke-width="0.842" stroke-miterlimit="1.684" d="M-660.8-74.8l-2.9-13.5l-8.5,1.8l2.6,12.4
		c0.4,2-0.4,4.3-3.6,5c-1.4,0.3-5.2,1.1-5.6,1.1l1.3,6.3c0.5,0,3.8-0.5,7-1.2C-662.9-64.6-659.7-69.6-660.8-74.8z"/>
</g>
<g>
	<path fill="#010101" d="M66.7,186.9L60.8,224l-34.4-5.5l5.8-36.3c0.8-5.2,2.6-8.3,4.7-9.8c1.8-1.3,3.9-1.6,5.9-1.3
		c2,0.3,3.7,1.1,4.8,2.3c1.1,1.2,1.9,2.8,1.8,4.8c0.8-2.8,2.4-5.1,4.5-6.2c1.5-0.9,3.4-1.1,5.2-0.8c2.3,0.4,4.4,1.2,5.7,2.7
		C67.3,176.6,67.6,181.3,66.7,186.9z M41,185.3c-0.7,0.6-1.1,1.9-1.4,4l-2.9,18l4.8,0.8l2.9-18.3c0.3-1.9,0.4-3.4-0.1-4.1
		c-0.3-0.5-1-0.8-1.6-0.9C42,184.7,41.5,184.8,41,185.3z M56,184.3c-0.7-0.1-1.2,0-1.7,0.4c-0.8,0.6-1.2,2-1.6,4.7l-3.2,20.1
		l5.1,0.8l3.2-19.9c0.5-2.9,0.4-4.4-0.2-5.3C57.1,184.5,56.6,184.4,56,184.3z"/>
</g>
<g>
	<path fill="#010101" d="M76.7,160.3c-2,4.5-4.5,9-4.8,9.6l-8.8-4.1c0.3-0.5,2.8-5.8,3.7-7.8c2.1-4.5,0.1-7.6-2.7-8.9l-17.4-8
		l5.5-12l19,8.7C78.5,141.3,81.6,149.7,76.7,160.3z"/>
</g>
<g>
	<path fill="#010101" d="M92.3,130.1l-9.1,10.6L72,100.2l9.7-11.3l41,5.6l-9.3,10.9l-6.5-0.9l-16.4,19.2L92.3,130.1z M87.3,101.7
		l-3.4-0.6l1,3.4l2.8,9.9l9.7-11.3C97.3,103,87.3,101.7,87.3,101.7z"/>
</g>
<g>
	<path fill="#010101" d="M159.4,54c-0.4,2.1-1.6,4.6-4.1,6.3l18.2,6.5l-12.6,6.9L145,67.9l-12.6,6.9l6.2,11.2l-11.4,6.3l-16.8-30.5
		l29.2-16.1c5.5-3,9.8-3.9,12.9-3.2c2.3,0.5,4.1,2,5.6,4.6C159.2,49.5,159.8,52,159.4,54z M146.6,53.4c-1.3-0.6-2.6-0.2-4.6,0.8
		l-16.1,8.9l2.7,5l16.3-9c2.2-1.2,3.1-2.1,3.1-3.2c0-0.6-0.2-1.1-0.4-1.5C147.4,54,147,53.6,146.6,53.4z"/>
</g>
<g>
	<path fill="#010101" d="M213.7,60.1l-25.6-16.2l3.2,19.8l-12.5,2l-5.5-34.4l13.3-2.1l25,15.8l-3.1-19.3l12.3-2l5.5,34.4L213.7,60.1
		z"/>
</g>
<g>
	<path fill="#010101" d="M235.5,58.5l5.5-34.4l42.5,6.8L282,40l-29.7-4.7l-0.6,3.8l29,4.6l-1.4,8.6l-29-4.6l-0.6,3.9l30.1,4.8
		l-1.4,9L235.5,58.5z"/>
</g>
<text transform="matrix(0.9325 0.3611 -0.3611 0.9325 280.7173 67.4262)" fill="#010101" font-family="'TitlingGothicFBExtended-Bold'" font-size="44.5604"> </text>
<g>
	<path fill="#010101" d="M334.1,96.1L327,66.6l-11.5,16.4l-10.3-7.2l20-28.5l11,7.8l6.9,28.8l11.2-16l10.2,7.2l-20,28.5L334.1,96.1z
		"/>
</g>
<g>
	<path fill="#010101" d="M379,129.1l-9.3,6.7l-7.6-10.6l9.3-6.7l5.4-32.5l9,12.5l-3.1,20.1l20,3.4l8.8,12.2L379,129.1z"/>
</g>
<g>
	<path fill="#010101" d="M406.6,201.7c-7.5-1.2-13.4-7.7-17.6-22.1c-3.6-12.5-2.6-21.1,1.4-26.2c2-2.5,4.7-4.3,8.2-5.3
		c3.2-0.9,6.4-0.9,9.3,0.1c6.4,2.3,12.1,9,15.8,21.5c4.7,16,0.9,24-3.6,28.1c-1.4,1.2-2.9,1.9-3.7,2.2l-3.8-13.2
		c0.4-0.3,0.9-0.7,1.2-1.3c1.4-2,2.1-6.5,0.2-13.1c-1.8-6.2-4.8-10.6-8.4-11.5c-1-0.3-2.1-0.2-3.3,0.2c-1.2,0.3-2.1,0.9-2.8,1.6
		c-2.7,3-2.5,8.7-0.9,14.1c1.7,5.9,3.9,10.4,7.4,11.4c0.5,0.2,1.1,0.2,1.5,0.1l3.8,13.2C410.2,201.8,408,202,406.6,201.7z"/>
</g>
<g>
	<path fill="#010101" d="M312.9,370.5c13.3-7.7,21.2-7.5,26.2-4.6c1.1,0.6,1.9,1.3,2.7,2.3l-12.5,7.2c-0.4-0.4-1.1-0.7-1.8-0.9
		c-1.8-0.4-5.8,0.9-11.3,4.1c-7.7,4.4-8.7,6-7.9,7.5c0.8,1.4,2.1,1.2,8.8-2.1c3-1.5,7.1-3.6,9.1-4.6c13.3-6.7,18.7-5.2,21.4-0.6
		c3.2,5.5-1.8,14.3-15.7,22.3c-12.2,7.1-20,6.9-24.4,4.7c-1.5-0.8-2.7-1.7-3.6-2.7l12.5-7.3c0.3,0.4,0.7,0.6,1.6,0.8
		c1.8,0.4,5.1-0.5,9.9-3.3c7-4,8.6-5.7,7.8-7.1c-0.7-1.2-2.2-0.8-10,3c-3.6,1.8-9.7,4.7-11,5.4c-9.9,4.8-15.2,4-18-1
		C292.6,386.7,298.1,379.1,312.9,370.5z"/>
</g>
<g>
	<path fill="#010101" d="M261.3,389.9c15.1-2.9,22.4-0.1,26.3,4.3c0.8,0.9,1.3,1.9,1.8,3l-14.2,2.7c-0.3-0.5-0.8-1-1.5-1.4
		c-1.6-1-5.7-1.1-12,0.1c-8.8,1.7-10.2,2.9-9.9,4.5c0.3,1.6,1.6,1.8,9,0.9c3.3-0.4,7.8-1,10.1-1.3c14.8-2,19.4,1.2,20.4,6.4
		c1.2,6.3-6.4,12.9-22.2,15.9c-13.9,2.7-21.1,0-24.6-3.5c-1.1-1.2-2-2.5-2.5-3.7l14.2-2.8c0.2,0.5,0.5,0.8,1.2,1.3
		c1.5,0.9,5,1.2,10.5,0.2c8-1.5,10-2.5,9.7-4.2c-0.3-1.4-1.8-1.5-10.4-0.5c-4,0.5-10.7,1.3-12.1,1.5c-11,1.3-15.6-1.2-16.7-6.9
		C236.8,398.6,244.4,393.1,261.3,389.9z"/>
</g>
<g>
	<path fill="#010101" d="M231.6,386.7l6,0.2l-21,41.6l-6-0.2L231.6,386.7z"/>
</g>
<g>
	<path fill="#010101" d="M200.3,391l-4.3,21.9l11.5,1.3l-2,10c-9.1-0.9-12.9-1.1-14.4,0.9l-10.4-2l6.8-34.5L200.3,391z"/>
</g>
<g>
	<path fill="#010101" d="M158.7,377.2c11.6,5.4,16.9,11.1,16.2,17.6c-0.2,1.1-0.3,1.9-0.8,3.1l-12-5.6c0.7-2.6-0.4-4.8-5.4-7.1
		c-4.4-2.1-7.6-1.5-8.6,0.8c-0.2,0.3-0.1,0.2-0.2,0.4c-1.1,2.4,0.2,4.9,4.9,7.1c3.2,1.5,6,1.8,7.9,0.3l11.4,5.3l-8.8,19l-36.1-16.8
		l3.9-8.4l25.3,11.8l2.1-4.4c-2.7,1.4-9.3-0.7-13.3-2.6c-10.8-5-13.6-11.6-10.9-18.1c0.2-0.4,0.4-0.8,0.5-1
		C137.7,372.6,145.9,371.3,158.7,377.2z"/>
</g>
<g>
	<path fill="#010101" d="M325,146c-5.8-7.9,5.9-6.9,10.2-8.4c2.4,0,3.4,0.6,4.7,1.6C341.6,146.2,329.8,152.4,325,146 M338.5,205.7
		c0.1,1.9,0.2,3.8,0.3,5.6c1.1,4.3,2.1,8.5,3.2,12.8c0.8,4.3-0.7,8.7-1.4,12.1c-0.9,6-1.7,12-2.6,18c-0.2,7.5-0.4,15.1-0.5,22.6
		c-0.5,2.2-1.3,4.1-2.1,6c-1.3,2.8-2.8,5.3-4.4,8.4c-0.8,1.6-1.6,3.1-2.3,4.7c-1.4,2.5-2.8,4.9-4.3,7.4c-1.9,2.2-3.5,6.8-5.1,10.3
		c-2.1,4.8-6.1,10.9-10,14c-4.4,3.5-7.5,8.6-12.1,11.8c-2.3,1.3-4.7,2.7-7,4c-2.6,1.8-5.1,3.9-8.2,5.2c-3,1-6,2-9.1,3
		c-2.7,1.2-5.3,2.5-8,3.7c-3.5,1-7,2-10.4,3c-5.2,2.1-19.4,5-22,4.1c-3.7-1.3-7.8,0.3-11.9-0.7c-4-0.9-8.1-1.7-12.1-2.6
		c-29.1-9-51.7-26.6-66.4-52c-2.5-4.3-3.7-9.5-5.4-14.5c-2.6-7.9-3.9-16.2-5.6-25.3c-0.9-4.7-1.3-9.8,1.2-12.9
		c1.9-2.3,5.7-3.6,8.2-5.4c3.5-2.7,7-5.5,10.6-8.2c2.3-1.8,4.4-4.6,7.7-5.4c4.1-0.1,8.2-0.2,12.4-0.3c19.4-3.9,42.3-3.4,49.3-19.6
		c4.1-9.5-1.2-22.1-5.8-27.9c-2.3-3-6.8-4.7-8.5-8.1c-1.9-3.7,4.2-6.3,1.4-10.4c-2.3-3.4-9.4-2.1-11.4-5.9
		c-0.1-4.5,11.1-10.3,14.5-12.8c6.5-4.6,11.6-10.4,17.2-15.9c2.4-2.4,4.7-5.4,7.7-7c4.2-2.3,12.2-1.9,17-3.7c4.1,0,8.6,0.7,10.4,3
		c0.5,2.9-1.8,4.2-3,5.8c-3.8,4.7-9.9,8-13.2,12.8c-2.4,3.5-1.1,8.5,2.3,9.9c5,2.1,9.8-2,12.5-3.8c4.3-3.1,9.6-5.3,13.7-8.6
		c2.5-3,4.9-6,7.4-9.1c3.3-2.6,8.7-2.9,10.7,1.2c0,7.1-15.7,8.1-12.1,16.5c1.3,2.9,5.7,3.8,9.3,2.3c5-2,15-9.9,21.7-7.3
		c3,1.2,6.8,3.4,7.8,6.5c0.8,2.2,0.1,5.7,1.2,7.5c1.8,1.7,3.6,3.5,5.4,5.2c3.7,5.3,6.5,13.3,8.5,19.9c1,3.2,0.6,6.8,1.4,10.4
		C337.3,199.3,337.9,202.5,338.5,205.7 M147.1,219.9h1.1c0.1,0.1,0.3,0.3,0.4,0.4c0.2,2.5-7.9,9-10.4,9.9c-0.1,0-0.2-0.1-0.3-0.1
		c-0.1-0.3-0.3-0.6-0.4-1C140.2,224.5,142.7,222.7,147.1,219.9 M164,207.1c2.1-2.7,5.6-4.2,8.5-6.2c3.3-2.3,5.7-5.6,9.3-7.7
		c3.3-1.9,7.1-2,11-3.6c4.5-0.1,7.7,0.5,10.4,2.2c4,2.4,9.5,11.2,5.8,17.6c-5.7,9.7-18.1,9.7-30.5,12.9c-4.1,1.1-10.8,2.9-14.4,0.1
		C158.6,218.3,160.3,211.9,164,207.1 M170.2,155.6c7.4-9.7,14.1-14.4,24.6-21c3.2-2,6.6-4.5,10.2-6c1.5-0.5,3-0.9,4.5-1.4
		c0.9,0,1.7,0.1,2.2,0.4c0.4,0.2,0.5,0.4,0.7,0.8c-0.3,3.3-6.5,7.9-8.8,9.7c-4.1,3.2-8.2,6.3-12.4,9.5c-2,1.1-4,2.3-6,3.4
		c-1.7,1.5-3.5,3-5.2,4.5c-2,1.5-4.3,2.8-5.8,4.8c-2.8,4-3,7.3-8.4,8.9c-1.1,0.3-2.6,0.7-3.6,0c-0.4-0.2-0.5-0.4-0.7-0.8
		C161.6,163.8,167.8,158.7,170.2,155.6 M306.9,116c4.5-0.1,8.2,2.6,5.8,6.9c-2.8,4.9-8.1,7.3-14,3.8c-1.4-0.8-2.2-1.2-2.9-2.7
		C296.1,119.8,303.5,117.5,306.9,116 M342.8,152.5c3.4-2.4,8-6.6,9.3-11c3.5-11.4-9-14-17.6-15.5c-3.8-0.7-8.3,2-11.4,0.4
		c-3.2-1.4,1.1-11-0.1-13.3c-2.3-4.3-2.9-6.8-8.5-8.4c-1.1-0.1-2.3-0.2-3.4-0.3c-1,0.2-2,0.4-3,0.5c-2.4,1-5,1.7-7,3
		c-0.1,0-5.5,1.2-6.2,1.5c-2.8,1.1-6,3.1-9.9,3.8c-3.6,0.7-9.2-2.9-13.2-3.6c-1.4,0-2.8,0.1-4.3,0.1c-1.8,0-3.7-0.1-5.5-0.1
		c-2.4,0.3-4.8,0.5-7.1,0.8c-4.9,0.1-9.8,0.3-14.7,0.4c-6,1-10.8-1.9-16.7-0.7c-2.9,0.4-5.9,0.8-8.8,1.2c-3.4,0.9-6.8,1.8-10.2,2.7
		c-2.6,0.4-5.2,0.8-7.8,1.2c-3.8,1-6.8,2.9-10.3,4c-4.4,1.3-9.9,1.9-14.1,2.9c-4.1,1-7.3-1.5-11.4-0.7c-8.1,1.6-14.3,3.6-20.2,7.3
		c-4.4,2.8-7.1,7.4-11.1,10.6c-5.5,4.4-10.5,9.3-16.1,13.6c-4.9,3.7-10.4,6.9-12.5,13.5c-3.5,11.2,1.4,33.5,13.2,32.4
		c1.6-2.3-0.8-5.9-1.6-8.1c-2-5.5-3.6-13.5-0.7-19.2c3.9-7.6,12.1-13.2,18.5-18.4c4.8-3.9,10.2-10.4,16.1-12.9
		c4.4-1.9,7.3,4.7,13.7,1.1c6-3.3,10.1-8.4,16.3-11.7c2.3-1.2,5.1-3.1,8.2-2.2c1.6,3.1-2.7,4.5-4.8,5.4c-5.1,2.1-12.7,6.6-16.9,9.9
		c-2.7,2.6-5.4,5.2-8.1,7.8c-6.2,4.7-18.2,13.3-20.9,20.9c-2.8,7.9,7.1,9.7,1.8,18.1c-2.1,3.4-6,5.7-9.9,7.3c-2.4,1-5.3,1.5-6.9,3.4
		c0.2,3.8,6.5,4,5.2,8.4c-1.4,4.6-5.5,7.7-8.1,11.3c-4.4,6.2-8.5,12.6-11.9,19.6c-1.4,2.8-5,10.3-3.7,14.7c1.1,3.8,3.9,5.6,8,6.5
		c5.4,1.1,9.4-0.4,11.3,4.1c2.3,5.5,2.7,12.9,3.8,19.2c0.3,2.5,0.5,5,0.8,7.5c1.9,7,4.4,13.8,7.8,19.5c3.1,5.1,6.9,9.7,10.6,14.3
		c1.8,1.8,3.6,3.7,5.4,5.5c3.9,5.1,7.5,9.4,12.5,13.5c1.6,1.5,3.1,2.9,4.7,4.4c6.7,4.1,12.8,8.4,18.4,12.5c0.3-0.4,5.4,1.4,6,1.4
		c4,1.2,8.1,2.5,12.1,3.7c0.6-0.2,13,1.7,14.4,2.2c4.8,1.7,14.8,2.7,19.1,2.1c6-0.7,12.1-1.4,18.1-2.1c2.5-0.4,7.1,0.9,8.6,0.4
		c1.8-0.6,3.5-2.1,5.2-2.9c1.8-0.8,4.6-1.1,6.7-2.2c2.5-1.3,4.9-3.4,7.5-4.4c5.3-2,10.7-3.7,15-6.7c2.2-1.9,4.3-3.8,6.5-5.6
		c2.5-1.9,5.7-3.4,7.5-5.9c2.6-3.4,5.2-7.9,8-10.3c2.3-2,4.3-3.5,6.3-5.6c1.4-1.5,2.4-3.9,3.8-5.1c1.1-0.9,2.2-1.8,3.3-2.7
		c2.9-6.9,5.9-13.8,8.8-20.7c3.4-7.7,5.8-9.9,10.6-16.3c-0.2-0.3,0.7-2.8,0.7-2.9c-0.3-1.6-0.6-3.1-1-4.7c-0.5,0.8-1.5-4.8-1.9-6.6
		c-1.1-3.9-0.9-19.7,0.4-25.5c0.9-4.1,3.3-10.6,2.1-16.3c-0.5-4.3-1-8.5-1.5-12.8c-1.1-3.8-2.3-7.7-3.4-11.5
		c-0.1-1.9-0.3-3.8-0.4-5.6c-1.4-5.8-1.7-12.3-3.4-18.3c-1.8-4.9-3.7-9.8-5.5-14.7C336.3,156.1,340.1,154.4,342.8,152.5"/>
	<path fill="#010101" d="M316.5,204.5c-1.5,1.6-2.9,3.2-4.4,4.8c-5.2,3.6-22.6,9.1-29.5,4.3c-4.8-3.4-6.6-9.4-2.5-14.5
		c4.7-5.9,17.9-8,24.3-12.6c1.2-4.7-4.2-6.7-8.8-6.6c-2.1,0.4-4.2,0.8-6.3,1.2c-9.2,3.2-19.1,7.6-22.8,16.2
		c-6.3,14.6,9.7,22.8,17.6,27.7c3,1.9,7.5,4.8,13,3.8c8.9-1.5,20.8-5.7,26.1-10.8c2.6-2.5,4.7-7,1.8-10.8
		C323.8,205.5,319.4,202.7,316.5,204.5"/>
	<path fill="#010101" d="M224.4,289.9c7.2,4.9,19.5-10.8,7.1-10.6c-3.4,1.4-9.7,2.9-8.5,8.1C223.3,288.5,223.6,289.3,224.4,289.9"/>
	<path fill="#010101" d="M260.6,314.4c-1.2,1.8-5.1,0.7-6.2-0.4v-0.1c0.9-1.1,1.7-1,3.2-1.6c1.7,0,2.5,0.5,3.3,1.4
		C260.8,313.9,260.7,314.2,260.6,314.4 M227.7,333.5c-0.4-0.3-0.2,0-0.4-0.5c2.4-0.8,5.5-1.2,8.1-2.2c1,0,2.2-0.1,2.9,0.3
		c0.1,0,0.3,0.1,0.4,0.1c0,0.2,0.1,0.5,0.1,0.7C237,333.8,231.2,335.4,227.7,333.5 M254.7,299.7c-1.3,0.2-2.7,0.4-4,0.5
		c-5,1.2-10.9,1.4-16.7,2.3c-3,0.1-5.9,0.3-8.9,0.4c-11,2.1-20,6.8-30.5,9.9c-6.7,2-20.8,5.2-16.7,15.5c2,5.1,7,7.2,11.5,9.9
		c14.4,8.5,41.9,13.1,60.3,5.2c3.4-1.5,6.8-3.9,8.6-6.9c1.4-2.2,1.9-5.4,4-6.9c3.6-2.7,9.1-2.1,11.8-5.6c2.1-2.7,2-8.3,0.4-11.5
		C271.8,307,263.2,299.7,254.7,299.7"/>
</g>
<path fill="#010101" d="M394.3,393.1C438,349.5,462,291.5,462,229.8s-24-119.7-67.7-163.3C350.7,22.8,292.7-1.2,231-1.2
	s-119.7,24-163.3,67.7C24,110.1,0,168.1,0,229.8s24,119.7,67.7,163.3c40.5,40.5,93.5,64.1,150.2,67.3v31.2h-38.5v17h38.5v34.8h17
	v-34.8h38.5v-17h-38.5v-30.9C295.1,459.8,351.6,435.8,394.3,393.1z M17,229.8c0-57.2,22.3-110.9,62.7-151.3
	c40.4-40.4,94.2-62.7,151.3-62.7c57.2,0,110.9,22.3,151.3,62.7c40.4,40.4,62.7,94.2,62.7,151.3s-22.3,110.9-62.7,151.3
	c-40.4,40.4-94.2,62.7-151.3,62.7c-57.2,0-110.9-22.3-151.3-62.7C39.3,340.7,17,287,17,229.8z"/>
</svg>
