<?xml version="1.0" encoding="utf-8"?>
<!-- Generator: Adobe Illustrator 18.0.0, SVG Export Plug-In . SVG Version: 6.00 Build 0)  -->
<!DOCTYPE svg PUBLIC "-//W3C//DTD SVG 1.1//EN" "http://www.w3.org/Graphics/SVG/1.1/DTD/svg11.dtd">
<svg version="1.1" id="Layer_1" xmlns="http://www.w3.org/2000/svg" xmlns:xlink="http://www.w3.org/1999/xlink" x="0px" y="0px"
	 viewBox="250 1042 287.6 500" enable-background="new 250 1042 287.6 500" xml:space="preserve">
<g>
	<path fill="#010101" d="M1340.6,879.3c-7.5,0-6.8-0.3-12.8-1v-30.7c3.8,0.3,6.7,0.3,10.2,0c6.7-0.4,8.5-5.3,8.5-10.4V689.8h32.7
		V843C1379.1,870,1367.6,879.3,1340.6,879.3z"/>
	<path fill="#010101" d="M1414.9,879h-32.4l20.5-189.2h47.8l17.5,189.2h-32.8c0,0-2.1-33.1-2.6-47.5c0,0-14.6,0-14.9,0
		C1417.5,845.9,1414.9,879,1414.9,879z M1427.9,751c-0.4-12.8-2.1-39.1-2.1-39.1s-1.4,26-1.8,39.1c0,1.1-4.7,54.6-4.7,55.6h12.5
		C1431.7,805.8,1427.9,752.3,1427.9,751z"/>
	<path fill="#010101" d="M1547.8,775.9c-2.4,6.7-6.4,11.7-9.7,13.2l17.2,89.8h-32.8l-14.2-80.2h-3.6V879h-31.7V689.8h43.9
		c12.1,0,23.6,5.4,28.4,15.8c3.6,7.8,6.4,21.3,6.4,38.4C1551.8,759.2,1550.1,769.1,1547.8,775.9z M1517.7,729.3c-0.4-5-2.6-9-6.8-9
		h-5.7c0,0,0,46.3,0,50.3c0.4,0,4.7,0,6.4-0.3c3.1-0.4,4.5-2.6,5.3-5.3c1.1-3.3,1.7-12.1,1.7-17.8
		C1518.4,740.7,1518,731.4,1517.7,729.3z"/>
	<path fill="#010101" d="M1608.9,879l-17.8-84.9V879h-30.3V689.8h28.9l18.5,83.4v-83.4h30.3V879H1608.9L1608.9,879z"/>
	<path fill="#010101" d="M1648,879V689.8h67.4v31.7h-34.5v47.3h31.6v29.6H1681V848h34.8v31H1648z"/>
</g>
<path fill="#010101" d="M1328.4,910.4h-42.9v-27.4h-2.3c25.4-5.4,44.5-28.1,44.5-55.1c0-14.6-5.7-28-14.9-38.1
	c-2-4-5.4-7.1-10.2-8.8c-1-0.7-2-1.3-3-1.8c7-1.8,10.5-6.1,12.8-12.9c3.6-6.4,4.3-21,4.3-33.4c0-11.4-1.7-25-5-30.7
	c-4-9.1-13.9-14.1-28.6-14.1h-47.3v96.4c-12.6,10.2-20.8,26-20.8,43.6c0,27,19,49.6,44.5,55.1h-2.3v27.4h-41.5v28.3h41.5v41.6h28.3
	v-41.6h42.9V910.4z M1268.4,714.9h6.7c4,0,6.8,2.8,7.1,7.4c0.3,3.6,0.4,11.4,0.4,19.2c0,9.2,0,17.9-0.3,21.3
	c-0.3,5.3-3.6,6.8-5.4,6.8h-8.5V714.9z M1243.2,827.9c0-15.5,12.6-28.1,28.1-28.1c15.5,0,28.1,12.6,28.1,28.1
	c0,15.5-12.6,28.1-28.1,28.1C1255.9,856.1,1243.2,843.4,1243.2,827.9z"/>
<path d="M430.1,1323.5c61.8-16,107.4-72.2,107.4-138.9c0-79-64.3-143.4-143.4-143.4s-143.4,64.3-143.4,143.4
	c0,66.7,45.6,122.9,107.4,138.9v55.2h-98.5v71.9h98.5v87.9h71.9v-87.9h98.5v-71.9h-98.5V1323.5z M322.7,1184.6
	c0-39.3,32.2-71.5,71.5-71.5s71.5,32.2,71.5,71.5s-32.2,71.5-71.5,71.5S322.7,1224,322.7,1184.6z"/>
<g>
	<path fill="#010101" d="M1337.8,1233.2c-7.5,0-6.8-0.3-12.8-1v-30.7c3.8,0.3,6.7,0.3,10.2,0c6.7-0.4,8.5-5.3,8.5-10.4v-147.4h32.7
		V1197C1376.3,1224,1364.8,1233.2,1337.8,1233.2z"/>
	<path fill="#010101" d="M1412.1,1232.9h-32.4l20.5-189.2h47.8l17.5,189.2h-32.8c0,0-2.1-33.1-2.6-47.5c0,0-14.6,0-14.9,0
		C1414.6,1199.8,1412.1,1232.9,1412.1,1232.9z M1425,1105c-0.4-12.8-2.1-39.1-2.1-39.1s-1.4,26-1.8,39.1c0,1.1-4.7,54.6-4.7,55.6
		h12.5C1428.9,1159.8,1425,1106.3,1425,1105z"/>
	<path fill="#010101" d="M1545,1129.9c-2.4,6.7-6.4,11.7-9.7,13.2l17.2,89.8h-32.8l-14.2-80.2h-3.6v80.2h-31.7v-189.2h43.9
		c12.1,0,23.6,5.4,28.4,15.8c3.6,7.8,6.4,21.3,6.4,38.4C1549,1113.1,1547.3,1123.1,1545,1129.9z M1514.8,1083.3c-0.4-5-2.6-9-6.8-9
		h-5.7c0,0,0,46.3,0,50.3c0.4,0,4.7,0,6.4-0.3c3.1-0.4,4.5-2.6,5.3-5.3c1.1-3.3,1.7-12.1,1.7-17.8
		C1515.6,1094.7,1515.1,1085.4,1514.8,1083.3z"/>
	<path fill="#010101" d="M1606.1,1232.9l-17.8-84.9v84.9h-30.3v-189.2h28.9l18.5,83.4v-83.4h30.3v189.2L1606.1,1232.9L1606.1,1232.9
		z"/>
	<path fill="#010101" d="M1645.2,1232.9v-189.2h67.4v31.7H1678v47.3h31.6v29.6h-31.4v49.6h34.8v31H1645.2z"/>
</g>
<path fill="#010101" d="M1325.5,1264.4h-42.9v-27.4h-2.3c25.4-5.4,44.5-28.1,44.5-55.1c0-14.6-5.7-28-14.9-38.1
	c-2-4-5.4-7.1-10.2-8.8c-1-0.7-2-1.3-3-1.8c7-1.8,10.5-6.1,12.8-12.9c3.6-6.4,4.3-21,4.3-33.4c0-11.4-1.7-25-5-30.7
	c-4-9.1-13.9-14.1-28.6-14.1h-47.3v96.4c-12.6,10.2-20.8,26-20.8,43.6c0,27,19,49.6,44.5,55.1h-2.3v27.4h-41.5v28.3h41.5v41.6h28.3
	v-41.6h42.9V1264.4z M1265.6,1068.9h6.7c4,0,6.8,2.8,7.1,7.4c0.3,3.6,0.4,11.4,0.4,19.2c0,9.2,0,17.9-0.3,21.3
	c-0.3,5.3-3.6,6.8-5.4,6.8h-8.5V1068.9z M1240.4,1181.9c0-15.5,12.6-28.1,28.1-28.1s28.1,12.6,28.1,28.1s-12.6,28.1-28.1,28.1
	S1240.4,1197.4,1240.4,1181.9z"/>
</svg>
