<?xml version="1.0" encoding="utf-8"?>
<!-- Generator: Adobe Illustrator 18.0.0, SVG Export Plug-In . SVG Version: 6.00 Build 0)  -->
<!DOCTYPE svg PUBLIC "-//W3C//DTD SVG 1.1//EN" "http://www.w3.org/Graphics/SVG/1.1/DTD/svg11.dtd">
<svg version="1.1" id="Layer_1" xmlns="http://www.w3.org/2000/svg" xmlns:xlink="http://www.w3.org/1999/xlink" x="0px" y="0px"
	 viewBox="0 0 516.8 86.1" enable-background="new 0 0 516.8 86.1" xml:space="preserve">
<g>
	<path fill="none" stroke="#5A5121" stroke-width="0.842" stroke-miterlimit="1.684" d="M-634.5-74.8l-2.9-13.5l-8.5,1.8l2.6,12.4
		c0.4,2-0.4,4.3-3.6,5c-1.4,0.3-5.2,1.1-5.6,1.1l1.3,6.3c0.5,0,3.8-0.5,7-1.2C-636.6-64.6-633.4-69.6-634.5-74.8z"/>
</g>
<g>
	<path fill="#010101" d="M43.6,85.5V67.6L33.4,85.5h-11L12.3,67.6v17.9H-0.2V50.7h16.7L28,71.5l11.9-20.8h16.3v34.8H43.6z"/>
	<path fill="#010101" d="M75.1,85.5V50.7h43v9.2H88v3.9h29.4v8.7H88v3.9h30.5v9.1H75.1z"/>
	<path fill="#010101" d="M136,85.5V50.7h13.1v24.9h25.7v9.9H136z"/>
	<path fill="#010101" d="M228,85.5l-0.2-3.8c-3.4,2.4-9,4.3-17.2,4.3c-8.5,0-16-2.2-20.3-7c-2.5-2.8-3.8-6.4-3.8-10.9
		c0-4,1.3-7.4,3.9-10.3c4.5-4.9,12.4-7.7,23.1-7.7c12.7,0,20.8,3.8,24.1,10.1c0.6,1.1,0.8,2.3,1,3h-12.6c-0.1-0.4-1.1-1.1-1.9-1.6
		c-1.5-1-5.1-2.1-10.7-2.1c-5.7,0-9.7,1.2-11.9,3.5c-1.2,1.3-1.9,3.1-1.9,5.1c0,2,0.6,3.7,1.9,5.1c2.1,2.2,6.2,3.4,11.9,3.4
		c5.3,0,9.4-0.9,11.7-2.3c0.8-0.4,1.8-1.2,2.1-1.9h-16V65h27.7c0,0,0,7.6,0,9.1c0,4.6,0,11,0,11.5H228z"/>
	<path fill="#010101" d="M265.9,85.5h-14l23.5-34.8h14.9l22.4,34.8h-14.4l-3.6-5.5h-25.2L265.9,85.5z M284.2,63.3l-1.8-3l-1.9,3
		l-5.7,8.5h14.9C289.8,71.8,284.2,63.3,284.2,63.3z"/>
	<path fill="#010101" d="M336.8,85.5h-14l23.5-34.8h14.9l22.4,34.8h-14.4l-3.6-5.5h-25.2L336.8,85.5z M355.2,63.3l-1.8-3l-1.9,3
		l-5.7,8.5h14.9C360.7,71.8,355.2,63.3,355.2,63.3z"/>
	<path fill="#010101" d="M445,67.5c-1.3,1.6-3.7,3.3-6.7,3.6l12.8,14.4h-14.4l-11.1-12.8h-14.4v12.8h-13.1V50.7h33.3
		c6.3,0,10.5,1.3,12.9,3.4c1.8,1.6,2.7,3.7,2.7,6.8C447,63.5,446.3,66,445,67.5z M434.1,60.9c-0.8-1.2-2.2-1.5-4.4-1.5h-18.4V65
		h18.6c2.5,0,3.7-0.4,4.2-1.3c0.3-0.5,0.4-1,0.4-1.5C434.5,61.7,434.3,61.3,434.1,60.9z"/>
	<path fill="#010101" d="M495.9,85.5h-29.6V50.7h29.6c10.4,0,16.3,3.2,19,8.2c1.3,2.5,1.9,5.3,1.9,8.6c0,3.4-0.6,6.6-1.8,9.1
		C512.3,82.2,506.4,85.5,495.9,85.5z M503.7,67.9c0-1.9-0.4-3.3-0.9-4.5c-1.4-2.7-4.2-3.8-8.9-3.8h-14.5v17h14.3
		c4.8,0,7.7-1.2,9-3.7C503.4,71.7,503.8,70,503.7,67.9z"/>
</g>
<g>
	<g>
		<path fill="#010101" d="M37.6,35.4H0V0.6h36.8c5.3,0,8.6,1.2,10.4,3.1c1.6,1.6,2.2,3.6,2.2,5.6c0,2-0.5,3.8-1.5,5.1
			c-1,1.3-2.5,2.3-4.5,2.5c2.9,0.4,5.4,1.6,6.8,3.5c1.1,1.3,1.6,3.2,1.6,5c0,2.4-0.5,4.5-1.8,6.1C47.8,34.4,43.2,35.4,37.6,35.4z
			 M35.1,9.8C34.4,9.1,33.1,9,31,9H12.7v4.9h18.5c2,0,3.4-0.2,4.1-0.8c0.4-0.4,0.6-1.1,0.6-1.7C35.9,10.7,35.7,10.2,35.1,9.8z
			 M38.5,24.4c0-0.7-0.2-1.2-0.6-1.6c-0.8-0.7-2.1-0.9-4.9-0.9H12.7v5.2h20.1c2.9,0,4.5-0.3,5.2-1.1C38.4,25.6,38.5,25,38.5,24.4z"
			/>
		<path fill="#010101" d="M101,42.4h-6L114.4,0h6L101,42.4z"/>
		<path fill="#010101" d="M172.9,35.4h-14l23.5-34.8h14.9l22.4,34.8h-14.4l-3.6-5.5h-25.2L172.9,35.4z M191.2,13.1l-1.8-3l-1.9,3
			l-5.7,8.5h14.9C196.8,21.6,191.2,13.1,191.2,13.1z"/>
		<path fill="#010101" d="M315.4,17.4c-1.3,1.6-3.7,3.3-6.7,3.6l12.8,14.4h-14.4L296,22.6h-14.4v12.8h-13.1V0.6h33.3
			c6.3,0,10.5,1.3,12.9,3.4c1.8,1.6,2.7,3.7,2.7,6.8C317.4,13.4,316.6,15.8,315.4,17.4z M304.4,10.7c-0.8-1.2-2.2-1.5-4.4-1.5h-18.4
			v5.7h18.6c2.5,0,3.7-0.4,4.2-1.3c0.3-0.5,0.4-1,0.4-1.5C304.8,11.5,304.7,11.1,304.4,10.7z"/>
		<path fill="#010101" d="M406.4,35.4l-22.7-20.1v20.1h-12.6V0.6h13.5l22.2,19.6V0.6h12.5v34.8H406.4z"/>
		<path fill="#010101" d="M472.7,35.4V0.6h43v9.2h-30.1v3.9H515v8.7h-29.4v3.9h30.5v9.1H472.7z"/>
	</g>
</g>
</svg>
