<?xml version="1.0" encoding="utf-8"?>
<!-- Generator: Adobe Illustrator 18.0.0, SVG Export Plug-In . SVG Version: 6.00 Build 0)  -->
<!DOCTYPE svg PUBLIC "-//W3C//DTD SVG 1.1//EN" "http://www.w3.org/Graphics/SVG/1.1/DTD/svg11.dtd">
<svg version="1.1" id="Layer_1" xmlns="http://www.w3.org/2000/svg" xmlns:xlink="http://www.w3.org/1999/xlink" x="0px" y="0px"
	 viewBox="0 0 560 782.2" enable-background="new 0 0 560 782.2" xml:space="preserve">
<g>
	<path fill="none" stroke="#5A5121" stroke-width="0.842" stroke-miterlimit="1.684" d="M-634.5-74.8l-2.9-13.5l-8.5,1.8l2.6,12.4
		c0.4,2-0.4,4.3-3.6,5c-1.4,0.3-5.2,1.1-5.6,1.1l1.3,6.3c0.5,0,3.8-0.5,7-1.2C-636.6-64.6-633.4-69.6-634.5-74.8z"/>
</g>
<g>
	<path fill="#010101" d="M60.7,37.9H23V3.1h36.8c5.3,0,8.6,1.2,10.4,3.1c1.6,1.6,2.2,3.6,2.2,5.6c0,2-0.5,3.8-1.5,5.1
		c-1,1.3-2.5,2.3-4.5,2.5c2.9,0.4,5.4,1.6,6.8,3.5c1.1,1.3,1.6,3.2,1.6,5c0,2.4-0.5,4.5-1.8,6.1C70.9,36.9,66.3,37.9,60.7,37.9z
		 M58.2,12.3c-0.7-0.6-2-0.8-4.1-0.8H35.7v4.9h18.5c2,0,3.4-0.2,4.1-0.8c0.4-0.4,0.6-1.1,0.6-1.7C58.9,13.2,58.7,12.8,58.2,12.3z
		 M61.5,26.9c0-0.7-0.2-1.2-0.6-1.6c-0.8-0.7-2.1-0.9-4.9-0.9H35.7v5.2h20.1c2.9,0,4.5-0.3,5.2-1.1C61.5,28.1,61.5,27.6,61.5,26.9z"
		/>
	<path fill="#010101" d="M130.4,38.4c-4.9,0-10-0.3-10.7-0.4v-9.7c0.6,0.1,6.5,0.1,8.7,0.1c4.9,0,6.9-3.1,6.9-6.2V3.1h13.2v20.9
		C148.4,32.2,142.1,38.4,130.4,38.4z"/>
	<path fill="#010101" d="M205.7,37.9h-14l23.5-34.8h14.9l22.4,34.8h-14.3l-3.6-5.5h-25.2L205.7,37.9z M224,15.6l-1.8-3l-1.9,3
		l-5.7,8.5h14.9C229.5,24.2,224,15.6,224,15.6z"/>
	<path fill="#010101" d="M344.9,19.9c-1.3,1.6-3.7,3.3-6.7,3.6L351,37.9h-14.4l-11.1-12.8h-14.4v12.8H298V3.1h33.3
		c6.3,0,10.5,1.3,12.9,3.4c1.8,1.6,2.7,3.7,2.7,6.8C346.9,15.9,346.1,18.4,344.9,19.9z M333.9,13.2c-0.8-1.2-2.2-1.5-4.4-1.5h-18.4
		v5.7h18.6c2.5,0,3.7-0.4,4.2-1.3c0.3-0.5,0.4-1,0.4-1.5C334.3,14.1,334.2,13.6,333.9,13.2z"/>
	<path fill="#010101" d="M432.6,37.9l-22.7-20v20h-12.6V3.1h13.5L433,22.7V3.1h12.5v34.8H432.6z"/>
	<path fill="#010101" d="M495.7,37.9V3.1h43v9.2h-30.1v3.9h29.4v8.7h-29.4v3.9h30.5v9.1H495.7z"/>
</g>
<g>
	<path fill="#010101" d="M66.8,91.4V73.5L56.6,91.4h-11L35.6,73.5v17.9H23V56.6h16.7l11.5,20.8l11.9-20.8h16.3v34.8H66.8z"/>
	<path fill="#010101" d="M98.3,91.4V56.6h43v9.2h-30.1v3.9h29.4v8.7h-29.4v3.9h30.5v9.1H98.3z"/>
	<path fill="#010101" d="M159.2,91.4V56.6h13.1v24.9H198v9.9H159.2z"/>
	<path fill="#010101" d="M251.2,91.4l-0.2-3.8c-3.4,2.4-9,4.3-17.2,4.3c-8.5,0-16-2.2-20.3-7c-2.5-2.8-3.8-6.4-3.8-10.9
		c0-4,1.3-7.4,3.9-10.3c4.5-4.9,12.4-7.7,23.1-7.7c12.7,0,20.8,3.8,24.1,10.1c0.6,1.1,0.8,2.3,1,3h-12.6c-0.1-0.4-1.1-1.1-1.9-1.6
		c-1.5-1-5.1-2.1-10.7-2.1s-9.7,1.2-11.9,3.5c-1.2,1.3-1.9,3.1-1.9,5.1c0,2,0.6,3.7,1.9,5.1c2.1,2.2,6.1,3.4,11.9,3.4
		c5.3,0,9.4-0.9,11.7-2.3c0.8-0.4,1.8-1.2,2.1-1.9h-16v-7.5H262c0,0,0,7.6,0,9.1c0,4.6,0,11,0,11.5H251.2z"/>
	<path fill="#010101" d="M289.1,91.4h-14l23.5-34.8h14.9l22.4,34.8h-14.3l-3.6-5.5h-25.2L289.1,91.4z M307.4,69.1l-1.8-3l-1.9,3
		l-5.7,8.5h14.9C313,77.6,307.4,69.1,307.4,69.1z"/>
	<path fill="#010101" d="M360,91.4h-14l23.5-34.8h14.9l22.4,34.8h-14.3l-3.6-5.5h-25.2L360,91.4z M378.3,69.1l-1.8-3l-1.9,3
		l-5.7,8.5h14.9C383.9,77.6,378.3,69.1,378.3,69.1z"/>
	<path fill="#010101" d="M468.2,73.4c-1.3,1.6-3.7,3.3-6.7,3.6l12.8,14.4h-14.4l-11.1-12.8h-14.4v12.8h-13.1V56.6h33.3
		c6.3,0,10.5,1.3,12.9,3.4c1.8,1.6,2.7,3.7,2.7,6.8C470.2,69.4,469.4,71.8,468.2,73.4z M457.2,66.7c-0.8-1.2-2.2-1.5-4.4-1.5h-18.4
		v5.7h18.6c2.5,0,3.7-0.4,4.2-1.3c0.3-0.5,0.4-1,0.4-1.5C457.6,67.6,457.5,67.1,457.2,66.7z"/>
	<path fill="#010101" d="M519.1,91.4h-29.5V56.6h29.5c10.4,0,16.3,3.2,19,8.2c1.3,2.5,1.9,5.3,1.9,8.6c0,3.4-0.6,6.5-1.8,9.1
		C535.5,88.1,529.6,91.4,519.1,91.4z M526.9,73.8c0-1.9-0.4-3.3-0.9-4.5c-1.4-2.7-4.2-3.8-8.9-3.8h-14.5v17h14.3
		c4.8,0,7.7-1.2,9-3.7C526.6,77.5,526.9,75.9,526.9,73.8z"/>
</g>
<g>
	<path fill="#010101" d="M46.5,145.4c-15.3,0-22.1-4.1-25-9.1c-0.6-1.1-0.9-2.1-1.2-3.3h14.4c0.2,0.5,0.6,1.1,1.2,1.7
		c1.4,1.3,5.4,2.1,11.9,2.1c8.9,0,10.6-0.9,10.6-2.5c0-1.6-1.2-2-8.7-2.5c-3.3-0.2-7.9-0.4-10.2-0.6c-14.9-0.8-18.8-4.8-18.8-10.2
		c0-6.4,8.7-11.5,24.8-11.5c14.1,0,20.7,4,23.5,8.1c0.9,1.4,1.5,2.8,1.8,4.1l-14.5,0c-0.1-0.5-0.3-0.8-1-1.5
		c-1.3-1.2-4.7-2.1-10.2-2.1c-8.1,0-10.3,0.6-10.3,2.3c0,1.4,1.5,1.8,10.2,2.4c4,0.3,10.8,0.8,12.2,0.8c11,0.8,15.1,4.1,15.1,9.9
		C72.2,141.5,63.6,145.4,46.5,145.4z"/>
	<path fill="#010101" d="M272.5,151.9h-6l19.3-42.4h6L272.5,151.9z"/>
	<path fill="#010101" d="M514.1,145.4c-15.3,0-22.1-4.1-25-9.1c-0.6-1.1-0.9-2.1-1.2-3.3h14.4c0.2,0.5,0.6,1.1,1.2,1.7
		c1.4,1.3,5.4,2.1,11.9,2.1c8.9,0,10.6-0.9,10.6-2.5c0-1.6-1.2-2-8.7-2.5c-3.3-0.2-7.9-0.4-10.2-0.6c-14.9-0.8-18.8-4.8-18.8-10.2
		c0-6.4,8.7-11.5,24.8-11.5c14.1,0,20.7,4,23.5,8.1c0.9,1.4,1.5,2.8,1.8,4.1l-14.5,0c-0.1-0.5-0.3-0.8-1-1.5
		c-1.3-1.2-4.7-2.1-10.2-2.1c-8.1,0-10.3,0.6-10.3,2.3c0,1.4,1.5,1.8,10.2,2.4c4,0.3,10.8,0.8,12.2,0.8c11,0.8,15.1,4.1,15.1,9.9
		C539.8,141.5,531.3,145.4,514.1,145.4z"/>
</g>
<g>
	<path fill="#010101" d="M20.9,198.3v-9.8c20-4.9,26.4-6.6,26.4-11.3c0-0.5,0-1.1,0-1.5c0-2.2-1.9-3.6-6.2-3.6
		c-3.4,0-5.3,1.2-5.9,3.3c-0.2,0.8-0.3,2.5-0.4,3.5H21.2c0.1-2.4,0.4-4.1,0.8-5.4c1.5-5.8,7.3-10.6,20.3-10.6c15.9,0,20,5.7,20,11.1
		c0,0.4,0,1.2,0,1.9c0,5.9-5.8,10.5-16,12.7h17.8v9.7H20.9z"/>
	<path fill="#010101" d="M229.3,181c0,10.4-9.3,17.9-23.1,17.9c-14.6,0-23.2-7.3-23.2-18c0-9.8,8.2-18,23.2-18
		C220.6,163,229.3,170.6,229.3,181z M206.2,172.1c-6.2,0-9.4,3.6-9.4,8.7c0,5.9,3.7,9,9.4,9c5.8,0,9.3-2.9,9.3-9
		C215.4,175.8,212.3,172.1,206.2,172.1z"/>
	<path fill="#010101" d="M359.9,198.3v-22.3l-11.5,0.9v-10.2c9.1-0.9,12.9-1.4,13.9-3.6h10.6v35.1H359.9z"/>
	<path fill="#010101" d="M519.6,198.9c-12.8,0-20-2.9-22.1-9.1c-0.3-1.1-0.5-1.8-0.6-3.2h13.2c0.5,2.6,2.4,4.1,7.9,4.1
		c4.9,0,7.5-1.9,7.5-4.4c0-0.4,0-0.2,0-0.5c0-2.6-2.3-4.4-7.5-4.4c-3.5,0-6.2,0.9-7.3,3h-12.6v-20.9H538v9.3h-27.9l0,4.9
		c1.8-2.4,8.8-3.3,13.2-3.3c11.9,0,17.3,4.8,17.6,11.9c0,0.4,0,0.9,0,1.2C540.6,194.2,533.7,198.9,519.6,198.9z"/>
</g>
<g>
	<path fill="#010101" d="M58.4,251.8l-22.7-20.1v20.1H23V217h13.5l22.2,19.6V217h12.5v34.8H58.4z"/>
	<path fill="#010101" d="M518.3,240.4v11.5h-13.1v-11.4L482.1,217h15.5l14.5,14.3l14.4-14.3h15.1L518.3,240.4z"/>
</g>
<g>
	<path fill="#010101" d="M36.1,279.8v4.5H64v9H36.1v11.9H23v-34.8h42.2v9.3H36.1z"/>
	<path fill="#010101" d="M526.2,305.3h-14.3l-8.7-21.5l-8.7,21.5h-14.3l-16.1-34.8h14.3l9.8,22.3l8.7-22.3h13.9l8.7,22.3l9.8-22.3
		h12.5L526.2,305.3z"/>
</g>
<path fill="#010101" d="M292.8,335.5c21.6-5.6,37.6-25.3,37.6-48.6c0-27.7-22.5-50.2-50.2-50.2s-50.2,22.5-50.2,50.2
	c0,23.3,16,43,37.6,48.6v19.3h-34.5V380h34.5v30.7h25.1V380h34.5v-25.1h-34.5V335.5z M255.2,286.9c0-13.8,11.2-25,25-25
	s25,11.2,25,25s-11.2,25-25,25S255.2,300.7,255.2,286.9z"/>
<path fill="#010101" d="M529.8,738.3c-10.4,0.1-21.1,0.1-31.6,0c-10.8-0.1-14.8-1.9-24.5-6.1c-7.8-3.4-15.2-4.6-22.4-5.7l-1.1-0.2
	c-3.1-0.5-5.1-0.7-6.6-0.8c-2.7-0.3-2.7-0.3-9.2-4c-0.5-0.3-1.1-0.6-1.6-1c-4.4-2.6-10.1-5.9-16.5-6.8c4.2-6.5,3.1-16.1,2.3-23.6
	c-0.4-3.1-0.8-7-0.6-8.5c2.4-15.5,8.7-24.8,21.5-31.9c4.5-2.5,9.2-4.2,14.2-6c7.3-2.6,14.9-5.3,21.8-10.8
	c10.1-8,17.1-18.1,19.5-28.4c3.1-12.9,2-26.7,0.9-40c-0.7-9-1.4-17.6-0.8-25.4c1.3-17.1,10-36.5,17.6-53.6c0.7-1.5,1.4-3.1,2-4.6
	c8.3-18.7,11.6-36.5,11.6-61.8c0-1.6-0.1-3.7-0.3-6.4c-0.9-14.3-0.6-22.7,0.9-25.2c-0.2,0.3-1,1.2-2.5,1.5l-3.8-16.6
	c-13.9,3.2-12.6,24.3-11.6,41.2c0.1,2.3,0.3,4.3,0.3,5.5c0,19.1-1.7,35.8-10.1,54.8c-0.7,1.5-1.3,3-2,4.5
	c-8.2,18.4-17.5,39.2-19,59.2c-0.7,9.2,0,18.8,0.8,28c1,12.6,1.9,24.5-0.5,34.8c-1.6,6.6-6.4,13.4-13.5,19c-4.8,3.7-10.5,5.8-17,8.1
	c-5.4,1.9-11,3.9-16.7,7.1c-17.5,9.7-26.8,23.3-30,44.2c-0.6,3.8-0.1,8.3,0.5,13.1c0.4,3.4,1.1,9.4,0.5,11.8l-5.6,2.7l2,7
	c1.2,4.2,0.2,6.2-0.7,7.4c-9.8,12.4-58.4,9.7-74.4,8.8c-3.7-0.2-6.7-0.4-8.9-0.4l-0.8,0c-16.7-0.4-33.9-0.7-49.4-3.3
	c-3.5-0.6-6.8-1.4-10.4-2.2c-6.7-1.5-13.6-3.2-21.4-3.4c-0.8,0-2.2-0.1-3.6-0.3c-10.4-0.9-19.5-1.3-25.3,2.8
	c-4.5,3.2-6.3,6.3-7.5,8.2c-0.1,0.2-0.3,0.5-0.4,0.7c-0.3,0.1-1.1,0.4-2.7,0.7c-3.7,0.7-7.7,1-12,1.2c1.2-1.5,2.2-3.3,2.9-5.3
	c1.8-5,1.9-10.5,1.9-15l0-1l-17-0.2l0,1c0,2.6-0.1,8.5-1.2,9.9c-0.1,0-0.4,0.1-0.9,0.1l0.1,10.2c-6-0.3-12.1-1-17.9-1.8
	c0.5-1.5,1-2.9,1.6-4.4c1.2-3.2,2.4-6.5,3.3-10.1c0.5-1.9,0.8-3.7,1.2-5.5c0.6-3.3,1.2-6.7,2.5-8.5l-13.9-9.8
	c-3.4,4.8-4.5,10.6-5.3,15.2c-0.3,1.6-0.6,3.1-0.9,4.3c-0.7,2.7-1.7,5.5-2.8,8.5c-0.9,2.4-1.8,4.9-2.6,7.4c-1.1-0.2-2.2-0.4-3.3-0.5
	c-2.8-0.4-5.5-0.9-8-1.4c0.6-1.2,1.3-2.7,2.2-4.4c0.5-1,0.9-1.7,1.1-2.3l0.6-1.5c3.1-7.1,6-13.9,10.1-19.4l-13.6-10.1
	c-5.3,7.1-8.7,15-12.1,22.7l-0.6,1.4c-0.1,0.3-0.4,0.7-0.6,1.2c-0.8,1.6-1.6,3.2-2.4,4.8c-0.5-0.6-1-1.1-1.4-1.8
	c-5.8-8.3-7.1-31.1-2.3-40.8c1.4-2.7,1.8-2.9,8-3.6c3.1-0.3,7-0.8,11.4-2c9.3-2.7,18.6-3.4,28.5-4.1c6.7-0.5,13.6-1,20.7-2.2
	c4.2-0.7,8-1.5,11.8-2.3c7.9-1.7,14.7-3.2,23-3.2c0,0,0,0,0.1,0c9.6,0,19.4-0.1,28.9-0.3c9.8-0.1,19.9-0.3,29.9-0.3l2.1,0
	c14.3,0.1,29.1,0.1,39.5-17.1c8.6-14.3,9.5-27.1,9.7-42.4c0.2-15.7,2.5-29.8,4.9-44.8c0.6-3.5,1-7.1,1.5-10.6
	c1.6-12,3.2-24.5,8.5-33.7c1.1-2,3.1-3.5,5.6-5.5c2.1-1.6,4.4-3.4,6.6-5.7c3-3.3,4.8-7.2,6.3-10.7c0.7-1.5,1.7-3.9,2.3-4.5
	c2.7-3,6.4-5.6,10.3-8.4c4.2-2.9,8.4-6,12.1-9.8l0.3-0.3c4.5-4.8,8.5-8.9,13.6-11.8c0.6-0.3,2.3-0.8,3.6-1.1
	c4.7-1.1,17.3-4.2,15.7-18.6l-16.7,1.9c0.2-0.4,0.5-0.8,0.8-0.9c-0.6,0.4-2.5,0.8-3.7,1.1c-2.5,0.6-5.3,1.3-7.9,2.7
	c-7.4,4.1-12.5,9.6-17.6,14.9l-0.3,0.3c-2.5,2.6-5.9,5.1-9.6,7.7c-4.5,3.2-9.1,6.4-13,10.7c-2.4,2.6-3.9,5.9-5.3,9.1
	c-1.1,2.4-2.2,4.8-3.3,6.1c-1.2,1.3-2.8,2.5-4.5,3.8c-3.3,2.6-7.1,5.5-9.9,10.4c-7.1,12.2-9,27-10.7,40.1c-0.5,3.6-0.9,6.9-1.4,10.1
	c-2.4,14.9-4.9,30.3-5.1,47.2c-0.2,13.5-0.8,23.2-7.2,33.8c-5.1,8.5-10.4,8.9-24.9,8.9l-2.1,0c-10.1,0-20.2,0.1-30.1,0.3
	c-2.8,0-5.6,0.1-8.4,0.1l0.6-0.2c-2.9-8.1-10.3-13.3-17.4-18.2c-4.5-3.2-9.2-6.4-11.2-9.6c-3.8-6.1-6.1-13.2-8.6-20.8
	c-2.6-8.2-5.4-16.7-10.3-24.5c-2.2-3.5-4.7-5.2-6.2-6.3c-0.2-0.1-0.4-0.2-0.5-0.4c-0.7-2-0.9-5.2-1-8.3c-0.2-4-0.3-8.5-1.7-12.8
	c-1.1-3.6-2.3-6.8-3.4-9.9c-2.5-6.9-4.5-12.4-5.2-19.8c-1.1-12.5-0.7-25.8-0.4-38.7c0.2-6.5,0.4-13.3,0.4-19.9h-17
	c0,6.3-0.2,13-0.4,19.4c-0.4,13.4-0.8,27.2,0.4,40.7c0.9,9.6,3.4,16.7,6.2,24.1c1.1,2.9,2.1,5.9,3.2,9.1c0.7,2.2,0.8,5.2,0.9,8.4
	c0.2,4.4,0.4,9.4,2.2,14.1c1.8,4.6,4.8,6.7,6.5,7.9c0.9,0.7,1.2,0.8,1.6,1.5c3.8,5.9,6.1,13,8.5,20.5c2.7,8.2,5.4,16.8,10.4,24.6
	c3.9,6.1,10,10.4,15.9,14.5c2.1,1.5,4.4,3.1,6.3,4.7c0,0,0,0,0,0c0,0,0,0-0.1,0c-10.1,0-18.5,1.8-26.6,3.5c-3.5,0.8-7.2,1.5-11,2.2
	c-6.3,1.1-12.5,1.5-19.2,2c-10.3,0.8-21,1.6-32,4.8c-3,0.9-5.8,1.2-8.5,1.5c-7,0.8-15.8,1.7-21.3,12.9c-6.8,13.7-6.5,43.8,3.6,58.2
	c2.5,3.5,5.3,6.2,8.3,8.4l-5,12.9c-0.1,0-0.1,0-0.1-0.1c0.8,0.6,1.6,2.9,2,5.8c-1.7,0.4-3.4,0.9-5.1,1.4c-1.7,0.5-3.5,0.9-5.3,1.4
	c-1.6,0.4-3.4,0.8-5.3,1.2c0.1-4.8,0.1-9.7-0.5-14.6c-0.9-7.8-2.6-15.3-4.2-22.5c-1.2-5.2-2.3-10-3.1-15L55,709.2
	c0.9,5.4,2.1,10.8,3.3,16c1.6,7.1,3.1,13.8,3.9,20.7c0.5,4.8,0.4,9.7,0.3,15c-3.2,0.2-6.3,0.3-9,0.2c1-3,1.1-7-0.7-12.5
	c-1.6-4.8-4.4-10.2-6.9-14.9c-1.3-2.6-3.3-6.2-3.9-8.1c0.2-0.2,0.4-0.4,0.5-0.5c1.3-1.3,3-3.1,4.5-5.9l-15.1-7.8
	c-0.2,0.4-0.7,0.9-1.5,1.7c-1.3,1.3-3.2,3.3-4.5,6.3c0-7.7,0.8-15.4,2.6-21c1.8-5.7,7-12.8,11.2-18.5l1.3-1.8
	c0.9-1.3,2.3-2.9,3.6-4.5c1.6-1.9,3-3.7,4.2-5.3c0.1-0.2,0.5-0.5,1-0.9c1.4-1.1,3.7-2.9,5.1-6.1C70,658,83,650.9,94.5,644.6
	c4.7-2.6,9.1-5,13.5-7.1c1.6-0.8,3.7-1.2,5.9-1.7c5.9-1.3,14.7-3.3,19.6-13.7c3.9-8.5,1.7-18,0.1-24.9c-0.2-0.7-0.3-1.4-0.5-2
	c-2.3-10.3-5.3-22.2-10.9-31.8c-1.6-2.8-3.4-5.5-5-8.1c-2.4-3.7-4.6-7.1-6.6-11.1c-8.5-16.6-19-33.4-29.2-49.5
	c-28.1-44.9-40-89.8-35.2-133.4c0.5-4.1,1.7-6.9,3.6-11.2c0.4-0.9,0.8-1.7,1.2-2.7c0.4-0.9,0.9-2.3,1.8-5c0.5-1.6,1.5-4.5,1.9-5.6
	c6.4-9.7,11.7-13.5,19.4-14c5.2-0.3,10.5-0.2,16.2-0.1c3.8,0.1,7.6,0.2,11.5,0.1c6.1-0.1,7.5,1.1,11.3,4.2c2.6,2.2,5.9,4.9,11,7.4
	l7.5-15.2c-3.3-1.6-5.4-3.4-7.7-5.2c-4.7-3.9-10.1-8.3-22.4-8.1c-3.6,0.1-7.1,0-10.9-0.1c-5.7-0.1-11.7-0.3-17.6,0.1
	c-17,1.1-26.2,11.8-32.9,22.2c-0.9,1.4-1.5,3.1-3.5,9c-0.5,1.3-1.1,3.2-1.2,3.6c-0.4,0.9-0.7,1.7-1.1,2.5c-2.1,4.7-4.2,9.5-5,16.3
	c-5.2,47.5,7.5,96.1,37.7,144.3c10,15.9,20.2,32.3,28.4,48.3c2.4,4.7,5,8.7,7.5,12.6c1.6,2.5,3.2,4.9,4.6,7.3c4.4,7.6,7,17.9,9,27
	c0.2,0.7,0.3,1.4,0.5,2.2c1,4.5,2.5,10.7,1,13.9c-1.2,2.6-2.5,3.1-7.9,4.3c-2.9,0.6-6.2,1.4-9.5,3c-4.8,2.3-9.6,5-14.3,7.5
	c-12.4,6.8-25.2,13.8-40.2,16.2l-7.7,1.2l0.5,7.3c-1.1,0.9-2.7,2.2-4.2,4.3c-0.7,1.1-2.1,2.7-3.4,4.2c-1.5,1.8-3,3.6-4.2,5.3
	l-1.3,1.7c-4.9,6.7-10.9,15-13.6,23.3C8,706.5,8.4,726,10,738.6c2.1,15.9,15.4,32.2,30.3,37.3c4.5,1.5,10.1,2.1,16,2.1
	c13.1,0,27.3-2.9,32.9-4.3c1.9-0.5,3.7-1,5.4-1.5c1.3-0.4,2.6-0.7,3.9-1.1l11,11l2.2-14c3.9-0.6,8-1,12.7-1c0.1,0,0.2,0,0.3,0
	c8.8,0,17.6,0,26.4,0c4.4,0,8.8,0,13.2,0c3,0,7,0.4,11.3,0.7c10.9,1,23.3,2.1,31.9-1.2c5-1.9,7.6-4.4,8.9-8.4c0,0,0.1-0.1,0.1-0.1
	c0.6-0.5,2.5-1.7,3.8-2.5c4.8-3.1,6.1-4,7.3-5.6c2.2-2.8,4.9-7.7,6.5-12.8c5.4,0.4,10.5,1.6,16,2.9c3.7,0.8,7.5,1.7,11.5,2.4
	c16.7,2.8,35.3,3.2,51.8,3.6l0.8,0c1.9,0,4.9,0.2,8.3,0.4c38.1,2.1,75.2,1.7,88.6-15.2c0.2-0.3,0.5-0.6,0.7-0.9
	c3.4-0.6,8,2,12.4,4.6c0.6,0.3,1.2,0.7,1.7,1c8.7,5,10.3,5.6,16,6.2c1.4,0.1,3,0.3,5.6,0.7l1.1,0.2c6.7,1.1,12.5,2,18.3,4.5
	c10.5,4.6,16.9,7.3,31.1,7.5c5,0.1,10,0.1,15.1,0.1c5.7,0,11.3,0,16.8-0.1c5.6,0,11.2-0.1,16.7-0.1v-17
	C541,738.3,535.4,738.3,529.8,738.3z M26.9,736.5c-0.2-1.2-0.3-2.5-0.4-3.8c1,2.4,2.5,5.3,4.3,8.9c1.7,3.4,4.7,9,5.9,12.5
	C31.8,749.4,27.7,743,26.9,736.5z M37.7,754.9c0.4-0.7,1-1.4,1.9-1.9l3.3,5.6C41.1,757.6,39.4,756.4,37.7,754.9z M151.1,750.3
	c-8.8,0-17.6,0-26.4,0c-0.1,0-0.2,0-0.4,0c-4.6,0-8.6,0.3-12.4,0.8c-0.1-0.5-0.2-1.1-0.3-1.6c-0.4-1.9-0.9-3.5-1.4-5
	c1,0.2,2,0.4,3.2,0.4c0.8,0,1.6-0.1,2.5-0.2l-0.2-1.5c3.6,0.8,7.1,1.4,10.3,1.9c2.3,0.4,4.5,0.7,6.6,1.1c9.1,1.8,20.1,3.3,31.1,4.1
	C159.5,750.3,155.3,750.3,151.1,750.3z M201,751.1c-5.1,1.7-15.9,0.7-23.9,0c-1.7-0.1-3.3-0.3-4.9-0.4c1.4,0,2.8,0.1,4.2,0.1
	c7,0,13.7-0.5,19.6-1.5c3.4-0.6,6-1.5,8.1-2.6C202.6,748.2,201.6,749.7,201,751.1z M214.7,739.1c-0.9,0.6-2.6,1.7-3.6,2.4
	c-1.1,0.7-2,1.3-2.7,1.8c0.9-1.1,1.8-2.3,2.5-3.6c0.7-1.2,1.1-1.8,2.3-2.8c0.7-0.2,1.7-0.4,3-0.4
	C215.7,737.4,215.2,738.3,214.7,739.1z"/>
</svg>
