<?xml version="1.0" encoding="utf-8"?>
<!-- Generator: Adobe Illustrator 18.0.0, SVG Export Plug-In . SVG Version: 6.00 Build 0)  -->
<!DOCTYPE svg PUBLIC "-//W3C//DTD SVG 1.1//EN" "http://www.w3.org/Graphics/SVG/1.1/DTD/svg11.dtd">
<svg version="1.1" id="Layer_1" xmlns="http://www.w3.org/2000/svg" xmlns:xlink="http://www.w3.org/1999/xlink" x="0px" y="0px"
	 viewBox="0 0 523.3 121.7" enable-background="new 0 0 523.3 121.7" xml:space="preserve">
<g>
	<path fill="none" stroke="#5A5121" stroke-width="0.842" stroke-miterlimit="1.684" d="M-648.5-74.8l-2.9-13.5l-8.5,1.8l2.6,12.4
		c0.4,2-0.4,4.3-3.6,5c-1.4,0.3-5.2,1.1-5.6,1.1l1.3,6.3c0.5,0,3.8-0.5,7-1.2C-650.6-64.6-647.4-69.6-648.5-74.8z"/>
</g>
<path fill="#010101" d="M506.3,81.4v2.4c0,1.6,0,3.3-0.3,4.8c-1.5,7.4-5.7,12.4-12.4,14.5c-4.1,1.3-9.9,1-15.3,1h-25.3h-19.9
	c-4.5,0-9.2,0.2-13.2-0.5c-1.2,0-2.4,0-3.5,0c-1.6,0.1-3.2,0.2-4.8,0.3c-3,0-6,0.1-9,0.1c-3.9,0-8.5,0.3-11.9-0.3
	c-3.4-0.7-6-1.7-8.5-3.3c-1.4-0.9-3.9-2.8-6.5-2.4c-3.1,0.5-4.8,1.9-7,3.2c-1.8,1-3.8,1.8-6.1,2.3c-1.5,0.1-2.9,0.3-4.4,0.4h-2.6
	c-1.7,0-3.4,0-5.1,0c-3.9,0-7.8-0.1-11.8-0.1c-5.9,0-11.9,0.1-17.8,0.1c-3,0-6.5,0.3-9.2-0.2c-3.8-0.6-6.7-1.4-9.2-3.2
	c-2.5-1.7-4.2-4.3-7.8-4.9c-3.9-0.7-7.8,4.2-10.3,5.6c-2.5,1.5-5.2,2-8.7,2.5c-1.4,0-2.9,0.1-4.3,0.1c-6.7,0-13.4-0.1-20-0.1
	c-3.4,0-6.7,0.1-10.1,0.1c-5.7,0-12.4,0.5-17-0.8c-2.2-0.7-4.2-1.6-5.9-2.8c-1.6-1.1-3.1-2.4-5-3.2c-2.3-1-5.4-1.1-8.7-1.1
	c-1.2,0-2.4,0.1-3.6,0.1c-5.1,0.9-6.6,2.9-10.2,5c-2,1.2-4.3,2-6.9,2.5c-3.7,0.7-8.7,0.4-13,0.4c-2.9,0-5.8-0.1-8.7-0.1
	c-0.9,0-1.9-0.1-2.8-0.1c-1.1-0.2-2.2-0.4-3.3-0.6c-1.9-0.5-4.3-1.3-6.8-0.9c-3.2,0.5-6,1.1-9.1,1.7c-1.4,0.2-2.7,0.3-4.1,0.5
	c-1.3,0-2.5,0.1-3.8,0.1h-4.9c-3.2-0.1-6.4-0.2-9.6-0.3c-1.3-0.1-2.5-0.2-3.8-0.4c-2.6-0.5-4.9-0.8-7.7-1.3c-0.8,0-1.6,0.1-2.4,0.1
	c-2,0.3-3.9,0.4-5.8,0.8c-4.2,0.7-9.1,0.5-13.7,0.5H48c-6.6,0-14.3,0.6-19.2-1.3c-5.3-2.1-9.2-6-10.9-11.6c-1.2-4-1-9.6-1-14.8V52
	c0-8.9-0.9-19.7,2.4-25.4c2.5-4.3,6.2-7.5,11.7-8.8c1.6-0.4,3.3-0.3,5-0.6c0.7,0,1.3,0,2,0h38.2c7.6,0,16-0.5,22.4,0.9
	c4.1,0.9,8,1.9,11.2,3.8c2.9,1.7,5.1,4,9,4.6c3.5,0.6,6.3-3.2,8-4.6c3.5-2.8,5.9-3.7,11.3-4.6c1.2,0,2.4-0.1,3.6-0.1
	c1.8,0,3.6,0,5.5,0c7.3,0,13.6-0.3,18.7,2c3.8,1.7,5.7,5.7,10.3,6.5c3.6,0.6,6.4-3.1,8.3-4.6c2.2-1.7,4.8-2.8,8-3.5
	c1-0.1,2-0.2,3-0.3c3.2,0,6.3-0.1,9.5-0.1c7.3,0,15-0.3,20,1.9c3.3,1.5,5.2,4.1,7.9,6.2c1,0.8,2.5,2,4.7,1.6
	c3.7-0.7,5.3-3.7,7.8-5.6c3-2.3,5.8-3.1,10.4-3.9c2.5,0,4.9-0.1,7.4-0.1h13.5h22.2c1.8,0,3.6,0,5.5,0c1.3,0,2.5,0.1,3.8,0.1
	c1.2,0.1,2.4,0.1,3.6,0.2c2.3,0.4,4.6,0.5,6.7,1c2.7,0.7,5.2,1.4,8.1,1.9c3.7,0.6,7-1.4,9.6-2.3c3.3-1,7.7-0.9,11.9-0.9
	c6.5,0,14-0.5,18.9,1.2c1.2,0.4,2.5,1,3.5,1.6c1.6,1,4.4,3.2,7.3,2.7c3.3-0.6,5.1-2.2,7.6-3.5c1.8-0.9,3.8-1.4,6.2-1.8
	c2.4-0.4,5.2-0.3,7.8-0.3c3.8,0,7.7,0,11.5,0c2.4,0.1,4.7,0.3,7.1,0.4c3.2-0.2,6.5-0.3,9.7-0.5h39.8h14c3.5,0,7.2-0.1,10.1,0.6
	c2.9,0.7,5.3,1.9,7.4,3.5c3.4,2.6,5.6,6.5,6.5,11.6c0.5,2.7,0.3,5.9,0.3,8.9c0,2.3-0.1,4.7-0.1,7c-0.3,2.5-0.6,4.9-0.8,7.4
	c0,0.9-0.1,1.9-0.1,2.8v3.1c0.6,3.7,0.9,6.8,1.5,10.4c0,1.6,0.1,3.3,0.1,4.9V81.4z M523.3,81.6c0-2.8,0-5.6,0-8.4
	c0-1-0.1-1.9-0.1-2.9c-0.6-3.7-0.9-7-1.4-10.9c0-0.7,0.1-1.4,0.1-2.2c0.2-1.5,0.3-3.1,0.5-4.6c0.1-2,0.2-3.9,0.3-5.9
	c0-3.3,0-6.6,0-10c0-1,0-2,0-3c-0.4-2.1-0.3-4.2-0.8-6.1c-2.2-8.6-6.5-15.4-12.6-20c-4.2-3.2-9-5.5-15.1-6.9
	c-5-1.1-11.5-0.7-17.4-0.7h-30.1h-16.9c-3.4,0-7-0.2-10.2,0.3c-0.9,0-1.8,0-2.7,0c-1.4-0.1-2.7-0.1-4.1-0.2c-6.3,0-12.5,0-18.8,0
	c-1.1,0.1-2.3,0.1-3.4,0.2c-2.2,0.4-4.3,0.5-6.3,1.1c-1.6,0.5-5.3,2.1-7.2,1.8c-3.5-0.5-6.1-1.7-9.5-2.4c-4.8-1.1-11.2-0.7-16.9-0.7
	h-8.9c-2.7,0.5-5.4,0.2-7.8,0.8c-1.9,0.5-5.6,1.9-7.9,1.5c-3.3-0.6-6.3-1-9.6-1.6c-1.5-0.2-3.1-0.3-4.6-0.5
	c-1.7-0.1-3.5-0.1-5.2-0.2c-4,0-8,0-11.9,0h-32.9c-6.3,0-11.8,0.3-16.4,1.9c-1.2,0.5-2.4,0.9-3.6,1.4c-1.4,0.6-3.2,1.9-5.3,1.6
	c-2.6-0.4-4.5-1.7-6.7-2.5c-2.7-1.1-5.6-1.5-8.9-2.1c-3.8-0.6-9-0.2-13.2-0.2c-6.3,0-13.4-0.5-18.8,0.7c-2.2,0.5-4.3,1-6.2,1.8
	c-1.7,0.7-3.3,1.5-5.3,1.9c-2.4,0.4-5.9-1.7-7.7-2.3c-2.3-0.8-4.7-1.3-7.4-1.7c-1.6-0.1-3.2-0.2-4.8-0.3h-9
	c-7.1,0-14.3-0.2-19.7,1.5c-1.8,0.6-3.4,1.2-5,1.9c-1.8,0.8-3.3,1.9-5.5,2.3c-2.2,0.4-6.1-1.6-7.7-2.3c-4.4-1.7-9.3-2.2-14.6-3.1
	c-2-0.3-4,0.1-6-0.3c-5,0-9.9,0-14.9,0H35.5c-1.3,0.1-2.6,0.2-3.9,0.2c-2.4,0.4-4.7,0.7-6.8,1.4c-9.7,3.1-17.7,10-21.5,18.9
	C1.9,23.7,1.1,27,0.4,30.8C-0.2,33.7,0,37.1,0,40.4V56v22.5C0,83.9-0.1,89.4,1,93.8c2.8,11.1,10,19.8,19.7,24c2.8,1.2,5.8,2,9.2,2.7
	c3.9,0.8,8.7,0.5,13.2,0.5h22.2c9.2,0,18.5,0,27.7,0c2.3-0.2,4.5-0.3,6.8-0.5c1.4-0.2,4-0.7,5.5-0.5c3,0.5,5.6,0.6,8.5,1
	c1.2,0.1,2.5,0.2,3.7,0.3c2.2,0.1,4.4,0.2,6.5,0.2c2.8,0,5.6,0.1,8.4,0.1c2.6-0.4,5.3,0,7.8-0.5c1.4-0.2,2.9-0.4,4.3-0.6
	c1.9-0.4,3.7-0.8,6-0.8c2,0,3.7,0.3,5.5,0.7c1,0.1,2,0.2,3.1,0.3c1.1,0,2.1,0.1,3.2,0.1c2.8,0,5.5,0,8.3,0c5.9,0,12.4,0.4,17.4-0.7
	c4.2-0.9,7.9-2.2,11.1-4.1c1.5-0.9,4.3-3.1,6.8-2.7c3.7,0.6,6.1,3.1,9.3,4.4c2.6,1.1,5.4,1.9,8.5,2.5c1.3,0.1,2.7,0.3,4,0.4
	c2.8,0,5.5,0.1,8.3,0.1c5.6,0,11.2,0,16.8,0c5.7,0,11.4,0,17.1,0c3.8,0,7.7,0.1,11-0.5c2.5-0.5,4.8-1,6.9-1.8c2-0.8,3.6-1.7,6-2.1
	c2-0.3,5.6,1.7,7.1,2.3c2.5,1,5.2,1.4,8.1,1.9c1.1,0.1,2.1,0.2,3.2,0.2c5.8,0,11.7,0,17.5,0h21.4c3.7,0,8.4,0.3,11.7-0.2
	c2.1-0.4,4.2-0.6,6.1-1.1c2.3-0.7,4.3-1.5,7-2c2-0.3,5.4,1.3,7,1.8c2,0.6,4.1,0.9,6.3,1.3c1.1,0.1,2.1,0.2,3.2,0.2
	c3.2,0,6.4,0,9.6,0h6.6c1.3,0,2.5-0.1,3.8-0.1c1.3-0.1,2.7-0.1,4-0.2c1.5-0.2,4.1-0.1,5.4,0.1c1.3,0,2.5,0.1,3.8,0.1h15.4h35.4
	c7.2,0,15,0.5,20.6-1.2c13.3-4,22.3-13,25.4-27.1C523.3,89.4,523.3,85.5,523.3,81.6"/>
<path fill="#010101" d="M484.9,80.1c-0.1,0.5-0.3,1.1-0.6,1.5c-1.5,1.9-7.9,1.3-11.3,1.3h-32.3c-3.9,0-10.8,0.8-12.3-1.6
	c-1.1-1.8-0.7-8.3-0.7-11.3V48.6c0-3-0.4-7.2,0.8-9c0.5-0.6,1.3-1,2.2-1.2c0.4,0,0.9-0.1,1.3-0.1h39.5c3.4,0,9.7-0.6,11.7,0.8
	c0.7,0.5,1,1.5,1.1,2.6c0.6,4.7-6.7,3.8-11,3.8H454c-3.7,0-7.6-0.2-9.9,1.1c-1.6,0.9-3.4,2.9-2.8,5.8c1.1,5,6.4,5,12.5,5H472
	c4.3,0,12.1-1.1,11.1,3.9c-0.7,3.6-7.6,2.6-11.9,2.6h-16.6c-6.8,0-12.5-0.3-13.4,5.6c-0.5,2.9,2,4.9,3.8,5.6
	c2.7,1.1,6.9,0.8,10.6,0.8H475C479.4,75.8,486,74.9,484.9,80.1 M407.8,81.5c-1.3,1.8-9.5,1.7-12.3,1c-1-0.3-2-0.7-2.9-1.2
	c-2.7-1.7-4.9-4.3-7.3-6.3c-4.9-4.3-9.8-8.6-14.7-12.9c-1.9-1.6-6.1-6.4-9.8-5.7c-2.8,0.6-3.6,2.9-4.1,5.8c0,1-0.1,2-0.1,3
	c0,3.2,0,6.5,0,9.7c0,2.3,0.2,4.9-0.7,6.3c-1,1.7-3.6,1.6-6.3,1.6c-1.2,0-2.4-0.1-3.3-0.5c-2.8-1.2-2-7.9-2-11.9V48.7
	c0-2.9-0.5-7.2,0.8-9c0.5-0.8,1.5-1.2,2.6-1.4c0.3,0,0.7-0.1,1-0.1c3.3,0,7.5-0.4,10.2,0.4c3.2,1,5.1,3.4,7.5,5.3
	c4.3,3.8,8.7,7.6,13,11.4c2.9,2.3,5.3,5,8.4,7.1c1,0.7,2.6,1.8,4.5,1.5c3.3-0.5,3.9-3.1,4.4-6.4c0-1,0-2,0-3c0-2.8,0-5.6,0-8.4
	c0-2.2-0.2-4.9,0.6-6.3c1-1.7,3.5-1.6,6.2-1.6c1.2,0,2.3,0.1,3.2,0.4c2.7,1.1,2.1,6,2.1,9.7v23.5C408.6,75,409.1,79.6,407.8,81.5
	 M324.4,81.9c-0.5,0.8-1.8,0.7-3,0.9c-3.6,0.6-6.8-0.4-8.7-1.9c-1.7-1.3-3.1-3.3-4.5-4.9c-1.7-1.9-3.4-3.8-5.1-5.7
	c-1.6-2-3.5-4-5.9-5c-2.6-1.1-6.4-1-10.2-1h-5.8c-0.8,0.1-1.7,0.2-2.5,0.2c-2.9,0.6-4.7,1.9-5.7,4.4c-1.2,3.1,0.2,10.5-1.6,12.7
	c-1.1,1.5-4,1.3-6.6,1.3c-1.4,0-2.8-0.1-3.7-0.6c-2.4-1.4-1.7-8-1.7-11.9V48.5c0-3-0.4-7.2,0.9-9c0.9-1.2,2-0.7,3.5-1.3h34.4
	c10.4,0,21-0.2,24.9,6.3c0.8,1.3,1.1,2.8,1.4,4.7c0,0.8-0.1,1.6-0.1,2.4c-0.7,4.2-2.1,6.5-4.9,8.5c-1.9,1.3-5.5,3.1-4.8,6.8
	c0.7,4.3,5.3,7.9,7.7,10.9C322.9,78.4,325.2,80.6,324.4,81.9 M242.1,82.1c-1.2,1-7,1.1-9.1,0.6c-3.4-0.8-4.3-3.6-6.6-5.5
	c-1.7-1.4-3.6-1.8-6.4-2.3c-7,0-14-0.1-21-0.1c-4,0-8.8-0.4-11.8,0.8c-1.8,0.7-3.4,1.9-4.5,3.2c-0.9,1.1-1.8,2.4-3.1,3.1
	c-1.7,0.9-9.2,1.7-10.5,0c-0.8-1,0.3-2.7,0.8-3.4c1.8-2.7,3.7-5.4,5.5-8.1c4.8-7.1,9.7-14.3,14.5-21.4c1.3-1.9,2.6-3.8,3.9-5.7
	c1-1.4,1.9-3,3.3-4c0.7-0.5,1.7-0.8,2.7-1c0.5,0,1-0.1,1.5-0.1c4,0,10.9-0.6,13.7,0.7c2.7,1.2,4.9,5.7,6.4,8.2
	c4.4,6.8,8.8,13.6,13.2,20.5c2.2,3.5,4.5,6.9,6.7,10.4C241.8,78.8,243.3,81.1,242.1,82.1 M155,47v12.3c0,2.1-0.1,4.2-0.1,6.3
	c-0.3,1.8-0.4,3.6-0.8,5.1c-2.1,6.7-7.5,10.2-14.5,11.9c-2.2,0.6-4.5,0.4-7.1,0.8c-1.1,0-2.2,0-3.3,0c-2.9,0-6.7,0.3-8.5-0.8
	c-1.8-1.1-2.2-5.3-0.3-6.7c2-1.5,6.5-0.5,9.5-1c5.2-0.9,8.9-2.9,10.7-7.1c2-4.7,1.4-12.7,1.4-19.3c0-2.8-0.5-6.9,0.6-8.7
	c0.5-0.8,1.3-1.3,2.4-1.5c0.4,0,0.9-0.1,1.3-0.1c2.9,0,6.6-0.4,7.9,1.3C155.3,41,155,44.3,155,47 M107.4,74.2
	c-0.3,1.1-0.7,2.2-1.2,3.1c-2.3,3.7-6.5,4.5-11.7,5.3c-1.6,0.1-3.2,0.1-4.8,0.2c-11.2,0-22.4,0-33.7,0H44.6c-2.7,0-5.1-0.1-5.9-1.9
	c-1-2.2-0.5-8-0.5-11.1V48.5c0-3-0.4-7.1,0.8-8.9c0.5-0.6,1.3-1,2.2-1.2c0.4,0,0.9-0.1,1.3-0.1h40.7c8.4,0,16.2,0,19.4,5.2
	c2,3.2,1.2,7.4-0.6,10.2c-1,1.6-2.8,3.6-1.9,6.3c0.7,2.1,2.7,3.3,4.2,4.6C106.5,66.3,108.4,70.1,107.4,74.2 M501.7,70.6
	c-0.4-1.8-0.7-3.7-1.1-5.5c-0.2-1.3,0-2.6-0.2-4v-4.1c0.1-1.1,0.2-2.2,0.3-3.3c0.6-3.2,0.8-6.8,0.8-10.6c0-1.6,0-3.1,0-4.7
	c0-0.8,0-1.7,0-2.5c-0.3-1.6-0.3-3.1-0.8-4.4c-1.4-4.4-4.4-7.4-8.5-9c-3-1.2-7.2-1.1-11.3-1.1h-11.6h-28.9h-10
	c-1.7,0-3.4,0.1-5.2,0.1c-2.1,0.3-4.1,0.6-6.2,0.8c-1.2,0.2-2.5-0.1-3.4-0.2c-1.3-0.2-2.7-0.4-4-0.6c-2.6-0.4-5.8-0.1-8.6-0.1
	c-4.2,0-8.9-0.3-12.4,0.6c-3.3,0.8-6,2.5-7.8,4.8c-1,1.3-2.3,4.6-3.9,4.8c-1.7,0.3-4.5-2.9-5.5-3.8c-3.7-2.9-6-5.2-11.7-6.3
	c-2.8-0.5-6.3-0.2-9.4-0.2c-5.1,0-11-0.4-15,0.8c-2,0.6-3.6,1.7-5.2,2.7c-0.9,0.6-2,1.6-3.7,1.3c-2.2-0.4-4-1.5-5.9-2.2
	c-2.8-1.1-6-1.5-9.3-2.1c-4.5-0.8-9.8-0.5-14.8-0.5h-24.3h-11.2c-4,0-8-0.1-10.9,1c-5.2,2-8,5.6-9.2,11.7c-0.5,2.7,0.3,9.6-1.3,10.9
	c-1.2,0.2-1.9-1.1-2.4-1.7c-1.6-2.2-3.1-4.5-4.6-6.9c-2.9-4.6-6.2-11.1-11.3-13.3c-2.2-1-4.3-1.1-7.2-1.6c-3.2,0-6.5,0-9.7,0
	c-10.2,0-16.8-0.3-21.4,5.5c-2.9,3.6-5.3,7.6-8,11.4c-0.7,1-2.1,3.4-3.4,3.6c-1,0.3-1.1-1.5-1.3-2.4c-0.6-3-0.3-6.2-1.3-8.7
	c-2.1-5.5-6-8.1-12.7-9.2c-3-0.5-6.5-0.1-9.7-0.1c-3.7,0-7.8-0.3-11.1,0.3c-6,1.2-9.9,4.5-11.5,10c-1.1,3.6-0.6,8.3-0.8,12.8v7
	c0.3,2.2-0.2,6.3-2.3,6c-2.7-0.4-2.2-4.5-1.8-7.2c0.3-1.8,0.2-4.1-0.1-5.7c-1.5-7.8-4.8-13.3-10.2-17.2c-4.5-3.2-9.4-4.5-16.1-5.6
	c-2-0.3-4.1,0-6.2-0.3c-3.8,0-7.7,0-11.5,0H37.8c-0.5,0-0.9,0-1.4,0c-1.4,0.2-2.8,0.2-4.1,0.5c-4.2,1.1-7.1,3.4-9.1,6.7
	c-2.8,4.7-2,13.4-2,20.7v24c0,3.5,0,7,0,10.5c0.2,1.5,0,2.8,0.3,4.1c1.1,5,3.8,8.6,8,10.5c5.1,2.2,14,1.5,21.2,1.5h28.5
	c3.1,0,6.1,0,9.2,0c1.8,0,3.5-0.1,5.3-0.1c2.5-0.4,5-0.3,7.3-0.9c1.6-0.4,4.1-1.3,6.1-0.9c2.5,0.4,4.4,1.2,6.7,1.7
	c2.9,0.7,6.3,0.3,9.5,0.8c1.2,0,2.3,0,3.5,0h5.7c1,0,1.9-0.1,2.9-0.1c3.5-0.6,6.8-0.8,9.9-1.7c1.6-0.5,4.2-1.8,6.4-1.4
	c2.8,0.5,4.7,1.6,7.5,2.2c3.4,0.7,8.1,0.4,12,0.4c3.9,0,8.5,0.4,11.9-0.4c2.9-0.6,5.1-1.6,7.1-3.2c1.7-1.3,2.8-3.1,4.9-4
	c1-0.4,2.2-0.4,3.4-0.6h5.2c3.7,0,9.2-0.5,11.9,0.7c1.8,0.8,2.8,2.3,4.2,3.4c1.7,1.4,3.6,2.5,6,3.2c3.7,1.1,9.1,0.7,13.7,0.7
	c2.5,0,5,0,7.6,0c1.5,0,3.1-0.1,4.6-0.1c1.7,0,3.4,0.1,5.1,0.1c2.8,0,5.6,0,8.5,0c3.1,0,6.2-0.1,9.3-0.1c1.4-0.2,2.8-0.2,4-0.6
	c4.3-1.3,7.2-3.8,9-7.6c1-2,1-4.7,1.8-7c0.2-0.7,0.6-1.6,1.7-1.4c1.8,0.4,5.3,4.9,6.5,6.4c3.8,4.7,7.2,8.7,14.4,10
	c1.5,0.3,3-0.1,4.6,0.2c2.4,0,4.8,0,7.2,0c2.9,0,5.8,0,8.7,0c1.8-0.3,5-0.4,6.8-0.1c1.8,0,3.6,0.1,5.5,0.1c2.1,0,4.1,0,6.2,0
	c4.4,0,9.3,0.3,12.7-1c2.9-1.1,5.2-2.7,6.8-5.1c0.9-1.2,1.9-4.4,3.5-4.8c1.4-0.3,3,1.5,3.7,2c2.8,2.2,5.1,4.8,8.2,6.6
	c4.1,2.4,10.6,2.2,17.3,2.2c2.8,0,5.5-0.1,8.3-0.1c1.2-0.2,2.4-0.3,3.5-0.5c0.9-0.2,2.3-0.5,3.4-0.4c3.8,0.6,7.3,1,11.7,1h41
	c4.4,0,8.8,0,13.3,0h2.2c1.7-0.3,3.4-0.2,4.9-0.7c2.2-0.7,4-1.6,5.6-2.9c4.3-3.4,5-8.7,5-16.4c0-2,0-4.1,0-6.1
	C501.9,72.7,501.8,71.6,501.7,70.6"/>
<path fill="#010101" d="M54.8,56.8c2.7,1.2,7,0.8,10.8,0.8h9.8c6.5,0,12.5,0,14.1-5c0.9-2.9-0.7-5.3-2.3-6.4c-2.2-1.6-4.1-1.5-7.4-2
	h-4.3c-4.4,0-8.9,0-13.3,0c-1,0-1.9,0-2.9,0c-2.1,0.3-3.8,0.4-5.2,1.2C49.6,48,50.3,54.9,54.8,56.8"/>
<path fill="#010101" d="M309,46.8c-2.8-2.1-7.1-2.2-12.1-2.2h-15.5c-0.9,0.1-1.8,0.2-2.6,0.2c-1.6,0.3-2.8,0.9-3.9,1.7
	c-3,2.4-2.7,8.6,0.2,10.8c2.7,2.1,7.5,1.8,12.2,1.8h9.9c6.9,0,12.8-0.1,14.4-5.4C312.4,50.6,310.7,48,309,46.8"/>
<path fill="#010101" d="M213.4,55.4c-1.8-2.9-3.5-6.8-8.3-6.8c-0.8,0.3-1.5,0.4-2.2,0.8c-2.8,1.7-5.7,6.9-7.4,9.8
	c-0.9,1.4-2.1,4-1.2,6.3c1.5,3.8,6.9,3.5,12.2,3.5c2.8,0,5.7,0.1,7.7-0.8c2.8-1.2,3.9-4.2,2.4-7.6C215.7,58.7,214.4,57.1,213.4,55.4
	"/>
<path fill="#010101" d="M90,64.6c-2.9-1.5-7.3-1.4-11.7-1.4h-19c-0.6,0-1.2,0.1-1.8,0.1c-1.7,0.3-3.2,0.7-4.3,1.6
	c-3.2,2.5-2.8,8.4,0.5,10.6c2.7,1.8,7.9,1.5,12.4,1.5h11.6c7.3,0,14.4,0.2,15.8-5.7C94.3,67.9,92,65.6,90,64.6"/>
</svg>
