<?xml version="1.0" encoding="utf-8"?>
<!-- Generator: Adobe Illustrator 17.1.0, SVG Export Plug-In . SVG Version: 6.00 Build 0)  -->
<!DOCTYPE svg PUBLIC "-//W3C//DTD SVG 1.1//EN" "http://www.w3.org/Graphics/SVG/1.1/DTD/svg11.dtd">
<svg version="1.1" id="Layer_1" xmlns="http://www.w3.org/2000/svg" xmlns:xlink="http://www.w3.org/1999/xlink" x="0px" y="0px"
	 viewBox="0 0 351 141.5" enable-background="new 0 0 351 141.5" xml:space="preserve">
<g>
	<path fill="#010101" d="M103.3,141.7c-5,0-4.5-0.2-8.4-0.6v-20.3c2.5,0.2,4.4,0.2,6.7,0c4.4-0.3,5.6-3.4,5.6-6.9V16.6h21.5v101.2
		C128.8,135.6,121.1,141.7,103.3,141.7z"/>
	<path fill="#010101" d="M152.3,141.5H131l13.6-124.9h31.5l11.6,124.9h-21.7c0,0-1.4-21.9-1.7-31.4c0,0-9.7,0-9.8,0
		C154.1,119.7,152.3,141.5,152.3,141.5z M160.9,57.1c-0.3-8.4-1.4-25.8-1.4-25.8s-0.9,17.2-1.2,25.8c0,0.8-3.1,36.1-3.1,36.7h8.3
		C163.4,93.1,160.9,57.8,160.9,57.1z"/>
	<path fill="#010101" d="M240.1,73.5c-1.6,4.4-4.2,7.7-6.4,8.7l11.4,59.3h-21.7L214,88.6h-2.3v52.9h-20.9V16.6h29
		c8,0,15.6,3.6,18.7,10.5c2.3,5.2,4.2,14.1,4.2,25.3C242.8,62.4,241.7,68.9,240.1,73.5z M220.3,42.7c-0.3-3.3-1.7-5.9-4.5-5.9H212
		c0,0,0,30.6,0,33.3c0.3,0,3.1,0,4.2-0.2c2-0.3,3-1.7,3.4-3.4c0.8-2.2,1.1-8,1.1-11.7C220.7,50.2,220.4,44.1,220.3,42.7z"/>
	<path fill="#010101" d="M280.5,141.5l-11.7-56.1v56.1h-20V16.6h19.1l12.2,55.1V16.6h20v124.9H280.5z"/>
	<path fill="#010101" d="M306.3,141.5V16.6h44.5v20.9H328v31.2h20.8v19.5H328v32.8h23v20.5H306.3z"/>
</g>
<path fill="#010101" d="M86,51.8V41.4H64.3C64,39.1,63.3,37,62.3,35L79,18.2l-7.4-7.4L55.3,27.2c-2.2-1.5-4.7-2.5-7.4-3.1V0H37.5
	v24.8c-1.8,0.6-3.6,1.4-5.1,2.5L16,10.9l-7.4,7.4L25.4,35c-1,2-1.7,4.1-2.1,6.4H0v10.4h24.4c0.4,1.1,0.9,2.1,1.4,3.1L8.7,72l7.4,7.4
	l17.1-17.1c1.7,1.1,3.7,1.9,5.7,2.4v23.5h10.4V64.6c1.9-0.5,3.7-1.3,5.4-2.3l17.1,17.1L79,72L61.9,54.8c0.6-1,1-2,1.4-3.1H86z
	 M33.5,44.5c0-5.7,4.6-10.4,10.4-10.4s10.4,4.6,10.4,10.4c0,5.7-4.6,10.4-10.4,10.4S33.5,50.3,33.5,44.5z"/>
<path fill="#010101" d="M86,107.4V97H0v10.4h27.2c-1.6,2.1-2.7,4.5-3.4,7.1H0V125h23.8c0.7,2.6,1.8,4.9,3.3,7H0v10.4h86V132H60.6
	c1.5-2.1,2.6-4.4,3.3-7H86v-10.4H63.9c-0.7-2.6-1.9-5-3.4-7.1H86z M43.8,130.1c-5.7,0-10.4-4.6-10.4-10.4c0-5.7,4.6-10.4,10.4-10.4
	s10.4,4.6,10.4,10.4C54.2,125.5,49.6,130.1,43.8,130.1z"/>
</svg>
