<?xml version="1.0" encoding="utf-8"?>
<!-- Generator: Adobe Illustrator 17.1.0, SVG Export Plug-In . SVG Version: 6.00 Build 0)  -->
<!DOCTYPE svg PUBLIC "-//W3C//DTD SVG 1.1//EN" "http://www.w3.org/Graphics/SVG/1.1/DTD/svg11.dtd">
<svg version="1.1" id="Layer_1" xmlns="http://www.w3.org/2000/svg" xmlns:xlink="http://www.w3.org/1999/xlink" x="0px" y="0px"
	 viewBox="0 0 367.3 99.2" enable-background="new 0 0 367.3 99.2" xml:space="preserve">
<g>
	<path fill="#010101" d="M50.6,76.5c2.3-0.3,4.1-1.4,5.3-3c1.2-1.5,1.8-3.7,1.8-6.1c0-2.4-0.7-4.8-2.6-6.7
		c-2.2-2.2-6.1-3.7-12.4-3.7H-1.2v41.5h44.8c6.7,0,12.2-1.2,14.8-4.7c1.5-1.9,2.1-4.5,2.1-7.3c0-2.2-0.6-4.4-1.9-5.9
		C57,78.4,54.1,76.9,50.6,76.5z M14,67.1h21.8c2.5,0,4.1,0.2,4.9,1c0.6,0.5,0.9,1.1,0.9,1.9c0,0.8-0.2,1.6-0.7,2.1
		C40.1,72.7,38.4,73,36,73H14V67.1z M44.2,87.4c-0.9,1-2.7,1.3-6.2,1.3H14v-6.2h24.2c3.2,0,4.9,0.3,5.8,1.1c0.5,0.5,0.7,1.1,0.7,1.9
		C44.7,86.3,44.6,86.9,44.2,87.4z"/>
	<path fill="#010101" d="M129.3,57.1l-28,41.5h16.7l4.4-6.5h30.1l4.2,6.5h17.1l-26.7-41.5H129.3z M128.6,82.2l6.8-10.1l2.3-3.6
		l2.1,3.6c0,0,6.6,10.1,6.6,10.1H128.6z"/>
	<path fill="#010101" d="M234.5,77.2c1.5-1.9,2.4-4.8,2.4-7.9c0-3.6-1.1-6.2-3.2-8.1c-2.9-2.5-7.9-4.1-15.3-4.1h-39.7v41.5h15.6
		V83.4h17.2l13.2,15.2h17.2l-15.2-17.2C230.2,81,233,79.1,234.5,77.2z M221.5,72.6c-0.6,1.1-2,1.5-5,1.5h-22.2v-6.7h21.9
		c2.7,0,4.3,0.4,5.3,1.8c0.3,0.5,0.5,1,0.5,1.7C222,71.4,221.9,72.1,221.5,72.6z"/>
	<polygon fill="#010101" points="290.2,80.4 263.7,57.1 247.7,57.1 247.7,98.6 262.7,98.6 262.7,74.7 289.8,98.6 305.1,98.6 
		305.1,57.1 290.2,57.1 	"/>
	<polygon fill="#010101" points="330.9,87.7 330.9,83 365.9,83 365.9,72.7 330.9,72.7 330.9,68.1 366.8,68.1 366.8,57.1 315.6,57.1 
		315.6,98.6 367.3,98.6 367.3,87.7 	"/>
	<path fill="#010101" d="M112.1,75.1V63.9H98.9v-6.7c13.3-3.5,23.1-14.7,23.1-28C122.1,13.1,107.8,0,90.3,0S58.4,13.1,58.4,29.1
		c0,13.8,10.6,25.5,24.8,28.4v6.4H70v11.2h13.2v4.8c0,3.7-2.3,7.4-8.2,7.4c-2.7,0-9.6-0.1-10.4-0.2v11.6c0.8,0.1,7,0.5,12.8,0.5
		c14,0,21.5-7.4,21.5-17.1v-6.9H112.1z M73.4,29.1C73.4,21.3,81,15,90.3,15s16.8,6.3,16.8,14.1s-7.5,14.1-16.8,14.1
		S73.4,36.9,73.4,29.1z"/>
</g>
<path fill="#5A5121" d="M90.3,42.8c7.6,0,13.8-6.2,13.8-13.7c0-7.6-6.2-13.8-13.8-13.8c-7.6,0-13.8,6.2-13.8,13.8
	C76.5,36.7,82.7,42.8,90.3,42.8"/>
</svg>
