<?xml version="1.0" encoding="utf-8"?>
<!-- Generator: Adobe Illustrator 18.0.0, SVG Export Plug-In . SVG Version: 6.00 Build 0)  -->
<!DOCTYPE svg PUBLIC "-//W3C//DTD SVG 1.1//EN" "http://www.w3.org/Graphics/SVG/1.1/DTD/svg11.dtd">
<svg version="1.1" id="Layer_1" xmlns="http://www.w3.org/2000/svg" xmlns:xlink="http://www.w3.org/1999/xlink" x="0px" y="0px"
	 viewBox="0 0 235 190" enable-background="new 0 0 235 190" xml:space="preserve">
<g>
	<path fill="#5A5121" d="M142.3,47.7c-4.1-3,1.8-4.3,3.7-5.7c1.2-0.4,1.8-0.2,2.5,0.1C150.4,45.2,145.6,50.1,142.3,47.7 M158.1,74.9
		c0.3,0.9,0.7,1.8,1,2.7c1.2,1.9,2.3,3.8,3.5,5.8c1.1,2,1,4.4,1.2,6.1c0.5,3.1,1,6.1,1.5,9.2c1.1,3.7,2.2,7.5,3.2,11.2
		c0.1,1.2,0,2.2-0.1,3.2c-0.2,1.5-0.6,3-0.8,4.8c-0.1,0.9-0.3,1.8-0.4,2.6c-0.3,1.4-0.6,2.9-0.9,4.3c-0.6,1.4-0.7,3.9-0.9,5.8
		c-0.3,2.7-1.3,6.3-2.7,8.4c-1.6,2.4-2.3,5.4-4.1,7.7c-0.9,1-1.9,2-2.8,3c-1,1.3-1.9,2.7-3.2,3.8c-1.3,1-2.6,1.9-4,2.9
		c-1.1,1-2.2,2-3.3,3c-1.5,1-3.1,2.1-4.6,3.1c-2.2,1.8-8.7,5.4-10.1,5.4c-2,0-3.8,1.4-6,1.5c-2.1,0.2-4.2,0.4-6.3,0.6
		c-15.7,0.1-29.4-5.1-40.6-15.2c-1.9-1.7-3.3-4.1-4.9-6.3c-2.5-3.5-4.4-7.4-6.7-11.5c-1.2-2.2-2.1-4.6-1.4-6.5
		c0.6-1.4,2.3-2.6,3.2-3.9c1.3-1.9,2.6-3.8,3.9-5.7c0.9-1.3,1.4-2.9,2.9-3.8c2-0.7,4-1.4,6-2c8.9-4.9,20.2-8.2,21.1-17.2
		c0.5-5.3-4-10.6-7.1-12.8c-1.6-1.1-4-1.2-5.4-2.7c-1.5-1.5,1.1-3.7-0.9-5.3c-1.7-1.3-4.9,0.4-6.5-1.1c-0.8-2.2,3.9-6.8,5.2-8.5
		c2.5-3.3,4.1-6.9,5.9-10.5c0.8-1.5,1.5-3.4,2.7-4.6c1.7-1.8,5.7-2.8,7.8-4.4c2-0.6,4.3-1,5.6-0.1c0.7,1.3-0.2,2.3-0.6,3.3
		c-1.1,2.9-3.6,5.5-4.5,8.3c-0.7,2.1,0.8,4.3,2.7,4.5c2.8,0.2,4.5-2.5,5.5-3.8c1.6-2.2,3.9-4.1,5.4-6.4c0.7-1.9,1.5-3.7,2.2-5.6
		c1.2-1.8,3.8-2.7,5.4-1c1.1,3.5-6.4,6.4-3.4,9.9c1.1,1.2,3.4,1,4.9-0.3c2.1-1.8,5.8-7.2,9.5-6.9c1.6,0.1,3.8,0.6,4.8,2
		c0.7,1,0.9,2.8,1.8,3.5c1.1,0.6,2.3,1.2,3.4,1.7c2.6,2,5.2,5.5,7.2,8.4c1,1.4,1.3,3.2,2.3,4.9C156.5,71.9,157.3,73.4,158.1,74.9
		 M66.5,111.4c0.2-0.1,0.4-0.1,0.5-0.2c0.1,0,0.2,0.1,0.3,0.1c0.5,1.2-2.5,5.6-3.6,6.5c-0.1,0-0.1,0-0.2,0c-0.1-0.1-0.2-0.3-0.3-0.4
		C63.8,114.7,64.7,113.5,66.5,111.4 M72.8,102.5c0.6-1.7,2.1-2.9,3.2-4.3c1.3-1.7,1.9-3.6,3.4-5.2c1.3-1.5,3.2-2.1,4.8-3.4
		c2.2-0.7,3.9-0.9,5.5-0.5c2.3,0.6,6.4,4,5.5,7.7c-1.3,5.6-7.4,7.6-12.9,11c-1.9,1.2-4.8,3.1-7,2.3
		C71.9,108.8,71.7,105.4,72.8,102.5 M67.8,76.3c2.1-5.9,4.7-9.3,8.8-14.1c1.3-1.5,2.5-3.2,4-4.5c0.7-0.5,1.3-0.9,2-1.4
		c0.5-0.2,0.8-0.2,1.1-0.1c0.2,0.1,0.3,0.1,0.5,0.3c0.4,1.7-1.9,4.9-2.8,6.1c-1.5,2.2-3.1,4.4-4.6,6.6c-0.8,0.9-1.6,1.7-2.4,2.6
		c-0.6,1-1.2,2-1.9,3c-0.8,1-1.7,2-2.1,3.2c-0.8,2.4-0.3,4-2.7,5.7c-0.5,0.3-1.2,0.7-1.7,0.6c-0.3-0.1-0.3-0.1-0.5-0.3
		C64.9,81.7,67.2,78.2,67.8,76.3 M128.7,35.8c2.2-0.8,4.4,0,3.9,2.5c-0.6,2.8-2.8,4.8-6.3,4c-0.8-0.2-1.3-0.2-1.8-0.9
		C124,39.3,127.3,37,128.7,35.8 M152,48.1c1.3-1.7,2.9-4.5,2.9-6.8c-0.1-6.1-6.6-5.5-11-4.9c-2,0.3-3.7,2.3-5.5,2
		c-1.8-0.2-1.2-5.6-2.1-6.5c-1.8-1.7-2.5-2.9-5.5-2.8c-0.6,0.1-1.1,0.3-1.7,0.4c-0.5,0.2-0.9,0.5-1.4,0.7c-1,0.8-2.2,1.6-3,2.6
		c0,0-2.5,1.4-2.8,1.7c-1.2,1-2.5,2.5-4.2,3.4c-1.7,0.9-5,0-7,0.3c-0.7,0.2-1.4,0.5-2.1,0.7c-0.9,0.3-1.8,0.5-2.7,0.8
		c-1.1,0.5-2.2,1-3.4,1.5c-2.4,0.8-4.8,1.6-7.1,2.5c-2.8,1.4-5.6,0.8-8.3,2.3c-1.4,0.7-2.7,1.3-4.1,2c-1.5,1-3,1.9-4.6,2.9
		c-1.2,0.6-2.4,1.2-3.6,1.8c-1.7,1.1-2.9,2.5-4.4,3.5c-2,1.3-4.6,2.5-6.5,3.6c-1.9,1.1-3.8,0.4-5.7,1.4c-3.7,2-6.5,4-8.8,6.7
		c-1.7,2-2.3,4.7-3.8,6.9c-2,3-3.7,6.2-5.8,9.1c-1.8,2.6-4,5-4,8.5c0,6,5.9,16.2,11.5,13.8c0.4-1.4-1.3-2.8-2.1-3.7
		c-1.8-2.4-3.9-6-3.3-9.3c0.7-4.3,3.9-8.3,6.2-11.9c1.8-2.6,3.4-6.7,5.9-8.8c1.9-1.6,4.3,1.2,6.9-1.6c2.4-2.6,3.6-5.7,6.2-8.2
		c0.9-0.9,2-2.3,3.7-2.3c1.3,1.2-0.6,2.6-1.5,3.4c-2.2,1.8-5.2,5.2-6.7,7.5c-0.9,1.7-1.8,3.4-2.8,5.1c-2.3,3.3-6.9,9.4-7,13.5
		c-0.1,4.3,5,3.7,3.7,8.6c-0.5,2-2.1,3.7-3.7,5.1c-1,0.9-2.4,1.6-2.8,2.7c0.7,1.8,3.8,1,3.9,3.3c0,2.5-1.5,4.6-2.2,6.8
		c-1.2,3.7-2.2,7.5-2.8,11.5c-0.2,1.6-0.9,5.8,0.5,7.8c1.1,1.7,2.8,2.1,4.9,1.9c2.8-0.3,4.5-1.7,6.2,0.3c2,2.4,3.3,5.9,4.9,8.8
		c0.5,1.2,1,2.4,1.6,3.6c2,3.1,4.3,6.1,6.8,8.3c2.3,2,4.9,3.7,7.4,5.4c1.2,0.6,2.3,1.2,3.5,1.9c2.7,1.9,5.1,3.5,8.2,4.7
		c1,0.5,2,1,3,1.4c3.9,1,7.6,2.1,10.9,3.3c0.1-0.2,2.9-0.1,3.2-0.3c2.2,0,4.3,0,6.5-0.1c0.2-0.2,6.6-1.2,7.4-1.2
		c2.6,0.1,7.7-1,9.7-1.9c2.9-1.3,5.7-2.5,8.6-3.8c1.1-0.6,3.6-0.6,4.3-1.1c0.8-0.6,1.4-1.6,2.1-2.2c0.7-0.7,2.1-1.2,3-2.1
		c1-1,1.9-2.4,3-3.3c2.3-1.8,4.7-3.5,6.3-5.6c0.8-1.3,1.5-2.5,2.3-3.8c0.9-1.3,2.2-2.6,2.8-4.1c0.7-2.1,1.3-4.7,2.3-6.3
		c0.8-1.3,1.6-2.4,2.2-3.7c0.4-0.9,0.6-2.3,1.1-3.1c0.4-0.6,0.8-1.2,1.2-1.9c0.4-3.8,0.7-7.7,1.1-11.5c0.5-4.3,1.3-5.7,2.7-9.6
		c-0.1-0.1-0.1-1.5-0.1-1.5c-0.4-0.7-0.8-1.4-1.2-2.1c-0.1,0.5-1.5-2.1-2-2.9c-1.1-1.8-3.5-9.5-3.7-12.6c-0.2-2.2,0-5.7-1.5-8.3
		c-0.9-2-1.8-4-2.7-6c-1.2-1.7-2.3-3.4-3.5-5.1c-0.4-0.9-0.7-1.8-1.1-2.7c-1.6-2.7-2.7-5.8-4.5-8.4c-1.7-2.1-3.3-4.2-5-6.4
		C149.3,50.9,151,49.5,152,48.1"/>
	<path fill="none" stroke="#F58220" stroke-width="1.242" stroke-miterlimit="10" d="M142.3,47.7c-4.1-3,1.8-4.3,3.7-5.7
		c1.2-0.4,1.8-0.2,2.5,0.1C150.4,45.2,145.6,50.1,142.3,47.7z M158.1,74.9c0.3,0.9,0.7,1.8,1,2.7c1.2,1.9,2.3,3.8,3.5,5.8
		c1.1,2,1,4.4,1.2,6.1c0.5,3.1,1,6.1,1.5,9.2c1.1,3.7,2.2,7.5,3.2,11.2c0.1,1.2,0,2.2-0.1,3.2c-0.2,1.5-0.6,3-0.8,4.8
		c-0.1,0.9-0.3,1.8-0.4,2.6c-0.3,1.4-0.6,2.9-0.9,4.3c-0.6,1.4-0.7,3.9-0.9,5.8c-0.3,2.7-1.3,6.3-2.7,8.4c-1.6,2.4-2.3,5.4-4.1,7.7
		c-0.9,1-1.9,2-2.8,3c-1,1.3-1.9,2.7-3.2,3.8c-1.3,1-2.6,1.9-4,2.9c-1.1,1-2.2,2-3.3,3c-1.5,1-3.1,2.1-4.6,3.1
		c-2.2,1.8-8.7,5.4-10.1,5.4c-2,0-3.8,1.4-6,1.5c-2.1,0.2-4.2,0.4-6.3,0.6c-15.7,0.1-29.4-5.1-40.6-15.2c-1.9-1.7-3.3-4.1-4.9-6.3
		c-2.5-3.5-4.4-7.4-6.7-11.5c-1.2-2.2-2.1-4.6-1.4-6.5c0.6-1.4,2.3-2.6,3.2-3.9c1.3-1.9,2.6-3.8,3.9-5.7c0.9-1.3,1.4-2.9,2.9-3.8
		c2-0.7,4-1.4,6-2c8.9-4.9,20.2-8.2,21.1-17.2c0.5-5.3-4-10.6-7.1-12.8c-1.6-1.1-4-1.2-5.4-2.7c-1.5-1.5,1.1-3.7-0.9-5.3
		c-1.7-1.3-4.9,0.4-6.5-1.1c-0.8-2.2,3.9-6.8,5.2-8.5c2.5-3.3,4.1-6.9,5.9-10.5c0.8-1.5,1.5-3.4,2.7-4.6c1.7-1.8,5.7-2.8,7.8-4.4
		c2-0.6,4.3-1,5.6-0.1c0.7,1.3-0.2,2.3-0.6,3.3c-1.1,2.9-3.6,5.5-4.5,8.3c-0.7,2.1,0.8,4.3,2.7,4.5c2.8,0.2,4.5-2.5,5.5-3.8
		c1.6-2.2,3.9-4.1,5.4-6.4c0.7-1.9,1.5-3.7,2.2-5.6c1.2-1.8,3.8-2.7,5.4-1c1.1,3.5-6.4,6.4-3.4,9.9c1.1,1.2,3.4,1,4.9-0.3
		c2.1-1.8,5.8-7.2,9.5-6.9c1.6,0.1,3.8,0.6,4.8,2c0.7,1,0.9,2.8,1.8,3.5c1.1,0.6,2.3,1.2,3.4,1.7c2.6,2,5.2,5.5,7.2,8.4
		c1,1.4,1.3,3.2,2.3,4.9C156.5,71.9,157.3,73.4,158.1,74.9z M66.5,111.4c0.2-0.1,0.4-0.1,0.5-0.2c0.1,0,0.2,0.1,0.3,0.1
		c0.5,1.2-2.5,5.6-3.6,6.5c-0.1,0-0.1,0-0.2,0c-0.1-0.1-0.2-0.3-0.3-0.4C63.8,114.7,64.7,113.5,66.5,111.4z M72.8,102.5
		c0.6-1.7,2.1-2.9,3.2-4.3c1.3-1.7,1.9-3.6,3.4-5.2c1.3-1.5,3.2-2.1,4.8-3.4c2.2-0.7,3.9-0.9,5.5-0.5c2.3,0.6,6.4,4,5.5,7.7
		c-1.3,5.6-7.4,7.6-12.9,11c-1.9,1.2-4.8,3.1-7,2.3C71.9,108.8,71.7,105.4,72.8,102.5z M67.8,76.3c2.1-5.9,4.7-9.3,8.8-14.1
		c1.3-1.5,2.5-3.2,4-4.5c0.7-0.5,1.3-0.9,2-1.4c0.5-0.2,0.8-0.2,1.1-0.1c0.2,0.1,0.3,0.1,0.5,0.3c0.4,1.7-1.9,4.9-2.8,6.1
		c-1.5,2.2-3.1,4.4-4.6,6.6c-0.8,0.9-1.6,1.7-2.4,2.6c-0.6,1-1.2,2-1.9,3c-0.8,1-1.7,2-2.1,3.2c-0.8,2.4-0.3,4-2.7,5.7
		c-0.5,0.3-1.2,0.7-1.7,0.6c-0.3-0.1-0.3-0.1-0.5-0.3C64.9,81.7,67.2,78.2,67.8,76.3z M128.7,35.8c2.2-0.8,4.4,0,3.9,2.5
		c-0.6,2.8-2.8,4.8-6.3,4c-0.8-0.2-1.3-0.2-1.8-0.9C124,39.3,127.3,37,128.7,35.8z M152,48.1c1.3-1.7,2.9-4.5,2.9-6.8
		c-0.1-6.1-6.6-5.5-11-4.9c-2,0.3-3.7,2.3-5.5,2c-1.8-0.2-1.2-5.6-2.1-6.5c-1.8-1.7-2.5-2.9-5.5-2.8c-0.6,0.1-1.1,0.3-1.7,0.4
		c-0.5,0.2-0.9,0.5-1.4,0.7c-1,0.8-2.2,1.6-3,2.6c0,0-2.5,1.4-2.8,1.7c-1.2,1-2.5,2.5-4.2,3.4c-1.7,0.9-5,0-7,0.3
		c-0.7,0.2-1.4,0.5-2.1,0.7c-0.9,0.3-1.8,0.5-2.7,0.8c-1.1,0.5-2.2,1-3.4,1.5c-2.4,0.8-4.8,1.6-7.1,2.5c-2.8,1.4-5.6,0.8-8.3,2.3
		c-1.4,0.7-2.7,1.3-4.1,2c-1.5,1-3,1.9-4.6,2.9c-1.2,0.6-2.4,1.2-3.6,1.8c-1.7,1.1-2.9,2.5-4.4,3.5c-2,1.3-4.6,2.5-6.5,3.6
		c-1.9,1.1-3.8,0.4-5.7,1.4c-3.7,2-6.5,4-8.8,6.7c-1.7,2-2.3,4.7-3.8,6.9c-2,3-3.7,6.2-5.8,9.1c-1.8,2.6-4,5-4,8.5
		c0,6,5.9,16.2,11.5,13.8c0.4-1.4-1.3-2.8-2.1-3.7c-1.8-2.4-3.9-6-3.3-9.3c0.7-4.3,3.9-8.3,6.2-11.9c1.8-2.6,3.4-6.7,5.9-8.8
		c1.9-1.6,4.3,1.2,6.9-1.6c2.4-2.6,3.6-5.7,6.2-8.2c0.9-0.9,2-2.3,3.7-2.3c1.3,1.2-0.6,2.6-1.5,3.4c-2.2,1.8-5.2,5.2-6.7,7.5
		c-0.9,1.7-1.8,3.4-2.8,5.1c-2.3,3.3-6.9,9.4-7,13.5c-0.1,4.3,5,3.7,3.7,8.6c-0.5,2-2.1,3.7-3.7,5.1c-1,0.9-2.4,1.6-2.8,2.7
		c0.7,1.8,3.8,1,3.9,3.3c0,2.5-1.5,4.6-2.2,6.8c-1.2,3.7-2.2,7.5-2.8,11.5c-0.2,1.6-0.9,5.8,0.5,7.8c1.1,1.7,2.8,2.1,4.9,1.9
		c2.8-0.3,4.5-1.7,6.2,0.3c2,2.4,3.3,5.9,4.9,8.8c0.5,1.2,1,2.4,1.6,3.6c2,3.1,4.3,6.1,6.8,8.3c2.3,2,4.9,3.7,7.4,5.4
		c1.2,0.6,2.3,1.2,3.5,1.9c2.7,1.9,5.1,3.5,8.2,4.7c1,0.5,2,1,3,1.4c3.9,1,7.6,2.1,10.9,3.3c0.1-0.2,2.9-0.1,3.2-0.3
		c2.2,0,4.3,0,6.5-0.1c0.2-0.2,6.6-1.2,7.4-1.2c2.6,0.1,7.7-1,9.7-1.9c2.9-1.3,5.7-2.5,8.6-3.8c1.1-0.6,3.6-0.6,4.3-1.1
		c0.8-0.6,1.4-1.6,2.1-2.2c0.7-0.7,2.1-1.2,3-2.1c1-1,1.9-2.4,3-3.3c2.3-1.8,4.7-3.5,6.3-5.6c0.8-1.3,1.5-2.5,2.3-3.8
		c0.9-1.3,2.2-2.6,2.8-4.1c0.7-2.1,1.3-4.7,2.3-6.3c0.8-1.3,1.6-2.4,2.2-3.7c0.4-0.9,0.6-2.3,1.1-3.1c0.4-0.6,0.8-1.2,1.2-1.9
		c0.4-3.8,0.7-7.7,1.1-11.5c0.5-4.3,1.3-5.7,2.7-9.6c-0.1-0.1-0.1-1.5-0.1-1.5c-0.4-0.7-0.8-1.4-1.2-2.1c-0.1,0.5-1.5-2.1-2-2.9
		c-1.1-1.8-3.5-9.5-3.7-12.6c-0.2-2.2,0-5.7-1.5-8.3c-0.9-2-1.8-4-2.7-6c-1.2-1.7-2.3-3.4-3.5-5.1c-0.4-0.9-0.7-1.8-1.1-2.7
		c-1.6-2.7-2.7-5.8-4.5-8.4c-1.7-2.1-3.3-4.2-5-6.4C149.3,50.9,151,49.5,152,48.1z"/>
	<path fill="#5A5121" d="M147.1,77.7c-0.5,1-0.9,2-1.4,3c-2,2.6-9.7,7.9-13.8,6.6c-2.9-0.9-4.7-3.6-3.5-6.8c1.4-3.6,7.5-6.7,10-9.9
		c-0.2-2.5-3.1-2.6-5.3-1.9c-1,0.5-1.9,1.1-2.9,1.6c-4,3-8.2,6.7-8.7,11.5c-0.8,8.1,8.3,9.7,12.9,10.9c1.8,0.5,4.4,1.2,7-0.1
		c4.1-2.1,9.3-6,11.1-9.3c0.9-1.6,1.2-4.1-0.8-5.6C150.9,77.1,148.3,76.4,147.1,77.7"/>
	<path fill="none" stroke="#F58220" stroke-width="1.242" stroke-miterlimit="10" d="M147.1,77.7c-0.5,1-0.9,2-1.4,3
		c-2,2.6-9.7,7.9-13.8,6.6c-2.9-0.9-4.7-3.6-3.5-6.8c1.4-3.6,7.5-6.7,10-9.9c-0.2-2.5-3.1-2.6-5.3-1.9c-1,0.5-1.9,1.1-2.9,1.6
		c-4,3-8.2,6.7-8.7,11.5c-0.8,8.1,8.3,9.7,12.9,10.9c1.8,0.5,4.4,1.2,7-0.1c4.1-2.1,9.3-6,11.1-9.3c0.9-1.6,1.2-4.1-0.8-5.6
		C150.9,77.1,148.3,76.4,147.1,77.7z"/>
	<path fill="#5A5121" d="M115.2,133.8c4.3,1.3,7.9-8.3,1.9-6.3c-1.5,1.2-4.3,2.9-2.9,5.3C114.4,133.3,114.7,133.6,115.2,133.8"/>
	<path fill="none" stroke="#F58220" stroke-width="1.242" stroke-miterlimit="10" d="M115.2,133.8c4.3,1.3,7.9-8.3,1.9-6.3
		c-1.5,1.2-4.3,2.9-2.9,5.3C114.4,133.3,114.7,133.6,115.2,133.8z"/>
	<path fill="#5A5121" d="M136.7,140.2c-0.3,1.1-2.4,1.1-3.1,0.8l0-0.1c0.3-0.7,0.7-0.8,1.3-1.3c0.8-0.3,1.3-0.1,1.8,0.2
		C136.7,139.9,136.7,140.1,136.7,140.2 M123.5,154.7c-0.2-0.1-0.1,0-0.3-0.2c1.1-0.7,2.5-1.4,3.6-2.3c0.5-0.2,1.1-0.4,1.5-0.3
		c0.1,0,0.1,0,0.2,0c0.1,0.1,0.1,0.2,0.2,0.3C128.1,153.4,125.5,155,123.5,154.7 M131.6,133.9c-0.6,0.3-1.2,0.6-1.9,0.9
		c-2.3,1.4-5.1,2.4-7.8,3.7c-1.4,0.5-2.9,1.1-4.3,1.6c-5.1,2.7-8.8,6.4-13.4,9.6c-3,2-9.4,5.8-5.8,10.2c1.8,2.2,4.6,2.5,7.2,3.1
		c8.4,1.9,22.6,0,30.3-6.8c1.4-1.2,2.7-2.9,3.2-4.7c0.3-1.3,0.1-2.9,0.9-4c1.4-1.9,4.2-2.4,4.9-4.6c0.6-1.7-0.3-4.4-1.6-5.7
		C141,134.9,135.7,132.6,131.6,133.9"/>
	<path fill="none" stroke="#F58220" stroke-width="1.242" stroke-miterlimit="10" d="M136.7,140.2c-0.3,1.1-2.4,1.1-3.1,0.8l0-0.1
		c0.3-0.7,0.7-0.8,1.3-1.3c0.8-0.3,1.3-0.1,1.8,0.2C136.7,139.9,136.7,140.1,136.7,140.2z M123.5,154.7c-0.2-0.1-0.1,0-0.3-0.2
		c1.1-0.7,2.5-1.4,3.6-2.3c0.5-0.2,1.1-0.4,1.5-0.3c0.1,0,0.1,0,0.2,0c0.1,0.1,0.1,0.2,0.2,0.3C128.1,153.4,125.5,155,123.5,154.7z
		 M131.6,133.9c-0.6,0.3-1.2,0.6-1.9,0.9c-2.3,1.4-5.1,2.4-7.8,3.7c-1.4,0.5-2.9,1.1-4.3,1.6c-5.1,2.7-8.8,6.4-13.4,9.6
		c-3,2-9.4,5.8-5.8,10.2c1.8,2.2,4.6,2.5,7.2,3.1c8.4,1.9,22.6,0,30.3-6.8c1.4-1.2,2.7-2.9,3.2-4.7c0.3-1.3,0.1-2.9,0.9-4
		c1.4-1.9,4.2-2.4,4.9-4.6c0.6-1.7-0.3-4.4-1.6-5.7C141,134.9,135.7,132.6,131.6,133.9z"/>
	<path fill="none" stroke="#5A5121" stroke-width="0.842" stroke-miterlimit="1.684" d="M41.9,137.9c-0.4,0.6-1.3,1-3.2,1.4l-13,2.8
		l-0.7-3.3l13.1-2.8c1.8-0.4,2.7-0.4,3.3-0.1c0.3,0.2,0.5,0.5,0.6,1C42,137.2,42.1,137.6,41.9,137.9z M38.5,128.7
		c0.1,0.4,0.1,0.9-0.2,1.2c-0.4,0.5-1.2,0.8-2.5,1l-12,2.5l-0.7-3.2l11.8-2.5c1.4-0.3,2.2-0.4,2.8-0.1
		C38.2,128,38.4,128.3,38.5,128.7z M50.4,139.8c0.6-1.2,0.6-2.7,0.3-4.2c-0.3-1.2-0.8-2.3-1.7-3c-1.2-1-2.9-1.5-4.9-1.3
		c1.2-0.4,2.1-1.3,2.5-2.2c0.5-1,0.5-2.2,0.3-3.5c-0.3-1.3-0.9-2.5-2.2-3.3c-1.4-0.9-3.7-1.3-7.1-0.6l-23.8,5.1l4.8,22.5l24.3-5.2
		C46.5,143.3,49.4,142,50.4,139.8z"/>
</g>
<text transform="matrix(0.9781 -0.2079 0.2079 0.9781 15.6802 149.8284)" fill="#5A5121" font-family="'TitlingGothicFBExtended-Bold'" font-size="29.4683">B</text>
<text transform="matrix(0.9781 -0.2079 0.2079 0.9781 53.3823 141.8147)" fill="#010101" font-family="'TitlingGothicFBExtended-Bold'" font-size="29.4683">J</text>
<text transform="matrix(0.9781 -0.2079 0.2079 0.9781 74.3662 137.3543)" fill="#5A5121" font-family="'TitlingGothicFBExtended-Bold'" font-size="29.4683">ARNE</text>
<text transform="matrix(0.9561 0.2929 -0.2929 0.9561 136.5253 18.3298)" fill="#2BACE2" font-family="'TitlingGothicFBExtended-Bold'" font-size="7.7697">S</text>
<text transform="matrix(0.9312 0.3645 -0.3645 0.9312 145.7764 21.237)" fill="#2BACE2" font-family="'TitlingGothicFBExtended-Bold'" font-size="7.7697">/</text>
<text transform="matrix(0.9116 0.4111 -0.4111 0.9116 149.1332 22.4539)" fill="#2BACE2" font-family="'TitlingGothicFBExtended-Bold'" font-size="7.7697">S</text>
<text transform="matrix(0.8778 0.4791 -0.4791 0.8778 157.9225 26.5486)" fill="#2BACE2" font-family="'TitlingGothicFBExtended-Bold'" font-size="7.7697">1</text>
<text transform="matrix(0.839 0.5441 -0.5441 0.839 162.9279 29.2566)" fill="#2BACE2" font-family="'TitlingGothicFBExtended-Bold'" font-size="7.7697">5</text>
</svg>
