<?xml version="1.0" encoding="utf-8"?>
<!-- Generator: Adobe Illustrator 18.0.0, SVG Export Plug-In . SVG Version: 6.00 Build 0)  -->
<!DOCTYPE svg PUBLIC "-//W3C//DTD SVG 1.1//EN" "http://www.w3.org/Graphics/SVG/1.1/DTD/svg11.dtd">
<svg version="1.1" id="Layer_1" xmlns="http://www.w3.org/2000/svg" xmlns:xlink="http://www.w3.org/1999/xlink" x="0px" y="0px"
	 viewBox="0 0 599.9 303" enable-background="new 0 0 599.9 303" xml:space="preserve">
<g>
	<path fill="none" stroke="#5A5121" stroke-width="0.842" stroke-miterlimit="1.684" d="M-648.5-74.8l-2.9-13.5l-8.5,1.8l2.6,12.4
		c0.4,2-0.4,4.3-3.6,5c-1.4,0.3-5.2,1.1-5.6,1.1l1.3,6.3c0.5,0,3.8-0.5,7-1.2C-650.6-64.6-647.4-69.6-648.5-74.8z"/>
</g>
<path fill="#EC2427" d="M192.3,194.8c-1.7-3.9-3.6-9.9-2.5-16.1c2.3-13.3,8.1-21.7,14.5-30.8c5-7.1,9.6-13.6,11.4-24
	c1.1-6.3-1.1-12.7-2.8-17c-3.4-8.6-6.8-16.9-9.2-26.4c-1-3.7-1-15.1-3.4-16.9c-2.8-2.1-13-1.3-18-1.2c-2.6,1-5.1-0.6-6.8,1.8
	c-2.5,3.4,0.3,15,1.3,18.5c1.7,5.7,3.7,11,5.8,16.4c2.7,6.8,6.3,16.1,4.5,25.9c-3,15.9-11.9,25.5-19.1,37.2
	c-2.8,4.6-8.1,14.3-6.6,22.6c1.6,9.5,5.7,15.4,10.5,21.7c3.2,4.3,7.1,7.7,8.2,14.1c0.5,2.7-1.3,5.5-2.6,6.5
	c-2.1,1.7-7.5,2.4-8.9,4.4c-1.6,2.2-0.1,6.6-0.6,9.9c-0.5,2.9-2.6,12-1.2,13.7c0.9,1.3,3,1.1,4.9,1.5c1.6-0.1,3.1-0.1,4.7-0.2
	c1.8-0.1,3.5-0.2,5.3-0.3c3.8-0.7,7.6-1.2,10.9-2.2c4.7-1.5,8.5-3.1,12-5.7c8.2-6,12.9-15.3,6.1-26.4
	C204.9,212.5,196.8,205.4,192.3,194.8"/>
<path fill="#EC2427" d="M273.8,127.9c-3,15.6-12.3,24.2-18,36.9c-1.2,2.8-2.3,5.6-3.1,8.8c-0.9,3.6-0.9,7.5-2.8,10.1
	c-1.8,2.4-6.7,4.1-11.1,2.8c-8.3-2.5-6.2-11.9-3-18.2c4.2-8.3,9.7-15.2,15-22.3c4.5-6,9.3-11.8,11.7-19.8c1.8-5.9,0.9-14.2-0.3-20
	c-0.5-2.3-0.9-6.3,0.5-7.7c2.7,0.1,4.1,3.3,5.3,5.1C271.7,109.1,275.6,118.3,273.8,127.9 M296.1,212.6c-4.8-6.2-10-11.8-14.2-18.7
	c-2.6-4.3-6.7-12-5.4-19.9c3.3-19.5,15.3-28,19.7-45.3c1.6-6.4-0.1-13.9-2-18.7c-3.8-9.8-8.9-18.2-12.1-28.3
	c-1.3-4-2.9-16.6-5.6-18.3c-2.3-1.4-7.1-0.9-10.6-0.9h-24c-2.7,1-5.2-0.6-7.1,1.8c-2.7,3.5-1.8,13.9-0.7,18.7
	c1.1,4.9,2.2,9.5,3.6,14.1c2.3,7.4,5.7,17.4,3.5,27.3c-3.9,17.4-15.6,27-24.5,39.4c-3.7,5.2-6.4,10.3-7.9,18.1
	c-0.1,1.5-0.2,3-0.3,4.6c2.9,17.4,14.9,24.7,19,40.7c1.7,6.6,0.1,14.4-1.8,19.6c-0.6,1.7-3,5.7-1.5,7.9c1.1,1.6,4.7,1.5,7.4,1.5
	c6.2,0,13.6,1.1,16.4-2.6c3.6-4.9,7.9-18.3,5.4-26.7c-1.5-5-4.8-8.4-5.8-13.6c-1-5.4,3.7-6.6,7.6-7.3c13.6-2.3,20.6,12.4,23.3,21.4
	c0.7,2.4,0.7,4.9,1.1,7.7c0.6,3.8-1.1,11-2,14c-0.4,1.6-1.3,4.5-0.2,6c1.4,1.9,17.9,2.4,21.6,1.3c6.5-1.8,8.9-20.2,6.3-28.2
	C303.6,221.8,299.6,217.2,296.1,212.6"/>
<path fill="#EC2427" d="M347.2,147.7c-3.8-0.7-6.9-2.8-5.7-7.6c0.8-3.4,3-6,4.4-9c1.3-3,2.1-6.1,2.8-9.9c1.2-7-2.5-15.8-4.2-20.5
	c-1.1-3-1.6-7.4,0.3-9.9c1.2-1.6,3-1.5,5.1-2.4c12.3-0.1,17.1,13.9,19.5,24.1c0.8,3.4,1,8.6,0.2,12.1c-1.6,7-4.8,12.2-9,16.5
	C358.2,143.6,352.6,148.7,347.2,147.7 M366.1,190.6c-2.9-4.6-7.5-13.1-5.9-21.5c1.7-8.8,9.1-11.7,15-16.2
	c8.3-6.3,17.1-14.5,21.2-24.8c4.7-11.9-2.2-25.9-6.7-33.6c-5.6-9.6-9.7-20.9-19-26.8c-11.7-7.4-34.7-5.3-53.6-5.3
	c-2.8,1.1-5.1-0.7-7,1.9c-2.4,3.3,0.7,15.2,1.7,18.5c2.6,8.5,5.8,16.1,8.4,24.7c1.3,4.3,2.6,10.7,1.6,16.4
	c-2.9,15.1-12,24.1-18.8,35.5c-2.4,4-7.7,13.1-6.5,20.1c3.3,19.4,18.2,26.9,23.6,44.2c2.5,8,0.5,17.7-1.8,24.4
	c-0.7,1.9-2.3,6-0.2,7.6c2.1,1.6,7.5,0.9,11,0.9c3.7,0,8.4,0.4,11.1-0.7c4.3-1.8,6.8-12.9,7.9-18.4c0.4-1.8,0.8-4.4,0.4-6.5
	c-3.1-18.4-16.2-26-22.7-40.8c-1.8-4.1-4.9-14.5,1.7-15.9c2.2-0.4,4,1,4.9,2c1.9,2.2,2.7,5.3,4.1,7.9c1.5,2.5,3.1,5,4.9,7.3
	c8.9,11.7,22.3,20.6,27.2,36.1c1.8,5.9,2,14.8,0.6,21.4c-0.5,2.2-0.7,5.6,0.8,6.7c1.5,1.1,4.2,1,6.8,1c4.7,0,12.8,1,16.5-0.5
	c6.3-2.6,4.8-22.1,2.3-27.9C389.1,213.6,374.5,203.9,366.1,190.6"/>
<path fill="#EC2427" d="M468,189.9c-1.1-2.8-1.4-5.8-2-9.1c-1.2-7.4,2.2-15.6,4.7-19.7c2.6-4.4,5.2-8.5,8.1-12.6
	c4.1-5.8,8.6-11.3,11.3-18.6c5.1-13.6-5.3-31.6-8.6-42.2c-1.5-4.8-2.1-9.9-3-15.5c-0.6-3.4,0.2-7-2.1-8.6
	c-2.3-1.7-18.9-1.8-21.4-0.1c-2.3,1.6-2,7-1.3,10.4c2.9,15.6,9,26.6,11.7,42.3c1.6,8.9-3.2,22.6-9.2,23.7c-2.6,0.5-2.8-3.1-2.8-5.4
	c0-8.2-0.7-14.3-3-19.9c-5.1-12.4-13-22.2-18.3-34.6c-1.6-3.7-3.7-14.4-6.3-16.3c-2.9-2.1-10.3-1.3-15-1.2c-2.7,1-5.2-0.5-6.8,1.8
	c-2.5,3.4,0.4,14.9,1.3,18.5c2.6,9.3,6,17.3,8.4,26.9c1,3.9,1.9,9.4,1.1,14.3c-2.5,15.1-11.2,23.8-18.1,34.7
	c-2.7,4.4-7.8,11.5-7.1,18.9c0.8,8.7,4.1,13.9,7.9,19.5c5.8,8.6,13,16.2,16.7,26.8c3.3,9.5,0.5,19-2,27.1c-0.9,2.9-0.6,5.3,2.3,5.9
	c3.9,0.9,17.5,0.5,19.8-0.9c4.5-2.8,8.4-18.2,6.4-26.1c-1.5-6.2-5-10.8-8.2-15.4c-4.2-5.9-8.9-11.6-12.7-18c-1.9-3.2-3.4-6.8-4.2-11
	c-0.5-2.7,0.1-6.1,2-6.8c1.9-0.8,3.2,1.4,3.8,2.3c2.5,3.5,5.1,7.1,7.6,10.6c10.5,13.4,26.4,22.4,32.1,40.6c1.3,4.1,2,9.9,1.3,15.3
	c-0.3,2.3-1,6.2,0.2,8c1.8,2.5,19.6,2.5,22.5,0.6c4.8-3.2,7-19,4.7-26.5C485.3,213.8,473.7,204.6,468,189.9"/>
<path fill="#EC2427" d="M569.9,233.2c-4.7-3.4-22.6,0.1-29.5-2c-5.8-1.8-7.4-7.1-10.3-11.8c-5.5-9.2-12.2-17-16.5-27.4
	c-1.4-3.3-3.8-8.3-2.7-13.4c1.9-8.8,13.2-7.1,23.7-7.1c2.5,0,5.2,0.2,7.2-0.4c3.4-1.1,4-4.4,5.6-7.3c2.4-3.8,4.8-7.6,7.2-11.4
	c1.4-3.5-2.1-3.6-4.8-4c-6.6-1.1-14.7,0.7-17.5-4c-1.4-2.2-0.4-5.5,0.4-7.5c1.5-3.5,4.8-9.2,3.9-14.5c-1-6.4-2-11.3-4-16.5
	c-1-2.5-3.1-6.1-2.5-9.8c1.4-7.9,10.5-6.6,19.6-6.6c4.4,0,10.1,0.8,11.2-2.5c0.9-2.5-0.1-6.8-0.5-9.3c-0.8-4.7,1-12-2.2-14.2
	c-2.6-1.8-11.2-1-15.6-1h-39.1c-2.8,1.1-5.1-0.7-7,1.9c-2.6,3.5,0.2,15.9,1.2,19.4c2.9,9.5,6.6,17.8,9.4,27.5
	c1.4,4.8,2.2,12,0.8,17.4c-4.7,18.5-20.6,26.6-24.4,45.8c-1.8,9.3,2.8,17.1,6,22.5c6.4,10.7,14.5,19.9,17.8,33.5
	c1.6,6.3,0.3,14.2-1.1,19.5c-0.5,1.9-1.2,5.2,0.4,6.3c2.5,1.7,11.8,1,16,1c10.2,0.1,20.5,0.1,30.7,0.2c4.5,0,10.2,0.9,14.1-0.2
	C573.7,255.6,574.7,236.8,569.9,233.2"/>
<path fill="#EC2427" d="M114.4,142.9c-2.3,3-8.6,7.8-14.6,6.7c-3.7-0.6-8-2.2-7.1-7.2c0.8-4.1,3-6.7,4.5-10.1
	c1.7-3.8,3.1-7.8,4.2-12.3c2.3-10.1-2.1-18.4-3.5-26.5c-1-5.5,3-6.6,6.3-8c12.4-0.1,15.5,9.5,18.4,19c1.3,4.4,2.4,11,1.3,16.6
	C122.1,130.2,119.1,136.9,114.4,142.9 M117.1,234.7c-4.2,1.8-10.2,0.9-13.2-1.3c-3.7-2.8-5.5-8.8-8.1-12.7
	c-6.2-9.4-14.9-17.3-18.6-29.1c-1.7-5.6-2-14.4,1.1-18.6c1.7-2.2,3.8-2.3,6.6-3.4c15.2,0,10.6,11.5,14.8,21.6
	c4.7,11.1,13.5,18.9,19.4,28.9C122.1,225.1,122.7,232.2,117.1,234.7 M134,146.8c7.4-4.6,14.4-11.4,17.7-20c4.7-12.1-1.6-24-5.4-32.6
	c-4.6-10.4-9.9-22-19.4-27.6c-7.5-4.4-19.4-4-31.4-4H68.8c-1.9,0.7-3.6,0.1-4.7,1.6c-1.9,2.6,1.5,11.4,2.4,13.9
	c4,11.5,10.8,27.2,6.3,42.4C68.8,134.2,62.3,145,57,157.4c-3.5,8.2-5.7,16.2-7.5,26.3c-0.9,5.1,1.4,9.9,2.9,13
	c4.5,8.9,11.4,15.4,16.5,23.8c3,4.9,5.4,10.4,5.4,18.4c0,4.1-0.9,7.6-1.8,10.9c-0.4,1.3-0.8,3.7,0,4.9c1.7,2.4,12.2,1.8,16.6,1.9
	c15.2,0.1,34.1,2.3,46-2.3c4.1-1.6,7.4-3.6,10.5-6.1c6.1-4.9,9.4-13.2,5.4-22.4c-5.2-11.9-15.2-19.6-20.4-31.5
	c-1.9-4.2-2.7-8.8-3.6-14.1c-0.4-3.8-0.8-7.7-1.1-11.5c-0.4-1.7-0.9-3.4-1.7-4.7c-1.1-1.8-3.7-4.1-3.1-7.3
	C122,151.5,130.1,149.2,134,146.8"/>
<g>
	<g>
		<defs>
			<rect id="SVGID_1_" x="33" y="44.5" width="555.9" height="212.3"/>
		</defs>
		<clipPath id="SVGID_2_">
			<use xlink:href="#SVGID_1_"  overflow="visible"/>
		</clipPath>
		<path clip-path="url(#SVGID_2_)" fill="#24428F" d="M115.3,144.2c-3.4,1.5-9,2.3-12.1-0.1c-3-2.4-0.8-9.9-2.6-13.4
			c-1.4-2.8-3.5-5.1-4.7-8.2c-1.5-3.6-1.9-7.9-3.8-11.1c-3.5-6-8.2-11.5-10.9-18.4c-2.5-6.4,0.7-8.2,5.1-10
			c10.1-0.1,14.1,6.6,18,12.9c3,4.9,7.1,9.3,9.4,14.7c1.2,3.6,2.4,7.2,3.6,10.8c1.7,2.8,3.4,5.7,5.1,8.5
			C125.2,136.8,119.9,142.2,115.3,144.2 M111.6,231.7c-11.7,3.6-11.7-6.5-15.7-11.6c-2.8-3.6-7.2-5.6-9.6-9.5
			C84,207,84,202,82.7,197.4c-1-2.9-2-5.8-3-8.7c-1.7-6.6,0.7-14,3.6-17.7c1.8-2.3,4.2-2.2,7.3-3.4c6.7-0.1,9.5,3,10.4,8.7
			c0,3.1-0.1,6.3-0.1,9.4c0.8,4.2,2.7,7.4,3.7,11.4c0.9,3.4,0.8,7.3,2.4,10c3.1,5.2,9.8,7.3,11.6,13.8
			C120.2,226.6,115.6,230.5,111.6,231.7 M144.2,113c-1.7-4-4.5-7.2-6.8-10.8c-2.9-4.7-6.9-9.5-8.6-15c-1.5-4.8,1.2-9.6,0.1-14.2
			c-0.6-2.6-2.3-4.3-3.9-5.9c-6.3-6.1-12.7-7.7-25.4-7.6c-10.3,0.2-20.6,0.3-30.9,0.5c-5.5,0-10.9-0.2-13,3.2
			c-1.6,2.6-0.9,7.3-1.8,10.4c-1.1,3.5-3.2,6.1-3.9,10c-0.9,5,4.7,12.3,6.5,15.4c2.3,3.8,5.2,7.2,7,11.4c1.2,3.6,2.4,7.2,3.6,10.8
			c1.9,4.4,5.3,6.9,6.2,12.5c0.9,5.2-4.4,9.7-6.2,12.7c-2.4,4.1-2.2,10.7-4.6,14.7c-3.8,6.2-9.2,9.7-11.4,17.9
			c-1.9,7.3,1.6,12.6,3,18.3c1,4.2,1.1,8.1,3.2,11c2.7,3.7,7.3,5.8,9.9,9.8c1.3,2.1,2.7,5.8,2.1,9.6c0,1.4-0.1,2.8-0.1,4.1
			c0.8,3.3,1.5,6.6,2.3,9.9c1,5.8-5.1,12,2.2,13.4h11.5c5.5-0.1,11.1-0.2,16.6-0.2c5.2,0,10.5-0.1,15.7-0.1
			c11.2-1.9,24.7-3.9,29.5-11.8c1.7-2.7,1-6.2,1.7-10.2c0.5-2.6,1.8-5.8,1.3-8.8c-1.1-6.3-7.3-8.3-10.2-13
			c-2.3-3.6-2.2-8.5-3.7-13.2c-1.5-4.9-3.5-8.6-4.5-14.6c-1.1-6.4,1.4-13.3,2.3-18.3c1.1-6.2-5.2-8.9-1-14.6
			c3.7-5.1,16.4-11,17.7-16.9c0.8-3.7-2.2-6.8-3.2-9.2C146.4,120.5,145.3,116.8,144.2,113"/>
		<path clip-path="url(#SVGID_2_)" fill="#24428F" d="M360.7,143.5c-3,1.3-8.5,2.1-10.6-0.7c-1.9-2.5-0.8-9-2.2-11.9
			c-1.3-2.7-3.4-4.9-4.6-7.7c-1.6-3.7-2-8.3-4-11.7c-2.8-4.7-6.4-8.9-8.6-14.1c-2.6-6-0.7-8.2,4-10.3c8.3,0,12.2,5.1,15.6,9.9
			c3.2,4.5,7.2,8.7,9.5,14c1.1,3.4,2.2,6.8,3.3,10.2c1.4,3.3,3.7,5.8,4.8,9.4C370.1,137.1,364.8,141.8,360.7,143.5 M392.2,225
			c-1.8-5.7-8.2-8.4-12.4-11.8c-4.4-3.5-5.4-9.2-7.8-14.8c-2.7-6.3-8.4-11.8-6.5-22.3c2.4-13.2,7.5-13.9,15.8-20.5
			c3.7-2.9,5.6-8.3,8.5-11.9c2.3-2.9,6.1-4.8,7.3-8.6c1.4-4.2-2.5-8.2-3.8-10.9c-1.3-3.9-2.5-7.7-3.8-11.6
			c-1.9-4.4-5.6-7.9-8.1-11.7c-3.2-4.7-7.4-9.2-9.2-15c-1.5-5.1,1-11.4-1.7-15.3c-2.8-4-8.4-7.8-13.5-9.4c-3.6-1.1-7.9-0.7-12.2-1.4
			h-5.6c-8.9-0.1-17.8-0.2-26.6-0.2c-0.8,0-1.7,0.1-2.5,0.1c-2.1,0.4-3.9,0.8-5.3,1.8c-2.5,2-1.7,6.1-2.5,10
			c-1.1,5.5-6.2,10.5-3.7,17c3,7.7,8.3,13.9,12.3,20.8c2,3.5,2.4,8.2,4.1,11.9c1.6,3.4,6.9,8.6,6.2,13.5c-0.9,6.4-5.1,8.5-7.1,13.5
			c-2,5-1.7,10.1-4.6,14.2c-4.1,5.8-8.1,8.4-10.3,16.5c-0.5,1.6-1.1,4.1-0.7,6.4c0.7,4.3,2.4,7.4,3.4,11.4c1.1,4.4,1.1,8.7,3.3,11.8
			c3.5,4.8,9.6,6.6,11.5,13.2c0.8,2.9-0.3,6.6,0.2,9.8c0.7,4.1,1.8,7.1,2.3,11.4c0.4,3.2-3.1,8.6-0.6,10.7c2.2,1.8,7.3,1.4,11.1,1.4
			c9.2,0,13.2-1,16-7.3c0.6-1.4,1.5-3.6,1-6c-0.6-3.3-1.6-6-2.2-9.5c-0.5-3.2,0.5-6.5-0.3-9.2c-1.8-5.7-8.4-7.9-11.4-12.6
			c-2.1-3.4-2.1-8-3.2-12.5c-0.9-2.8-1.8-5.5-2.8-8.3c-1.6-5.7-0.3-14.6,4.6-15.8c2.5-0.6,4.2,1.4,4.8,3c0.7,3.1,1.3,6.1,2,9.2
			c1.9,5,4.7,8.8,6.7,14.2c1,2.8,2,5.5,3.7,7.6c4.5,5.7,12.5,7.1,14.9,15c0.6,3.2,1.1,6.4,1.7,9.6c1.2,3.8,3.5,6.6,4.2,11
			c0.7,3.7-2,8.8,0.6,10.8c2.7,2.1,19.5,1.7,23,0.2c1.6-0.7,2.7-1.9,3.6-3.3c4.2-6.8-1.2-12.3-2.9-17.9
			C393.2,230.5,392.7,227.8,392.2,225"/>
		<path clip-path="url(#SVGID_2_)" fill="#24428F" d="M571.8,242.7c-0.3-2.4-1-4.4-1.6-6.4c-0.7-2.2-1-4.8-2.5-6.1
			c-4.5-3.9-20.2-0.8-27.2-2.5c-4.8-1.2-7.1-4.7-10-7.8c-3.2-3.6-7.5-5.8-10.1-10.1c-2.1-3.5-1.9-8.7-3.2-13
			c-1.3-4.3-4.3-9-3.2-15.2c0.9-4.9,2.3-8.8,5.9-10.9c6.6-4,19.2,0,27.8-1.8c5.6-1.2,12.2-8.5,13.8-13.7c0.3-1.4,0.5-2.8,0.8-4.1
			c2-11.5-16.1-4.9-21.9-9.3c-3.1-2.3-2.8-7.5-4.8-10.9c-1.7-2.9-3.8-5.4-5.1-8.7c-1.5-3.8-2-8-3.9-11.2c-3.1-5.2-7.7-9.5-8.7-16.5
			c-1.6-10.6,17.5-5.8,25.9-7.2c1.4-0.2,2.8-0.5,3.8-1.1c1.8-1.2,2.2-3.7,3.1-5.9c1.5-3.9,6.8-12.3,3.3-18
			c-1.7-2.8-7.3-2.5-11.7-2.5c-9.7,0-19.4-0.1-29-0.1c-1.7,0-3.4,0.1-5,0.1c-4.5,0-10.7-0.4-14.5,0.8c-5.2,1.7-3.7,6.8-5.1,12.3
			c-0.7,2.9-2.2,5.1-3.2,7.6c-0.6,1.4-1.3,3.4-0.9,5.5c1.4,7.8,8.6,15.9,12.3,22.2c2.4,4,3.1,9.6,5.2,14c1.6,3.3,6.7,7.8,5.9,12.9
			c-0.9,5.4-3.9,7.7-6.2,11.5c-2.4,3.9-2.1,10.4-4.4,14.3c-4.4,7.4-9.7,9.5-11.9,20c-1.4,6.8,2.1,11.6,3.3,16.6
			c1.1,4.4,1.1,8.4,3.3,11.4c2.9,3.9,7.7,5.9,10.2,10.2c2.5,4.2,0.6,7.7,1.5,13.1c0.8,3.3,1.5,6.6,2.3,9.9c0.7,3.9-2.6,8.8-1.1,11.4
			c1.6,2.8,9.9,1.8,14.2,1.8c10.1,0,20.2,0.1,30.3,0.1c4.4,0,10.7,0.8,14.6-0.3C567.4,253.7,572.6,247.8,571.8,242.7"/>
		<path clip-path="url(#SVGID_2_)" fill="#24428F" d="M487.5,233.4c-0.1-3.2-0.2-6.4-0.2-9.5c-1.3-5.8-7-7.5-10.1-11.5
			c-3.8-4.8-3.1-9-5.1-15.5c-1.3-4.2-4.3-8.5-3.3-14.5c1.1-7.2,3.1-12.4,6.7-17c1.9-2.5,4.4-4.5,6.1-7.3c2.1-3.6,2-9.6,3.9-13.4
			c1.6-3.2,4.9-5.5,5.6-9.3c0.9-4.5-4-9.1-5.4-12.3c-1.6-3.8-2.1-8.5-4.1-11.9c-4.2-7.1-9.7-13.7-12.7-21.9
			c-2.8-7.5,2.5-12.7,3.8-18.4c0.7-3,0.4-7.8-1.3-9.3c-2.3-2.1-7.8-1.6-12.1-1.6c-2.6,0-5.4-0.3-7.7,0.3c-6,1.8-3.8,9.1-6,14.7
			c-1.1,2.8-2.9,5.1-3.4,8.4c-0.9,4.7,3.3,10.2,4.9,13c2.9,4.9,6.5,9.4,8.7,14.7c1.2,2.8,1.5,6.1,2.4,9.3c0.9,3.1,4,8.8,3.1,12.1
			c-0.2,0.2-0.5,0.3-0.7,0.5c-2.1-0.3-9.5-6.7-10.8-8.4c-3.2-4-5.3-9.2-8.4-13.3c-2-2.1-3.9-4.2-5.9-6.3c-2.5-3.2-5.1-6.4-7.6-9.6
			c-1.9-2.6-4.1-5-5.3-8.3c-1.6-4.3,0.2-9.1,0.9-13c0.4-2.2-0.1-4.8-0.5-6.5c-1.3-5.9-2.4-7.8-9.6-7.8h-7.8c-0.7,0-1.4,0.1-2.1,0.1
			c-2.1,0.3-4,0.8-5.3,2c-2.3,1.9-1.6,5.6-2.3,9.3c-1,5.3-5.8,10.5-4.1,16.3c2.4,8,8.3,14.3,12.2,21c2.3,3.9,2.8,9.1,4.8,13.3
			c1.9,4,5.1,6.6,6,11.7c0.9,5.7-4.4,10-6.3,13.3c-2.2,3.8-1.9,10.1-4.1,13.9c-4.2,7.3-10,10.2-12.1,20.3
			c-1.4,6.7,2.2,11.6,3.4,16.8c1,4.2,1,7.9,3.2,10.8c2.8,3.7,7.4,5.8,9.9,9.8c1.5,2.4,2,5.4,2,9.5c0,1.3-0.1,2.5-0.1,3.8
			c0.6,3.7,1.7,6.6,2.3,10.2c0.6,3.9-2.6,9.1-0.9,11.6c1.3,1.9,11.9,2.2,15.8,1.6c1.8-0.3,3.7-0.4,5.1-1.1c2.6-1.4,6.7-6.6,6.1-11
			c-0.7-3.2-1.5-6.4-2.2-9.6c-0.6-3.8,0.5-8.1-0.8-11.1c-1.1-2.5-3.3-4.2-5.3-5.7c-3.8-3-6.8-6.4-7.9-12.1c-0.3-2.1-0.5-4.3-0.8-6.4
			c-1-4.6-5.5-15.5,0.6-18c2.9,0.3,3.7,4.3,4.8,6.4c2,3.1,3.9,6.1,5.9,9.2c1,2.6,2,5.1,3,7.7c3.2,7.7,11.4,9.2,16,15.3
			c2.6,3.5,2.6,7.9,4,12.9c0.9,2.9,2.5,5.3,3.7,7.9c0.7,1.5,1.1,3.2,1.4,5.1c0.6,3.7-1.8,8.3,0.9,10.2c2.6,1.8,16.5,1.7,19.9,0.3
			c3.5-1.4,8.3-7.2,7.3-12.9C488.8,239,488.2,236.2,487.5,233.4"/>
		<path clip-path="url(#SVGID_2_)" fill="#24428F" d="M200.5,212.1c-3.4-4.3-2.9-8.8-4.7-14.7c-1.3-4.3-4.5-8.9-3.4-15
			c1.2-6.9,3-12.1,6.4-16.6c1.9-2.6,4.5-4.6,6.2-7.5c2-3.4,1.9-8.8,3.6-12.6c1.4-3.2,7-7.9,6.1-12.4c-0.8-3.7-3.6-5.9-4.9-9.1
			c-1.2-3.7-2.4-7.3-3.7-11c-1.7-3.8-4.4-7-6.5-10.4c-3.3-5.3-6.8-10.4-7.9-17.7c-0.8-5.2,3.8-10.2,4.7-14.8
			c0.7-3.5,0.1-8.1-1.8-9.4c-1.8-1.2-5.3-1.1-8.4-1c-1.4,0-2.8,0.1-4.1,0.1c-4.6,0-10.3-0.2-12.4,2.4c-2.1,2.7-1.4,8-2.5,11.7
			c-1,3.3-3.1,5.8-3.8,9.4c-0.9,4.8,2.5,8.7,4.1,11.5c3.2,5.4,7.2,10.3,9.6,16.1c1,3.3,2.1,6.5,3.1,9.8c1.8,4.1,7.5,8.9,6.3,15.2
			c-1,5.2-4.9,7.6-6.8,11.8c-2.2,5-1.9,10.6-4.8,14.8c-4.2,5.9-8.3,8.5-10.4,17c-0.4,1.5-1,3.9-0.6,6.1c0.8,4.4,2.5,7.7,3.6,11.8
			c0.9,3.5,0.8,7.1,2.4,9.8c2.4,4,7.3,6,8.8,10.9c1,3.2-0.7,6.2-2.4,7.5c-2.9,2.2-10.2,2-12.3,4.5c-0.8,1-1.4,3-0.9,4.8
			c0.7,2.9,2.5,6.2,1.7,10.2c-0.4,2.3-2.5,5.9-1.4,8.4c0.6,1.3,2.3,1.8,3.9,2.1c3.6,0.6,8.4,0.2,11.7-0.5
			c10.3-1.9,24.8-4.9,29.3-12.3c1.7-2.7,0.9-6,1.6-10c0.5-2.8,1.6-6.9,0.7-10C208.9,217.6,203.5,215.9,200.5,212.1"/>
		<path clip-path="url(#SVGID_2_)" fill="#24428F" d="M268.1,146.5c-1.5,3.6-1.1,9-2.5,12.6c-1.7,4.3-5,7-7.3,10.6
			c-3.5,5.3-4.3,16-14.7,14.1c-6.5-1.2-8.2-7.3-4.8-13.1c2.9-5,7.8-8.1,10.8-12.9c2.4-3.8,2.8-9.8,5.2-13.7c2.1-3.3,5.9-5.4,6.8-9.8
			c0.9-4.4-2.2-7.6-3.4-10.4c-1.1-2.6-1.3-5.3-2-8.6c-0.3-1.7-1.3-5.8-0.3-7.2c0.2-0.2,0.4-0.4,0.6-0.6c5.9,0.9,7.2,8.9,9.5,13.5
			c2.2,4.4,6.6,6.8,7.7,12.3C274.7,139.5,269.7,142.8,268.1,146.5 M303.7,233.7c-0.3-3.1-0.7-6.3-1-9.4c-1.8-6.4-8.6-8-12.2-12.5
			c-3.3-4.2-3.4-8.8-5.5-14.2c-1.9-4.9-5.9-9.7-4.7-17.4c0.9-5.9,2.3-10.5,5.1-14.5c1.8-2.5,4.2-4.8,5.5-7.8c1.5-3.5,1-9.1,2.4-12.6
			c1.3-3.3,4.1-5.6,4.8-9.4c0.8-4.3-4.9-9.3-6.4-12.2c-2.3-4.2-3.2-9.2-5.9-13c-3.7-5.3-7.6-10.3-11.1-15.8
			c-1.4-2.2-3.1-4.5-3.9-7.3c-1.8-6.1,1.8-10.6,2.8-15.5c0.8-4.2-0.2-9.4-2.6-10.9c-2.5-1.5-6.7-0.4-10.3-0.9
			c-8-0.1-16.1-0.2-24.1-0.3c-2,0.8-4.2,0.2-5.9,1.1c-4,2.2-3.4,7.6-5,12.3c-1.5,4.4-4.8,7-5.5,12.2c-0.4,3.1,1.4,5.9,2.3,7.9
			c2.4,5.5,5.5,10.2,7.8,15.5c1.8,4.1,1.9,9.7,3.7,13.9c1.5,3.4,5.2,6.9,4.2,12.3c-1,5.9-5.5,8.3-8.1,12.6
			c-2.6,4.2-2.9,10.3-5.7,14.1c-1.8,2.5-4.5,4.3-6.4,6.7c-3.5,4.3-6.6,8.6-7.8,15.3c-0.9,5.2,1.3,9.5,2.1,13.9
			c0.8,4.8,0.2,8.8,2.4,11.9c3.3,4.7,8.5,6.5,9.6,13.4c0.6,3.9-1.4,6.7-0.8,10.6c0.5,3.2,1.8,6.6,1.1,10.3c-0.4,2.4-3,7.6-1.6,9.6
			c1.3,1.9,4.5,1.2,7.3,1.6c2,0,4.1,0.1,6.1,0.1c7.7,0,11-1.6,13.9-6.2c3-4.9,1.6-9.2,0.7-15c-0.7-4.2,1.2-8.4-0.2-11.9
			c-1.6-4-6.3-5.7-7.5-10.1c-1.3-4.8,3.2-6.3,6.7-6.9c6.2-1,10.4,2.4,13.5,4.7c4,2.9,8.7,6,10.8,10.8c1.3,3.1,0.5,7.4,1.3,11.4
			c0.9,3,1.8,6,2.8,9.1c0.9,4-2.1,10.7-0.2,13c1.8,2.2,18.6,1.7,22,0.7c4.3-1.3,8.3-6.2,6.8-12.4
			C305.7,239.3,304.7,236.5,303.7,233.7"/>
	</g>
</g>
<g>
	<g>
		<defs>
			<rect id="SVGID_3_" x="32.3" y="47.2" width="557.6" height="211.7"/>
		</defs>
		<clipPath id="SVGID_4_">
			<use xlink:href="#SVGID_3_"  overflow="visible"/>
		</clipPath>
	</g>
	<path fill="#010101" d="M398.5,59.1c-5.8-7.9,5.9-6.9,10.2-8.4c2.4,0,3.4,0.6,4.7,1.6C415.1,59.3,403.2,65.6,398.5,59.1
		 M411.9,118.9c0.1,1.9,0.2,3.8,0.3,5.6c1.1,4.3,2.1,8.5,3.2,12.8c0.8,4.3-0.7,8.7-1.4,12.1c-0.9,6-1.7,12-2.6,18
		c-0.2,7.5-0.4,15.1-0.5,22.6c-0.5,2.2-1.3,4.1-2.1,6c-1.3,2.8-2.8,5.3-4.4,8.4c-0.8,1.6-1.6,3.1-2.3,4.7c-1.4,2.5-2.8,4.9-4.3,7.4
		c-1.9,2.2-3.5,6.8-5.1,10.3c-2.1,4.8-6.1,10.9-10,14c-4.4,3.5-7.5,8.6-12.1,11.8c-2.3,1.3-4.7,2.7-7,4c-2.6,1.8-5.1,3.9-8.2,5.2
		c-3,1-6,2-9.1,3c-2.7,1.2-5.3,2.5-8,3.7c-3.5,1-7,2-10.4,3c-5.2,2.1-19.4,5-22,4.1c-3.7-1.3-7.8,0.3-11.9-0.7
		c-4-0.9-8.1-1.7-12.1-2.6c-29.1-9-51.7-26.6-66.4-52c-2.5-4.3-3.7-9.5-5.4-14.5c-2.6-7.9-3.9-16.2-5.6-25.3
		c-0.9-4.7-1.3-9.8,1.2-12.9c1.9-2.3,5.7-3.6,8.2-5.4c3.5-2.7,7-5.5,10.6-8.2c2.3-1.8,4.4-4.6,7.7-5.4c4.1-0.1,8.2-0.2,12.4-0.3
		c19.4-3.9,42.3-3.4,49.3-19.6c4.1-9.5-1.2-22.1-5.8-27.9c-2.3-3-6.8-4.7-8.5-8.1c-1.9-3.7,4.2-6.3,1.4-10.4
		c-2.3-3.4-9.4-2.1-11.4-5.9c-0.1-4.5,11.1-10.3,14.5-12.8c6.5-4.6,11.6-10.4,17.2-15.9c2.4-2.4,4.7-5.4,7.7-7
		c4.2-2.3,12.2-1.9,17-3.7c4.1,0,8.6,0.7,10.4,3c0.5,2.9-1.8,4.2-3,5.8c-3.8,4.7-9.9,8-13.2,12.8c-2.4,3.5-1.1,8.5,2.3,9.9
		c5,2.1,9.8-2,12.5-3.8c4.3-3.1,9.6-5.3,13.7-8.6c2.5-3,4.9-6,7.4-9.1c3.3-2.6,8.7-2.9,10.7,1.2c0,7.1-15.7,8.1-12.1,16.5
		c1.3,2.9,5.7,3.8,9.3,2.3c5-2,15-9.9,21.7-7.3c3,1.2,6.8,3.4,7.8,6.5c0.8,2.2,0.1,5.7,1.2,7.5c1.8,1.7,3.6,3.5,5.4,5.2
		c3.7,5.3,6.5,13.3,8.5,19.9c1,3.2,0.6,6.8,1.4,10.4C410.8,112.4,411.4,115.7,411.9,118.9 M220.6,133h1.1c0.1,0.1,0.3,0.3,0.4,0.4
		c0.2,2.5-7.9,9-10.4,9.9c-0.1,0-0.2-0.1-0.3-0.1c-0.1-0.3-0.3-0.6-0.4-1C213.7,137.6,216.2,135.8,220.6,133 M237.5,120.2
		c2.1-2.7,5.6-4.2,8.5-6.2c3.3-2.3,5.7-5.6,9.3-7.7c3.3-1.9,7.1-2,11-3.6c4.5-0.1,7.7,0.5,10.4,2.2c4,2.4,9.5,11.2,5.8,17.6
		c-5.7,9.7-18.1,9.7-30.5,12.9c-4.1,1.1-10.8,2.9-14.4,0.1C232.1,131.4,233.8,125,237.5,120.2 M243.7,68.8
		c7.4-9.7,14.1-14.4,24.6-21c3.2-2,6.6-4.5,10.2-6c1.5-0.5,3-0.9,4.5-1.4c0.9,0,1.7,0.1,2.2,0.4c0.4,0.2,0.5,0.4,0.7,0.8
		c-0.3,3.3-6.5,7.9-8.8,9.7c-4.1,3.2-8.2,6.3-12.4,9.5c-2,1.1-4,2.3-6,3.4c-1.7,1.5-3.5,3-5.2,4.5c-2,1.5-4.3,2.8-5.8,4.8
		c-2.8,4-3,7.3-8.4,8.9c-1.1,0.3-2.6,0.7-3.6,0c-0.4-0.2-0.5-0.4-0.7-0.8C235.1,76.9,241.3,71.9,243.7,68.8 M380.4,29.1
		c4.5-0.1,8.2,2.6,5.8,6.9c-2.8,4.9-8.1,7.3-14,3.8c-1.4-0.8-2.2-1.2-2.9-2.7C369.6,33,377,30.6,380.4,29.1 M416.3,65.6
		c3.4-2.4,8-6.6,9.3-11c3.5-11.4-9-14-17.6-15.5c-3.8-0.7-8.3,2-11.4,0.4c-3.2-1.4,1.1-11-0.1-13.3c-2.3-4.3-2.9-6.8-8.5-8.4
		c-1.1-0.1-2.3-0.2-3.4-0.3c-1,0.2-2,0.4-3,0.5c-2.4,1-5,1.7-7,3c-0.1,0-5.5,1.2-6.2,1.5c-2.8,1.1-6,3.1-9.9,3.8
		c-3.6,0.7-9.2-2.9-13.2-3.6c-1.4,0-2.8,0.1-4.3,0.1c-1.8,0-3.7-0.1-5.5-0.1c-2.4,0.3-4.8,0.5-7.1,0.8c-4.9,0.1-9.8,0.3-14.7,0.4
		c-6,1-10.8-1.9-16.7-0.7c-2.9,0.4-5.9,0.8-8.8,1.2c-3.4,0.9-6.8,1.8-10.2,2.7c-2.6,0.4-5.2,0.8-7.8,1.2c-3.8,1-6.8,2.9-10.3,4
		c-4.4,1.3-9.9,1.9-14.1,2.9c-4.1,1-7.3-1.5-11.4-0.7c-8.1,1.6-14.3,3.6-20.2,7.3c-4.4,2.8-7.1,7.4-11.1,10.6
		c-5.5,4.4-10.5,9.3-16.1,13.6c-4.9,3.7-10.4,6.9-12.5,13.5c-3.5,11.2,1.4,33.5,13.2,32.4c1.6-2.3-0.8-5.9-1.6-8.1
		c-2-5.5-3.6-13.5-0.7-19.2c3.9-7.6,12.1-13.2,18.5-18.4c4.8-3.9,10.2-10.4,16.1-12.9c4.4-1.9,7.3,4.7,13.7,1.1
		c6-3.3,10.1-8.4,16.3-11.7c2.3-1.2,5.1-3.1,8.2-2.2c1.6,3.1-2.7,4.5-4.8,5.4c-5.1,2.1-12.7,6.6-16.9,9.9c-2.7,2.6-5.4,5.2-8.1,7.8
		c-6.2,4.7-18.2,13.3-20.9,20.9c-2.8,7.9,7.1,9.7,1.8,18.1c-2.1,3.4-6,5.7-9.9,7.3c-2.4,1-5.3,1.5-6.9,3.4c0.2,3.8,6.5,4,5.2,8.4
		c-1.4,4.6-5.5,7.7-8.1,11.3c-4.4,6.2-8.5,12.6-11.9,19.6c-1.4,2.8-5,10.3-3.7,14.7c1.1,3.8,3.9,5.6,8,6.5c5.4,1.1,9.4-0.4,11.3,4.1
		c2.3,5.5,2.7,12.9,3.8,19.2c0.3,2.5,0.5,5,0.8,7.5c1.9,7,4.4,13.8,7.8,19.5c3.1,5.1,6.9,9.7,10.6,14.3c1.8,1.8,3.6,3.7,5.4,5.5
		c3.9,5.1,7.5,9.4,12.5,13.5c1.6,1.5,3.1,2.9,4.7,4.4c6.7,4.1,12.8,8.4,18.4,12.5c0.3-0.4,5.4,1.4,6,1.4c4,1.2,8.1,2.5,12.1,3.7
		c0.6-0.2,13,1.7,14.4,2.2c4.8,1.7,14.8,2.7,19.1,2.1c6-0.7,12.1-1.4,18.1-2.1c2.5-0.4,7.1,0.9,8.6,0.4c1.8-0.6,3.5-2.1,5.2-2.9
		c1.8-0.8,4.6-1.1,6.7-2.2c2.5-1.3,4.9-3.4,7.5-4.4c5.3-2,10.7-3.7,15-6.7c2.2-1.9,4.3-3.8,6.5-5.6c2.5-1.9,5.7-3.4,7.5-5.9
		c2.6-3.4,5.2-7.9,8-10.3c2.3-2,4.3-3.5,6.3-5.6c1.4-1.5,2.4-3.9,3.8-5.1c1.1-0.9,2.2-1.8,3.3-2.7c2.9-6.9,5.9-13.8,8.8-20.7
		c3.4-7.7,5.8-9.9,10.6-16.3c-0.2-0.3,0.7-2.8,0.7-2.9c-0.3-1.6-0.6-3.1-1-4.7c-0.5,0.8-1.5-4.8-1.9-6.6c-1.1-3.9-0.9-19.7,0.4-25.5
		c0.9-4.1,3.3-10.6,2.1-16.3c-0.5-4.3-1-8.5-1.5-12.8c-1.1-3.8-2.3-7.7-3.4-11.5c-0.1-1.9-0.3-3.8-0.4-5.6
		c-1.4-5.8-1.7-12.3-3.4-18.3c-1.8-4.9-3.7-9.8-5.5-14.7C409.7,69.2,413.6,67.6,416.3,65.6"/>
	<path fill="#010101" d="M390,117.6c-1.5,1.6-2.9,3.2-4.4,4.8c-5.2,3.6-22.6,9.1-29.5,4.3c-4.8-3.4-6.6-9.4-2.5-14.5
		c4.7-5.9,17.9-8,24.3-12.6c1.2-4.7-4.2-6.7-8.8-6.6c-2.1,0.4-4.2,0.8-6.3,1.2c-9.2,3.2-19.1,7.6-22.8,16.2
		c-6.3,14.6,9.7,22.8,17.6,27.7c3,1.9,7.5,4.8,13,3.8c8.9-1.5,20.8-5.7,26.1-10.8c2.6-2.5,4.7-7,1.8-10.8
		C397.3,118.7,392.9,115.8,390,117.6"/>
	<path fill="#010101" d="M297.9,203c7.2,4.9,19.5-10.8,7.1-10.6c-3.4,1.4-9.7,2.9-8.5,8.1C296.8,201.6,297.1,202.4,297.9,203"/>
	<path fill="#010101" d="M334.1,227.6c-1.2,1.8-5.1,0.7-6.2-0.4V227c0.9-1.1,1.7-1,3.2-1.6c1.7,0,2.5,0.5,3.3,1.4
		C334.3,227,334.2,227.3,334.1,227.6 M301.2,246.6c-0.4-0.3-0.2,0-0.4-0.5c2.4-0.8,5.5-1.2,8.1-2.2c1,0,2.2-0.1,2.9,0.3
		c0.1,0,0.3,0.1,0.4,0.1c0,0.2,0.1,0.5,0.1,0.7C310.5,246.9,304.7,248.5,301.2,246.6 M328.2,212.9c-1.3,0.2-2.7,0.4-4,0.5
		c-5,1.2-10.9,1.4-16.7,2.3c-3,0.1-5.9,0.3-8.9,0.4c-11,2.1-20,6.8-30.5,9.9c-6.8,2-20.8,5.2-16.7,15.5c2,5.1,7,7.2,11.5,9.9
		c14.4,8.5,41.9,13.1,60.3,5.2c3.4-1.5,6.8-3.9,8.6-6.9c1.4-2.2,1.9-5.4,4-6.9c3.6-2.7,9.1-2.1,11.8-5.6c2.1-2.7,2-8.3,0.4-11.5
		C345.2,220.1,336.7,212.8,328.2,212.9"/>
</g>
</svg>
