<?xml version="1.0" encoding="utf-8"?>
<!-- Generator: Adobe Illustrator 18.0.0, SVG Export Plug-In . SVG Version: 6.00 Build 0)  -->
<!DOCTYPE svg PUBLIC "-//W3C//DTD SVG 1.1//EN" "http://www.w3.org/Graphics/SVG/1.1/DTD/svg11.dtd">
<svg version="1.1" id="Layer_1" xmlns="http://www.w3.org/2000/svg" xmlns:xlink="http://www.w3.org/1999/xlink" x="0px" y="0px"
	 viewBox="0 0 426.2 322.3" enable-background="new 0 0 426.2 322.3" xml:space="preserve">
<g>
	<path fill="none" stroke="#5A5121" stroke-width="0.842" stroke-miterlimit="1.684" d="M-648.5-74.8l-2.9-13.5l-8.5,1.8l2.6,12.4
		c0.4,2-0.4,4.3-3.6,5c-1.4,0.3-5.2,1.1-5.6,1.1l1.3,6.3c0.5,0,3.8-0.5,7-1.2C-650.6-64.6-647.4-69.6-648.5-74.8z"/>
</g>
<g>
	<path fill="#010101" d="M110.4,163.8H84V59h26.2c8.1,0,13.6,2.8,15.9,7.9c1.8,3.1,2.8,10.7,2.8,17c0,6.8-0.4,14.9-2.4,18.5
		c-1.4,4.2-3.7,6.7-8.5,7.5c5,0.7,8,3.1,9.3,6.8c2.2,3.4,2.6,12.1,2.6,18.5c0,8-0.9,17.2-3.1,20.6
		C124.5,160.8,119.7,163.8,110.4,163.8z M109.7,78c-0.1-2.5-1.7-4.1-3.9-4.1h-3.7v30.3h4.7c1,0,2.9-0.9,3-3.8
		c0.1-1.8,0.1-6.7,0.1-11.8C110,84.3,109.8,79.9,109.7,78z M110.2,133c0-3.3-0.1-9-0.3-11.1c-0.1-2.9-1.6-3.8-3.1-3.8h-4.7V149h4.7
		c2,0,3.1-1,3.3-3.9C110.2,143,110.2,136.2,110.2,133z"/>
	<path fill="#010101" d="M139.5,164c-4.2,0-3.8-0.1-7.1-0.5v-17c2.1,0.1,3.7,0.1,5.6,0c3.7-0.3,4.7-2.9,4.7-5.8V59h18.1v84.9
		C160.8,158.8,154.4,164,139.5,164z"/>
	<path fill="#010101" d="M180.5,163.8h-18L173.9,59h26.5l9.7,104.9h-18.2c0,0-1.2-18.4-1.4-26.3c0,0-8.1,0-8.3,0
		C181.9,145.5,180.5,163.8,180.5,163.8z M187.7,92.9c-0.3-7.1-1.2-21.6-1.2-21.6s-0.8,14.4-1,21.6c0,0.7-2.6,30.3-2.6,30.8h6.9
		C189.8,123.2,187.7,93.6,187.7,92.9z"/>
	<path fill="#010101" d="M254.1,106.7c-1.3,3.7-3.5,6.4-5.4,7.3l9.6,49.8h-18.2l-7.9-44.4h-2v44.4h-17.6V59h24.4
		c6.7,0,13.1,3,15.7,8.8c2,4.3,3.5,11.8,3.5,21.2C256.4,97.4,255.5,102.9,254.1,106.7z M237.5,80.9c-0.3-2.8-1.4-5-3.8-5h-3.1
		c0,0,0,25.7,0,27.9c0.3,0,2.6,0,3.5-0.1c1.7-0.3,2.5-1.4,2.9-2.9c0.7-1.8,0.9-6.7,0.9-9.8C237.9,87.2,237.6,82,237.5,80.9z"/>
	<path fill="#010101" d="M288.1,163.8l-9.8-47.1v47.1h-16.8V59h16l10.2,46.3V59h16.8v104.9H288.1z"/>
	<path fill="#010101" d="M309.7,163.8V59h37.4v17.6h-19.1v26.2h17.4v16.4h-17.4v27.5h19.3v17.2H309.7z"/>
</g>
<g>
	<path fill="#010101" d="M211.1,322.3l-1.9-9.2v9.2h-3.3v-20.6h3.1l2,9.1v-9.1h3.3v20.6H211.1z"/>
	<path fill="#010101" d="M221.6,314.4v7.9H218v-7.8l-3.2-12.7h3.6c0,0,1.3,7.1,1.4,8.3c0.1-1.3,1.6-8.3,1.6-8.3h3.6L221.6,314.4z"/>
	<path fill="#010101" d="M233.5,318.5c0,2.3-1.5,4-4.2,4s-4-1.4-4.3-3.3c-0.2-1.6-0.2-5.3-0.2-7.2s0.1-5.7,0.1-6.3
		c0.2-2.6,1.7-4,4.6-4c2.5,0,3.9,1.4,4,4.3c0,0.7,0,2.4,0,3.3h-3.4c0-1,0-2.5,0-3.3c0-0.6-0.3-0.9-0.7-0.9c-0.6,0-0.8,0.4-0.8,1
		c0,0.9,0,4.3,0,5.8c0,2.1,0,5.5,0.1,6c0.1,1,0.3,1.3,0.8,1.3c0.4,0,0.7-0.2,0.7-1.3c0-1.1,0-2.6,0-2.9h3.4
		C233.5,315.5,233.5,317.8,233.5,318.5z"/>
</g>
<path fill="#010101" d="M360.4,29.2C321.2,9.7,269.4-1,214.5-1S107.8,9.7,68.6,29.2C26.1,50.3,2.8,79.5,2.8,111.4
	s23.4,61.1,65.8,82.2c36.8,18.3,84.7,28.8,135.7,30.1v18.8h-25.5v29h25.5v25.5h29v-25.5h25.5v-29h-25.5v-19.1
	c47.8-2.2,92.4-12.5,127.1-29.8c42.4-21.1,65.8-50.3,65.8-82.2S402.9,50.3,360.4,29.2z M347.5,167.6c-35.3,17.5-82.5,27.2-133,27.2
	s-97.7-9.6-133-27.2c-31.6-15.7-49.7-36.2-49.7-56.2s18.1-40.6,49.7-56.2C116.8,37.6,164,28,214.5,28s97.7,9.6,133,27.2
	c31.6,15.7,49.7,36.2,49.7,56.2S379.1,152,347.5,167.6z"/>
</svg>
