<?xml version="1.0" encoding="utf-8"?>
<!-- Generator: Adobe Illustrator 17.1.0, SVG Export Plug-In . SVG Version: 6.00 Build 0)  -->
<!DOCTYPE svg PUBLIC "-//W3C//DTD SVG 1.1//EN" "http://www.w3.org/Graphics/SVG/1.1/DTD/svg11.dtd">
<svg version="1.1" id="Layer_1" xmlns="http://www.w3.org/2000/svg" xmlns:xlink="http://www.w3.org/1999/xlink" x="0px" y="0px"
	 viewBox="0 0 367.1 122" enable-background="new 0 0 367.1 122" xml:space="preserve">
<g>
	<path fill="#010101" d="M44.8,41.5H0V0h43.8C50.1,0,54,1.5,56.2,3.7c1.9,1.9,2.6,4.3,2.6,6.7s-0.6,4.5-1.8,6.1
		c-1.2,1.5-3,2.7-5.3,3c3.5,0.4,6.5,1.9,8.1,4.2c1.3,1.5,1.9,3.8,1.9,5.9c0,2.8-0.6,5.4-2.1,7.3C57,40.2,51.5,41.5,44.8,41.5z
		 M41.8,10.9c-0.8-0.7-2.4-1-4.9-1H15.1v5.8h22c2.3,0,4-0.2,4.8-0.9c0.5-0.5,0.7-1.3,0.7-2.1C42.7,12.1,42.5,11.5,41.8,10.9z
		 M45.9,28.4c0-0.8-0.2-1.4-0.7-1.9c-0.9-0.8-2.5-1.1-5.8-1.1H15.1v6.2h24c3.5,0,5.3-0.3,6.2-1.3C45.8,29.8,45.9,29.2,45.9,28.4z"/>
	<path fill="#010101" d="M78.6,42.1c-5.8,0-11.9-0.4-12.8-0.5V30c0.7,0.1,7.7,0.2,10.4,0.2c5.9,0,8.2-3.7,8.2-7.4V0h15.7v25
		C100.1,34.6,92.6,42.1,78.6,42.1z"/>
	<path fill="#010101" d="M119.1,41.5h-16.7l28-41.5h17.8l26.7,41.5h-17.1l-4.2-6.5h-30.1L119.1,41.5z M140.9,14.9l-2.1-3.6l-2.3,3.6
		l-6.8,10.1h17.8C147.6,25.1,140.9,14.9,140.9,14.9z"/>
	<path fill="#010101" d="M235.7,20c-1.6,2-4.4,3.9-8,4.2L243,41.5h-17.2l-13.2-15.2h-17.2v15.2h-15.6V0h39.7
		c7.5,0,12.5,1.6,15.3,4.1c2.1,1.9,3.2,4.5,3.2,8.1C238.1,15.2,237.2,18.2,235.7,20z M222.6,12.1c-1-1.4-2.6-1.8-5.3-1.8h-21.9V17
		h22.2c3,0,4.4-0.4,5-1.5c0.4-0.6,0.4-1.2,0.4-1.8C223.1,13.1,223,12.5,222.6,12.1z"/>
	<path fill="#010101" d="M290.9,41.5l-27.1-23.9v23.9h-15V0h16.1l26.4,23.3V0h14.9v41.5H290.9z"/>
	<path fill="#010101" d="M316.7,41.5V0H368v10.9h-35.9v4.6h35v10.4h-35v4.7h36.4v10.9H316.7z"/>
</g>
<g>
	<polygon fill="#010101" points="129.5,70.3 103,47 86.9,47 86.9,88.5 101.9,88.5 101.9,64.6 129,88.5 144.3,88.5 144.3,47 
		129.5,47 	"/>
	<polygon fill="#010101" points="202.5,47 185.3,64 168,47 149.6,47 177.2,74.9 177.2,88.5 192.8,88.5 192.8,74.8 220.4,47 	"/>
	<path fill="#010101" d="M266.3,70.9c-0.1,0.5-0.2,1.2-0.6,1.6c-2.3,3.6-8.2,4.6-15.5,4.6c-6.7,0-13.3-1.6-15.9-5.7
		c-0.6-1.1-1-2.3-1-3.7c0-1.5,0.3-2.8,0.9-3.8c2.2-3.8,8.2-5.8,15.9-5.8c8.2,0,13.1,2.3,14.9,4.6c0.5,0.6,0.9,1.3,1.1,1.9h16.4
		c-0.1-1-0.4-3-1.3-4.9c-3.2-6.5-11.2-13.4-31-13.4c-15.6,0-25.1,4.4-29.9,10.9c-2.1,2.9-3.2,6.6-3.2,10.6c0,4.2,1.2,8,3.3,11.1
		c4,5.5,11.8,9.3,24.2,10.2v8.3h-15.4v10.9h15.4V122H256v-13.9h15.4V97.2H256v-8.3c14.1-0.9,21.9-5.3,25.3-12.6
		c0.7-1.5,1.2-4.1,1.4-5.4H266.3z"/>
</g>
</svg>
