<?xml version="1.0" encoding="utf-8"?>
<!-- Generator: Adobe Illustrator 18.0.0, SVG Export Plug-In . SVG Version: 6.00 Build 0)  -->
<!DOCTYPE svg PUBLIC "-//W3C//DTD SVG 1.1//EN" "http://www.w3.org/Graphics/SVG/1.1/DTD/svg11.dtd">
<svg version="1.1" id="Layer_1" xmlns="http://www.w3.org/2000/svg" xmlns:xlink="http://www.w3.org/1999/xlink" x="0px" y="0px"
	 viewBox="0 0 599.9 219.2" enable-background="new 0 0 599.9 219.2" xml:space="preserve">
<g>
	<path fill="none" stroke="#5A5121" stroke-width="0.842" stroke-miterlimit="1.684" d="M-648.5-74.8l-2.9-13.5l-8.5,1.8l2.6,12.4
		c0.4,2-0.4,4.3-3.6,5c-1.4,0.3-5.2,1.1-5.6,1.1l1.3,6.3c0.5,0,3.8-0.5,7-1.2C-650.6-64.6-647.4-69.6-648.5-74.8z"/>
</g>
<g>
	<path fill="#010101" d="M57,51.4c12.8,0.5,23.1,5.7,23.1,17c0,11.9-10.6,18.1-29.3,17.9H23.9v-2.8l7.5-1.8V26.4l-7.5-1.8v-2.9h25.4
		c20.2-0.1,26.1,5.8,26.1,14.2C75.5,45,67,49.4,57,51.2V51.4z M44.7,50.5c12.2-0.8,17.7-5,17.7-13c0-8.3-6.8-12.8-17.7-12.8V50.5z
		 M44.7,78.3c1.3,2.6,5,4.9,9,4.9C61.5,83.1,66,78.6,66,70c0-9.3-6.7-15.8-14.2-16.6h-7.1V78.3z"/>
	<path fill="#010101" d="M118.5,78.8c0,15.9-6.4,25.4-25.2,27.8l-0.6-2.3c10.5-4.8,12.4-10.9,12.4-21.9V26.5l-8.4-1.9v-2.8H126v2.8
		l-7.5,1.9V78.8z"/>
	<path fill="#010101" d="M205.7,83.4v2.8h-29v-2.8l7.7-1.6l-6.2-17.3h-22.2l-6.1,16.8l11.1,2.1v2.8h-22.7v-2.8l6.8-1.7l23-60.4
		l3.5-0.8l4.3-0.9l23.4,62.2L205.7,83.4z M176.4,59.5l-9.3-26l-9.4,26H176.4z"/>
	<path fill="#010101" d="M283.9,83.4v2.8h-18.6L250.7,63l-3.7-5.9h-5.6v24.5l7.4,1.8v2.8h-28.2v-2.8l7.5-1.8V26.4l-7.5-1.8v-3h24.7
		c20.6-0.1,29.1,6.6,29.1,16c0,7.8-5.5,13-14.5,16V54l17.6,27.8L283.9,83.4z M249.1,53.5c7.3-1.2,12.3-6.7,12.3-13.6
		c0-9.2-8-15.4-20-15.4v29H249.1z"/>
	<path fill="#010101" d="M357.7,26.6v50.1l0.2,10.1l-4.7,0.6l-41.6-52.6v46.4l9.3,2.1v2.9h-21.3v-2.9l7.2-1.8V29.7
		c-1.7-2.1-4.3-3.9-6.9-4.7l-1.6-0.6v-2.7H318l35,44.5V26.9l-9.2-2.3v-2.8h21.1v2.8L357.7,26.6z"/>
	<path fill="#010101" d="M437,65.4l-4.5,20.9h-50.1v-2.8l7.5-1.8V26.6l-7.5-2v-2.8H426l7.8-0.2v18.3h-2.9L425,25.3h-21.6V51H415
		l3.1-9.9h2.8v23.2h-3l-2.9-9.4h-11.6V80c1.4,1.6,3.2,2.4,5.8,2.6h14.6L434,65.4H437z"/>
	<path fill="#010101" d="M514.1,21.8v2.8l-5.7,2l-18.3,31.3v23.7l7.7,1.8v2.8H469v-2.8l7.8-1.8V60.1l-19-34l-5.3-1.6v-2.8H481v2.8
		l-8.3,1.8L487.5,55l15.7-28.2l-9.5-2.2v-2.8H514.1z"/>
	<path fill="#010101" d="M558.6,48.6c11.4,5,14.7,10.2,14.7,17.6c0,13.5-12.9,21.7-25.5,21.7c-7.9,0-14-2.5-18.5-4.7l-1.3-18.3h2.6
		l7.1,15.8c2.4,1.8,5.9,3.6,11.1,3.6c7.2,0,12.1-4.7,12.1-11.6c0-5.1-2.2-8.8-10.6-12.5L545,58c-10.7-4.6-15.3-10.1-15.3-18.6
		c0-10.2,9.1-19.5,24.1-19.5c6.2,0,12,2.4,15.7,4.3l0.4,16.1h-2.7l-6-13.9c-1.8-1.6-4.3-3.1-8.3-3.1c-7,0-11.4,4.7-11.4,10.4
		c0,6.1,3.1,8.8,11.3,12.4L558.6,48.6z"/>
</g>
<g>
	<path fill="#010101" d="M76.7,143.1v50.1l0.2,10.1l-4.7,0.6l-41.6-52.6v46.4l9.3,2.1v2.9H18.7v-2.9l7.2-1.8v-51.7
		c-1.7-2.1-4.3-3.9-6.9-4.7l-1.6-0.6v-2.7H37L72,182.7v-39.3l-9.2-2.3v-2.8h21.1v2.8L76.7,143.1z"/>
	<path fill="#010101" d="M152.1,181.9l-4.5,20.9H97.5v-2.8l7.5-1.8v-54.9l-7.5-2v-2.8H141l7.8-0.2v18.3h-2.9l-5.8-14.7h-21.7v25.7
		h11.6l3.1-9.9h2.8v23.2h-3l-2.9-9.4h-11.6v25.1c1.4,1.6,3.2,2.4,5.8,2.6h14.6l10.3-17.3H152.1z"/>
	<path fill="#010101" d="M254.6,138.3v2.8l-5.3,2.2l-19.6,60.3h-6.9l-13.6-41.1l-14.9,41.1h-6.9l-19.2-60.7l-5-1.7v-2.9h26v2.8
		l-7,1.8l13.7,45.9l11.3-32.4l-4.5-13.5l-5.7-1.8v-2.8h27.3v2.9l-7.7,1.7l14.2,44.8l13.6-44l-9.7-2.5v-2.9H254.6z"/>
	<path fill="#010101" d="M350.2,138.3v2.8l-5.7,2l-18.3,31.3v23.7l7.7,1.8v2.8H305v-2.8l7.8-1.8v-21.5l-19-34l-5.3-1.6v-2.8h28.6
		v2.8l-8.3,1.8l14.9,28.5l15.7-28.2l-9.5-2.2v-2.8H350.2z"/>
	<path fill="#010101" d="M427.1,169.3c0,22-16.7,35.3-34.7,35.3c-18.3,0-34.3-13-34.3-33.9c0-20.5,16.5-34.3,34.5-34.3
		C413.2,136.5,427.1,151.4,427.1,169.3z M412.4,172.6c0-16.7-8.6-32.5-21.2-32.5c-12.1,0-18.3,11.9-18.3,28.4
		c0,16.3,8,32.8,21.3,32.8C406.4,201.2,412.4,188.7,412.4,172.6z"/>
	<path fill="#010101" d="M505,199.9v2.8h-18.6l-14.6-23.2l-3.7-5.9h-5.6v24.5l7.4,1.8v2.8h-28.2v-2.8l7.5-1.8v-55.1l-7.5-1.8v-3
		h24.7c20.6-0.1,29.1,6.6,29.1,16c0,7.8-5.5,13-14.5,16v0.4l17.6,27.8L505,199.9z M470.2,170c7.3-1.2,12.3-6.7,12.3-13.6
		c0-9.2-8-15.4-20-15.4v29H470.2z"/>
	<path fill="#010101" d="M537.2,198.1l7.9,1.8v2.8h-28.7v-2.8l7.5-1.8v-55l-7.5-1.9v-2.8h28.7v2.8l-7.9,1.9V198.1z M582,199.9v2.8
		h-19.2l-24.1-31.6v-0.5l25.8-27.7l-8.9-1.9v-2.8h22.1v2.8l-7.8,2l-20.4,21.1l26.3,34.4L582,199.9z"/>
</g>
</svg>
