<?xml version="1.0" encoding="utf-8"?>
<!-- Generator: Adobe Illustrator 17.1.0, SVG Export Plug-In . SVG Version: 6.00 Build 0)  -->
<!DOCTYPE svg PUBLIC "-//W3C//DTD SVG 1.1//EN" "http://www.w3.org/Graphics/SVG/1.1/DTD/svg11.dtd">
<svg version="1.1" id="Layer_1" xmlns="http://www.w3.org/2000/svg" xmlns:xlink="http://www.w3.org/1999/xlink" x="0px" y="0px"
	 viewBox="0 0 514.8 112.7" enable-background="new 0 0 514.8 112.7" xml:space="preserve">
<g>
	<path fill="#010101" d="M116.6,62.7c-8,0-16.4-0.5-17.6-0.7V46.1c1,0.1,10.6,0.2,14.2,0.2c8.1,0,11.3-5,11.3-10.1V4.9h21.6v34.3
		C146.1,52.5,135.8,62.7,116.6,62.7z"/>
	<path fill="#010101" d="M172.2,61.9h-22.9l38.5-57h24.4l36.6,57h-23.5l-5.8-9h-41.3L172.2,61.9z M202.2,25.4l-2.9-4.9l-3.1,4.9
		l-9.3,13.9h24.4C211.3,39.3,202.2,25.4,202.2,25.4z"/>
	<path fill="#010101" d="M332.4,32.4c-2.2,2.7-6,5.3-10.9,5.8l20.9,23.6h-23.6L300.7,41h-23.6v20.9h-21.4v-57h54.5
		c10.3,0,17.1,2.2,21.1,5.6c2.9,2.6,4.4,6.1,4.4,11.1C335.7,25.9,334.5,29.9,332.4,32.4z M314.5,21.5c-1.3-1.9-3.6-2.4-7.2-2.4
		h-30.1v9.3h30.5c4.2,0,6.1-0.6,6.9-2.1c0.5-0.8,0.6-1.7,0.6-2.4C315.2,22.9,314.9,22.1,314.5,21.5z"/>
	<path fill="#010101" d="M408.3,61.9l-37.2-32.8v32.8h-20.6v-57h22.1l36.3,32v-32h20.4v57H408.3z"/>
	<path fill="#010101" d="M443.8,61.9v-57h70.4v15h-49.3v6.3h48.1v14.2h-48.1v6.4h50v15H443.8z"/>
</g>
<path fill="none" d="M50.7,13.7H20.8v8h30.3c3.2,0,5.5-0.3,6.6-1.2c0.7-0.7,1-1.8,1-2.8c0-1.1-0.4-1.9-1.2-2.6
	C56.3,14,54.2,13.7,50.7,13.7z"/>
<path fill="#010101" d="M85,70.8c4.7-4.7,7.3-10.8,7.3-18.5c0-7.4-2.2-13.4-7.4-18.3c-3.4-3.2-7.6-5.8-12.7-7.6
	c2.7-0.6,4.8-2,6.2-3.9c1.6-2.1,2.4-5,2.4-8.3c0-3.3-0.9-6.6-3.6-9.2c-3-3-8.3-5-17-5H0v53.4l0.2-0.1c0.3,7.3,3,12.9,7.6,17.4
	c6.3,6,16,9.7,28.6,10.9v7.3H23.2v13.7h13.3v10.2h22.7v-10.2h14.1V88.8H59.2v-7.5C70.6,79.9,79.4,76.5,85,70.8z M20.8,13.7h29.9
	c3.5,0,5.6,0.3,6.8,1.3c0.9,0.7,1.2,1.5,1.2,2.6c0,1.1-0.3,2.2-1,2.8c-1.1,0.9-3.4,1.2-6.6,1.2H20.8V13.7z M46.2,66.3
	C29.1,66.3,22,59.7,22,52.4c0-6.6,6.7-13.7,24.1-13.7c18.2,0,24.4,7.3,24.4,13.7C70.4,59.7,63.1,66.3,46.2,66.3z"/>
</svg>
