<?xml version="1.0" encoding="utf-8"?>
<!-- Generator: Adobe Illustrator 18.0.0, SVG Export Plug-In . SVG Version: 6.00 Build 0)  -->
<!DOCTYPE svg PUBLIC "-//W3C//DTD SVG 1.1//EN" "http://www.w3.org/Graphics/SVG/1.1/DTD/svg11.dtd">
<svg version="1.1" id="Layer_1" xmlns="http://www.w3.org/2000/svg" xmlns:xlink="http://www.w3.org/1999/xlink" x="0px" y="0px"
	 viewBox="0 0 593.8 356.1" enable-background="new 0 0 593.8 356.1" xml:space="preserve">
<path fill="#010101" d="M47.5,40c1.9-1.9,1.6-18.7-0.4-19.2C44.9,26.3,45.4,42.1,47.5,40"/>
<path fill="#010101" d="M59.1,40c1.9-2.4,1.6-18.7-0.4-19.2C56.5,26.2,57,42.6,59.1,40"/>
<path fill="#010101" d="M70.7,40c1.9-2.4,1.6-18.7-0.4-19.2C68.1,26.2,68.7,42.6,70.7,40"/>
<path fill="#010101" d="M82.4,40c1.9-2.4,1.6-18.7-0.4-19.2C79.8,26.2,80.3,42.6,82.4,40"/>
<path fill="#010101" d="M94.7,38.4c0.9-6.9,0.6-17.1-1.2-17.6C91.1,27.1,92,44.4,94.7,38.4"/>
<path fill="#010101" d="M233.9,39.8c1.6-3.8,0.9-19.3-1.1-18.7C230.9,27.5,231.5,45.4,233.9,39.8"/>
<path fill="#010101" d="M245,40.3c1.9-2.4,1.9-18.7-0.3-19.2C242.6,26.6,243.1,42.8,245,40.3"/>
<path fill="#010101" d="M303.7,39.8c1.6-3.8,0.9-19.3-1.1-18.7C300.7,27.6,301.4,45.2,303.7,39.8"/>
<path fill="#010101" d="M315.3,39.8c1.6-3.8,0.9-19.3-1.1-18.7C312.3,27.5,312.8,45.5,315.3,39.8"/>
<path fill="#010101" d="M326.9,39.8c1.6-3.8,0.9-19.3-1.1-18.7C324,27.5,324.5,45.5,326.9,39.8"/>
<path fill="#010101" d="M338.6,39.8c1.6-3.8,0.9-19.3-1.1-18.7C335.6,27.5,336.1,45.5,338.6,39.8"/>
<path fill="#010101" d="M350.6,38.7c0.9-7.5,0.5-18-1.5-17.5C346.9,28.8,347.8,45.4,350.6,38.7"/>
<path fill="#010101" d="M408,40.3c1.8-2.7,1.4-19.9-0.8-19.2C405.4,27.2,405.7,43.8,408,40.3"/>
<path fill="#010101" d="M466.1,40.3c1.8-2.7,1.5-19.9-0.7-19.2C463.5,27.2,463.9,43.5,466.1,40.3"/>
<path fill="#010101" d="M501.3,39.8c1.6-3.8,0.9-19.3-1.1-18.7C498.3,27.6,499,45.2,501.3,39.8"/>
<path fill="#010101" d="M513,39.8c1.6-3.8,0.9-19.3-1.1-18.7C510,27.5,510.5,45.5,513,39.8"/>
<path fill="#010101" d="M524.6,39.8c1.6-3.8,0.9-19.3-1.1-18.7C521.6,27.5,522.1,45.5,524.6,39.8"/>
<path fill="#010101" d="M536.2,39.8c1.6-3.8,0.9-19.3-1.1-18.7C533.2,27.5,533.7,45.5,536.2,39.8"/>
<path fill="#010101" d="M547.8,39.8c1.6-3.8,0.9-19.3-1.1-18.7C544.9,27.5,545.4,45.5,547.8,39.8"/>
<path fill="#010101" d="M105.5,39.3c1.7-2.2,1.6-18-0.4-17.8C103.5,25.9,103.5,42,105.5,39.3"/>
<path fill="#010101" d="M176.5,34.8c0.6-8.6-0.6-13.8-1.9-13.3c-0.9,3.5-1.3,7.5-0.9,15.5C174.6,40.9,176.1,41.3,176.5,34.8"/>
<path fill="#010101" d="M559.1,39.9c1.7-2.6,1.5-19.2-0.7-18.5C556.9,26.6,556.8,43.5,559.1,39.9"/>
<path fill="#010101" d="M164.8,35.3c0.4-7.8-0.2-13.8-1.6-13.5c-0.4,1.3-0.7,1.5-0.9,4C160.9,34.4,163.7,45.5,164.8,35.3"/>
<path fill="#010101" d="M361.9,37.7c0.4-3.8,0.6-6.7,0.3-11.9c-0.4-1.9-0.6-3.3-1.4-3.2c-1.1,4-1.2,9.3-0.4,15.6
	C360.9,39.1,361.4,38.8,361.9,37.7"/>
<path fill="#010101" d="M396,37.6c0.2-0.5,0.4-1,0.7-1.5c0.1-1.8,0.2-3.6,0.4-5.4c-0.2-4.8-0.4-6.7-1.4-6.4c-0.1,0.3-0.2,0.7-0.3,1
	c-0.3,3-0.3,5.9-0.1,9.8C395.4,35.9,395.7,36.8,396,37.6"/>
<path fill="#010101" d="M418.9,35.3c0.1,0.2,0.2,0.4,0.4,0.6c0.3-1.2,0.4-2.1,0.6-3.9v-1.7c-0.2-2.9-0.3-4-0.8-4.5
	c-0.2,1.3-0.3,2.6-0.5,3.9c0,0.9,0,1.9,0.1,2.8C418.7,33.4,418.8,34.3,418.9,35.3"/>
<path fill="#010101" d="M117.7,232.1c-1.1-0.8-2.1-7.7-1.2-13.5c0.3-2.1,0.9-2.5,1.5-3.6C120.6,215.1,120,233.7,117.7,232.1
	 M111.3,88.8c-2.1-4-0.9-14.1,0.5-17.4c1-0.1,1.3,0.7,1.8,2.5C114.1,81.1,113.4,92.9,111.3,88.8 M113.3,148.2
	c-0.6,5-2.4,2.6-2.7-1.8v-4.3c0.2-2.6,0.5-2.9,1-4.3c1-0.1,1.3,1.2,1.8,3.2C113.6,143.6,113.7,146.4,113.3,148.2 M113,198.7
	c-0.2,1.2-0.3,2.4-0.5,3.6c-1.2,1.8-2.2,0.7-2.6-4.6c0.1-4.7,0.5-5.3,1.2-7.1c0.9-0.2,1.5,0.3,1.8,3.2
	C113,194.7,113.1,197,113,198.7 M106.2,177.3c-0.8,1.1-1.2,0.2-1.7-1.8c-0.1-1.9-0.2-3.9,0-5.7c0.2-1.1,0.4-2.1,0.7-3.2
	C106.8,166.2,107,172.8,106.2,177.3 M106.3,231.7c-0.4,7.8-2.1,7.7-3.2,12.1c-1.8,7.1-0.2,16.7-3.6,19.9c-0.7,0.6-1.8,1.4-2.5,0
	c-1.5-3.2-1-20.5-3.7-17.8c-2.1,2.1-1.3,16.2-3,19.2c-1.1,2-5.2,0.4-5.7-2.5c-1-6.3-0.4-15.2-2.4-16.7c-2.3-1.8-2,11-2.8,16.7
	c-0.4,2.9-4.2,4.3-5.4,2.8c-1.8-2.2-1.1-16.6-3-19.2c-2.4-3.4-2.3,8.6-3.1,14.9c-0.6,5.2-2.9,5.1-4.4,3.2
	c-1.8-2.2-1.5-10.3-2.4-16.7c-0.9-6.7-3.3-5.8-3.8-14.6c-1-17.5,2.8-16,4-23.8c0.8-5.5,0.7-15.7,1.9-19.2c0.5-0.6,1-1.2,1.5-1.8
	c3.9,0.3,2,21.3,5.3,24.2c4.4,3.9,1.5-30.2,7.3-24.2c2.5,2.5,1.4,20.5,3.9,23.8c4,5.4,2.7-21.1,5.4-23.8c5.5-5.6,3,21,6.5,24.2
	c3.5,3.2,2.7-17.9,4.9-21c4.1-5.5,2.8,17.8,4.3,22.8C104,219.2,107,217.2,106.3,231.7 M105.4,294.7c-0.3,0.7-0.7,0.1-0.9-0.4
	c-0.7-5-0.6-12.5,0.3-16.4h0.7C106.1,281.3,106.7,292.1,105.4,294.7 M94,297.5c-2.2,2.7-3-19.6-2-26.7c0.3-2,0.8-2.5,1.2-3.6
	C96.5,267,95.9,295.2,94,297.5 M82.5,297.9c-2.4,2.9-3.2-20.4-2.1-27.7c0.3-1.9,0.8-2.2,1.3-3.2C85.3,266.4,84.4,295.5,82.5,297.9
	 M70.9,297.9c-2.4,3-3-21.1-2-27.7c0.3-2.1,0.9-2.2,1.5-3.2C73.6,267.4,72.8,295.5,70.9,297.9 M60.1,294c-2.5,8.3-2.8-13.7-1.4-19.6
	C60.9,274.1,60.7,286.7,60.1,294 M60.1,179.1c-2.9,3.7-2.7-15-1.1-20.6C61.7,158,61,173.2,60.1,179.1 M57.9,108.3
	c0.8-6.2,3-5.2,3.9-11c1.7-11.7-0.4-16.5,3-23.8c4,0.5,1.5,31.6,6.4,26.7c3.3-3.3,1.5-23.8,4.4-26.7c5.2-5.2,2,32,7.3,26.7
	c3.3-3.3,1.5-23.8,4.4-26.7c3.6-3.7,2.7,12.9,3.9,21.3c1.2,8.6,3.2,3,4.8,8.2c1,3.4,0.6,13.2,1.3,18.5c0.8,6.6,3.2,5.6,3.6,14.2
	c0.5,10.9-2.2,19.3-4,13.5c-1.2-3.9-0.8-14.2-2.3-16.7c-2-3.3-3.7,8.9-2.7,18.1c0.5,3.3,2.3,2,3,4.3c1.3,4.4,0.8,24.2-0.3,27.7
	C91,194,91.8,163,90.9,156.4c-0.4-2.4-1.2-1.8-2-2.5c-2.8-2.6-4.2,2.7-4.7,14.2c-0.2,4.9,0,9.5-0.4,12.8c-0.3,2.5-1.4,4.8-2.5,3.6
	c-3.1-3.6,0.1-38-6.1-30.9c-0.7,0.8-1.7,2.3-2,5c-1.1,8.4,0.2,30.1-3.4,26c-2.5-2.8-0.9-21-2.5-27.7c-1-4.4-2.8-2.1-4.3-4.6
	c-1.5-2.6-1.1-11.4-1.9-17.4C60.3,127.3,55.8,125.2,57.9,108.3 M98.3,74.9c2.9-0.6,2.9,20.9,0.7,23.5C96.3,101.7,96.6,80,98.3,74.9
	 M53.7,88.8c-0.3-0.5-0.7-0.9-1-1.4c-0.2-1.9-0.6-5.1-0.2-7.8c0.2-1.1,0.4-2.1,0.7-3.2c0.4,0.2,0.7,0.5,1.1,0.7
	C55,82,54.7,85.9,53.7,88.8 M125.4,222.5c-0.9-11.7-3.2-4.9-4.7-11.4c-0.8-3.6-0.4-15.2-0.9-19.9c-1.1-9.1-4.2-6.1-4.7-18.1
	c-0.9-20.3,3.7-14,4.6-26.7c1.3-19.5-4.6-13.6-3.7-35.9c0.5-11.8,6-14.7,3.7-33.1c-1.4-10.9-3.3-3.1-4.9-8.5
	c-1.4-4.7,0.2-30-4.1-25.6c-2.5,2.6-1.9,22.1-5.5,18.8c-2.9-2.6-2.3-26.2-6.4-21c-3.4,4.4-1.5,33.7-5.9,27c-2.3-3.6-0.8-22.9-3.9-27
	c-5.8-7.7-2.6,32.1-7.1,28.4c-3.3-2.7-1.1-23.9-4.5-28.4c-5.2-7-3.1,24.7-6,28.1c-4.6,5.6-1.9-24.6-6-28.4c-4.6-4.2-2.8,22.9-5.7,26
	c-2.9,3-2.7-8.7-3.4-16.7c-0.6-6.6-1.7-9.2-3.6-9.2c-0.8,1.8-1.6,2.2-2,5.3c-1,6.5-0.9,14.1-2.9,16c-1,1-2.1-0.6-2.6-2.5
	c-1.4-5.1-1.3-19.3-4.1-15.3c-0.7,1.1-1.3,2.8-1.7,5.7C37.1,66,42,69,42.5,79.5c0.9,20.7-3.4,17.3-4,31.3c-0.9,20.4,4.8,13.1,4,34.9
	c-0.5,12.6-4.7,10.4-4,27.7c0.6,13.3,4.7,9.9,4,29.2c-0.5,12.6-4.7,10.4-4,27.7c0.5,11.9,3.5,10,4,22c0.8,21.8-5.2,15.3-3.9,36.3
	c0.5,7.8,2.1,11.2,4.1,9.6c0.4-0.2,0.8-0.5,1.2-0.7c1-3.2,0.1-20.4,2.8-17.4c1.5,1.6,2,12.5,0.7,17.1c-0.6,2.2-1.7,2.7-2.5,3.6
	c-1.3,11.4,0.2,28.2,3,24.9c2.6-3.1,1.8-21.8,5.8-18.5c2.8,2.3,2.5,20.3,5.3,18.8c3.6-1.9,1.4-22.1,5.7-22c0.9,0,1.6,0.3,2.1,2.1
	c1.3,4.6,0.9,15.5,2.5,18.8c4.6,9.5,2.3-27.4,8.1-21c2.5,2.7,1.6,26.2,5.2,21.7c2.7-3.3,1.3-19.5,4.5-22c5-4,2.8,24.4,6.6,22.4
	c3-1.6,2-18.9,4.9-21.3c4.5-3.7,3.1,18,6,21c3.6,3.6,2.4-24.2,8.1-18.8c2,1.8,2.5,21.7,5,14.6c0.8-2.3,1.3-9.8,0.6-14.6
	c-0.9-6.2-4.5-9.2-2.2-23.8c0.3-1.9,0.8-2.9,1.4-3.6c3.2-4,2.4,20.2,5.6,15.3c0.7-1,1.2-2.6,1.5-5.3c1.4-14-2.8-15.6-3.2-25.2
	C120.5,237.3,126.9,242,125.4,222.5"/>
<path fill="#010101" d="M177.6,122.2c-2.3,5.3-4.9-9.2-1.5-17.1C178.6,104.5,179.3,118.2,177.6,122.2 M177.6,179.1
	c-2.3,5.3-4.9-9.2-1.5-17.1C178.6,161.4,179.3,175.1,177.6,179.1 M170.9,267.6c-2.3,4.6-3.2-9.6-1.3-15.3
	C171.7,251.7,172.7,264.1,170.9,267.6 M167.4,85.2c-0.6-6.1,0.5-8.8,1.2-10.3c1.2-0.1,2.4,5,1.7,10.7
	C169.9,91.1,167.9,90.2,167.4,85.2 M161.4,231.4c-1.3-3.7-0.6-10.9,0.4-13.5c1.3-0.2,1.8,1.7,2.2,6
	C164,230.5,162.6,234.9,161.4,231.4 M179.6,157.4c-0.7-3.1-0.9-19.2-0.5-25.6c0.5-9.5,4.6-5.3,3.9-20.3c-0.5-10.3-3.5-6.1-3.9-17.4
	c-0.2-4.6-0.1-21.1,0.2-23.5c0.9-6.1,3.9-2.8,3.5-14.2c-0.1-2.8-0.2-5-0.6-6.4c-2.6-10-2.9,8.6-3.7,13.9c-0.6,4.1-2.7,3-3.9,1.4
	c-3.2-4.4-0.9-24.3-6-24.2c-1.5,3.5-2.2,5.2-2.7,13.9c-0.2,3.5-0.2,6.4-0.5,8.9c-1.2,8.8-6.6,2.2-5.3,26.3
	c0.7,12.8,4.7,11.4,4.4,24.5c-0.4,15.2-5.2,9.5-4.4,30.2c0.6,16.3,5,13.2,4.4,27.7c-0.5,10.7-3.4,8.1-4.1,17.1
	c-0.5,5.7-0.1,18.3-1,22c-1.4,6-3.5,2.2-4.1,12.8c-1.2,20.9,5.4,14.7,3.3,31.7c-0.5,3.9-1.9,5.9-2.8,2.5c-1.5-5.4-0.4-19.7-3.9-16.7
	c-2.9,2.5-2.3,17.5-5.4,19.9c-0.9,0.7-2-0.7-2.5-2.5c-1.3-4.6-1.3-17.8-3.7-15.6c-0.8,0.7-1.4,1.6-1.8,4.3
	c-0.7,4.4-0.8,14.9,0.1,18.5c1.6,6.3,3.8,4.9,3,22.8c-0.6,14.3-3.3,4.1-3.9,21c-0.1,3.1,0,6.8,0.2,9.2c0.6,5.5,2.5,10.1,4,5.7
	c1.8-5.4,1.5-21,5.2-17.4c2.4,2.3,2,16.8,4.4,19.2c3.3,3.4,3-16.7,5.4-19.2c0.8-0.8,2.2-0.9,2.8,0.4c1.4,2.6,1.5,12.7,2.8,15.6
	c2.7,6,3.8-9.2,3.1-20.3c-0.9-2.4-2.3-2.9-2.8-6.8c-0.9-6.1,0-14.9,1.2-16c2.5-2.3,1.8,16.2,3.7,18.5c2.5,3,4.3-2.5,4.7-12.1
	c0.2-5.6,0-11.2,0.8-13.9c1.6-5.5,3.5-0.4,4.6-10.3c2.3-22.1-6.1-21-3.2-39.8c0.4-2.4,1-3.4,1.7-4.3c2.9-3.3,1.9,11.4,3.3,16.4
	c1,3.8,2.6,1.1,3.1-3.2c1.3-12.6-2.1-12.6-3.1-16.7c-0.6-2.3-0.8-20.9-0.4-26.7c0.5-8.9,3.4-5.7,3.9-15.3
	C183.5,160.4,180.7,162.2,179.6,157.4"/>
<path fill="#010101" d="M261.6,197.2c0.1-5.1,0.5-6,1.2-8.2c1.2-0.2,1.6,1.1,2,5C264.9,206.6,262.4,205.4,261.6,197.2 M262.8,264.5
	c-0.6,2.2-1,2.8-1.8,1.4c-0.2-1.6-0.6-4.4-0.4-7.5c0.2-2.5,0.4-2.9,0.8-4.3c0.6,0,0.8,0.5,1.2,1.1C263,258.2,263,260.7,262.8,264.5
	 M256.2,173.1c-0.1-0.7-0.3-1.4-0.4-2.1c-0.4-3.7,0.3-5,0.8-6c0.6,0.3,0.9,0.9,1.1,3.2C258,172.1,256.8,175.2,256.2,173.1
	 M255.8,232.8c0-0.1-0.1-0.2-0.1-0.4c0-1.1-0.1-2.1-0.1-3.2c0.1-0.5,0.2-0.9,0.3-1.4l0.4,0.4c0.2,0.6,0.2,1,0.4,2.1
	C256.4,232.1,256.3,232.6,255.8,232.8 M251.4,147.1c-0.4,3.9-1.3,3.9-2.2,2.5c-0.2-1.4-0.4-1.9-0.4-4.3c0-0.9,0-1.9,0.1-2.8
	c0.2-2.4,0.6-2.7,1-3.9c0.4,0.5,0.8,0.9,1.2,1.4C251.4,141.8,251.8,144.3,251.4,147.1 M250.1,209c-3,5.9-3.6-13.6-1.5-19.6
	C251.7,188.7,252.5,204.1,250.1,209 M245.4,238.1c-4.5,8.8-2-23.5-6.2-24.9c-4.3-1.4-1.8,32.1-6.8,25.6c-2-2.5-1.4-14.1-2.5-21
	c-1.5-9.9-4.1-0.7-4.7-17.8c-0.1-3.3-0.3-8.5,0-11.7c0.7-8.6,4.1-2,4.6-14.9c0.7-16.5-5.7-15.6-3-33.4c0.3-2,0.8-3.1,1.4-3.9
	c3.4-5.1,2.3,19.7,5.4,16c0.6-0.7,1-1.6,1.3-3.6c2.4-17-3.7-13.9-3.1-28.8c0.3-6.2,0.7-7.3,1.7-10c2.6,0.1,2,11.5,3.4,16.7
	c0.9,3.3,2.7,1.9,3.7,5c1.2,3.5,0.7,13.5,1.5,19.2c1.4,11,5.9,5.4,4.9,29.2c-0.5,11.3-3.9,5.9-4.4,18.5c-0.5,15.3,3.2,9.2,4.1,16.7
	C247.7,222.8,246.5,236.1,245.4,238.1 M226.2,73.1c2.2,0.5,2.8,15.4,0.7,17.8C224.8,93.2,223.8,77.9,226.2,73.1 M224.3,180.2
	c-1.4,4.3-3.8,1.2-3.3-8.9c0.3-3.2,0.7-3.8,1.3-5.3C224.3,165.6,225,172.2,224.3,180.2 M222.7,237.8c-2.4,2.7-2.7-14.1-0.8-19.6
	C224.5,217.6,224.7,235.5,222.7,237.8 M243.6,110.5c1.1-0.4,1.8,1.5,2,5.3c0.3,6.2-1.2,11.8-2.3,8.5
	C241.9,121.2,242.7,113.1,243.6,110.5 M210.1,229.2c-0.3,1.1-0.4,1.7-0.9,1.8c-0.6-2.5-0.6-4.6,0-7.1h0.5c0.2,1.2,0.4,1.8,0.5,3.6
	C210.1,228.1,210.1,228.7,210.1,229.2 M204.9,256.3c-0.6,7.1-3.5,4.6-2.9-5c0.2-3,0.6-3.2,1.2-4.6c0.8-0.1,1.4,1.1,1.7,3.9
	C205.1,251.9,205.1,254.6,204.9,256.3 M278.2,289.4c-0.4-10.8-0.2-19.9,1.3-23.1c0.6-1.3,1.3-1.8,1.7-4.3c0.7-4.7,0.2-11.9-0.7-13.9
	c-3.2-6.9-2.2,20.2-5.5,15.6c-0.7-1-1.4-2.3-1.7-5c-2.5-18.2,3.8-17,3-33.4c-0.2-3.3-0.5-5.9-0.9-7.5c-3.6-11.9-3.4,15.8-6.2,14.9
	c-0.6-0.2-1.2-1.7-1.5-3.6c-2.5-16.2,5.2-13.8,3.1-36.3c-0.9-9.5-3.6-5.6-4.6-12.4c-0.6-4.2-0.3-12.8-0.8-17.4
	c-0.9-8.3-3.2-7-4.3-13.9c-0.8-5.4-0.5-15.5-1.3-21c-0.8-5.9-3.2-4.7-4-11c-2.7-20.9,4.5-20.9,2.5-37c-0.3-2.2-0.7-3.5-1.3-4.3
	c-3.1-4.3-2.2,18.5-5.3,14.9c-0.6-0.7-1.1-1.4-1.5-3.2c-3.1-17.1,4.6-17.7,2.7-36.3c-0.3-3.2-0.9-5.1-1.7-6
	c-2.5-3.1-2.6,9.1-3.7,14.2c-0.6,2.7-1.8,4-2.9,2.8c-3.3-3.3-1.5-21.4-6.2-21.3c-0.6,1.5-1.3,1.9-1.7,4.3
	c-1.2,6.6-0.9,15.5-3.3,17.1c-3,2-2.6-17.7-5.4-20.3c-2-1.8-3.3,5.5-3.6,12.1c-0.2,4.5,0,9.3-0.4,12.4c-0.6,4.5-1.9,2.9-3.1,4.6
	c-2.1,3-2.5,14.7-1.8,26.3c1.3,3.4,5.2,4.9,3.4,17.4c-0.3,2-0.8,2.9-1.3,3.6c-2.1,2.6-2.7-7.1-2.9-14.9c-2.1-6.8-5.6-0.1-4.9,13.5
	c0.4,9.2,2.8,8.3,3.4,16c0.4,5.1-0.2,10.6-0.8,12.8c-3.4,11.8-3.4-16.1-6.1-13.5c-0.7,0.6-1.1,1.4-1.5,3.6
	c-1.8,11.9,1.6,15.7,2.5,21.3c0.3,2,0.4,4.6,0.4,8.2c0,12.9-2.3,14.5-4.4,17.1c-0.7,6.2-0.5,17.1-1.4,22.8
	c-0.9,6.3-3.2,5.7-4.1,12.4c-0.7,5-0.4,15.1-1.2,19.6c-0.9,5.1-3.1,3.6-4,9.2c-0.9,5.6-0.1,18-0.9,22.8c-0.9,6.2-4-1.7-5,10
	c-1.1,12.7,2.1,24,4.4,16.4c1-3.5,0.7-16.2,1.1-22.8c2.2-6.2,4.5,3.7,3.9,17.4c-0.4,9.7-2.3,6.8-3.3,12.8
	c-1.3,7.7-0.1,19.8,1.2,22.4c3.2,6,3.4-15.9,6.1-18.1c5.1-4.2,3.4,8,5.7,13.5c1,2.3,2.1-0.8,2.4-3.9c1.4-13.4-5.3-15-2.3-35.2
	c0.4-2.4,0.9-3.8,1.6-4.6c2.9-3.6,2.3,14.4,4.2,17.4c2,3.2,3.5-8.8,2.6-17.4c-0.5-4.2-2-2.8-2.8-5.3c-1.4-4.6-0.7-17.8,0.7-19.6
	c2.5-3,2.2,10.8,3,16.7c0.5,3.7,2.9,4.8,4,3.2c3.4-5,1.3-32.4,5.4-28.1c2.9,3,0.7,32.7,5.5,28.8c1.5-1.2,2.5-4.6,2.9-11.4
	c0.6-9.4,0.1-21.5,3.1-18.5c3.1,3.1,0.5,26.4,4.9,29.9c4.7,3.8,2.8-28.8,6.3-26c2.4,1.9,1.6,15.1,2.8,22.4c0.9,5.5,3.1,2.7,4.4,6.4
	c1.1,3.2,0.9,11.2,1.6,16.7c1,8,3,6.7,5.4,6.4c0.8-8.7,0-16,2.1-18.5c0.5-0.6,1.2,0.4,1.6,1.8c0.4,1.5,0.6,3.9,0.7,7.1
	c0.2,9.6-1.9,10.8-3.9,11c-0.7,12.2,0.4,31.1,3.6,24.9c2-4.1,1.4-17.4,4.1-19.6c4-3.2,3.2,12,5.2,18.1c1.5,4.9,3.5-0.7,3.9-7.1
	C283.2,300.2,278.6,302.3,278.2,289.4"/>
<path fill="#010101" d="M367,89.1c-1.3-2.5-1.4-12.9-0.3-16.7c0.5-0.7,1-1.4,1.5-2.1c0.4,0.2,0.8,0.5,1.2,0.7
	C370.3,78.4,369.2,93.2,367,89.1 M368.3,146.7c-0.5,5.5-1.9,4.1-2.7,1.1c-0.3-5.5,0.2-7.1,0.9-9.2
	C367.7,138.2,368.7,141,368.3,146.7 M363.8,228.5c-0.6,6.5-2.6,4.1-3.1-1.1c0-6,0.4-6.8,1.2-8.9c0.5-0.1,1-0.1,1.3,0.7
	C363.8,220.6,364.2,225.2,363.8,228.5 M360.4,161c2.8-0.7,3.1,16.4,0.8,18.8C358.7,182.5,358.1,166.6,360.4,161 M359.6,109.1
	c2.5-0.6,2.6,13.4,0.6,15.6C357.7,127.4,357.5,113.7,359.6,109.1 M357.5,141.8c-0.6,17-3.4,8.8-4.9,19.2c-0.9,5.9-0.8,13.6-2.4,16
	c-4.4,6.5-2.9-26-7.3-19.9c-2.9,4.1-1.3,24-3.8,26.7c-6.3,6.7-2.4-31.6-7.5-27c-3.6,3.2-1.3,24.6-4.4,27.4
	c-4.4,4.1-2.9-13.1-4.3-22.4c-1.1-7.6-2.7-3.4-4.3-7.8c-1.3-3.6-0.7-15.1-1.5-21c-0.8-6.3-3.1-4.9-3.5-13.5
	c-0.5-10.4,2-18.5,3.6-13.2c1.1,3.6,0.7,14.7,2,17.4c2.2,4.8,4.1-7.1,3.1-16.4c-0.5-4.9-2.2-3.3-3.1-6.4c-1.7-6-0.5-24.6,1.2-26.3
	c4-4.1,0.9,34.6,6.8,26.3c2.8-4,1.5-14.8,2.9-23.5c0.4-2.4,1-2.2,1.7-3.6c4.2,0.5,1.7,23.6,5.5,27.4c4.8,4.7,2.9-23.9,5.7-27
	c3.9-4.5,2.7,18.4,4.5,24.5c1.3,4.5,3.3,0.4,4.6,3.9c1.1,2.7,0.6,13.6,1.3,18.5c0.9,6.3,3.7,3.7,4.2,11.4V141.8z M356.6,198.3
	c-0.2,1.7-0.4,2.4-0.7,3.2c-0.4,0-0.7-0.1-0.9-1.1c-0.5-1.3-0.5-4.2-0.4-7.1c0.2-0.8,0.4-1.7,0.7-2.5c0.2,0.1,0.5,0.2,0.7,0.4
	c0.2,0.9,0.4,1.9,0.6,2.8C356.7,195.4,356.7,196.9,356.6,198.3 M315.7,178.8c-2.3,2.5-2.8-14.5-0.6-19.9
	C317.8,158.2,317.6,176.6,315.7,178.8 M354.2,75.3c3.3-0.5,3.1,31-0.9,24.5C352.1,92,352.9,79.2,354.2,75.3 M309.1,84.9
	c-0.4-0.8-0.5-1-0.5-3.6c0.1-0.6,0.2-1.2,0.4-1.8c0.2,0.2,0.3,0.5,0.5,0.7c0,0.8,0.1,1.7,0.1,2.5C309.5,83.4,309.3,84.2,309.1,84.9
	 M371.7,109.8c0.4-9.6,2.8-8.5,3.6-15.6c0.4-3,0.5-8.3,0.3-12.1c-0.8-13.4-2.9-9.2-5.7-11.7c-1.2-11.2,0.7-21.9-2.5-25.6
	c-0.8-1-1.7,0.3-2.2,2.1c-1.5,5.4-1.2,18.9-4.5,15.6c-2.8-2.8-2.4-26.5-6.5-20.6c-3.1,4.5-1.6,33.5-5.7,26.3
	c-2.4-4.1-0.7-23.6-4.1-27c-5.4-5.5-2.6,29.4-6.6,28.1c-3.6-1.1-1.4-24.4-5-28.1c-5.1-5.1-2.9,24.4-5.8,27.7
	c-4.2,4.9-2.2-24.1-5.8-27.7c-4.6-4.6-3.1,21.2-6,24.2c-2.9,3-2.7-10.4-3.6-17.4c-0.7-5.3-1.8-6.8-3.6-6.8c-0.6,1.5-1.3,1.9-1.7,4.3
	c-1.3,7.3-1,15.3-3.5,17.4c-1,0.9-2-0.6-2.5-2.5c-1.2-4.5-1.3-17.5-3.7-13.9c-0.5,0.8-1,1.9-1.3,3.9c-1.9,13.4,1.7,16.4,2.5,22
	c0.6,3.9,0.8,16.7,0.3,22.4c-0.7,8.5-3.2,6.9-3.5,18.1c-0.5,15.9,4.5,10.1,3.7,34.1c-0.4,12.3-4.5,11.9-3.6,27
	c0.6,10.4,3.2,8.5,3.6,20.6c0.8,24-4.2,18.3-3.7,34.1c0.4,11.8,3.1,10,3.6,20.3c1.4,27-5.4,22.7-3.3,41.6c0.3,2.9,0.9,4.6,1.6,5.7
	c3.7,5.8,3.2-26.4,6.6-14.9c0.4,1.3,0.6,3.4,0.7,6c0.6,12.4-2.4,10.9-3.2,17.4c-1.1,9.6,0.3,19.9,2,21.3c2.9,2.3,2.7-15.2,4.7-18.1
	c5.6-8.6,4.9,21.8,8.2,14.6c0.8-1.8,1.6-9.2,0.9-14.9c-1.1-9.8-4-5.7-3-27.7c0.5-11.5,4.3-10.3,3.9-24.9
	c-0.4-13.2-5.5-15.4-3.6-31.3c0.6-5.2,3.2-9.7,4.1-2.5c0.6,4.7,0.3,11.4,1.2,14.6c0.9,3.2,2.5,1.5,3-2.1c0.4-2.9,0.5-9.2,0.1-12.4
	c-0.6-4.6-2.4-3.1-3.3-6.4c-1.6-5.9-0.2-26.4,1.7-28.1c3.7-3.4,1.3,23.9,5.1,27.4c4.9,4.5,2.3-25.9,5.6-28.8
	c5.1-4.5,2.1,24.2,5.9,28.8c5.7,7,2.2-31.9,6.1-28.1c1.5,1.5,2.5,13.7,1.7,23.5c-0.6,7.9-5.3,8.2-3.2,24.2c0.3,2.1,0.7,3.4,1.3,4.3
	c3.4,5,2.3-20.4,5.5-16.7c0.6,0.8,1.2,1.7,1.5,3.9c3,19.6-4.8,19.9-2.4,37.3c0.3,2.1,0.8,3.2,1.4,3.9c3.2,3.9,2.2-19.3,5.4-15.3
	c0.5,0.6,1,1.5,1.3,3.2c2.8,16.2-3.4,17.2-2.8,31.7c0.1,3.4,0.3,6.1,0.8,7.8c3.8,13.9,3.8-24.1,7.4-12.8c0.5,1.6,0.8,4.2,0.9,7.5
	c0.6,12.4-2,11.9-2.9,18.1c-0.9,6.7,0.1,15.4,1.3,17.1c2.8,3.8,2.7-14.3,4.7-16.4c5.7-5.8,4.6,25.9,8.6,17.8
	c0.7-1.4,1.1-4.3,1.4-7.8c1.1-14.9-2.2-14.8-3.2-22.4c-0.4-3.4-0.4-9.2-0.5-14.2c-0.4-15.4,5-15.4,3.1-30.2
	c-0.3-2.3-0.8-3.4-1.4-4.3c-3.1-4.2-2.5,23.3-6.1,14.2c-0.6-1.4-0.9-4-1.1-7.5c-0.8-16.2,4.1-10.7,3.3-27.7
	c-0.5-11.3-3.7-7.1-4.4-16.7c-1.2-18.1,2.6-17,4.3-22.8c1.4-4.7,1-14.1,2-21c1.2-8.4,4-3.9,4.9-16.7
	C378,120.6,370.8,131,371.7,109.8"/>
<path fill="#010101" d="M467.2,297.9c-2.2,5-3.3-10.5-1.3-16.4C467.9,281,468.9,294.2,467.2,297.9 M460.1,200.4
	c-0.4,1.2-1,2.7-1.5,1.1c-1.1-2.3-0.5-8.4,0.2-10.3C460.2,190.9,460.5,195.2,460.1,200.4 M440.3,240.3c-1.1-7.4-0.2-13.8,1.2-16.7
	C444.4,224,443.7,246,440.3,240.3 M434.7,210.4c-0.9-6.7-0.4-12.6,0.8-16C438.6,193.7,437.9,216.1,434.7,210.4 M429.1,180.9
	c-1-6.6-0.4-12.6,0.9-15.6C433,164.7,432.1,187.3,429.1,180.9 M423.9,150.3c-0.5-3.5-0.4-6.5-0.1-10.7c0.2-0.7,0.4-1.4,0.7-2.1
	C427.1,136.8,426.4,155.6,423.9,150.3 M414.7,148.9c-0.3,1.5-0.4,2.1-0.8,3.2c-0.2-0.2-0.3-0.5-0.5-0.7c-0.3-0.8-0.4-1.6-0.6-3.2
	c0-1.1,0-2.1,0.1-3.2c0.2-1.8,0.3-2.1,0.6-3.2c0.3,0.2,0.6,0.5,0.9,0.7C414.6,144.3,414.7,145.4,414.7,148.9 M413.2,79.5
	c0.2-0.5,0.3-0.9,0.5-1.4c0.4,0.5,0.5,0.9,0.7,2.1c0.1,2.4,0,4.1-0.4,5c-0.2,0.6-0.5,0.3-0.7-0.4c-0.2-0.6-0.2-1-0.4-2.1
	C413.1,81.7,413.1,80.6,413.2,79.5 M401.7,89.1c-2.1,6.4-4.2-9.4-1.8-15.3C402.1,73.2,403.5,83.6,401.7,89.1 M474.7,176.3
	c1.3-21.1-3.7-17.8-4.2-31.7c-0.7-18.6,5-12,4.4-32.4c-0.5-15.3-2.9-10.9-4.1-20.3c-2.5-20.4,4.4-18.7,3.6-37
	c-0.2-4.6-0.6-7.9-1.2-10c-3.7-11.3-4.2,15-6.6,17.4c-4.5,4.3-3-24.4-7.2-19.6c-0.8,0.9-1.4,2.3-1.8,5c-3.3,21.5,4.2,20.9,3.4,39.1
	c-0.6,14.4-5.4,7.9-4.5,30.6c0.1,3.8,0.5,8.8,1,10.7c1.2,4.1,3.8,3.8,3.4,15.6c-0.4,10.3-2.4,7.7-3.7,13.2c-1,4.1-0.6,14.9-1.2,20.6
	c-0.7,6.5-2.6,4.5-3.9,8.2c-1,2.7-0.9,10.4-1.7,14.2c-0.3,1.7-0.9,3.8-1.7,2.8c-1.1-1.3-1.9-10.4-1.2-16.4c0.8-6.5,3.7-4.4,2.9-17.8
	c-0.2-3-0.4-5.3-0.9-6.8c-3.1-9.7-3,17.5-6.1,14.2c-0.8-0.8-1.4-2-1.8-4.6c-2.8-18.7,3.4-17.3,2.8-30.6c-0.1-2.7-0.3-4.7-0.7-6
	c-3-10.8-2.6,18.6-6.2,14.2c-0.7-0.8-1.3-1.7-1.7-3.9c-0.4-2.4-0.6-5.2-0.7-8.9c-0.8-16.2,5.1-13.9,2.9-27.7
	c-0.6-3.9-2.1-3.3-2.7,0.4c-0.2,3-0.5,5.9-0.7,8.9c-0.7,5.8-2.9,5.3-4.1,1.8c-1.6-4.6-1.2-18.7-2.3-22.4c-1.4-4.5-3.5-2-4.4-8.5
	c-0.8-5.7-0.7-15-1.9-18.8c-1.1-3.4-3-2.4-4.1-6c-1.6-5.4-0.9-18.3-3.3-22c-4.7-7-3.3,26.3-7.6,19.9c-2.7-4.1-1-20.7-5.7-20.6
	c-1.3,3.4-2.2,4.8-2.6,12.8c-0.2,4.9,0.1,11.8-0.4,15.3c-1,7.3-5.5,0.3-4.7,18.8c0.4,10.4,3.1,9.3,3.6,19.2
	c1.3,25.8-4.4,20-3.6,37.7c0.4,10.4,3.1,9.3,3.6,19.2c1.2,23.7-3.1,19.3-3.6,32.7c-0.6,14.9,3.1,13.8,3.6,24.2
	c1.3,25.7-4.8,21-3.6,39.1c0.5,7.7,2.4,7.6,3.2,13.5c0.4,3.1,0.4,7.4,0.4,12.4c0.2,18.7-1.5,12.1-2.8,21.3c-0.8,5.6-0.1,13.3,1,14.9
	c2.7,4.2,2.1-16.8,5.7-15.3c0.9,0.4,2.1,0.4,2.8,2.5c1.4,4.6,1.4,18.7,4,16.4c0.9-0.8,1.5-2.2,2-5.3c0.3-2.3,0.5-6.2,0.4-9.6
	c-0.5-13.4-2.2-7.8-3.3-15.6c-0.6-4.4-0.2-11.6,0.5-13.9c2.8-9.3,3.1,10.8,4.3,14.2c1.6,4.6,3.7-0.2,4.1-6.8
	c1.1-15.4-3.2-15.7-3.6-28.8c-0.7-20.8,3.1-16.4,3.7-29.5c0.7-15.1-2.8-13.8-3.5-22.4c-1.7-20,2.5-21,3.6-29.9
	c0.7-5.4,0.5-12.7,1.7-15.3c3.9-8.2,3.5,13.9,5,19.9c1,3.9,2.9,2.6,4,6.4c1.1,3.8,0.8,15,1.7,19.9c1.2,6.7,3,2.9,4.4,7.5
	c1,3.5,0.7,15,1.5,19.9c1.2,8.2,3,2.3,4.6,7.1c0.9,2.8,0.5,8.9,0.8,14.9c0.4,8,3,16.7,5.2,10c0.6-1.9,0.4-7.3,0.7-10.7
	c0.7-8,3.3-7.8,3.7,1.4c0.5,11.8-1.9,9.2-3.2,12.8c-1.2,3.3-0.3,18.8,0.2,21.7c0.4,2.4,1.1,3.4,1.9,3.9c3.1,1.7,3.2-26.5,6.2-16
	c0.5,1.7,0.7,4,0.8,7.5c0.6,14.1-5.3,12.9-3,30.2c0.6,4.3,2.2,6.7,3.3,3.2c1.8-5.8,1-18.7,5.2-15.3c2.8,2.3,2.7,22.8,5.9,18.5
	c2.4-3.2,1.3-12.9,2.4-21c1.2-8.9,4.6,0.8,5.7-14.2c0.2-2.7,0.4-6.3,0.2-10c-0.6-12.6-3.8-10.3-4.3-22.4
	c-0.6-15.4,3.8-12.2,4.4-28.8c0.7-20.4-5.1-13.8-4.4-32.4C471,185.6,474,187.4,474.7,176.3"/>
<path fill="#010101" d="M519.4,102.7c-4.2,6-3.9-20.8-1.6-27.4C520.5,74.9,521.2,100.1,519.4,102.7 M512.3,160.3
	c2.2-0.3,1.8,12,0.9,17.1c-0.4,0.5-0.7,1-1.1,0C510.6,174,511.4,163.5,512.3,160.3 M521.9,157.1c0.3-2.5,0.8-2.7,1.4-3.9
	c1,0,1.7,0.6,2.3,1.8c1,7.8,0.5,31.7-2.2,28.4C522.2,181.9,521.1,165.1,521.9,157.1 M533.6,155.6c0.4-0.8,0.7-1.7,1.1-2.5
	c1.1,0,1.8,0.5,2.5,1.8c1,7.9,0.5,31.8-2.3,28.4C533.3,181.4,533,164.1,533.6,155.6 M545.2,155.6c0.4-0.8,0.7-1.7,1.1-2.5
	c1.1,0,1.8,0.5,2.5,1.8c1,7.9,0.5,31.8-2.3,28.4C544.9,181.4,544.6,164.1,545.2,155.6 M507.3,83.8c-0.1,0.6-0.2,1.2-0.4,1.8h-0.4
	c-0.2-0.6-0.2-1-0.4-2.1c0-2.3,0.1-2.7,0.4-3.9h0.4c0.1,0.6,0.2,1.2,0.4,1.8V83.8z M557.1,66c-1.6-5.9-0.5-31.3-5.2-24.5
	c-3,4.3-1.5,24-4.6,25.6c-3.8,2-1.5-31.2-6.7-26c-3.3,3.4-2,30-5.7,25.6c-2.6-3-1.2-22.3-4.4-25.6c-5.3-5.3-2.8,30.7-7.2,25.6
	c-2.6-3-1.2-22.3-4.4-25.6c-4.9-5-3.1,26.8-6.8,24.2c-3.5-2.5-1.1-24.2-6.3-24.2c-0.6,1.5-1.3,1.9-1.7,4.3c-1.1,6.3-1,15-3.1,17.1
	c-3.2,3.2-3-11.3-4.5-16.4c-1.5-5.2-3.6-0.4-4.1,6c-1.6,19.7,5,15,3.6,38.4c-0.7,10.9-3.6,8.9-4,21.7c-0.7,19.2,4.9,12.4,4.1,33.4
	c-0.5,12-3.4,10.2-4,21.3c-1,17.9,3.5,16.2,4,29.2c0.8,21-4.7,14.2-4.1,33.4c0.4,12.3,3.1,10.3,3.9,19.6c1.7,19.1-2.6,19.6-3.6,28.8
	c-1,9.3,0.4,18.9,1.9,21h3.5c0-0.4,0.1-0.7,0.1-1.1c0.6-8.6,0-14.9,1.9-17.1c0.5-0.6,1.1,0.4,1.5,1.8c2.2,8.4-0.5,17.9-2.8,17.4
	c0,0.4-0.1,0.7-0.1,1.1c-1.1,13,0.8,28.2,3.3,24.9c2.5-3.3,1.8-21.6,5.7-18.5c2.9,2.3,2.8,22.7,6,18.5c2.2-3,1.8-16.4,4.5-18.5
	c4.4-3.4,3.3,21.5,6.7,18.8c2.9-2.3,2.1-22,6.1-18.8c2.9,2.3,2.7,21.1,5.5,18.8c2.5-1.9,2.1-16,4.4-18.5c5-5.5,3.9,23.3,7.7,18.1
	c1.7-2.3,1.7-12.1,3-16.4c0.4-1.4,0.9-1.2,1.5-1.8c3.5-2.9,3.1,10.6,4.9,16.4c1.4,4.4,3.3,0.3,3.9-5c1.7-16.5-3.1-17.4-3.6-30.9
	c-0.2-5.9,0-13,0.5-16c0.9-5.6,4.7-9.3,2.6-23.1c-0.6-4-2.3-6.4-3.3-2.8c-1.8,6-1.3,21.4-6,15.3c-1.9-2.4-1.7-14.9-3.6-17.1
	c-3.6-4-2.1,22.2-7.6,17.4c-2.3-2-2-15.1-4.1-17.4c-3.1-3.5-2.8,15.3-5.2,17.4c-5.5,4.7-4-21.5-7.6-17.4c-1.9,2.2-1.7,14.6-3.6,17.1
	c-4.1,5.3-3.7-11.6-5.4-17.8c-1.3-4.7-2.9-3.4-3.3-13.2c-0.5-14.2,2.5-12.3,3.9-17.4c1.6-5.7,0.3-28.2,4.4-22.8
	c2.3,3.1,1.1,20.4,4.1,23.1c4.6,4.2,2.2-29.6,7.3-23.5c2.6,3.1,1.5,29,5.7,23.1c2.5-3.6,1.5-21.1,4.4-23.5c4.7-4,2.4,30.2,7.3,23.5
	c2.4-3.3,1.6-20.2,3.9-23.1c5.6-7,3.2,30.3,7.8,21.3c0.7-1.4,1.2-4.3,1.5-8.2c1.2-18.1-3.5-13.9-4.3-23.8c-0.5-6.6,0.1-21-1-24.5
	c-1.5-4.8-4.4-0.8-6.1-3.2c-0.5-4-0.5-11.5-1.1-15.3c-0.3-1.9-0.9-3.5-1.5-3.6c-2.1-0.2-2.1,10.7-2.6,18.1c-1,3-5.1,2.7-6.4,0.7
	c-0.5-4-0.5-11.5-1.1-15.3c-0.3-1.9-0.9-3.5-1.5-3.6c-2.1-0.2-2.1,10.7-2.6,18.1c-1,3-5.1,2.7-6.4,0.7c-0.8-6.4-0.5-16.9-2.3-18.8
	c-3-3.4-1.9,15.5-3.4,19.2c-0.6,1.5-1.8,0.5-2.5,0c-0.6-0.4-1.2-0.7-1.8-1.1c-1.6-3.2-1.2-15.8-2.5-20.3c-1.1-3.8-2.7-3.4-3.1-11
	c-0.4-9.6,1.4-17,3.4-14.6c1.8,2.2,1.1,16.5,3,18.8c3.5,4.5,2.1-15.9,3.4-20.3c0.9-3.1,2.4,0.7,3.7-0.4c0.8-0.8,1.5-1.7,2.3-2.5
	c0.8-7,0.4-20.6,1.7-24.9c3.1-9.5,3.3,16,3.8,24.2c1.6,4.5,4.4,3.3,6.1,0.7c0.8-7,0.4-20.6,1.7-24.9c3.1-9.5,3.3,16,3.8,24.2
	c1.6,4.5,4.4,3.3,6.1,0.7c1-8.5,0.2-23.9,2.5-26.3c0.9-0.9,1.8,0.9,2.1,2.8c0.8,4.9,0.5,15.1,1.3,20.3c1.7,11.1,5.6,2.1,6.1-8.2
	c0.2-3.8,0-7.9-0.2-10.7C560.9,65.8,558.9,72.7,557.1,66"/>
<path fill="#010101" d="M564.4,48.1c-1.5,3.9-2.2,11.4-1,20.2C566.8,74.3,567.4,49.1,564.4,48.1"/>
<path fill="#010101" d="M158,68c1.8-2.1,1.3-18.1-0.5-18.5C155.7,54.3,155.8,70.7,158,68"/>
<path fill="#010101" d="M426.2,59.7c0.1-1.8,0-3.7-0.1-5.5c-0.4-1.7-0.6-2.9-1.2-3.2c-0.6,2-0.8,2.6-1.1,6.5c0,3.1,0,5,0.2,6.5
	C424.5,70.1,426.1,65.6,426.2,59.7"/>
<path fill="#010101" d="M455.4,95.9c1-8.5,0.4-20-1.7-19.4C451.2,85.1,452.5,101.8,455.4,95.9"/>
<path fill="#010101" d="M477.7,96.4c1.8-2.7,1.5-19.9-0.7-19.2C475.2,83.1,475.4,99.8,477.7,96.4"/>
<path fill="#010101" d="M429.8,95.6c2.4,6.8,3.7-17.7,0.9-17.6c-1,3.2-1.4,5.6-1.3,15.4C429.5,94.1,429.6,94.8,429.8,95.6"/>
<path fill="#010101" d="M35.2,79c-0.1,0.5-0.2,0.9-0.3,1.4c-0.4,1.4-0.6,5-0.4,8.9c0.2,3.6,0.8,5.8,1.5,4.2c0.5-1.3,0.9-5,0.7-9.9
	C36.4,80,36,78.8,35.2,79"/>
<path fill="#010101" d="M488.6,79c-0.4,2.1-0.6,2.8-0.9,6.1c0,3.5,0.1,4.7,0.2,7c0.9,4.4,2.7,2.6,2.2-7.9
	C489.9,80.3,489.5,78.8,488.6,79"/>
<path fill="#010101" d="M528.5,103.2c-0.1,0.3-0.2,0.6-0.4,0.8c-0.1,0.4-0.2,0.8-0.4,1.3c-0.4,9,0.1,18.6,1.4,20.6
	c2.2,3.4,3.2-13.6,2.2-21.9C530.6,103.1,529.5,103.1,528.5,103.2"/>
<path fill="#010101" d="M540.1,103.2c-0.1,0.3-0.2,0.6-0.4,0.8c-0.1,0.4-0.2,0.8-0.4,1.3c-0.4,9,0.1,18.6,1.4,20.6
	c2.2,3.4,3.2-13.6,2.2-21.9C542.2,103.1,541.1,103.1,540.1,103.2"/>
<path fill="#010101" d="M551.8,103.2c-0.1,0.3-0.2,0.6-0.4,0.8c-0.1,0.4-0.2,0.8-0.4,1.3c-0.4,9,0.1,18.6,1.4,20.6
	c1.9,2.9,3.3-11.9,2.1-18.9C554.1,103.2,552.8,103,551.8,103.2"/>
<path fill="#010101" d="M378.2,103.6c-1.4,3.7-2.1,9.1-1.5,20.2c1.3,5.2,3.2,1.9,3.6-5.5C380.9,109.6,379.6,103.5,378.2,103.6"/>
<path fill="#010101" d="M65.6,122.8c1.5-5.9,0.5-18.8-1.5-18.2c-0.2,0.6-0.5,1.2-0.7,1.7C62.5,114.6,63.6,130.6,65.6,122.8"/>
<path fill="#010101" d="M158.8,123.7c0.6-4.6,0.6-9.4,0.3-15.6c-0.4-1.9-0.8-3.3-1.5-3.5C154.8,111.6,155.9,129.6,158.8,123.7"/>
<path fill="#010101" d="M123.2,124.1c1.8-2.8,1.4-20-0.9-19.2C120.7,110.4,120.8,127.8,123.2,124.1"/>
<path fill="#010101" d="M77.1,122.2c1.2-4.8,0.6-16.8-1-16.5c-0.4,1.3-0.7,1.3-0.9,4C74,116.5,75.8,127.3,77.1,122.2"/>
<path fill="#010101" d="M88.7,122.2c1.2-4.7,0.6-16.9-1-16.5c-0.4,1.3-0.7,1.3-0.9,4C85.7,116.7,87.4,127.2,88.7,122.2"/>
<path fill="#010101" d="M331.7,105.7c-0.4,1.4-0.7,1.5-0.9,4c-1.1,6.7,0.6,18.3,2,13.7C334.2,118.6,333.6,104.9,331.7,105.7"/>
<path fill="#010101" d="M343.3,105.7c-0.4,1.4-0.7,1.5-0.9,4c-1.1,6.7,0.6,18.3,2,13.7C345.8,118.6,345.3,104.9,343.3,105.7"/>
<path fill="#010101" d="M263.7,113.6c-0.3-4.6-0.6-7.3-1.7-7.2c-0.3,1.3-0.6,2.7-0.9,4c-0.2,4.7-0.3,8.9,0.1,12.6
	C262.5,125.4,263.7,122.4,263.7,113.6"/>
<path fill="#010101" d="M565.1,119.7c0.1-1.2,0.2-2.4,0.3-3.7c0-4.9-0.3-6.8-1-6.8c-0.1,0.4-0.2,0.7-0.3,1c-0.1,1.2-0.2,2.5-0.3,3.7
	c0,1.6,0.1,3.1,0.1,4.7c0.2,0.7,0.3,1.4,0.5,2.1C564.6,120.4,564.8,120,565.1,119.7"/>
<path fill="#010101" d="M71.8,152.1c1-8.1,0.4-19.5-1.5-20.1c-1.3,3.5-2,8.1-1.5,18.8C69.6,154,70.7,154,71.8,152.1"/>
<path fill="#010101" d="M83.4,152.1c1-8.1,0.4-19.5-1.5-20.1c-1.3,3.5-2,7.9-1.5,18.4C81.3,153.8,82.3,154.1,83.4,152.1"/>
<path fill="#010101" d="M453.8,132.4c-2.6,8.3-1.5,26.2,1.7,20.1c0.4-3.5,0.8-12.6,0.1-16.7C455.4,132.6,454.7,132.1,453.8,132.4"/>
<path fill="#010101" d="M558.3,132.7c-1.1,3.9-1.8,9.3-1.3,19.6c1.3,4.7,3.2,0,3.5-6.8C560.9,136.6,559.6,132.3,558.3,132.7"/>
<path fill="#010101" d="M476.8,133.4c-1.5,5.2-1.5,22.7,0.9,19.2C479.6,149.7,479.2,132.5,476.8,133.4"/>
<path fill="#010101" d="M35.2,135.2c-0.1,0.5-0.2,0.9-0.3,1.4c-0.4,1.4-0.6,5-0.4,8.9c0.2,3.6,0.8,5.8,1.5,4.2
	c0.5-1.3,0.9-5,0.7-9.9C36.4,136.1,36,134.9,35.2,135.2"/>
<path fill="#010101" d="M349.1,135.2c-1.9,8.4-0.3,21.7,1.5,12.5c0.2-3.7,0.1-6.4-0.1-9.8C350.1,136.1,349.8,135,349.1,135.2"/>
<path fill="#010101" d="M488.6,135.2c-0.4,2.1-0.6,2.8-0.9,6.1c0,3.5,0.1,4.7,0.2,7c0.9,4.4,2.7,2.6,2.2-7.9
	C489.9,136.4,489.5,134.9,488.6,135.2"/>
<path fill="#010101" d="M326,135.5c-0.2,0.5-0.3,0.9-0.5,1.4c-0.5,4.8-0.5,8.4,0.1,12.8c0.7,1.3,1.3,1.1,1.6-2.8
	c0.3-2.6,0.2-5.6,0-8.5C326.8,136.8,326.6,135.6,326,135.5"/>
<path fill="#010101" d="M337.6,135.5c-0.5,2.1-0.7,2.6-0.9,6.6c0,3.8,0.2,5.9,0.6,7.1c0.5,2.8,1.3,0.9,1.5-2.4
	c0.3-2.6,0.2-5.6,0-8.5C338.4,136.8,338.2,135.6,337.6,135.5"/>
<path fill="#010101" d="M268.4,140.8c0-0.5-0.1-1-0.1-1.5h-0.4c0,0.7-0.1,1.5-0.1,2.2v3.7c0.2,0.9,0.3,1.3,0.6,1.5
	C268.4,144.8,268.4,144.1,268.4,140.8"/>
<path fill="#010101" d="M157.6,160.8c-2.8,7.3-1.6,25.3,1.4,19c0.5-4.7,0.5-10,0.1-15.6C158.7,162.3,158.3,160.9,157.6,160.8"/>
<path fill="#010101" d="M205.5,180.3c0.6-6.4,0-13-0.6-17.2c-0.4-0.3-0.8-0.6-1.2-0.9c-0.3,1.3-0.6,2.6-0.9,4
	c-0.1,2.5-0.2,6.4,0,8.8C203.2,180.2,204.5,181.8,205.5,180.3"/>
<path fill="#010101" d="M564.1,162.2c-0.3,1.3-0.6,2.7-0.9,4c-0.3,6.4,0,9.3,0.5,13c1,1.7,1.5-0.1,2.1-3.1
	C566.3,167.3,565.7,161.7,564.1,162.2"/>
<path fill="#010101" d="M378.8,176.9l0.4-3.7c0-1.4,0-2.8,0.1-4.2c-0.2-1-0.3-2.1-0.5-3.1c-0.2-0.2-0.4-0.4-0.6-0.5
	c-0.1,1.2-0.3,2.4-0.4,3.7c0,1.4,0,2.8-0.1,4.2c0.2,1,0.3,2.1,0.5,3.1C378.4,176.5,378.6,176.7,378.8,176.9"/>
<path fill="#010101" d="M122.3,167.7v5.2c0,0.6,0,1.3,0.1,1.9h0.6c0.1-0.2,0.1-0.4,0.2-0.6V169c0-0.6,0-1.3-0.1-1.9
	c-0.2-0.2-0.4-0.4-0.6-0.6C122.5,166.8,122.4,167.2,122.3,167.7"/>
<path fill="#010101" d="M476.8,189.5c-1.5,5.2-1.5,22.7,0.9,19.2C479.6,205.9,479.2,188.7,476.8,189.5"/>
<path fill="#010101" d="M232.9,190.9c-0.8,2.8-1.1,4.6-0.9,12c0.6,3.7,1,5.4,2,3.2c0.4-3.8,0.6-6.7,0.3-12
	C233.9,192.3,233.7,190.9,232.9,190.9"/>
<path fill="#010101" d="M419,190.9c-0.6,1.9-1.5,5.6-0.9,11.5c0.2,1.4,0.3,2.8,0.5,4.1c0.4,0.7,0.8,1.3,1.2,0
	c0.2-1.1,0.4-2.1,0.7-3.2c0.1-3.6,0.1-5.9-0.1-9.2C419.9,192.4,419.7,191,419,190.9"/>
<path fill="#010101" d="M35.2,191.3c-0.1,0.5-0.2,0.9-0.3,1.4c-0.4,1.4-0.6,5-0.4,8.9c0.2,3.6,0.8,5.8,1.5,4.2
	c0.5-1.3,0.9-5,0.7-9.9C36.4,192.3,36,191.1,35.2,191.3"/>
<path fill="#010101" d="M488.6,191.3c-0.4,2.1-0.6,2.8-0.9,6.1c0,3.5,0.1,4.7,0.2,7c0.9,4.4,2.7,2.6,2.2-7.9
	C489.9,192.5,489.5,191.1,488.6,191.3"/>
<path fill="#010101" d="M371.8,196.3v5.4c0.2,1.3,0.3,2.6,0.5,3.9h0.8c0.2-1.1,0.4-2.3,0.6-3.4v-5.4c-0.2-1.3-0.3-2.6-0.5-3.9
	c-0.3-0.2-0.6-0.3-0.9-0.5C372.1,193.7,371.9,195,371.8,196.3"/>
<path fill="#010101" d="M198.3,204.2h0.4c0.3-3.1,0.4-4,0.2-8.3c-0.2-0.7-0.4-1.5-0.7-2.2c-0.1,0.4-0.2,0.7-0.4,1.1
	c-0.2,3-0.3,4-0.1,7.7C197.9,203.1,198.1,203.7,198.3,204.2"/>
<path fill="#010101" d="M99.3,215.8c-1.6,4.4-2.6,18.1-0.2,21.6c2.2,3.3,2.9-12.8,2-20.8C100.5,216.4,99.9,216.1,99.3,215.8"/>
<path fill="#010101" d="M517.3,215.9c-0.3,0.6-0.5,1.1-0.8,1.7c-1.2,11,0.5,27.5,2.7,18.9C521,229.3,519.7,215.1,517.3,215.9"/>
<path fill="#010101" d="M529.3,216.9c-2.2,6.3-1.4,23.6,0.7,20.6C532,234.7,531.8,216.2,529.3,216.9"/>
<path fill="#010101" d="M540.9,216.9c-2.2,6.3-1.4,23.6,0.7,20.6C543.6,234.7,543.4,216.2,540.9,216.9"/>
<path fill="#010101" d="M552.6,216.9c-2.2,6.3-1.4,23.6,0.7,20.6C555.3,234.7,555,216.2,552.6,216.9"/>
<path fill="#010101" d="M64.3,218.7c-0.3,1.2-0.5,2.5-0.8,3.7c-0.2,3.7-0.1,6.3,0.1,9.7c0.6,2.8,1.1,3.6,1.9,1.8
	c0.4-3.8,0.6-6.7,0.3-12C65.3,219.9,65.1,218.6,64.3,218.7"/>
<path fill="#010101" d="M331.9,218.7c-0.4,1.4-0.7,1.4-0.9,4.1c-0.7,4.7,0.1,10.9,0.7,12.7c1.3,0.4,1.9-4.5,1.6-11.4
	C333,220.6,332.6,219,331.9,218.7"/>
<path fill="#010101" d="M76,220.1c-0.2,1.3-0.4,2.6-0.7,3.9v5.4c0.2,1.3,0.3,2.6,0.5,3.9h0.8c0.2-1.1,0.4-2.3,0.6-3.4v-5.4
	c-0.2-1.3-0.3-2.6-0.5-3.9C76.4,220.4,76.2,220.2,76,220.1"/>
<path fill="#010101" d="M87.6,220.1c-0.2,1.3-0.4,2.6-0.7,3.9v5.4c0.2,1.3,0.3,2.6,0.5,3.9h0.8c0.2-1.1,0.4-2.3,0.6-3.4v-5.4
	c-0.2-1.3-0.3-2.6-0.5-3.9C88.1,220.4,87.8,220.2,87.6,220.1"/>
<path fill="#010101" d="M146.4,225c0-0.5-0.1-1-0.1-1.5h-0.4c0,0.7-0.1,1.5-0.1,2.2v3.7c0.2,0.9,0.3,1.3,0.6,1.5
	C146.3,229,146.4,228.3,146.4,225"/>
<path fill="#010101" d="M564.2,227.2c0.1,1.2,0.2,2.4,0.4,3.7c0.1-1.2,0.2-2.4,0.4-3.7c-0.2-2.4-0.1-2.6-0.4-3.7
	C564.4,224.8,564.3,226,564.2,227.2"/>
<path fill="#010101" d="M128.1,245.7c-1.6,5.4-1.5,22.8,0.9,19.2C130.8,262.1,130.4,244.8,128.1,245.7"/>
<path fill="#010101" d="M476.8,245.7c-1.5,5.2-1.5,22.7,0.9,19.2C479.6,262,479.2,244.8,476.8,245.7"/>
<path fill="#010101" d="M35.2,247.4c-0.1,0.5-0.2,0.9-0.3,1.4c-0.4,1.4-0.6,5-0.4,8.9c0.2,3.6,0.8,5.8,1.5,4.2
	c0.5-1.3,0.9-5,0.7-9.9C36.4,248.4,36,247.2,35.2,247.4"/>
<path fill="#010101" d="M488.6,247.4c-0.4,2.1-0.6,2.8-0.9,6.1c0,3.5,0.1,4.7,0.2,7c0.9,4.4,2.7,2.6,2.2-7.9
	C489.9,248.7,489.5,247.2,488.6,247.4"/>
</svg>
