<?xml version="1.0" encoding="utf-8"?>
<!-- Generator: Adobe Illustrator 18.0.0, SVG Export Plug-In . SVG Version: 6.00 Build 0)  -->
<!DOCTYPE svg PUBLIC "-//W3C//DTD SVG 1.1//EN" "http://www.w3.org/Graphics/SVG/1.1/DTD/svg11.dtd">
<svg version="1.1" id="Layer_1" xmlns="http://www.w3.org/2000/svg" xmlns:xlink="http://www.w3.org/1999/xlink" x="0px" y="0px"
	 viewBox="0 0 593.8 124.1" enable-background="new 0 0 593.8 124.1" xml:space="preserve">
<path fill="#FFFFFF" d="M573.9,88.5l0.2-0.2l6.9-6.9l-3.7-5.7l1-3.4c1.1-3.7,0.7-7.5-1.1-10.6l1.2-2.1l-0.1-3.3
	c-0.1-1.6-0.4-3.1-1-4.5c1.2-1.9,1.9-4.2,1.9-6.6c0.1-5.4-3-10.2-7.7-12.4c-2.2-4.1-6.6-6.8-11.6-6.8c-0.3,0-0.5,0-0.8,0l-2.7,0.2
	l-2.1,1.2c-1.8-0.9-3.9-1.5-6-1.5c-0.2,0-0.5,0-0.7,0l-2.7,0.1l-2.2,1.3c-1.8-0.9-3.8-1.4-6-1.4c-0.2,0-0.5,0-0.7,0l-2.7,0.1
	l-2.2,1.3c-1.8-0.9-3.8-1.4-6-1.4c-0.2,0-0.5,0-0.7,0l-2.7,0.1l-2.2,1.3c-1.8-0.9-3.8-1.4-6-1.4c-0.2,0-0.5,0-0.7,0l-2.7,0.1
	l-2.2,1.3c-1.8-0.9-3.8-1.4-6-1.4c-0.2,0-0.5,0-0.7,0l-2.7,0.1l-2.4,1.3c-1.8,1-3.3,2.4-4.5,4.1c-2.7,1-5.1,2.7-6.8,5
	c-1.3-1.8-2.8-3.1-4.1-3.9c-1-0.6-2.1-1.1-3.2-1.5C475,28,471.2,26,466.9,26c-0.3,0-0.5,0-0.8,0l-2.7,0.1l-2.3,1.3
	c-1.7,1-3.1,2.2-4.2,3.7c-3.7,1.2-6,3.3-7.2,5c-1.1,1.4-1.8,2.8-2.3,4.1c-1.5,1.2-2.7,2.7-3.6,4.3c0,0-0.1,0-0.1-0.1
	c-1.3-2.4-3.3-4.3-5.8-5.5l-0.7-2l-2.9-2.2c-0.5-0.4-1.5-1.1-3.1-1.8c-2.7-4.7-7-5.9-9.4-6.1l-5.5-0.6l-1.2,1.2
	c-1.9-1-4-1.6-6.3-1.6c-0.2,0-0.5,0-0.7,0l-2.7,0.1l-2.3,1.3c-0.2,0.1-0.3,0.2-0.5,0.3c-1.6-0.7-3.4-1.1-5.3-1.1c-0.2,0-0.4,0-0.7,0
	l-2.5,0.1l-2.2,1.1l-3.1,1.6l-1.7,2.8c-1.7,2.7-2.3,5.9-1.8,9c-1.1-1.3-2.6-2.5-4.5-3.4c-1.9-3.4-4.9-5.2-7.1-6l-0.2-0.6l-2.9-2.2
	c-0.9-0.7-3.7-2.8-8.2-2.8l-3.2,0l-2,1.2c-1.9-1-4.1-1.5-6.3-1.5c-0.2,0-0.4,0-0.6,0l-2.9,0.1l-2.2,1.3c-1.8-0.9-3.8-1.4-6-1.4
	c-0.2,0-0.5,0-0.7,0l-2.7,0.1l-2.2,1.3c-1.8-0.9-3.8-1.4-6-1.4c-0.2,0-0.5,0-0.7,0l-2.7,0.1l-2.2,1.3c-1.8-0.9-3.8-1.4-6-1.4
	c-0.2,0-0.5,0-0.7,0l-2.7,0.1l-2.2,1.3c-1.8-0.9-3.8-1.4-6-1.4c-0.2,0-0.5,0-0.7,0l-2.7,0.1l-2.4,1.3c-2,1.2-3.7,2.8-4.9,4.7
	c-3.3,1.3-5.2,3.3-6.3,4.9c-2.2,3.3-3.1,7.1-2.3,10.7c0.2,1.1,0.6,2,1,2.9c-0.6,1.3-1,2.6-1.2,4.1c-0.3,1.9-0.3,4.8,1.1,7.7
	c-1.2,2.5-1.3,5-1.2,6.9c-0.5-0.4-1-0.8-1.4-1.1c-0.2-0.1-0.4-0.2-0.6-0.4c-0.4-1-1-1.8-1.6-2.6c0.2-0.8,0.3-1.6,0.4-2.5l0.3-5.1
	l-3.7-3.6l-2.4-2.4c-1.1-2.6-2.9-4.6-5.1-5.9c-0.4-1-0.8-1.6-0.9-1.9c-0.9-1.5-2.4-3.3-4.7-4.6c-0.1-0.2-0.2-0.4-0.3-0.6
	c-1.6-3-4.2-5.3-7.4-6.6c-2.2-3.5-6.1-5.7-10.6-5.9l-2.6-0.1l-2.4,1.1c-0.4,0.2-0.7,0.3-1.1,0.5c-1.8-0.9-3.9-1.5-6.1-1.5
	c-0.2,0-0.5,0-0.7,0l-2.7,0.1l-2.3,1.3c-1.6,0.9-2.9,2.1-4,3.4c-3.7,1.1-6.8,3.7-8.7,7.2c-2.3,1.3-4.2,3.2-5.5,5.5
	c-0.2,0.3-0.3,0.6-0.5,0.9c-1.5,0.9-2.9,2.1-4,3.4c-0.7,0.9-1.3,1.8-1.7,2.8c-1.5,0.9-2.8,2-3.8,3.4c-0.7,0.9-1.2,1.9-1.7,2.9
	l-0.6,0.4l-2.5,1.9c0.4-1.8,0.4-3.8-0.1-5.9c-0.2-0.9-0.5-1.9-1-2.9c1-2.2,1.5-4.8,0.9-7.8c-0.6-3.6-2.3-6.4-4.9-8.4
	c-0.9-0.7-1.8-1.2-2.7-1.7c-0.1-0.2-0.2-0.4-0.4-0.6c-2.5-3.8-6.7-6-11.3-6c-0.3,0-0.6,0-0.8,0l-2.9,0.2l-1.9,1.2
	c-1.8-0.9-3.8-1.3-5.9-1.3l-0.3,0l-2.9,0.1l-2.2,1.2c-2.1,1-3.7,2.4-5,4.2c-0.4,0.5-0.7,1.1-1.1,1.7c-5.2,2.8-8.1,8.7-6.9,14.5
	c0.2,1,0.5,2,1,2.9c-1.3,2.6-1.8,5.6-1.2,8.6c0.2,1.1,0.6,2.2,1.1,3.2c-0.8,1.7-1.3,3.5-1.4,5.4h-4.8l-2.7,4
	c-0.5,0.1-1.2,0.3-1.9,0.5c-0.1-0.2-0.2-0.4-0.4-0.6v-4l0-2l-0.6-1.8l-0.2-0.7c1.5-2.5,2.3-5.5,1.9-8.5c-0.5-3.6-2.3-6.6-4.9-8.7
	c-0.4-1.1-0.9-2.2-1.5-3.2c-1-1.6-2.9-3.9-5.9-5.4c-2.1-4-5.3-5.8-7.9-6.5c-2.4-3.1-6.2-5-10.4-5l-2.7,0l-2.2,1
	c-0.2,0.1-0.4,0.2-0.5,0.3c-1.7-0.9-3.6-1.4-5.5-1.5l-2.7-0.1l-2.5,1.1c-0.4,0.2-0.7,0.3-1.1,0.5c-1.7-0.9-3.5-1.4-5.5-1.5l-2.6-0.1
	l-2.4,1c-0.4,0.2-0.8,0.4-1.2,0.6c-1.7-0.9-3.5-1.4-5.5-1.5l-2.6-0.1l-2.4,1c-0.4,0.2-0.8,0.4-1.2,0.6c-1.7-0.9-3.5-1.4-5.5-1.5
	L58,25.8l-2.4,1c-0.4,0.2-0.8,0.4-1.2,0.6c-1.7-0.8-3.5-1.4-5.5-1.5l-2.7-0.1l-2.4,1.1c-2.4,1.1-4.4,2.7-5.8,4.7c-4,1.4-6.2,4-7.4,6
	c-0.6,1-1.1,2.1-1.5,3.2c-4.1,3.2-5.9,8.8-4.2,14l0.1,0.2l0.1,0.2c0.2,0.5,0.4,0.9,0.6,1.4c-1.5,2.9-1.9,6.4-0.8,9.8l0.1,0.2
	l0.1,0.2c0.2,0.5,0.4,0.9,0.6,1.4c-1.5,2.9-1.9,6.4-0.8,9.8l0.1,0.2l0.1,0.2c0.2,0.5,0.4,1,0.6,1.4c-1.5,2.9-1.9,6.4-0.8,9.8
	l0.1,0.2l0.1,0.2c0.8,2.1,2.1,3.9,3.8,5.3c0,0.1,0.1,0.2,0.1,0.3c1.2,3.9,3.9,7,7.4,8.7c0,0,0,0,0,0c2.6,4.4,7.2,7.1,12.2,7.1
	c1.2,0,2.3-0.1,3.5-0.4c0.8-0.2,1.6-0.5,2.3-0.8c1.7,0.8,3.7,1.2,5.7,1.2c0.5,0,1,0,1.5-0.1c1.4-0.1,2.9-0.5,4.4-1.2
	c0.1,0,0.2,0.1,0.3,0.1c1.9,0.8,3.9,1.2,5.8,1.2c1.7,0,3.7-0.3,5.6-1.2c2.1,0.9,4.1,1.2,5.5,1.2c1.2,0,2.4-0.2,3.6-0.5
	c0.8-0.2,1.6-0.5,2.3-0.8c2.1,1,4.2,1.2,5.7,1.2c0.5,0,1.1,0,1.6-0.1c1.6-0.2,3.1-0.6,4.5-1.2c0.9,0.4,1.9,0.7,2.9,0.9
	c1,0.2,2,0.3,2.9,0.3c2.4,0,4.5-0.6,6.5-1.6c1.6,0.7,3.3,1,5,1c2.4,0,4.6-0.6,6.7-1.8c1.7-1,3.2-2.4,4.3-4c2.6,4.1,7.3,6.7,12.3,6.7
	c2,0,3.9-0.4,5.7-1.2c0.9,0.4,1.9,0.7,3,1c1,0.2,2,0.3,3.1,0.3c1.8,0,4-0.3,6.3-1.5c1.7,0.7,3.5,1,5.3,1c4.3,0,8.2-2,10.8-5.4
	c0.2-0.3,0.4-0.6,0.6-0.9c2.5-1.1,4.7-2.8,6.2-5c1.3,1.7,2.9,3.1,4.7,4.1c1.6,3,4.2,5.3,7.3,6.5c1.7,0.7,3.4,1,5.2,1
	c2.8,0,5-0.8,6.8-1.8c1.5,0.6,3.1,0.8,4.6,0.8c4.8,0,9.3-2.6,11.7-6.7c1.9-0.9,3.7-2.3,5-4.1c0.2-0.1,0.4-0.1,0.6-0.2
	c2.2,0.9,4.3,1.1,5.6,1.1c0.9,0,1.8-0.1,2.7-0.2c1.3-0.2,2.5-0.5,3.6-1c1.3,0.5,2.5,0.8,3.6,1c0.9,0.1,1.7,0.2,2.6,0.2
	c1.4,0,3.2-0.2,5.1-0.9c1.2,1.8,3,3.6,5.7,4.8c0.3,0.5,0.6,1,0.9,1.4c2.6,3.5,6.7,5.5,11,5.5c1.9,0,3.7-0.4,5.5-1.1
	c0.2-0.1,0.4-0.2,0.6-0.2c1.8,0.8,3.7,1.2,5.6,1.2c4.7,0,9.1-2.4,11.7-6.1c2.2,3.2,5.6,5.4,9.5,6c0.8,0.1,1.6,0.2,2.4,0.2
	c1.9,0,4.1-0.4,6.3-1.5c1.4,0.6,3.1,1,5.1,1c1.9,0,3.8-0.4,5.6-1.2c3.5-1.5,6.1-4.5,7.4-8.3c1-3,0.9-6.3-0.2-9.2
	c0.1-0.1,0.1-0.3,0.2-0.4l1.5,0.6l2.1,0.1c0.2,0,0.5,0,0.7,0c1.8,0,3.4-0.3,5-0.9c0.1,0.1,0.3,0.2,0.4,0.2c0.3,0.5,0.6,1,0.9,1.5
	c0.9,1.3,2.4,3,4.7,4.2c0.9,2,2.3,3.6,4,4.9c0.8,0.6,1.5,1,2.3,1.4c1.8,3.2,4.8,5.6,8.3,6.6c1.3,0.3,2.5,0.5,3.8,0.5
	c1.5,0,3.3-0.2,5.2-1.1c1.9,1,4,1.5,6.2,1.5c1.9,0,3.8-0.4,5.6-1.2c2.7-1.1,5-3.1,6.5-5.7c1.7,2.6,4.2,4.6,7.2,5.5
	c1.3,0.4,2.7,0.6,4.1,0.6c1.4,0,3.1-0.2,4.8-0.9c2.3,1.2,4.5,1.6,6.4,1.6c0.9,0,1.8-0.1,2.7-0.2c5.1-1,8-3.8,9.4-6
	c0.3-0.5,0.6-1,0.9-1.5c3-1.7,5.3-4.3,6.5-7.6c0.4-1.1,0.8-2.9,0.8-4.9c0.8,0.6,1.6,1.1,2.4,1.5c1.4,2.3,3.4,4.3,5.8,5.6
	c0.5,0.9,1,1.7,1.6,2.5c1,1.2,2.5,2.6,4.7,3.6c0.1,0.2,0.2,0.3,0.3,0.5c2.5,3.9,7,6.2,11.7,6.2c1.8,0,3.6-0.4,5.3-1
	c1.9,1,3.9,1.5,6.2,1.5h0c1.3,0,2.6-0.2,3.8-0.5c2.4-0.6,6-2.2,8.3-6.2c2.6-1.1,4.4-2.8,5.6-4.4c1.4,1.7,3.1,3.2,5,4.1
	c0.1,0.2,0.3,0.4,0.4,0.6c2.7,4,7.1,6.4,11.8,6.4c1.2,0,2.5-0.2,3.7-0.5c0.7-0.2,1.4-0.5,2.1-0.7c1.8,0.8,3.7,1.3,5.7,1.3
	c1.3,0,2.6-0.2,3.8-0.5c0.7-0.2,1.4-0.4,2-0.7c2,0.9,4,1.2,5.7,1.2c0.8,0,1.5-0.1,2.3-0.2c1.3-0.2,2.5-0.6,3.6-1.1
	c1.8,0.8,3.7,1.3,5.7,1.3c0.8,0,1.5-0.1,2.3-0.2c1.4-0.2,2.5-0.6,3.6-1.1c1.8,0.8,3.7,1.3,5.8,1.3c1.3,0,2.6-0.2,3.9-0.5
	c0.8-0.2,1.5-0.5,2.1-0.8c1.8,0.8,3.7,1.2,5.6,1.2c5.4,0,10.4-3,12.8-7.7c2.1-4.1,2.2-8.6,0.2-12.5
	C573.4,90.3,573.7,89.4,573.9,88.5"/>
<path fill="#010101" d="M48.7,39.7c1.9-0.3,1.6-3.1-0.4-3.2C46.1,37.5,46.6,40.1,48.7,39.7"/>
<path fill="#010101" d="M60.3,39.7c1.9-0.4,1.6-3.1-0.4-3.2C57.7,37.5,58.2,40.2,60.3,39.7"/>
<path fill="#010101" d="M71.9,39.7c1.9-0.4,1.6-3.1-0.4-3.2C69.3,37.5,69.8,40.2,71.9,39.7"/>
<path fill="#010101" d="M83.5,39.7c1.9-0.4,1.6-3.1-0.4-3.2C80.9,37.5,81.5,40.2,83.5,39.7"/>
<path fill="#010101" d="M95.9,39.5c0.9-1.1,0.6-2.8-1.2-2.9C92.3,37.6,93.2,40.4,95.9,39.5"/>
<path fill="#010101" d="M235.1,39.7c1.6-0.6,0.9-3.2-1.1-3.1C232.1,37.7,232.7,40.7,235.1,39.7"/>
<path fill="#010101" d="M246.1,39.8c1.9-0.4,1.9-3.1-0.3-3.2C243.7,37.5,244.2,40.2,246.1,39.8"/>
<path fill="#010101" d="M304.9,39.7c1.6-0.6,0.9-3.2-1.1-3.1C301.8,37.7,302.5,40.6,304.9,39.7"/>
<path fill="#010101" d="M316.5,39.7c1.6-0.6,0.9-3.2-1.1-3.1C313.5,37.7,314,40.7,316.5,39.7"/>
<path fill="#010101" d="M328.1,39.7c1.6-0.6,0.9-3.2-1.1-3.1C325.1,37.7,325.6,40.7,328.1,39.7"/>
<path fill="#010101" d="M339.7,39.7c1.6-0.6,0.9-3.2-1.1-3.1C336.8,37.7,337.3,40.7,339.7,39.7"/>
<path fill="#010101" d="M351.7,39.5c0.9-1.2,0.5-3-1.5-2.9C348.1,37.9,349,40.6,351.7,39.5"/>
<path fill="#010101" d="M409.2,39.8c1.8-0.5,1.4-3.3-0.8-3.2C406.6,37.6,406.9,40.4,409.2,39.8"/>
<path fill="#010101" d="M467.3,39.8c1.8-0.4,1.5-3.3-0.7-3.2C464.7,37.6,465.1,40.3,467.3,39.8"/>
<path fill="#010101" d="M502.5,39.7c1.6-0.6,0.9-3.2-1.1-3.1C499.5,37.7,500.2,40.6,502.5,39.7"/>
<path fill="#010101" d="M514.1,39.7c1.6-0.6,0.9-3.2-1.1-3.1C511.2,37.7,511.7,40.7,514.1,39.7"/>
<path fill="#010101" d="M525.7,39.7c1.6-0.6,0.9-3.2-1.1-3.1C522.8,37.7,523.3,40.7,525.7,39.7"/>
<path fill="#010101" d="M537.4,39.7c1.6-0.6,0.9-3.2-1.1-3.1C534.4,37.7,534.9,40.7,537.4,39.7"/>
<path fill="#010101" d="M549,39.7c1.6-0.6,0.9-3.2-1.1-3.1C546,37.7,546.5,40.7,549,39.7"/>
<path fill="#010101" d="M106.7,39.6c1.7-0.4,1.6-2.9-0.4-2.9C104.7,37.4,104.6,40,106.7,39.6"/>
<path fill="#010101" d="M177.7,38.9c0.6-1.4-0.6-2.3-1.9-2.2c-0.9,0.6-1.3,1.2-0.9,2.5C175.8,39.9,177.2,39.9,177.7,38.9"/>
<path fill="#010101" d="M560.3,39.7c1.7-0.4,1.5-3.2-0.7-3.1C558,37.5,557.9,40.3,560.3,39.7"/>
<path fill="#010101" d="M165.9,39c0.4-1.3-0.2-2.2-1.6-2.2c-0.4,0.2-0.7,0.2-0.9,0.7C162.1,38.8,164.9,40.6,165.9,39"/>
<path fill="#010101" d="M363.1,39.3c0.4-0.6,0.6-1.1,0.3-1.9c-0.4-0.3-0.6-0.5-1.4-0.5c-1.1,0.6-1.2,1.5-0.4,2.5
	C362.1,39.5,362.5,39.5,363.1,39.3"/>
<path fill="#010101" d="M397.1,39.2c0.2-0.1,0.4-0.1,0.7-0.2c0.1-0.3,0.2-0.5,0.4-0.8c-0.2-0.7-0.4-1-1.4-0.9
	c-0.1,0-0.2,0.1-0.3,0.1c-0.3,0.4-0.3,0.9-0.1,1.5C396.6,39,396.9,39.1,397.1,39.2"/>
<path fill="#010101" d="M420.1,38.8c0.1,0,0.2,0,0.4,0.1c0.3-0.2,0.4-0.3,0.6-0.5v-0.2c-0.2-0.4-0.3-0.5-0.8-0.6l-0.5,0.5
	c0,0.1,0,0.2,0.1,0.4C419.9,38.6,420,38.7,420.1,38.8"/>
<path fill="#010101" d="M118.9,79.8c-1.1-0.2-2.1-1.6-1.2-2.8c0.3-0.4,0.9-0.5,1.5-0.7C121.7,76.3,121.2,80.1,118.9,79.8
	 M112.4,50.5c-2.1-0.8-0.9-2.9,0.5-3.6c1,0,1.3,0.1,1.8,0.5C115.2,48.9,114.5,51.3,112.4,50.5 M114.5,62.6c-0.6,1-2.4,0.5-2.7-0.4
	v-0.9c0.2-0.5,0.5-0.6,1-0.9c1,0,1.3,0.2,1.8,0.7C114.8,61.7,114.8,62.3,114.5,62.6 M114.1,73c-0.2,0.2-0.3,0.5-0.5,0.7
	c-1.2,0.4-2.2,0.2-2.6-0.9c0.1-1,0.5-1.1,1.2-1.5c0.9,0,1.5,0.1,1.8,0.7C114.2,72.1,114.3,72.6,114.1,73 M107.4,68.6
	c-0.8,0.2-1.2,0-1.7-0.4c-0.1-0.4-0.2-0.8,0-1.2c0.2-0.2,0.4-0.4,0.7-0.7C108,66.3,108.1,67.7,107.4,68.6 M107.4,79.7
	c-0.4,1.6-2.1,1.6-3.2,2.5c-1.8,1.5-0.2,3.4-3.6,4.1c-0.7,0.1-1.8,0.3-2.5,0c-1.5-0.7-1-4.2-3.7-3.6c-2.1,0.4-1.3,3.3-3,3.9
	c-1.1,0.4-5.2,0.1-5.7-0.5c-1-1.3-0.4-3.1-2.4-3.4c-2.3-0.4-2,2.3-2.8,3.4c-0.4,0.6-4.2,0.9-5.4,0.6c-1.8-0.4-1.1-3.4-3-3.9
	c-2.4-0.7-2.3,1.8-3.1,3.1c-0.6,1.1-2.9,1-4.4,0.7c-1.8-0.5-1.5-2.1-2.4-3.4c-0.9-1.4-3.3-1.2-3.8-3c-1-3.6,2.8-3.3,4-4.9
	c0.8-1.1,0.7-3.2,1.9-3.9c0.5-0.1,1-0.2,1.5-0.4c3.9,0.1,2,4.4,5.3,4.9c4.4,0.8,1.5-6.2,7.3-4.9c2.5,0.5,1.4,4.2,3.9,4.9
	c4,1.1,2.7-4.3,5.4-4.9c5.5-1.1,3,4.3,6.5,4.9c3.5,0.6,2.7-3.7,4.9-4.3c4.1-1.1,2.8,3.6,4.3,4.6C105.2,77.2,108.2,76.7,107.4,79.7
	 M106.6,92.6c-0.3,0.1-0.7,0-0.9-0.1c-0.7-1-0.6-2.5,0.3-3.3h0.7C107.3,89.8,107.9,92,106.6,92.6 M95.2,93.2c-2.2,0.6-3-4-2-5.5
	c0.3-0.4,0.8-0.5,1.2-0.7C97.7,86.9,97,92.7,95.2,93.2 M83.7,93.2c-2.4,0.6-3.1-4.2-2.1-5.7c0.3-0.4,0.8-0.5,1.3-0.7
	C86.5,86.8,85.6,92.7,83.7,93.2 M72,93.2c-2.4,0.6-3-4.3-2-5.7c0.3-0.4,0.9-0.4,1.5-0.7C74.7,87,74,92.7,72,93.2 M61.3,92.4
	c-2.5,1.7-2.8-2.8-1.4-4C62.1,88.4,61.8,91,61.3,92.4 M61.2,69c-2.9,0.8-2.7-3.1-1.1-4.2C62.8,64.6,62.2,67.8,61.2,69 M59,54.5
	c0.8-1.3,3-1.1,3.9-2.3c1.7-2.4-0.4-3.4,3-4.9c4,0.1,1.5,6.5,6.4,5.4c3.3-0.7,1.5-4.9,4.4-5.4c5.2-1.1,2,6.5,7.3,5.4
	c3.3-0.7,1.5-4.9,4.4-5.4c3.6-0.7,2.7,2.6,3.9,4.4c1.2,1.8,3.2,0.6,4.8,1.7c1,0.7,0.6,2.7,1.3,3.8c0.8,1.3,3.2,1.2,3.6,2.9
	c0.5,2.2-2.2,3.9-4,2.8c-1.2-0.8-0.8-2.9-2.3-3.4c-2-0.7-3.7,1.8-2.7,3.7c0.5,0.7,2.3,0.4,3,0.9c1.3,0.9,0.8,4.9-0.3,5.7
	c-3.5,2.3-2.6-4-3.5-5.4c-0.4-0.5-1.2-0.4-2-0.5c-2.8-0.5-4.2,0.6-4.7,2.9c-0.2,1,0,1.9-0.4,2.6c-0.3,0.5-1.4,1-2.5,0.7
	c-3.1-0.7,0.1-7.8-6.1-6.3c-0.7,0.2-1.7,0.5-2,1c-1.1,1.7,0.2,6.2-3.4,5.3c-2.5-0.6-0.9-4.3-2.5-5.7c-1-0.9-2.8-0.4-4.3-0.9
	c-1.5-0.5-1.1-2.3-1.9-3.6C61.5,58.4,56.9,57.9,59,54.5 M99.5,47.7c2.9-0.1,2.9,4.3,0.7,4.8C97.5,53.1,97.8,48.7,99.5,47.7
	 M54.9,50.5c-0.3-0.1-0.7-0.2-1-0.3c-0.2-0.4-0.6-1-0.2-1.6c0.2-0.2,0.4-0.4,0.7-0.7c0.4,0,0.7,0.1,1.1,0.1
	C56.2,49.1,55.9,49.9,54.9,50.5 M126.5,77.8c-0.9-2.4-3.2-1-4.7-2.3c-0.8-0.7-0.4-3.1-0.9-4.1c-1.1-1.9-4.2-1.3-4.7-3.7
	c-0.9-4.1,3.7-2.9,4.6-5.5c1.3-4-4.6-2.8-3.7-7.3c0.5-2.4,6-3,3.7-6.8c-1.4-2.2-3.3-0.6-4.9-1.7c-1.4-1,0.2-6.1-4.1-5.2
	c-2.5,0.5-1.9,4.5-5.5,3.9c-2.9-0.5-2.3-5.3-6.4-4.3c-3.4,0.9-1.5,6.9-5.9,5.5c-2.3-0.7-0.8-4.7-3.9-5.5c-5.8-1.6-2.6,6.6-7.1,5.8
	c-3.3-0.5-1.1-4.9-4.5-5.8c-5.2-1.4-3.1,5-6,5.7c-4.6,1.1-1.9-5-6-5.8c-4.6-0.9-2.8,4.7-5.7,5.3c-2.9,0.6-2.7-1.8-3.4-3.4
	c-0.6-1.4-1.7-1.9-3.6-1.9c-0.8,0.4-1.6,0.4-2,1.1c-1,1.3-0.9,2.9-2.9,3.3c-1,0.2-2.1-0.1-2.6-0.5c-1.4-1-1.3-3.9-4.1-3.1
	c-0.7,0.2-1.3,0.6-1.7,1.2c-2,3.3,2.9,3.9,3.4,6c0.9,4.2-3.4,3.5-4,6.4c-0.9,4.2,4.8,2.7,4,7.1c-0.5,2.6-4.7,2.1-4,5.7
	c0.6,2.7,4.7,2,4,6c-0.5,2.6-4.7,2.1-4,5.7c0.5,2.4,3.5,2.1,4,4.5c0.8,4.4-5.2,3.1-3.9,7.4c0.5,1.6,2.1,2.3,4.1,2
	c0.4,0,0.8-0.1,1.2-0.1c1-0.7,0.1-4.2,2.8-3.6c1.5,0.3,2,2.5,0.7,3.5c-0.6,0.4-1.7,0.5-2.5,0.7c-1.3,2.3,0.2,5.8,3,5.1
	c2.6-0.6,1.8-4.4,5.8-3.8c2.8,0.5,2.5,4.1,5.3,3.9c3.6-0.4,1.4-4.5,5.7-4.5c0.9,0,1.6,0.1,2.1,0.4c1.3,0.9,0.9,3.2,2.5,3.9
	c4.6,1.9,2.3-5.6,8.1-4.3c2.5,0.6,1.6,5.3,5.2,4.4c2.7-0.7,1.3-4,4.5-4.5c5-0.8,2.8,5,6.6,4.6c3-0.3,2-3.9,4.9-4.4
	c4.5-0.8,3.1,3.7,6,4.3c3.6,0.7,2.4-5,8.1-3.9c2,0.4,2.5,4.4,5,3c0.8-0.5,1.3-2,0.6-3c-0.9-1.3-4.5-1.9-2.2-4.9
	c0.3-0.4,0.8-0.6,1.4-0.7c3.2-0.8,2.4,4.1,5.6,3.1c0.7-0.2,1.2-0.5,1.5-1.1c1.4-2.9-2.8-3.2-3.2-5.2
	C121.6,80.8,128.1,81.8,126.5,77.8"/>
<path fill="#010101" d="M178.8,57.3c-2.3,1.1-4.9-1.9-1.5-3.5C179.8,53.7,180.5,56.5,178.8,57.3 M178.8,69c-2.3,1.1-4.9-1.9-1.5-3.5
	C179.8,65.3,180.5,68.1,178.8,69 M172.1,87.1c-2.3,0.9-3.2-2-1.3-3.1C172.9,83.8,173.8,86.3,172.1,87.1 M168.6,49.8
	c-0.6-1.3,0.5-1.8,1.2-2.1c1.2,0,2.4,1,1.7,2.2C171,51,169.1,50.8,168.6,49.8 M162.6,79.6c-1.3-0.8-0.6-2.2,0.4-2.8
	c1.3,0,1.8,0.3,2.2,1.2C165.2,79.5,163.8,80.4,162.6,79.6 M184.1,55.2c-0.5-2.1-3.5-1.2-3.9-3.6c-0.2-0.9-0.1-4.3,0.2-4.8
	c0.9-1.2,3.9-0.6,3.5-2.9c-0.1-0.6-0.2-1-0.6-1.3c-2.6-2-2.9,1.8-3.7,2.8c-0.6,0.8-2.7,0.6-3.9,0.3c-3.2-0.9-0.9-5-6-4.9
	c-1.5,0.7-2.2,1.1-2.7,2.8c-0.2,0.7-0.2,1.3-0.5,1.8c-1.2,1.8-6.6,0.4-5.3,5.4c0.7,2.6,4.7,2.3,4.4,5c-0.4,3.1-5.2,1.9-4.4,6.2
	c0.6,3.3,5,2.7,4.4,5.7c-0.5,2.2-3.4,1.6-4.1,3.5c-0.5,1.2-0.1,3.7-1,4.5c-1.4,1.2-3.5,0.5-4.1,2.6c-1.2,4.3,5.4,3,3.3,6.5
	c-0.5,0.8-1.9,1.2-2.8,0.5c-1.5-1.1-0.4-4-3.9-3.4c-2.9,0.5-2.3,3.6-5.4,4.1c-0.9,0.2-2-0.1-2.5-0.5c-1.3-1-1.3-3.6-3.7-3.2
	c-0.8,0.2-1.4,0.3-1.8,0.9c-0.7,0.9-0.8,3,0.1,3.8c1.6,1.3,3.8,1,3,4.7c-0.6,2.9-3.3,0.8-3.9,4.3c-0.1,0.6,0,1.4,0.2,1.9
	c0.6,1.1,2.5,2.1,4,1.2c1.8-1.1,1.5-4.3,5.2-3.6c2.4,0.5,2,3.4,4.4,3.9c3.3,0.7,3-3.4,5.4-3.9c0.8-0.2,2.1-0.2,2.8,0.1
	c1.4,0.5,1.5,2.6,2.8,3.2c2.7,1.2,3.8-1.9,3.1-4.1c-0.9-0.5-2.3-0.6-2.8-1.4c-0.9-1.2,0-3,1.2-3.3c2.5-0.5,1.8,3.3,3.7,3.8
	c2.5,0.6,4.3-0.5,4.7-2.5c0.2-1.1,0-2.3,0.8-2.8c1.6-1.1,3.5-0.1,4.6-2.1c2.3-4.5-6.1-4.3-3.2-8.1c0.4-0.5,1-0.7,1.7-0.9
	c2.9-0.7,1.9,2.3,3.3,3.3c1,0.8,2.6,0.2,3.1-0.7c1.3-2.6-2.1-2.6-3.1-3.4c-0.6-0.5-0.8-4.3-0.4-5.5c0.5-1.8,3.4-1.2,3.9-3.1
	c0.6-2.7-2.2-2.3-3.3-3.3c-0.7-0.6-0.9-3.9-0.5-5.2C180.8,57.4,184.8,58.2,184.1,55.2"/>
<path fill="#010101" d="M262.8,72.7c0.1-1,0.5-1.2,1.2-1.7c1.2,0,1.6,0.2,2,1C266,74.6,263.6,74.3,262.8,72.7 M263.9,86.4
	c-0.6,0.4-1,0.6-1.8,0.3c-0.2-0.3-0.6-0.9-0.4-1.5c0.2-0.5,0.4-0.6,0.8-0.9c0.6,0,0.8,0.1,1.2,0.2C264.1,85.1,264.2,85.6,263.9,86.4
	 M257.3,67.7c-0.1-0.1-0.3-0.3-0.4-0.4c-0.4-0.8,0.3-1,0.8-1.2c0.6,0.1,0.9,0.2,1.1,0.7C259.2,67.5,258,68.2,257.3,67.7 M257,79.9
	c0,0-0.1,0-0.1-0.1c0-0.2-0.1-0.4-0.1-0.7c0.1-0.1,0.2-0.2,0.3-0.3c0.1,0,0.2,0,0.4,0.1c0.2,0.1,0.2,0.2,0.4,0.4
	C257.5,79.8,257.5,79.9,257,79.9 M252.6,62.4c-0.4,0.8-1.3,0.8-2.2,0.5c-0.2-0.3-0.4-0.4-0.4-0.9c0-0.2,0-0.4,0.1-0.6
	c0.2-0.5,0.6-0.6,1-0.8c0.4,0.1,0.8,0.2,1.2,0.3C252.6,61.3,253,61.9,252.6,62.4 M251.2,75.1c-3,1.2-3.6-2.8-1.5-4
	C252.9,70.9,253.7,74.1,251.2,75.1 M246.6,81c-4.5,1.8-2-4.8-6.2-5.1c-4.3-0.3-1.8,6.5-6.8,5.2c-2-0.5-1.4-2.9-2.5-4.3
	c-1.5-2-4.1-0.1-4.7-3.6c-0.1-0.7-0.3-1.7,0-2.4c0.7-1.8,4.1-0.4,4.7-3.1c0.7-3.4-5.7-3.2-3-6.8c0.3-0.4,0.8-0.6,1.4-0.8
	c3.4-1,2.3,4,5.4,3.3c0.6-0.1,1-0.3,1.3-0.7c2.4-3.5-3.7-2.8-3.1-5.9c0.3-1.3,0.7-1.5,1.7-2c2.6,0,2,2.3,3.4,3.4
	c0.9,0.7,2.7,0.4,3.7,1c1.2,0.7,0.7,2.8,1.5,3.9c1.4,2.3,5.9,1.1,4.9,6c-0.5,2.3-3.9,1.2-4.4,3.8c-0.5,3.1,3.2,1.9,4.1,3.4
	C248.9,77.9,247.6,80.6,246.6,81 M227.4,47.3c2.2,0.1,2.8,3.1,0.7,3.6C226,51.4,224.9,48.3,227.4,47.3 M225.5,69.2
	c-1.4,0.9-3.8,0.2-3.3-1.8c0.3-0.7,0.7-0.8,1.3-1.1C225.5,66.2,226.2,67.6,225.5,69.2 M223.9,80.9c-2.4,0.6-2.7-2.9-0.8-4
	C225.7,76.8,225.9,80.5,223.9,80.9 M244.8,54.9c1.1-0.1,1.8,0.3,2,1.1c0.3,1.3-1.2,2.4-2.3,1.7C243,57.1,243.9,55.5,244.8,54.9
	 M211.3,79.2c-0.3,0.2-0.4,0.4-0.9,0.4c-0.6-0.5-0.6-0.9,0-1.5h0.5c0.2,0.2,0.4,0.4,0.5,0.7C211.3,79,211.3,79.1,211.3,79.2
	 M206.1,84.7c-0.6,1.4-3.5,0.9-2.9-1c0.2-0.6,0.6-0.7,1.2-0.9c0.8,0,1.4,0.2,1.7,0.8C206.3,83.8,206.3,84.4,206.1,84.7 M279.4,91.5
	c-0.4-2.2-0.2-4.1,1.3-4.7c0.6-0.3,1.3-0.4,1.7-0.9c0.7-1,0.2-2.4-0.7-2.8c-3.2-1.4-2.2,4.1-5.5,3.2c-0.7-0.2-1.4-0.5-1.7-1
	c-2.5-3.7,3.8-3.5,3-6.8c-0.2-0.7-0.5-1.2-0.9-1.5c-3.6-2.4-3.4,3.2-6.2,3.1c-0.6,0-1.2-0.4-1.5-0.7c-2.5-3.3,5.2-2.8,3.1-7.4
	c-0.9-1.9-3.6-1.1-4.6-2.5c-0.6-0.9-0.3-2.6-0.8-3.6c-0.9-1.7-3.2-1.4-4.3-2.8c-0.8-1.1-0.5-3.2-1.3-4.3c-0.8-1.2-3.2-1-4-2.3
	c-2.7-4.3,4.5-4.3,2.5-7.6c-0.3-0.5-0.7-0.7-1.3-0.9c-3.1-0.9-2.2,3.8-5.3,3.1c-0.6-0.1-1.1-0.3-1.5-0.7c-3.1-3.5,4.6-3.6,2.7-7.4
	c-0.3-0.6-0.9-1-1.7-1.2c-2.5-0.6-2.6,1.9-3.7,2.9c-0.6,0.5-1.8,0.8-2.9,0.6c-3.3-0.7-1.5-4.4-6.2-4.4c-0.6,0.3-1.3,0.4-1.7,0.9
	c-1.2,1.4-0.9,3.2-3.3,3.5c-3,0.4-2.6-3.6-5.4-4.1c-2-0.4-3.3,1.1-3.6,2.5c-0.2,0.9,0,1.9-0.4,2.5c-0.6,0.9-1.9,0.6-3.1,0.9
	c-2.1,0.6-2.5,3-1.8,5.4c1.3,0.7,5.2,1,3.4,3.6c-0.3,0.4-0.8,0.6-1.3,0.7c-2.1,0.5-2.7-1.4-2.9-3.1c-2.1-1.4-5.6,0-4.9,2.8
	c0.4,1.9,2.8,1.7,3.4,3.3c0.4,1-0.2,2.2-0.8,2.6c-3.4,2.4-3.4-3.3-6.1-2.8c-0.7,0.1-1.1,0.3-1.5,0.7c-1.8,2.4,1.6,3.2,2.5,4.4
	c0.3,0.4,0.4,0.9,0.4,1.7c0,2.6-2.3,3-4.4,3.5c-0.7,1.3-0.5,3.5-1.4,4.7c-0.9,1.3-3.2,1.2-4.1,2.5c-0.7,1-0.4,3.1-1.2,4
	c-0.9,1-3.1,0.7-4,1.9c-0.9,1.1-0.1,3.7-0.9,4.7c-0.9,1.3-4-0.3-5,2c-1.1,2.6,2.1,4.9,4.4,3.3c1-0.7,0.7-3.3,1.1-4.7
	c2.2-1.3,4.5,0.8,3.9,3.6c-0.4,2-2.3,1.4-3.3,2.6c-1.3,1.6-0.1,4,1.2,4.6c3.2,1.2,3.4-3.2,6.1-3.7c5.1-0.9,3.4,1.6,5.7,2.8
	c1,0.5,2.1-0.2,2.4-0.8c1.4-2.7-5.3-3.1-2.3-7.2c0.4-0.5,0.9-0.8,1.6-0.9c2.9-0.7,2.3,2.9,4.2,3.6c2,0.7,3.5-1.8,2.6-3.6
	c-0.5-0.9-2-0.6-2.8-1.1c-1.4-0.9-0.7-3.6,0.7-4c2.5-0.6,2.2,2.2,3,3.4c0.5,0.8,2.9,1,4,0.7c3.4-1,1.3-6.6,5.4-5.7
	c2.9,0.6,0.7,6.7,5.5,5.9c1.5-0.3,2.5-0.9,2.9-2.3c0.6-1.9,0.1-4.4,3.1-3.8c3.1,0.6,0.5,5.4,4.9,6.1c4.7,0.8,2.8-5.9,6.3-5.3
	c2.4,0.4,1.6,3.1,2.8,4.6c0.9,1.1,3.1,0.6,4.4,1.3c1.1,0.7,0.9,2.3,1.6,3.4c1,1.6,3,1.4,5.4,1.3c0.8-1.8,0-3.3,2.1-3.8
	c0.5-0.1,1.2,0.1,1.6,0.4c0.4,0.3,0.6,0.8,0.7,1.5c0.2,2-1.9,2.2-3.9,2.3c-0.7,2.5,0.4,6.4,3.6,5.1c2-0.8,1.4-3.6,4.1-4
	c4-0.7,3.2,2.5,5.2,3.7c1.5,1,3.5-0.1,3.9-1.5C284.3,93.7,279.8,94.1,279.4,91.5"/>
<path fill="#010101" d="M368.2,50.6c-1.3-0.5-1.4-2.6-0.3-3.4c0.5-0.1,1-0.3,1.5-0.4c0.4,0,0.8,0.1,1.2,0.1
	C371.5,48.4,370.3,51.4,368.2,50.6 M369.5,62.3c-0.5,1.1-1.9,0.8-2.7,0.2c-0.3-1.1,0.2-1.5,0.9-1.9
	C368.9,60.6,369.8,61.2,369.5,62.3 M364.9,79.1c-0.6,1.3-2.6,0.8-3.1-0.2c0-1.2,0.4-1.4,1.2-1.8c0.5,0,1,0,1.3,0.1
	C365,77.4,365.4,78.4,364.9,79.1 M361.6,65.3c2.8-0.1,3.1,3.3,0.8,3.9C359.9,69.6,359.3,66.4,361.6,65.3 M360.7,54.6
	c2.5-0.1,2.6,2.7,0.6,3.2C358.9,58.4,358.7,55.6,360.7,54.6 M358.6,61.3c-0.6,3.5-3.4,1.8-4.9,3.9c-0.9,1.2-0.8,2.8-2.4,3.3
	c-4.4,1.3-2.9-5.3-7.3-4.1c-2.9,0.8-1.3,4.9-3.8,5.5c-6.3,1.4-2.4-6.5-7.5-5.5c-3.6,0.7-1.3,5-4.4,5.6c-4.4,0.8-2.9-2.7-4.3-4.6
	c-1.1-1.5-2.7-0.7-4.3-1.6c-1.3-0.7-0.7-3.1-1.5-4.3c-0.8-1.3-3.1-1-3.5-2.8c-0.5-2.1,2-3.8,3.6-2.7c1.1,0.7,0.7,3,2,3.6
	c2.2,1,4.1-1.4,3.1-3.3c-0.5-1-2.2-0.7-3.1-1.3c-1.7-1.2-0.5-5,1.2-5.4c4-0.8,0.9,7.1,6.8,5.4c2.8-0.8,1.5-3,2.9-4.8
	c0.4-0.5,1-0.5,1.7-0.7c4.2,0.1,1.7,4.8,5.4,5.6c4.8,1,2.9-4.9,5.7-5.5c3.9-0.9,2.7,3.8,4.5,5c1.3,0.9,3.3,0.1,4.6,0.8
	c1.1,0.6,0.6,2.8,1.3,3.8c0.9,1.3,3.7,0.8,4.2,2.3V61.3z M357.8,72.9c-0.2,0.4-0.4,0.5-0.7,0.7c-0.4,0-0.7,0-0.9-0.2
	c-0.5-0.3-0.5-0.9-0.4-1.5c0.2-0.2,0.4-0.3,0.7-0.5c0.2,0,0.5,0,0.7,0.1c0.2,0.2,0.4,0.4,0.6,0.6C357.9,72.3,357.9,72.6,357.8,72.9
	 M316.8,68.9c-2.3,0.5-2.8-3-0.6-4.1C318.9,64.7,318.8,68.5,316.8,68.9 M355.4,47.7c3.3-0.1,3.1,6.3-0.9,5
	C353.3,51.2,354.1,48.5,355.4,47.7 M310.3,49.7c-0.4-0.2-0.5-0.2-0.5-0.7c0.1-0.1,0.2-0.2,0.4-0.4c0.2,0,0.3,0.1,0.5,0.1
	c0,0.2,0.1,0.3,0.1,0.5L310.3,49.7z M372.9,54.8c0.4-2,2.8-1.7,3.6-3.2c0.4-0.6,0.5-1.7,0.3-2.5c-0.8-2.7-2.9-1.9-5.7-2.4
	c-1.2-2.3,0.7-4.5-2.5-5.2c-0.8-0.2-1.7,0.1-2.2,0.4c-1.5,1.1-1.2,3.9-4.5,3.2c-2.8-0.6-2.4-5.4-6.5-4.2c-3.1,0.9-1.6,6.8-5.7,5.4
	c-2.4-0.8-0.7-4.8-4.1-5.5c-5.4-1.1-2.6,6-6.6,5.7c-3.6-0.2-1.4-5-5-5.7c-5.1-1-2.9,5-5.8,5.7c-4.2,1-2.2-4.9-5.8-5.7
	c-4.6-0.9-3.1,4.3-6,4.9c-2.9,0.6-2.7-2.1-3.6-3.6c-0.7-1.1-1.8-1.4-3.6-1.4c-0.6,0.3-1.3,0.4-1.7,0.9c-1.3,1.5-1,3.1-3.5,3.6
	c-1,0.2-2-0.1-2.5-0.5c-1.2-0.9-1.3-3.6-3.7-2.8c-0.5,0.2-1,0.4-1.3,0.8c-1.9,2.7,1.7,3.4,2.5,4.5c0.6,0.8,0.8,3.4,0.3,4.6
	c-0.7,1.7-3.2,1.4-3.5,3.7c-0.5,3.2,4.5,2.1,3.7,7c-0.4,2.5-4.5,2.4-3.6,5.5c0.6,2.1,3.2,1.7,3.6,4.2c0.8,4.9-4.2,3.7-3.7,7
	c0.4,2.4,3.1,2,3.6,4.1c1.4,5.5-5.4,4.6-3.3,8.5c0.3,0.6,0.9,0.9,1.6,1.2c3.7,1.2,3.2-5.4,6.6-3.1c0.4,0.3,0.6,0.7,0.7,1.2
	c0.6,2.5-2.4,2.2-3.2,3.6c-1.1,2,0.3,4.1,2,4.4c2.9,0.5,2.7-3.1,4.7-3.7c5.6-1.7,4.9,4.5,8.2,3c0.8-0.4,1.6-1.9,0.9-3.1
	c-1.1-2-4-1.2-3-5.7c0.5-2.3,4.3-2.1,3.9-5.1c-0.4-2.7-5.5-3.1-3.6-6.4c0.6-1.1,3.2-2,4.1-0.5c0.6,1,0.3,2.3,1.2,3
	c0.9,0.7,2.5,0.3,3-0.4c0.4-0.6,0.5-1.9,0.1-2.5c-0.6-0.9-2.4-0.6-3.3-1.3c-1.6-1.2-0.2-5.4,1.7-5.7c3.7-0.7,1.3,4.9,5.1,5.6
	c4.9,0.9,2.3-5.3,5.6-5.9c5.1-0.9,2.1,4.9,5.9,5.9c5.7,1.4,2.2-6.5,6.1-5.7c1.5,0.3,2.5,2.8,1.7,4.8c-0.6,1.6-5.3,1.7-3.2,4.9
	c0.3,0.4,0.7,0.7,1.3,0.9c3.4,1,2.3-4.2,5.4-3.4c0.6,0.2,1.2,0.3,1.5,0.8c3,4-4.8,4.1-2.4,7.6c0.3,0.4,0.8,0.6,1.4,0.8
	c3.2,0.8,2.2-4,5.4-3.1c0.5,0.1,1,0.3,1.3,0.7c2.8,3.3-3.4,3.5-2.8,6.5c0.1,0.7,0.3,1.2,0.8,1.6c3.8,2.8,3.8-4.9,7.4-2.6
	c0.5,0.3,0.8,0.9,0.9,1.5c0.6,2.5-2,2.4-2.9,3.7c-0.9,1.4,0.1,3.1,1.3,3.5c2.8,0.8,2.7-2.9,4.7-3.3c5.7-1.2,4.6,5.3,8.6,3.6
	c0.7-0.3,1.1-0.9,1.4-1.6c1.1-3-2.2-3-3.2-4.6c-0.4-0.7-0.4-1.9-0.5-2.9c-0.4-3.1,5-3.1,3.1-6.2c-0.3-0.5-0.8-0.7-1.4-0.9
	c-3.1-0.9-2.5,4.8-6.1,2.9c-0.6-0.3-0.9-0.8-1.1-1.5c-0.8-3.3,4.1-2.2,3.3-5.7c-0.5-2.3-3.7-1.4-4.4-3.4c-1.2-3.7,2.6-3.5,4.3-4.6
	c1.4-1,1-2.9,2-4.3c1.2-1.7,4-0.8,4.9-3.4C379.1,57,372,59.1,372.9,54.8"/>
<path fill="#010101" d="M468.4,93.2c-2.2,1-3.3-2.1-1.3-3.3C469.1,89.8,470.1,92.5,468.4,93.2 M461.3,73.3c-0.4,0.2-1,0.6-1.5,0.2
	c-1.1-0.5-0.5-1.7,0.2-2.1C461.4,71.4,461.7,72.2,461.3,73.3 M441.5,81.5c-1.1-1.5-0.2-2.8,1.2-3.4
	C445.6,78.1,444.9,82.6,441.5,81.5 M435.9,75.4c-0.9-1.4-0.4-2.6,0.8-3.3C439.7,71.9,439,76.5,435.9,75.4 M430.3,69.3
	c-1-1.4-0.4-2.6,0.9-3.2C434.2,66,433.3,70.6,430.3,69.3 M425.1,63.1c-0.5-0.7-0.4-1.3-0.1-2.2c0.2-0.1,0.4-0.3,0.7-0.4
	C428.3,60.3,427.5,64.2,425.1,63.1 M415.1,63.4c-0.2,0-0.3-0.1-0.5-0.1c-0.3-0.2-0.4-0.3-0.6-0.7c0-0.2,0-0.4,0.1-0.7
	c0.2-0.4,0.3-0.4,0.6-0.7c0.3,0,0.6,0.1,0.9,0.1c0.3,0.4,0.4,0.6,0.4,1.3C415.6,63.1,415.4,63.2,415.1,63.4 M414.4,48.6
	c0.2-0.1,0.3-0.2,0.5-0.3c0.4,0.1,0.5,0.2,0.7,0.4c0.1,0.5,0,0.8-0.4,1c-0.2,0.1-0.5,0.1-0.7-0.1c-0.2-0.1-0.2-0.2-0.4-0.4
	C414.3,49.1,414.3,48.8,414.4,48.6 M402.9,50.6c-2.1,1.3-4.2-1.9-1.8-3.1C403.2,47.3,404.7,49.4,402.9,50.6 M475.9,68.4
	c1.3-4.3-3.7-3.6-4.2-6.5c-0.7-3.8,5.1-2.4,4.4-6.6c-0.5-3.1-2.9-2.2-4.1-4.1c-2.5-4.2,4.4-3.8,3.6-7.6c-0.2-0.9-0.6-1.6-1.2-2
	c-3.7-2.3-4.2,3.1-6.6,3.6c-4.5,0.9-3-5-7.2-4c-0.8,0.2-1.4,0.5-1.8,1c-3.3,4.4,4.2,4.3,3.4,8c-0.6,3-5.4,1.6-4.5,6.2
	c0.1,0.8,0.5,1.8,1,2.2c1.2,0.8,3.8,0.8,3.4,3.2c-0.4,2.1-2.4,1.6-3.7,2.7c-1,0.8-0.6,3-1.2,4.2c-0.7,1.3-2.6,0.9-3.9,1.7
	c-1,0.6-0.9,2.1-1.7,2.9c-0.3,0.3-0.9,0.8-1.7,0.6c-1.1-0.3-1.9-2.1-1.2-3.3c0.8-1.3,3.7-0.9,2.9-3.6c-0.2-0.6-0.4-1.1-0.9-1.4
	c-3.1-2-3,3.6-6.1,2.9c-0.8-0.2-1.4-0.4-1.8-0.9c-2.8-3.8,3.4-3.5,2.8-6.2c-0.1-0.6-0.3-1-0.7-1.2c-3-2.2-2.6,3.8-6.2,2.9
	c-0.7-0.2-1.3-0.3-1.7-0.8c-0.4-0.5-0.6-1.1-0.7-1.8c-0.8-3.3,5.1-2.8,2.9-5.7c-0.6-0.8-2.1-0.7-2.7,0.1c-0.2,0.6-0.5,1.2-0.7,1.8
	c-0.7,1.2-2.9,1.1-4.1,0.4c-1.6-0.9-1.2-3.8-2.3-4.6c-1.4-0.9-3.5-0.4-4.4-1.7c-0.8-1.2-0.7-3.1-1.9-3.9c-1.1-0.7-3-0.5-4.1-1.2
	c-1.6-1.1-0.9-3.7-3.3-4.5c-4.7-1.4-3.3,5.4-7.6,4.1c-2.7-0.8-1-4.2-5.7-4.2c-1.3,0.7-2.2,1-2.6,2.6c-0.2,1,0.1,2.4-0.4,3.1
	c-1,1.5-5.5,0.1-4.7,3.8c0.4,2.1,3.1,1.9,3.6,3.9c1.3,5.3-4.4,4.1-3.6,7.7c0.4,2.1,3.1,1.9,3.6,3.9c1.2,4.8-3.1,4-3.6,6.7
	c-0.6,3.1,3.1,2.8,3.6,4.9c1.3,5.3-4.8,4.3-3.6,8c0.5,1.6,2.4,1.6,3.2,2.8c0.4,0.6,0.4,1.5,0.4,2.5c0.2,3.8-1.5,2.5-2.8,4.4
	c-0.8,1.1-0.1,2.7,1,3.1c2.7,0.9,2.1-3.4,5.7-3.1c0.9,0.1,2.1,0.1,2.8,0.5c1.4,1,1.4,3.8,4,3.3c0.9-0.2,1.5-0.5,2-1.1
	c0.3-0.5,0.5-1.3,0.4-2c-0.5-2.7-2.2-1.6-3.3-3.2c-0.6-0.9-0.2-2.4,0.5-2.8c2.8-1.9,3.1,2.2,4.3,2.9c1.6,0.9,3.7,0,4.1-1.4
	c1.1-3.1-3.2-3.2-3.6-5.9c-0.7-4.3,3.1-3.3,3.7-6c0.7-3.1-2.8-2.8-3.5-4.6c-1.7-4.1,2.5-4.3,3.6-6.1c0.7-1.1,0.5-2.6,1.7-3.1
	c3.9-1.7,3.5,2.8,5,4.1c1,0.8,2.9,0.5,4,1.3c1.1,0.8,0.8,3.1,1.7,4.1c1.2,1.4,3,0.6,4.4,1.5c1,0.7,0.7,3.1,1.5,4.1
	c1.2,1.7,3,0.5,4.6,1.5c0.9,0.6,0.5,1.8,0.8,3c0.4,1.6,3,3.4,5.2,2c0.6-0.4,0.4-1.5,0.7-2.2c0.7-1.6,3.3-1.6,3.7,0.3
	c0.5,2.4-1.9,1.9-3.2,2.6c-1.2,0.7-0.3,3.8,0.2,4.4c0.4,0.5,1.1,0.7,1.9,0.8c3.1,0.4,3.2-5.4,6.2-3.3c0.5,0.3,0.7,0.8,0.8,1.5
	c0.6,2.9-5.3,2.6-3,6.2c0.6,0.9,2.2,1.4,3.3,0.7c1.8-1.2,1-3.8,5.2-3.1c2.8,0.5,2.7,4.7,5.9,3.8c2.4-0.7,1.3-2.6,2.4-4.3
	c1.2-1.8,4.6,0.2,5.7-2.9c0.2-0.5,0.4-1.3,0.2-2c-0.6-2.6-3.8-2.1-4.3-4.6c-0.6-3.2,3.8-2.5,4.4-5.9c0.7-4.2-5.1-2.8-4.4-6.6
	C472.1,70.3,475.2,70.7,475.9,68.4"/>
<path fill="#010101" d="M520.6,53.3c-4.2,1.2-3.9-4.2-1.6-5.6C521.7,47.7,522.4,52.8,520.6,53.3 M513.5,65.1
	c2.2-0.1,1.8,2.5,0.9,3.5c-0.4,0.1-0.7,0.2-1.1,0C511.8,67.9,512.5,65.8,513.5,65.1 M523.1,64.5c0.3-0.5,0.8-0.6,1.4-0.8
	c1,0,1.7,0.1,2.3,0.4c1,1.6,0.5,6.5-2.2,5.8C523.3,69.5,522.2,66.1,523.1,64.5 M534.8,64.2c0.4-0.2,0.7-0.3,1.1-0.5
	c1.1,0,1.8,0.1,2.5,0.4c1,1.6,0.5,6.5-2.3,5.8C534.5,69.4,534.2,65.9,534.8,64.2 M546.4,64.2c0.4-0.2,0.7-0.3,1.1-0.5
	c1.1,0,1.8,0.1,2.5,0.4c1,1.6,0.5,6.5-2.3,5.8C546.1,69.4,545.8,65.9,546.4,64.2 M508.5,49.5c-0.1,0.1-0.2,0.2-0.4,0.4h-0.4
	c-0.2-0.1-0.2-0.2-0.4-0.4c0-0.5,0.1-0.6,0.4-0.8h0.4c0.1,0.1,0.2,0.2,0.4,0.4V49.5z M558.3,45.9c-1.6-1.2-0.5-6.4-5.2-5
	c-3,0.9-1.5,4.9-4.7,5.2c-3.8,0.4-1.5-6.4-6.7-5.3c-3.3,0.7-2,6.1-5.7,5.2c-2.6-0.6-1.2-4.6-4.4-5.2c-5.3-1.1-2.8,6.3-7.2,5.2
	c-2.6-0.6-1.2-4.6-4.4-5.2c-4.9-1-3.1,5.5-6.8,4.9c-3.5-0.5-1.1-4.9-6.3-4.9c-0.6,0.3-1.3,0.4-1.7,0.9c-1.2,1.3-1,3.1-3.1,3.5
	c-3.2,0.6-3-2.3-4.5-3.3c-1.6-1.1-3.6-0.1-4.1,1.2c-1.6,4,5,3.1,3.6,7.8c-0.7,2.2-3.6,1.8-4,4.4c-0.7,3.9,4.9,2.5,4.1,6.8
	c-0.5,2.4-3.4,2.1-4,4.4c-1,3.7,3.5,3.3,4,6c0.8,4.3-4.7,2.9-4.1,6.8c0.4,2.5,3.1,2.1,3.8,4c1.7,3.9-2.6,4-3.6,5.9
	c-1,1.9,0.4,3.9,1.9,4.3h3.5c0-0.1,0.1-0.1,0.1-0.2c0.6-1.8,0-3.1,1.9-3.5c0.5-0.1,1.1,0.1,1.5,0.4c2.2,1.7-0.5,3.7-2.8,3.6
	c0,0.1-0.1,0.1-0.1,0.2c-1.1,2.6,0.8,5.8,3.3,5.1c2.5-0.7,1.8-4.4,5.7-3.8c2.9,0.5,2.8,4.6,6,3.8c2.2-0.6,1.8-3.3,4.5-3.8
	c4.4-0.7,3.3,4.4,6.7,3.9c2.9-0.5,2.1-4.5,6.1-3.9c2.9,0.5,2.7,4.3,5.5,3.9c2.5-0.4,2.1-3.3,4.4-3.8c5-1.1,3.9,4.8,7.7,3.7
	c1.7-0.5,1.7-2.5,3-3.3c0.4-0.3,0.9-0.3,1.5-0.4c3.5-0.6,3.1,2.2,4.9,3.3c1.4,0.9,3.3,0.1,3.8-1c1.7-3.4-3.1-3.6-3.6-6.3
	c-0.2-1.2,0-2.7,0.5-3.3c0.9-1.1,4.7-1.9,2.6-4.7c-0.6-0.8-2.3-1.3-3.3-0.6c-1.8,1.2-1.3,4.4-6,3.1c-1.9-0.5-1.7-3-3.6-3.5
	c-3.6-0.8-2.1,4.5-7.6,3.6c-2.3-0.4-2-3.1-4.1-3.6c-3.1-0.7-2.8,3.1-5.2,3.6c-5.5,1-4-4.4-7.6-3.6c-1.9,0.4-1.7,3-3.6,3.5
	c-4.1,1.1-3.7-2.4-5.4-3.6c-1.3-1-2.9-0.7-3.3-2.7c-0.5-2.9,2.5-2.5,3.9-3.6c1.6-1.2,0.3-5.8,4.4-4.6c2.3,0.6,1.1,4.2,4.1,4.7
	c4.6,0.9,2.2-6.1,7.3-4.8c2.6,0.6,1.5,5.9,5.7,4.7c2.5-0.7,1.5-4.3,4.4-4.8c4.7-0.8,2.4,6.2,7.3,4.8c2.4-0.7,1.6-4.1,3.9-4.7
	c5.6-1.4,3.2,6.2,7.8,4.4c0.7-0.3,1.2-0.9,1.5-1.7c1.2-3.7-3.5-2.8-4.3-4.9c-0.5-1.4,0.1-4.3-1-5c-1.5-1-4.4-0.2-6.1-0.7
	c-0.5-0.8-0.5-2.3-1.1-3.1c-0.3-0.4-0.9-0.7-1.5-0.7c-2.1,0-2.1,2.2-2.6,3.7c-1,0.6-5.1,0.5-6.4,0.1c-0.5-0.8-0.5-2.3-1.1-3.1
	c-0.3-0.4-0.9-0.7-1.5-0.7c-2.1,0-2.1,2.2-2.6,3.7c-1,0.6-5.1,0.5-6.4,0.1c-0.8-1.3-0.5-3.4-2.3-3.9c-3-0.7-1.9,3.2-3.4,3.9
	c-0.6,0.3-1.8,0.1-2.5,0c-0.6-0.1-1.2-0.1-1.8-0.2c-1.6-0.7-1.2-3.2-2.5-4.1c-1.1-0.8-2.7-0.7-3.1-2.3c-0.4-2,1.4-3.5,3.4-3
	c1.8,0.5,1.1,3.4,3,3.9c3.5,0.9,2.1-3.3,3.4-4.1c0.9-0.6,2.4,0.1,3.7-0.1c0.8-0.2,1.6-0.3,2.3-0.5c0.8-1.4,0.4-4.2,1.7-5.1
	c3.1-1.9,3.3,3.3,3.8,4.9c1.6,0.9,4.4,0.7,6.1,0.1c0.8-1.4,0.4-4.2,1.7-5.1c3.1-1.9,3.3,3.3,3.8,4.9c1.6,0.9,4.4,0.7,6.1,0.1
	c1-1.7,0.2-4.9,2.5-5.4c0.9-0.2,1.8,0.2,2.1,0.6c0.8,1,0.5,3.1,1.3,4.1c1.7,2.3,5.6,0.4,6.1-1.7c0.2-0.8,0-1.6-0.2-2.2
	C562.1,45.8,560.1,47.2,558.3,45.9"/>
<path fill="#010101" d="M565.6,42.2c-1.5,0.7-2.2,1.9-1,3.4C568,46.6,568.5,42.4,565.6,42.2"/>
<path fill="#010101" d="M159.2,45.6c1.8-0.3,1.3-3-0.5-3.1C156.8,43.3,156.9,46,159.2,45.6"/>
<path fill="#010101" d="M427.4,44.2c0.1-0.3-0.1-0.6-0.1-0.9c-0.3-0.3-0.6-0.5-1.2-0.5c-0.6,0.3-0.8,0.4-1.1,1c0,0.5,0,0.8,0.2,1
	C425.7,45.8,427.3,45.1,427.4,44.2"/>
<path fill="#010101" d="M456.6,51.4c1-1.4,0.4-3.4-1.7-3.3C452.4,49.5,453.7,52.4,456.6,51.4"/>
<path fill="#010101" d="M478.9,51.4c1.8-0.5,1.5-3.3-0.7-3.2C476.3,49.2,476.6,52,478.9,51.4"/>
<path fill="#010101" d="M430.9,51.3c2.4,1.1,3.7-2.9,0.9-2.9c-1,0.5-1.4,0.9-1.3,2.5C430.6,51.1,430.8,51.2,430.9,51.3"/>
<path fill="#010101" d="M36.4,48.6c-0.1,0.1-0.2,0.1-0.3,0.2c-0.4,0.2-0.6,0.8-0.4,1.4c0.2,0.5,0.8,0.9,1.5,0.7
	c0.6-0.2,0.9-0.8,0.7-1.5C37.6,48.8,37.2,48.6,36.4,48.6"/>
<path fill="#010101" d="M489.8,48.6c-0.4,0.3-0.6,0.4-0.9,0.9c0,0.5,0.1,0.7,0.2,1.1c0.9,0.7,2.7,0.4,2.2-1.2
	C491.1,48.8,490.7,48.6,489.8,48.6"/>
<path fill="#010101" d="M529.7,53.6c-0.1,0-0.2,0.1-0.4,0.1c-0.1,0.1-0.2,0.1-0.4,0.2c-0.4,1.6,0.1,3.2,1.4,3.6
	c2.2,0.6,3.2-2.4,2.2-3.8C531.7,53.6,530.6,53.6,529.7,53.6"/>
<path fill="#010101" d="M541.3,53.6c-0.1,0-0.2,0.1-0.4,0.1c-0.1,0.1-0.2,0.1-0.4,0.2c-0.4,1.6,0.1,3.2,1.4,3.6
	c2.2,0.6,3.2-2.4,2.2-3.8C543.4,53.6,542.3,53.6,541.3,53.6"/>
<path fill="#010101" d="M552.9,53.6c-0.1,0-0.2,0.1-0.4,0.1c-0.1,0.1-0.2,0.1-0.4,0.2c-0.4,1.6,0.1,3.2,1.4,3.6
	c1.9,0.5,3.3-2.1,2.1-3.3C555.3,53.6,554,53.6,552.9,53.6"/>
<path fill="#010101" d="M379.4,53.7c-1.4,0.6-2.1,1.6-1.5,3.5c1.3,0.9,3.2,0.3,3.6-0.9C382.1,54.7,380.8,53.7,379.4,53.7"/>
<path fill="#010101" d="M66.7,57c1.5-1,0.5-3.2-1.5-3.1c-0.2,0.1-0.5,0.2-0.7,0.3C63.6,55.6,64.8,58.3,66.7,57"/>
<path fill="#010101" d="M160,57.1c0.6-0.8,0.6-1.6,0.3-2.6c-0.4-0.3-0.8-0.6-1.5-0.6C156,55.1,157.1,58.1,160,57.1"/>
<path fill="#010101" d="M124.4,57.2c1.8-0.5,1.4-3.3-0.9-3.2C121.9,54.9,122,57.8,124.4,57.2"/>
<path fill="#010101" d="M78.2,56.8c1.2-0.8,0.6-2.7-1-2.7c-0.4,0.2-0.7,0.2-0.9,0.7C75.2,55.9,77,57.6,78.2,56.8"/>
<path fill="#010101" d="M89.9,56.8c1.2-0.8,0.6-2.7-1-2.7c-0.4,0.2-0.7,0.2-0.9,0.7C86.8,55.9,88.6,57.6,89.9,56.8"/>
<path fill="#010101" d="M332.8,54.1c-0.4,0.2-0.7,0.2-0.9,0.7c-1.1,1.1,0.6,3,2,2.3C335.3,56.3,334.8,54,332.8,54.1"/>
<path fill="#010101" d="M344.5,54.1c-0.4,0.2-0.7,0.2-0.9,0.7c-1.1,1.1,0.6,3,2,2.3C347,56.3,346.4,54,344.5,54.1"/>
<path fill="#010101" d="M264.8,55.4c-0.3-0.7-0.6-1.2-1.7-1.2c-0.3,0.2-0.6,0.4-0.9,0.7c-0.2,0.8-0.3,1.4,0.1,2
	C263.7,57.4,264.8,56.9,264.8,55.4"/>
<path fill="#010101" d="M565.2,55c-0.1,0.2-0.2,0.3-0.3,0.5c0,0.2,0.1,0.4,0.1,0.7c0.2,0.1,0.3,0.2,0.5,0.3c0.2,0,0.4-0.1,0.7-0.1
	c0.1-0.2,0.2-0.3,0.3-0.5c0-0.7-0.3-0.9-1-0.9C565.4,54.9,565.3,55,565.2,55"/>
<path fill="#010101" d="M72.9,63c1-1.4,0.4-3.3-1.5-3.4c-1.3,0.6-2,1.4-1.5,3.2C70.8,63.3,71.9,63.3,72.9,63"/>
<path fill="#010101" d="M84.5,63c1-1.4,0.4-3.3-1.5-3.4c-1.3,0.6-2,1.3-1.5,3.1C82.4,63.3,83.5,63.3,84.5,63"/>
<path fill="#010101" d="M455,59.7c-2.6,1.4-1.5,4.5,1.7,3.4c0.4-0.6,0.8-2.1,0.1-2.8C456.5,59.7,455.8,59.6,455,59.7"/>
<path fill="#010101" d="M558.2,63.1c1.3,0.8,3.2,0,3.5-1.2c0.4-1.5-0.9-2.2-2.2-2.2C558.4,60.4,557.7,61.3,558.2,63.1"/>
<path fill="#010101" d="M478,59.9c-1.5,0.9-1.5,3.8,0.9,3.2C480.8,62.6,480.4,59.7,478,59.9"/>
<path fill="#010101" d="M36.4,60.2c-0.1,0.1-0.2,0.1-0.3,0.2c-0.4,0.2-0.6,0.8-0.4,1.4c0.2,0.5,0.8,0.9,1.5,0.7
	c0.6-0.2,0.9-0.8,0.7-1.5C37.6,60.4,37.2,60.2,36.4,60.2"/>
<path fill="#010101" d="M350.3,60.2c-1.9,1.3-0.3,3.4,1.5,2c0.2-0.6,0.1-1-0.1-1.5C351.2,60.4,351,60.2,350.3,60.2"/>
<path fill="#010101" d="M489.8,60.2c-0.4,0.3-0.6,0.4-0.9,0.9c0,0.5,0.1,0.7,0.2,1.1c0.9,0.7,2.7,0.4,2.2-1.2
	C491.1,60.4,490.7,60.2,489.8,60.2"/>
<path fill="#010101" d="M327.2,60.3c-0.2,0.1-0.3,0.1-0.5,0.2c-0.5,0.7-0.5,1.3,0.1,2c0.7,0.2,1.3,0.2,1.6-0.4
	c0.3-0.4,0.2-0.9,0-1.3C328,60.5,327.8,60.3,327.2,60.3"/>
<path fill="#010101" d="M338.8,60.3c-0.5,0.3-0.7,0.4-0.9,1c0,0.6,0.2,0.9,0.6,1.1c0.5,0.4,1.3,0.1,1.5-0.4c0.3-0.4,0.2-0.9,0-1.3
	C339.6,60.5,339.4,60.3,338.8,60.3"/>
<path fill="#010101" d="M269.6,61.3c0,0-0.1-0.1-0.1-0.1H269c0,0.1-0.1,0.1-0.1,0.2v0.4c0.2,0.1,0.3,0.1,0.6,0.1
	C269.6,61.6,269.6,61.6,269.6,61.3"/>
<path fill="#010101" d="M160.1,68.7c0.5-0.8,0.5-1.7,0.1-2.6c-0.4-0.3-0.8-0.6-1.5-0.6C155.9,66.8,157.2,69.8,160.1,68.7"/>
<path fill="#010101" d="M206.7,68.8c0.6-1.1,0-2.1-0.6-2.8c-0.4,0-0.8-0.1-1.2-0.1c-0.3,0.2-0.6,0.4-0.9,0.7c-0.1,0.4-0.2,1.1,0,1.5
	C204.4,68.8,205.6,69.1,206.7,68.8"/>
<path fill="#010101" d="M565.3,65.8c-0.3,0.2-0.6,0.4-0.9,0.7c-0.3,1,0,1.5,0.5,2.1c1,0.3,1.5,0,2.1-0.5
	C567.4,66.7,566.8,65.8,565.3,65.8"/>
<path fill="#010101" d="M379.4,66.5c-0.1,0.2-0.3,0.3-0.4,0.5c0,0.2,0,0.4-0.1,0.6l0.5,0.4c0.2,0,0.4,0,0.6,0.1l0.4-0.5
	c0-0.2,0-0.4,0.1-0.6c-0.2-0.1-0.3-0.3-0.5-0.4C379.8,66.5,379.6,66.5,379.4,66.5"/>
<path fill="#010101" d="M123.5,66.9v0.6c0,0.1,0,0.1,0.1,0.2h0.6c0.1,0,0.1,0,0.2-0.1V67c0-0.1,0-0.1-0.1-0.2c-0.2,0-0.4,0-0.6-0.1
	C123.6,66.8,123.6,66.8,123.5,66.9"/>
<path fill="#010101" d="M478,71.5c-1.5,0.9-1.5,3.8,0.9,3.2C480.8,74.2,480.4,71.4,478,71.5"/>
<path fill="#010101" d="M234.1,71.8c-0.8,0.4-1.1,0.7-0.9,1.9c0.6,0.6,1,0.9,2,0.5c0.5-0.6,0.6-1.1,0.3-1.9
	C235.1,72,234.8,71.8,234.1,71.8"/>
<path fill="#010101" d="M420.2,71.8c-0.6,0.3-1.5,0.9-0.9,1.8c0.2,0.2,0.3,0.4,0.5,0.7c0.4,0.1,0.8,0.2,1.2,0
	c0.2-0.2,0.4-0.3,0.7-0.5c0.1-0.6,0.1-0.9-0.1-1.5C421.1,72,420.9,71.8,420.2,71.8"/>
<path fill="#010101" d="M36.4,71.9c-0.1,0.1-0.2,0.1-0.3,0.2c-0.4,0.2-0.6,0.8-0.4,1.4c0.2,0.5,0.8,0.9,1.5,0.7
	c0.6-0.2,0.9-0.8,0.7-1.5C37.6,72,37.2,71.8,36.4,71.9"/>
<path fill="#010101" d="M489.8,71.9c-0.4,0.3-0.6,0.4-0.9,0.9c0,0.5,0.1,0.7,0.2,1.1c0.9,0.7,2.7,0.4,2.2-1.2
	C491.1,72.1,490.7,71.8,489.8,71.9"/>
<path fill="#010101" d="M372.9,72.7v0.8c0.2,0.2,0.3,0.4,0.5,0.6h0.8c0.2-0.2,0.4-0.3,0.6-0.5v-0.8c-0.2-0.2-0.3-0.4-0.5-0.6
	l-0.9-0.1C373.3,72.3,373.1,72.5,372.9,72.7"/>
<path fill="#010101" d="M199.4,73.8h0.4c0.3-0.4,0.4-0.5,0.2-1.1c-0.2-0.1-0.4-0.2-0.7-0.3c-0.1,0-0.2,0.1-0.4,0.1
	c-0.2,0.4-0.3,0.5-0.1,1C199.1,73.6,199.3,73.7,199.4,73.8"/>
<path fill="#010101" d="M100.5,77c-1.6,0.8-2.6,3.1-0.2,3.7c2.2,0.6,2.9-2.2,2-3.6C101.6,77,101,77,100.5,77"/>
<path fill="#010101" d="M517.7,77.2c-1.2,1.9,0.5,4.7,2.7,3.3c1.8-1.2,0.5-3.7-1.9-3.6C518.2,77,517.9,77.1,517.7,77.2"/>
<path fill="#010101" d="M531.2,80.7c2-0.5,1.8-3.6-0.7-3.5C528.3,78.2,529.1,81.2,531.2,80.7"/>
<path fill="#010101" d="M542.8,80.7c2-0.5,1.8-3.6-0.7-3.5C539.9,78.2,540.7,81.2,542.8,80.7"/>
<path fill="#010101" d="M554.4,80.7c2-0.5,1.8-3.6-0.7-3.5C551.5,78.2,552.3,81.2,554.4,80.7"/>
<path fill="#010101" d="M65.4,77.5c-0.3,0.2-0.5,0.4-0.8,0.6c-0.2,0.6-0.1,1,0.1,1.5c0.6,0.5,1.1,0.6,1.9,0.3
	c0.5-0.6,0.6-1.1,0.3-1.9C66.5,77.7,66.2,77.5,65.4,77.5"/>
<path fill="#010101" d="M333,77.5c-0.4,0.2-0.7,0.2-0.9,0.7c-0.7,0.7,0.1,1.8,0.7,2c1.3,0.1,1.9-0.7,1.6-1.8
	C334.2,77.8,333.8,77.6,333,77.5"/>
<path fill="#010101" d="M77.1,77.8c-0.2,0.2-0.4,0.4-0.7,0.6v0.8c0.2,0.2,0.3,0.4,0.5,0.6h0.8c0.2-0.2,0.4-0.3,0.6-0.5v-0.8
	c-0.2-0.2-0.3-0.4-0.5-0.6C77.6,77.9,77.4,77.8,77.1,77.8"/>
<path fill="#010101" d="M88.8,77.8c-0.2,0.2-0.4,0.4-0.7,0.6v0.8c0.2,0.2,0.3,0.4,0.5,0.6h0.8c0.2-0.2,0.4-0.3,0.6-0.5v-0.8
	c-0.2-0.2-0.3-0.4-0.5-0.6C89.2,77.9,89,77.8,88.8,77.8"/>
<path fill="#010101" d="M147.5,78.7c0,0-0.1-0.1-0.1-0.1H147c0,0.1-0.1,0.1-0.1,0.2v0.4c0.2,0.1,0.3,0.1,0.6,0.1
	C147.5,79.1,147.5,79,147.5,78.7"/>
<path fill="#010101" d="M565.6,78.6c-0.1,0.1-0.2,0.2-0.3,0.4c0.1,0.1,0.2,0.2,0.4,0.4c0.1-0.1,0.2-0.2,0.4-0.4
	C565.9,78.7,565.9,78.7,565.6,78.6"/>
<path fill="#010101" d="M129.3,83.1c-1.6,0.9-1.5,3.8,0.9,3.2C132,85.9,131.6,83,129.3,83.1"/>
<path fill="#010101" d="M478,83.1c-1.5,0.9-1.5,3.8,0.9,3.2C480.8,85.9,480.4,83,478,83.1"/>
<path fill="#010101" d="M36.4,83.5c-0.1,0.1-0.2,0.1-0.3,0.2c-0.4,0.2-0.6,0.8-0.4,1.4c0.2,0.5,0.8,0.9,1.5,0.7
	c0.6-0.2,0.9-0.8,0.7-1.5C37.6,83.6,37.2,83.5,36.4,83.5"/>
<path fill="#010101" d="M489.8,83.5c-0.4,0.3-0.6,0.4-0.9,0.9c0,0.5,0.1,0.7,0.2,1.1c0.9,0.7,2.7,0.4,2.2-1.2
	C491.1,83.7,490.7,83.5,489.8,83.5"/>
</svg>
