<?xml version="1.0" encoding="utf-8"?>
<!-- Generator: Adobe Illustrator 17.1.0, SVG Export Plug-In . SVG Version: 6.00 Build 0)  -->
<!DOCTYPE svg PUBLIC "-//W3C//DTD SVG 1.1//EN" "http://www.w3.org/Graphics/SVG/1.1/DTD/svg11.dtd">
<svg version="1.1" id="Layer_1" xmlns="http://www.w3.org/2000/svg" xmlns:xlink="http://www.w3.org/1999/xlink" x="0px" y="0px"
	 viewBox="0 0 367.4 41.5" enable-background="new 0 0 367.4 41.5" xml:space="preserve">
<path fill="#010101" d="M367.4,10.7V0.1h-35.2c-12.4,0-19.4,3.8-22.6,9.8c-0.9,1.6-1.4,3.3-1.8,5.2h-4.4C300.6,4.7,289.7,0,274.9,0
	c-16.8,0-28,4.9-30.1,15.1h-10.6c0.2-0.9,0.3-1.9,0.3-3c0-3.6-1.1-6.2-3.2-8.1c-2.9-2.5-7.9-4.1-15.3-4.1h-39.7v15.1H165
	C162.2,4.7,151.3,0,136.5,0c-16.8,0-28,4.9-30.1,15.1h-9.9V0H80.7v15.1h-21c-0.4-1.9-1-3.7-1.8-5.3C54.6,3.8,47.6,0,35.2,0H0v41.5
	h35.2c12.5,0,19.5-4,22.7-10.6c0.6-1.3,1.1-2.8,1.5-4.3h20.3c-1.2,2.1-3.5,3.6-7.3,3.6c-2.7,0-9.6-0.1-10.4-0.2v11.6
	c0.8,0.1,7,0.5,12.8,0.5c13.2,0,20.6-6.6,21.4-15.5h9.6c0,5.1,0,11.3,0,14c0,0.9,0,1.5,0,1.5h15.5c0,0,0-0.6,0-1.5c0-2.8,0-9.2,0-14
	h28.5c0,4.9,0,11.2,0,14c0,0.9,0,1.5,0,1.5h15.7c0,0,0-0.6,0-1.5c0-2.8,0-9.2,0-14h10.5v14.9h15.6V26.6h17.4l12.9,14.9h17.2
	l-13.2-14.9h18.3c0,6.8,0,15.5,0,15.5h15.5c0,0,0-9,0-15.5h28.5c0,6.5,0,15.5,0,15.5h15.7c0,0,0-9.1,0-15.5h3.9
	c0.4,1.6,0.8,3.1,1.5,4.5c3.2,6.6,10.2,10.6,22.7,10.6h35.2V31h-15.6v0h-17c-5.7,0-9.1-1.4-10.8-4.4c0,0,0,0,0,0h37.9V15.1H324
	c1.7-3.1,5-4.4,10.6-4.4h17.3v0H367.4z M135.6,11.4c6,0,10.1,1.4,12.4,3.7h-24.5C125.7,12.8,129.9,11.4,135.6,11.4z M32.8,10.6
	c5.6,0,9,1.3,10.6,4.5c0,0,0,0,0,0H15.6v-4.5H32.8z M32.6,30.9h-17v-4.3h27.8C41.7,29.5,38.3,30.9,32.6,30.9z M274,11.4
	c6,0,10.1,1.4,12.4,3.7h-24.5C264.1,12.8,268.3,11.4,274,11.4z M191.7,10.3h21.9c2.7,0,4.3,0.4,5.3,1.8c0.3,0.5,0.5,1,0.5,1.7
	c0,0.4,0,0.9-0.2,1.4h-27.4V10.3z"/>
</svg>
