<?xml version="1.0" encoding="utf-8"?>
<!-- Generator: Adobe Illustrator 18.0.0, SVG Export Plug-In . SVG Version: 6.00 Build 0)  -->
<!DOCTYPE svg PUBLIC "-//W3C//DTD SVG 1.1//EN" "http://www.w3.org/Graphics/SVG/1.1/DTD/svg11.dtd">
<svg version="1.1" id="Layer_1" xmlns="http://www.w3.org/2000/svg" xmlns:xlink="http://www.w3.org/1999/xlink" x="0px" y="0px"
	 viewBox="0 0 599.9 525.1" enable-background="new 0 0 599.9 525.1" xml:space="preserve">
<g>
	<path fill="none" stroke="#5A5121" stroke-width="0.842" stroke-miterlimit="1.684" d="M-648.5-74.8l-2.9-13.5l-8.5,1.8l2.6,12.4
		c0.4,2-0.4,4.3-3.6,5c-1.4,0.3-5.2,1.1-5.6,1.1l1.3,6.3c0.5,0,3.8-0.5,7-1.2C-650.6-64.6-647.4-69.6-648.5-74.8z"/>
</g>
<g>
	<path fill="#010101" d="M509.1,209.3c-2.4,14-8.3,29.9-5.3,45.8c1.4,7.4,2.4,14.9,3.8,22.8c1.9,11.2-0.2,24.6-2.4,33.7
		c-6.5,26-16,45.1-30,63.1c-21.7,27.9-53,44.6-92.9,54.5c-23.5,5.8-52.8,4.9-81.6,4.9H180.2c-26.1,0.1-52.3,0.1-78.4,0.2h-9.4
		c-12.1,1.9-22.5-2.4-27.1-8.9c-4.1-5.8-4-16-2.1-24.1c4.3-18.2,6.3-37.5,10.4-56.3c9.7-54.6,19.5-109.3,29.2-164
		c2.2-12.6,4.4-25.1,6.6-37.7c2.4-11.2,2.9-21.4,8.7-28.8c3.5-4.5,9.2-7.6,15.6-9c2.6-0.3,5.2-0.5,7.7-0.8
		c66.1,0.1,132.2,0.1,198.3,0.2c18,0.1,35.9,0.1,53.9,0.2h7.3c6.6,0.5,13.2,1,19.8,1.5c33.3,5.9,57.7,16.2,73.9,39
		C504.6,159.8,513.6,183.6,509.1,209.3 M527.2,204.2c0.7-4.5,0.5-10.5-0.2-14.7c-0.9-5.8-0.6-10.8-1.9-16
		c-4.1-16.7-10.3-29.9-19.2-41.6c-14-18.6-35-30.4-60.1-37.9c-8.3-2.5-17.4-3.3-26.6-4.9c-8.5-1.5-17.2,0.1-26.4-1.3
		c-20.5-0.1-41-0.1-61.4-0.2c-70.1,0-141-0.4-210.5-0.4c-1.9,0.3-3.9,0.5-5.8,0.8c-4.9,1.2-9.4,3.5-12.1,7
		c-5.3,6.8-5.7,16.4-7.7,26.8c-2.4,14.1-4.9,28.1-7.3,42.2c-11.7,66-23.5,132.1-35.2,198.1c-4.3,19.5-6,39.9-10.9,58.4
		c-2,7.3-3,17.9,0.8,23.9c4.8,7.7,19.1,9.6,32.2,7.5c10.4-0.1,20.7-0.3,31.1-0.4h59.9h133.4c31,0,62.9,1.2,88.2-5.1
		c43.9-10.8,77.9-28.4,101.8-59c17.5-22.4,28.7-47.2,35.1-81.2c3.3-17.9,0.2-38-2.5-54.3c-1.6-10.2,1.7-22.4,3.4-30.3
		C525.8,215.8,526.5,210,527.2,204.2"/>
	<path fill="none" stroke="#33B34A" stroke-miterlimit="10" d="M509.1,209.3c-2.4,14-8.3,29.9-5.3,45.8c1.4,7.4,2.4,14.9,3.8,22.8
		c1.9,11.2-0.2,24.6-2.4,33.7c-6.5,26-16,45.1-30,63.1c-21.7,27.9-53,44.6-92.9,54.5c-23.5,5.8-52.8,4.9-81.6,4.9H180.2
		c-26.1,0.1-52.3,0.1-78.4,0.2h-9.4c-12.1,1.9-22.5-2.4-27.1-8.9c-4.1-5.8-4-16-2.1-24.1c4.3-18.2,6.3-37.5,10.4-56.3
		c9.7-54.6,19.5-109.3,29.2-164c2.2-12.6,4.4-25.1,6.6-37.7c2.4-11.2,2.9-21.4,8.7-28.8c3.5-4.5,9.2-7.6,15.6-9
		c2.6-0.3,5.2-0.5,7.7-0.8c66.1,0.1,132.2,0.1,198.3,0.2c18,0.1,35.9,0.1,53.9,0.2h7.3c6.6,0.5,13.2,1,19.8,1.5
		c33.3,5.9,57.7,16.2,73.9,39C504.6,159.8,513.6,183.6,509.1,209.3z M527.2,204.2c0.7-4.5,0.5-10.5-0.2-14.7
		c-0.9-5.8-0.6-10.8-1.9-16c-4.1-16.7-10.3-29.9-19.2-41.6c-14-18.6-35-30.4-60.1-37.9c-8.3-2.5-17.4-3.3-26.6-4.9
		c-8.5-1.5-17.2,0.1-26.4-1.3c-20.5-0.1-41-0.1-61.4-0.2c-70.1,0-141-0.4-210.5-0.4c-1.9,0.3-3.9,0.5-5.8,0.8
		c-4.9,1.2-9.4,3.5-12.1,7c-5.3,6.8-5.7,16.4-7.7,26.8c-2.4,14.1-4.9,28.1-7.3,42.2c-11.7,66-23.5,132.1-35.2,198.1
		c-4.3,19.5-6,39.9-10.9,58.4c-2,7.3-3,17.9,0.8,23.9c4.8,7.7,19.1,9.6,32.2,7.5c10.4-0.1,20.7-0.3,31.1-0.4h59.9h133.4
		c31,0,62.9,1.2,88.2-5.1c43.9-10.8,77.9-28.4,101.8-59c17.5-22.4,28.7-47.2,35.1-81.2c3.3-17.9,0.2-38-2.5-54.3
		c-1.6-10.2,1.7-22.4,3.4-30.3C525.8,215.8,526.5,210,527.2,204.2z"/>
	<path fill="#010101" d="M457.8,257.5c1.9,10.7,5.6,19.1,7.5,30.2c4.1,23.3-10.1,50.1-19.2,62.2c-14.6,19.4-35.8,31.8-62.9,38.6
		c-20.7,5.2-46.6,4.5-72.2,4.5H207c-20,0.1-40,0.1-59.9,0.2c-14.2,0-26.1,0.4-32.4-7.7c-3.8-4.9-5.4-13.5-3.6-22
		c3.1-14,5-28.6,8.1-43.2c6.7-37.6,13.4-75.3,20.2-112.9c3.8-17.4,3.5-40.3,13-52.2c3.3-4.2,9.1-7.4,15.3-8.7
		c2.7-0.3,5.4-0.5,8.1-0.8c59.5,0.1,119,0.1,178.5,0.2c46.7,0,84.5-0.3,104,27.1c9,12.7,12,33.1,6.4,51.8
		C461.8,234.3,455.4,244.5,457.8,257.5 M339.3,127.9c-61.3,0-123.4-0.4-184.1-0.4c-1.8,0.3-3.6,0.5-5.5,0.8
		c-5.5,1.4-10.5,4.2-13.6,8.1c-8.9,11.4-9.7,40.9-13.4,58c-8.4,47.2-16.8,94.4-25.3,141.5c-3.5,15.9-5.5,31.9-9,46.9
		c-1.7,7.3-0.9,15.9,2.4,20.7c4.9,6.9,16.6,10.2,29.6,8.1c7.8-1.2,16.9-0.6,25.4-0.6h46.5h119.9c27,0,55.1,1.1,77.1-4.3
		c31.2-7.8,54.9-20.3,71.6-42.4c9.6-12.6,16.1-27.6,20.5-45.4c1.3-5,1.2-9.8,2.1-15.5c0.7-4.6,0.8-10.8,0-15.5
		c-1.7-9.7-3.8-18-5.5-27.3c-2.7-14.8,4.3-28.9,6.8-41.3c4.5-22.3-3.1-43.9-11.9-56.3C447.3,126.5,400.9,127.9,339.3,127.9"/>
	<path fill="none" stroke="#33B34A" stroke-miterlimit="10" d="M457.8,257.5c1.9,10.7,5.6,19.1,7.5,30.2
		c4.1,23.3-10.1,50.1-19.2,62.2c-14.6,19.4-35.8,31.8-62.9,38.6c-20.7,5.2-46.6,4.5-72.2,4.5H207c-20,0.1-40,0.1-59.9,0.2
		c-14.2,0-26.1,0.4-32.4-7.7c-3.8-4.9-5.4-13.5-3.6-22c3.1-14,5-28.6,8.1-43.2c6.7-37.6,13.4-75.3,20.2-112.9
		c3.8-17.4,3.5-40.3,13-52.2c3.3-4.2,9.1-7.4,15.3-8.7c2.7-0.3,5.4-0.5,8.1-0.8c59.5,0.1,119,0.1,178.5,0.2
		c46.7,0,84.5-0.3,104,27.1c9,12.7,12,33.1,6.4,51.8C461.8,234.3,455.4,244.5,457.8,257.5z M339.3,127.9
		c-61.3,0-123.4-0.4-184.1-0.4c-1.8,0.3-3.6,0.5-5.5,0.8c-5.5,1.4-10.5,4.2-13.6,8.1c-8.9,11.4-9.7,40.9-13.4,58
		c-8.4,47.2-16.8,94.4-25.3,141.5c-3.5,15.9-5.5,31.9-9,46.9c-1.7,7.3-0.9,15.9,2.4,20.7c4.9,6.9,16.6,10.2,29.6,8.1
		c7.8-1.2,16.9-0.6,25.4-0.6h46.5h119.9c27,0,55.1,1.1,77.1-4.3c31.2-7.8,54.9-20.3,71.6-42.4c9.6-12.6,16.1-27.6,20.5-45.4
		c1.3-5,1.2-9.8,2.1-15.5c0.7-4.6,0.8-10.8,0-15.5c-1.7-9.7-3.8-18-5.5-27.3c-2.7-14.8,4.3-28.9,6.8-41.3
		c4.5-22.3-3.1-43.9-11.9-56.3C447.3,126.5,400.9,127.9,339.3,127.9z"/>
	<path fill="#010101" d="M422.4,225.9c-3,7.4-8.7,12.7-15.3,16.6c-8.1,4.8-17.4,7.4-19.2,18.5c-1.8,11,9.1,17.2,15.8,20.2
		c11.7,5.1,23.2,15.3,18.1,33.9c-1.2,4.2-3,8.3-5.1,11.7c-15.9,25.4-49,25.7-89,23.9h-96.5c-21.9,0-58.2,7.7-68.6-6.6
		c-3.8-5.2-5.1-14.1-3.4-22.8c2.5-13.9,5-27.9,7.5-41.8c3.2-18.1,6.4-36.2,9.6-54.3c3.3-14.1,4.1-26.1,14.1-33.2
		c8-5.6,23.5-6.4,36.6-4.3c3.9,0.2,7.8,0.4,11.7,0.6c32.2-0.1,64.3-0.1,96.5-0.2c11.7-0.5,23.5-1,35.2-1.5
		c24.5-0.3,45.1,2.6,52.2,19.8C425.1,212,424.6,220.4,422.4,225.9 M438.6,193.9c-14.5-24.5-48.2-24.9-87.4-24.9
		c-53.9,0-108.6-0.4-161.9-0.4c-1.9,0.3-3.8,0.5-5.7,0.8c-5.4,1.3-10.4,4.1-13.4,7.9c-7.5,9.6-7.3,26.1-10.4,40.3
		c-5.5,30.9-11.1,61.8-16.6,92.7c-1.1,6.1-2.1,12.2-3.2,18.3c-2.7,11-7,25.9,0.2,35.1c4.2,5.4,14.3,8.9,25.3,7.2
		c4.8-0.2,9.7-0.4,14.5-0.6c12.3-0.1,24.6-0.1,36.9-0.2h104.8c48.2,0,87.8-0.3,108-28.5c7.6-10.7,16.5-33.4,9.6-51.3
		c-3.8-9.8-11.2-15.6-13.2-27.1c-1.7-9.5,6.6-18,10-23.4C443.5,228,446.7,207.6,438.6,193.9"/>
	<path fill="none" stroke="#33B34A" stroke-miterlimit="10" d="M422.4,225.9c-3,7.4-8.7,12.7-15.3,16.6c-8.1,4.8-17.4,7.4-19.2,18.5
		c-1.8,11,9.1,17.2,15.8,20.2c11.7,5.1,23.2,15.3,18.1,33.9c-1.2,4.2-3,8.3-5.1,11.7c-15.9,25.4-49,25.7-89,23.9h-96.5
		c-21.9,0-58.2,7.7-68.6-6.6c-3.8-5.2-5.1-14.1-3.4-22.8c2.5-13.9,5-27.9,7.5-41.8c3.2-18.1,6.4-36.2,9.6-54.3
		c3.3-14.1,4.1-26.1,14.1-33.2c8-5.6,23.5-6.4,36.6-4.3c3.9,0.2,7.8,0.4,11.7,0.6c32.2-0.1,64.3-0.1,96.5-0.2
		c11.7-0.5,23.5-1,35.2-1.5c24.5-0.3,45.1,2.6,52.2,19.8C425.1,212,424.6,220.4,422.4,225.9z M438.6,193.9
		c-14.5-24.5-48.2-24.9-87.4-24.9c-53.9,0-108.6-0.4-161.9-0.4c-1.9,0.3-3.8,0.5-5.7,0.8c-5.4,1.3-10.4,4.1-13.4,7.9
		c-7.5,9.6-7.3,26.1-10.4,40.3c-5.5,30.9-11.1,61.8-16.6,92.7c-1.1,6.1-2.1,12.2-3.2,18.3c-2.7,11-7,25.9,0.2,35.1
		c4.2,5.4,14.3,8.9,25.3,7.2c4.8-0.2,9.7-0.4,14.5-0.6c12.3-0.1,24.6-0.1,36.9-0.2h104.8c48.2,0,87.8-0.3,108-28.5
		c7.6-10.7,16.5-33.4,9.6-51.3c-3.8-9.8-11.2-15.6-13.2-27.1c-1.7-9.5,6.6-18,10-23.4C443.5,228,446.7,207.6,438.6,193.9z"/>
	<path fill="#010101" d="M261.8,249.4c8.4,0.1,16.7,0.1,25.1,0.2c8.3-1.4,17.6,0.7,25.3-0.6c6.6-1.1,16-0.7,17.3-6.8
		c1-4.7-5.1-6.1-8.3-7c-11.6-3.1-28.7-2-42.6-1.9c-3.1,0.1-6.2,0.1-9.2,0.2c-7.9,0-15.9,0.3-20.9,3.2c-2.7,1.5-5.8,4.7-3,8.3
		C248.6,249.3,255.3,248.4,261.8,249.4"/>
	<path fill="none" stroke="#33B34A" stroke-miterlimit="10" d="M261.8,249.4c8.4,0.1,16.7,0.1,25.1,0.2c8.3-1.4,17.6,0.7,25.3-0.6
		c6.6-1.1,16-0.7,17.3-6.8c1-4.7-5.1-6.1-8.3-7c-11.6-3.1-28.7-2-42.6-1.9c-3.1,0.1-6.2,0.1-9.2,0.2c-7.9,0-15.9,0.3-20.9,3.2
		c-2.7,1.5-5.8,4.7-3,8.3C248.6,249.3,255.3,248.4,261.8,249.4z"/>
	<path fill="#010101" d="M319.3,292.4c-7-1.2-15.3,0.3-23.2-0.9c-12.4-0.1-24.8-0.1-37.1-0.2c-3.1,0.1-6.2,0.1-9.2,0.2
		c-8.4,1.4-19.3,0.8-21.1,8.5c-2.4,10.1,15,8.8,22.8,10c8.7,0.1,17.3,0.1,26,0.2c13.2,0,27.8,1,39.6-1.1c6.5-1.2,15-1.8,16.2-8.1
		C334.4,294.8,324.3,293.3,319.3,292.4"/>
	<path fill="none" stroke="#33B34A" stroke-miterlimit="10" d="M319.3,292.4c-7-1.2-15.3,0.3-23.2-0.9c-12.4-0.1-24.8-0.1-37.1-0.2
		c-3.1,0.1-6.2,0.1-9.2,0.2c-8.4,1.4-19.3,0.8-21.1,8.5c-2.4,10.1,15,8.8,22.8,10c8.7,0.1,17.3,0.1,26,0.2c13.2,0,27.8,1,39.6-1.1
		c6.5-1.2,15-1.8,16.2-8.1C334.4,294.8,324.3,293.3,319.3,292.4z"/>
	<path fill="none" stroke="#33B34A" stroke-width="3.001" stroke-miterlimit="6.002" d="M69.7,133.2c0.5,0.7,0.5,2,0.1,4.3l-2.8,16
		l-4.1-0.7l2.8-16.1c0.4-2.2,0.7-3.2,1.4-3.7c0.4-0.3,0.8-0.4,1.4-0.3C69,132.7,69.4,132.8,69.7,133.2z M57.8,132.9
		c0.5,0.1,1,0.3,1.3,0.7c0.4,0.6,0.3,1.8,0,3.3l-2.6,14.7l-3.9-0.7l2.5-14.5c0.3-1.7,0.6-2.7,1.2-3.2
		C56.8,132.9,57.2,132.8,57.8,132.9z M75.7,124.4c-1.1-1.2-2.7-1.9-4.6-2.3c-1.4-0.3-3-0.1-4.2,0.6c-1.7,0.8-3,2.6-3.7,4.9
		c0.1-1.6-0.5-2.9-1.4-3.9c-0.9-1-2.2-1.6-3.8-1.9c-1.6-0.3-3.3-0.1-4.8,1c-1.7,1.2-3.1,3.6-3.9,7.8l-5.1,29.2l27.6,4.8l5.2-29.8
		C77.8,130.3,77.7,126.6,75.7,124.4z"/>
	<path fill="none" stroke="#33B34A" stroke-width="3.001" stroke-miterlimit="6.002" d="M72.6,96L56,93l-1.9,10.5l15.2,2.7
		c2.5,0.4,4.6,2.4,3.9,6.4c-0.3,1.8-1.2,6.4-1.3,6.9l7.7,1.4c0.2-0.6,1.1-4.6,1.8-8.5C83,103.1,79,97.2,72.6,96z"/>
	<path fill="none" stroke="#33B34A" stroke-width="3.001" stroke-miterlimit="6.002" d="M98,64.6l-11,4.9l1.4-8.1l0.4-2.8l2.3,1.6
		C91.1,60.1,98,64.6,98,64.6z M85.8,77.3l18.6-8.2l4.4,2.9l10.6-4.7L91.5,48.9l-11,4.9l-5.9,33.3l10.3-4.6L85.8,77.3z"/>
	<path fill="none" stroke="#33B34A" stroke-width="3.001" stroke-miterlimit="6.002" d="M153.8,55.9c0,0.4,0,0.8-0.3,1.2
		c-0.4,0.8-1.4,1-3.4,1l-15,0l0-4.6l14.8,0c1.8,0,2.9,0.3,3.6,1.2C153.7,55.1,153.8,55.5,153.8,55.9z M163.9,54.9
		c0-2.4-0.7-4.2-2.1-5.5c-1.9-1.7-5.3-2.8-10.4-2.8l-26.8,0l0,28l10.5,0l0-10.3l11.6,0l8.9,10.3l11.6,0L156.9,63
		c2.4-0.2,4.3-1.5,5.4-2.9C163.3,58.9,163.9,57,163.9,54.9z"/>
	<polygon fill="none" stroke="#33B34A" stroke-width="3.001" stroke-miterlimit="6.002" points="209.9,74.8 210,46.8 199.9,46.7 
		199.9,62.5 182.1,46.7 171.2,46.7 171.1,74.7 181.3,74.7 181.3,58.6 199.6,74.8 	"/>
	<polygon fill="none" stroke="#33B34A" stroke-width="3.001" stroke-miterlimit="6.002" points="252,74.9 252,67.6 227.4,67.5 
		227.4,64.3 251.1,64.4 251.1,57.4 227.5,57.3 227.5,54.2 251.7,54.3 251.7,46.9 217.1,46.8 217,74.8 	"/>
	<polygon fill="none" stroke="#33B34A" stroke-width="3.001" stroke-miterlimit="6.002" points="320.1,75 320.1,47 307,47 
		297.4,63.7 288.2,46.9 274.8,46.9 274.7,75 284.8,75 284.8,60.5 292.9,75 301.8,75 310,60.6 310,75 	"/>
	<polygon fill="none" stroke="#33B34A" stroke-width="3.001" stroke-miterlimit="6.002" points="362,75.1 362,67.8 337.5,67.7 
		337.5,64.5 361.1,64.6 361.1,57.6 337.5,57.5 337.5,54.4 361.8,54.5 361.8,47.1 327.1,47 327.1,75 	"/>
	<polygon fill="none" stroke="#33B34A" stroke-width="3.001" stroke-miterlimit="6.002" points="399,75.2 399.1,67.2 378.4,67.2 
		378.4,47.1 367.9,47.1 367.8,75.1 	"/>
	<path fill="none" stroke="#33B34A" stroke-width="3.001" stroke-miterlimit="6.002" d="M442.1,78.6c0-0.4,0.6-5.5,1-9.2
		c0.1-1.2,0.8-7.3,0.8-7.3l-22.2-2.5l-0.7,6l12.8,1.4c-0.3,0.5-1.2,1.1-1.8,1.3c-2,0.9-5.3,1.3-9.6,0.8c-4.6-0.5-7.7-1.8-9.2-3.8
		c-0.9-1.2-1.2-2.6-1-4.2c0.2-1.6,0.8-3,2-3.9c2-1.7,5.3-2.2,9.8-1.7c4.5,0.5,7.3,1.7,8.4,2.7c0.6,0.5,1.3,1.1,1.4,1.5l10.1,1.1
		c0-0.6-0.1-1.6-0.5-2.5c-2.1-5.3-8.2-9.1-18.4-10.3c-8.6-1-15.2,0.6-19.2,4.1c-2.3,2.1-3.7,4.7-4.1,7.9c-0.4,3.6,0.4,6.6,2.1,9
		c3,4.2,8.9,6.7,15.6,7.5c6.6,0.7,11.2-0.3,14.2-1.9l-0.2,3.1L442.1,78.6z"/>
	<path fill="none" stroke="#33B34A" stroke-width="3.001" stroke-miterlimit="6.002" d="M477.3,79l-11.2-4.5l6.8-4.7l2.3-1.7
		l0.4,2.8C475.7,71,477.3,79,477.3,79z M459.7,79.2l18.9,7.6l1,5.2l10.7,4.3L484,63.5L472.9,59l-28,19l10.5,4.2L459.7,79.2z"/>
	<path fill="none" stroke="#33B34A" stroke-width="3.001" stroke-miterlimit="6.002" d="M520.5,109.5L512,101l8.1-1.6l2.8-0.6
		l-0.7,2.7C522.2,101.5,520.6,109.6,520.5,109.5z M504.3,102.8l14.4,14.4l-1.1,5.2l8.2,8.2l7.1-32.6l-8.5-8.5l-33.2,6.4l8,8
		L504.3,102.8z"/>
	<path fill="none" stroke="#33B34A" stroke-width="3.001" stroke-miterlimit="6.002" d="M553.6,156.6c-0.3,0.1-0.8,0.2-1.2,0.1
		c-0.9-0.2-1.4-1-2.1-2.9l-4.8-14.2l4.3-1.5l4.8,14c0.6,1.7,0.7,2.8,0,3.7C554.3,156.3,554,156.5,553.6,156.6z M557.8,165.9
		c2.3-0.8,3.7-2,4.5-3.8c1-2.4,0.9-5.9-0.7-10.7L553,126l-26.6,9l3.4,10l9.8-3.3l3.7,11l-6.9,11.8l3.7,11l7.7-13.5
		c1,2.2,2.8,3.6,4.4,4.2C553.8,166.6,555.8,166.5,557.8,165.9z"/>
	<path fill="none" stroke="#33B34A" stroke-width="3.001" stroke-miterlimit="6.002" d="M547.4,210.3c-1.9-1.3-2.5-3.7-2.1-7.6
		l1.4-11.4l13.6,1.6l-1.4,11.6c-0.4,3.7-1.6,5.9-3.9,6.8c-1,0.3-2.2,0.4-3.7,0.3C549.6,211.3,548.3,210.9,547.4,210.3z M543.2,219.7
		c1.9,1.2,4.4,2,7.1,2.3c2.6,0.3,4.9,0.1,7-0.7c4.3-1.7,7.4-6.1,8.4-14.4l2.8-23.6l-27.8-3.3l-2.8,23.6
		C537,211.9,539.1,217,543.2,219.7z"/>
	<path fill="none" stroke="#33B34A" stroke-width="3.001" stroke-miterlimit="6.002" d="M546.5,279.9c4.6-0.7,6.8-4.3,6.1-13.2
		c-0.1-1.1-0.5-6.6-0.7-9.8c-0.5-7-0.4-8.2,0.7-8.4c1.3-0.2,2.1,1.5,3,7.9c0.6,4.4,0.3,7.2-0.5,8.4c-0.4,0.6-0.6,0.8-1.1,1l1.7,11.5
		c1-0.4,2.1-1,3.1-1.9c3-2.7,5.4-8.4,3.8-19.7c-1.9-12.8-6.9-19.2-12-18.4c-4.3,0.6-7,4.2-5.9,16.2c0.2,1.8,0.5,5.5,0.7,8.2
		c0.5,6,0.3,7-1,7.2c-1.3,0.2-2.2-1-3.2-8.1c-0.7-5.1-0.5-8.4,0.3-9.7c0.4-0.5,0.8-0.9,1.2-1.1l-1.7-11.5c-0.9,0.3-1.7,0.7-2.5,1.3
		c-3.7,2.9-6.2,8.8-4.4,21C536.1,274.4,540.2,280.8,546.5,279.9z"/>
	<path fill="none" stroke="#33B34A" stroke-width="3.001" stroke-miterlimit="6.002" d="M541,327.2c4.6,0.8,7.8-2,9.9-10.6
		c0.3-1.1,1.6-6.4,2.4-9.6c1.7-6.8,2.2-7.9,3.3-7.7c1.3,0.2,1.5,2.1,0.4,8.5c-0.8,4.4-2,6.9-3.1,7.8c-0.6,0.4-0.9,0.6-1.3,0.6
		l-2,11.5c1.1,0,2.3-0.3,3.5-0.8c3.6-1.6,7.7-6.3,9.7-17.5c2.2-12.8-0.6-20.4-5.7-21.3c-4.2-0.7-8,1.8-10.7,13.5
		c-0.4,1.8-1.2,5.4-1.9,8c-1.4,5.8-1.9,6.8-3.2,6.5c-1.3-0.2-1.8-1.7-0.6-8.7c0.9-5.1,2.1-8.2,3.3-9.1c0.5-0.4,1.1-0.6,1.5-0.7
		l2-11.5c-1,0-1.8,0.1-2.8,0.5c-4.4,1.6-8.6,6.4-10.7,18.6C532.8,318.8,534.7,326.1,541,327.2z"/>
	<polygon fill="none" stroke="#33B34A" stroke-width="3.001" stroke-miterlimit="6.002" points="552.7,352.6 554.1,348 526.4,322.7 
		524.9,327.3 	"/>
	<path fill="none" stroke="#33B34A" stroke-width="3.001" stroke-miterlimit="6.002" d="M517.6,362.3l25.8,11.5l3.5-7.8
		c-1.3-1.5-0.4-4.4,1.9-11.4l-7.5-3.3l-3.1,8.8l-16.4-7.3L517.6,362.3z"/>
	<path fill="none" stroke="#33B34A" stroke-width="3.001" stroke-miterlimit="6.002" d="M502.4,402.7c0.2,0.1,0.5,0.3,0.8,0.5
		c4.8,3,10.5,1.6,15.8-6.3c2-2.9,4.6-8,3.8-10.3l3.2,2.2l-12.6,18.6l6.2,4.2l18-26.6l-14-9.5l-5.7,8.4c0.9,1.7,0.3,3.9-1.3,6.2
		c-2.4,3.5-4.5,4.2-6.3,3c-0.2-0.1-0.1-0.1-0.3-0.2c-1.7-1.1-1.8-3.7,0.4-7c2.5-3.7,4.4-4.3,6.3-3.4l6-8.8c-0.9-0.5-1.5-0.7-2.4-1
		c-5.1-1.5-10.3,2-16.1,10.6C498,392.8,498,399.5,502.4,402.7z"/>
	<polygon fill="none" stroke="#33B34A" stroke-width="3.001" stroke-miterlimit="6.002" points="448.1,435.3 463.9,458.4 
		472.2,452.8 463.3,439.7 487,442.7 495.9,436.6 480.1,413.4 471.7,419.1 480.8,432.5 456.6,429.4 	"/>
	<polygon fill="none" stroke="#33B34A" stroke-width="3.001" stroke-miterlimit="6.002" points="409.6,479.9 421,475.7 427.9,460.9 
		442.8,467.7 454.5,463.3 430.4,452.1 427.2,443.5 417.4,447.2 420.6,455.8 	"/>
	<polygon fill="none" stroke="#33B34A" stroke-width="3.001" stroke-miterlimit="6.002" points="366,480.5 367.3,487.9 400.8,481.9 
		395.9,454.3 385.6,456.2 387.2,465.6 365.1,469.5 366.4,476.7 388.5,472.8 389.2,476.4 	"/>
	<polygon fill="none" stroke="#33B34A" stroke-width="3.001" stroke-miterlimit="6.002" points="298.4,488.7 308.5,488.6 
		316.2,470.6 323.4,488.5 334.6,488.5 341.5,470.5 349.5,488.4 361,488.3 347.9,460.4 336.3,460.4 329.4,477.8 322.3,460.5 
		310.8,460.6 	"/>
</g>
</svg>
