<?xml version="1.0" encoding="utf-8"?>
<!-- Generator: Adobe Illustrator 18.0.0, SVG Export Plug-In . SVG Version: 6.00 Build 0)  -->
<!DOCTYPE svg PUBLIC "-//W3C//DTD SVG 1.1//EN" "http://www.w3.org/Graphics/SVG/1.1/DTD/svg11.dtd">
<svg version="1.1" id="Layer_1" xmlns="http://www.w3.org/2000/svg" xmlns:xlink="http://www.w3.org/1999/xlink" x="0px" y="0px"
	 viewBox="0 0 426.4 602.1" enable-background="new 0 0 426.4 602.1" xml:space="preserve">
<g>
	<path fill="#010101" d="M53.8,55H0V0h53.3c8.3,0,13.2,2,15.8,4.7c2.4,2.4,3.4,5.5,3.4,9c0,3.3-0.8,6.3-2.5,8.5
		c-1.4,1.8-4.3,3.5-7.3,3.9c4,0.4,8,2.7,10,5.9c1.3,1.9,1.9,4.5,1.9,7.4c0,3.8-1,7.3-2.8,9.6C68.4,53.4,61.8,55,53.8,55z M46.8,15.3
		c-0.7-0.7-2.1-1-4.8-1H23.6v6.3h18.5c2.5,0,4-0.3,4.7-1c0.5-0.5,0.7-1.1,0.7-2C47.5,16.5,47.3,15.8,46.8,15.3z M49.8,37.5
		c0-1-0.2-1.9-0.7-2.5c-0.7-0.8-2.2-1.1-4.6-1.1H23.6v6.7h20.7c2.7,0,4.1-0.2,4.9-1C49.6,39.1,49.8,38.4,49.8,37.5z"/>
	<path fill="#010101" d="M92.6,55.6c-6.3,0-13.7-0.4-14.4-0.6V38.2c0.6,0.1,7.1,0,9.5,0c4,0,5.3-3.6,5.3-6.4V0h24.5v34.9
		C117.5,48.7,108.3,55.6,92.6,55.6z"/>
	<path fill="#010101" d="M143.4,55h-25.7l29.8-55h29.3l27.7,55h-26.1l-3.9-8.5h-27L143.4,55z M163,22.8l-1.7-4.5l-1.9,4.6l-5.3,9.9
		h14L163,22.8z"/>
	<path fill="#010101" d="M275.9,28.5c-2.1,2.5-5.2,4.5-8.3,5.1L284.2,55h-26.7l-12.6-17.4h-12.8V55H208V0h48.2c9,0,15,1.8,18.6,5.1
		c3.1,2.8,4.4,6.7,4.4,12.3C279.3,21.9,278,25.9,275.9,28.5z M255.6,17.6c-0.8-1.8-2.7-2-4.7-2h-18.7v8.1h18.7
		c2.5,0,4.1-0.4,4.7-1.8c0.2-0.6,0.4-1.4,0.4-2.1C255.9,18.8,255.9,18.2,255.6,17.6z"/>
	<path fill="#010101" d="M333.3,55l-22.2-24.8V55h-23.2V0h24.7l21.1,23.9V0H357v55H333.3z"/>
	<path fill="#010101" d="M365,55V0h61v16.1h-37.2v3.6h36.1v15.6h-36.1V39h37.7v16H365z"/>
</g>
<g>
	<path fill="#010101" d="M58.2,164.6H9.5v-55h47.5c7.6,0,12.4,1.8,15.1,4.6c2.4,2.4,3.4,5.5,3.4,9.1s-0.8,6.5-2.7,8.7
		c-1.5,1.8-4,3.2-6.7,3.6c3.9,0.5,7.6,2.5,9.7,5.2c1.8,2,2.6,5.1,2.6,8.3c0,3.8-1.1,7.5-3.2,9.9C72,162.9,66,164.6,58.2,164.6z
		 M54.6,123.3c-1-0.9-2.8-1.3-5.5-1.3H27.8v9h21.8c2.4,0,4.2-0.4,5.2-1.3c0.7-0.8,1.1-1.9,1.1-3.2C55.9,125.2,55.5,124.1,54.6,123.3
		z M59,147.6c0-1.4-0.4-2.5-1.2-3.3c-1.1-0.9-2.9-1.3-6-1.3H27.8v9.2h23.9c3.3,0,5.3-0.4,6.4-1.5C58.7,149.9,59,148.9,59,147.6z"/>
	<path fill="#010101" d="M97.4,165.2c-6.4,0-13.4-0.4-14.8-0.7v-14.1c3.2,0.2,7.6,0.4,11.1,0.4c6.3,0,8.6-3.6,8.6-7.8v-33.3h19v35.6
		C121.2,157.2,112.6,165.2,97.4,165.2z"/>
	<path fill="#010101" d="M143.5,164.6h-19.8l29.3-55h22.6l27.7,55h-20.2l-4.8-10.2h-29.7L143.5,164.6z M165.8,128.8l-2-5l-2.1,5
		l-6.9,13.2h17.6L165.8,128.8z"/>
	<path fill="#010101" d="M270.9,136.7c-2,2.7-5,4.9-8.7,5.5l16.6,22.4H258l-13.7-19.4h-17v19.4h-18.7v-55h43.8
		c8.7,0,14.4,2.1,17.6,5.6c2.5,2.6,3.7,6.2,3.7,11.1C273.7,130.6,272.7,134.3,270.9,136.7z M254.9,125.2c-1-1.8-2.9-2.3-5.9-2.3
		h-21.6v10h22c3,0,4.8-0.6,5.5-2c0.5-0.8,0.6-2,0.6-2.9C255.5,127.1,255.4,125.9,254.9,125.2z"/>
	<path fill="#010101" d="M330.1,164.6L302.9,134v30.6h-18.1v-55h19.7l26.4,29.9v-29.9h17.9v55H330.1z"/>
	<path fill="#010101" d="M359.8,164.6v-55h57.4v13.7h-38.9v7.1h37.8v13.4h-37.8v7.1h39.4v13.7H359.8z"/>
</g>
<g>
	<path fill="#010101" d="M62.6,273.3H19v-55h41.4c6.8,0,11.5,1.8,14.2,4.4c2.4,2.4,3.5,5.6,3.5,9.2c0,3.5-1,6.8-2.9,9
		c-1.3,1.5-3.6,2.9-6,3.3c3.6,0.3,7.4,2.2,9.5,4.3c2.3,2.2,3.3,5.9,3.3,9.5c0,3.9-1.1,7.6-3.4,10.2
		C75.6,271.4,70.2,273.3,62.6,273.3z M62.5,230.3c-1.4-1.3-3.6-1.6-6.2-1.6H32v11.9h25.2c2.2,0,4.3-0.4,5.6-1.5
		c1.1-1,1.6-2.7,1.6-4.5C64.4,232.9,63.7,231.4,62.5,230.3z M68.3,256.8c0-1.8-0.4-3.2-1.7-4.2c-1.4-1.2-3.6-1.8-7.2-1.8H32v12h27.1
		c3.9,0,6.4-0.6,7.8-2C67.9,259.8,68.3,258.4,68.3,256.8z"/>
	<path fill="#010101" d="M102.1,273.9c-6.7,0-13-0.5-15.2-0.9v-11c1.9,0.3,8.2,0.7,12.6,0.7c8.6,0,12-5,12-10.8v-33.6h13.4v36.1
		C124.9,266.6,116.1,273.9,102.1,273.9z"/>
	<path fill="#010101" d="M143.4,273.3h-14l29.1-55h15.8l27.9,55h-14.4l-5.9-12.1h-32.4L143.4,273.3z M168.1,233.6l-2.2-5l-2.2,5
		l-8.7,16.9h21.4C176.5,250.5,168.1,233.6,168.1,233.6z"/>
	<path fill="#010101" d="M265.6,243.9c-1.8,2.9-5,5.3-8.9,6l16.5,23.5h-15l-14.6-21.4h-21.4v21.4h-13.1v-55h39.1
		c8.3,0,13.8,2.4,16.7,6.1c2,2.5,2.9,5.6,2.9,9.9C267.8,238.4,267.1,241.6,265.6,243.9z M254,231.7c-1.2-1.8-3.2-2.6-7.1-2.6h-24.6
		v12.2h25.3c3.6,0,5.5-0.8,6.4-2.2c0.7-1.1,0.9-2.6,0.9-3.7C254.9,234.1,254.7,232.6,254,231.7z"/>
	<path fill="#010101" d="M326.8,273.3l-32.3-37.7v37.7h-12.8v-55h14.6l31.6,36.9v-36.9h12.7v55H326.8z"/>
	<path fill="#010101" d="M354.5,273.3v-55h53.7v11.1h-40.7v10.9h39.5v11h-39.5v11h41.2v11.1H354.5z"/>
</g>
<g>
	<path fill="#010101" d="M64.8,382.9H23.2v-55h38.4c7.2,0,11.6,1.8,14.3,4.3c2.4,2.3,3.5,5.6,3.5,9.3c0,3.5-1,7.1-2.9,9.1
		c-1.3,1.5-3.4,2.9-5.7,3.2c3.9,0.3,7.4,2,9.5,4.1c2.3,2.2,3.3,6,3.3,9.5c0,3.9-1.1,7.6-3.3,10.2C77.6,381,72.2,382.9,64.8,382.9z
		 M66.2,338.8c-1.5-1.3-3.9-1.8-6.9-1.8H33.7v13.8h26.5c2.4,0,4.7-0.5,6.1-1.8c1.3-1.1,1.8-3.1,1.8-5.2
		C68.2,341.9,67.6,340.1,66.2,338.8z M72.5,366.7c0-2-0.6-3.8-2-5c-1.5-1.3-3.6-2-7.5-2H33.7v14.1h29c4.1,0,6.7-0.8,8.1-2.2
		C72,370.2,72.5,368.6,72.5,366.7z"/>
	<path fill="#010101" d="M104.2,383.5c-6.7,0-13-0.5-15.5-1V373c2.2,0.4,8.5,0.8,13.4,0.8c10.2,0,13.7-4.1,13.7-11.8v-34.2h10.8
		v36.3C126.5,378.1,118.3,383.5,104.2,383.5z"/>
	<path fill="#010101" d="M143.4,382.9h-11.3l28.8-55h12.7l27.9,55h-11.7l-6.4-13h-33.4L143.4,382.9z M169.3,341.9l-2.3-5l-2.3,5.1
		l-10.1,18.9h24.4L169.3,341.9z"/>
	<path fill="#010101" d="M263.3,352.9c-1.8,2.9-5,5.4-9.2,6l16.5,24h-12.2l-15.1-22.3H220v22.3h-10.6v-55h37.4
		c8.2,0,13.4,2.5,16,6.3c1.8,2.4,2.6,5.3,2.6,9.5C265.4,347.6,264.7,350.8,263.3,352.9z M253.8,340.4c-1.3-2-3.8-3.1-8.3-3.1h-25.4
		c0,0,0,14,0,14.1h26.5c3.9,0,6.2-0.8,7.2-2.6c0.7-1.3,1-2.9,1-4.2C254.8,343.1,254.5,341.4,253.8,340.4z"/>
	<path fill="#010101" d="M325.6,382.9l-34.7-40.4v40.4h-10.4v-55h12l34.3,39.9v-39.9H337v55H325.6z"/>
	<path fill="#010101" d="M352.3,382.9v-55h52.2v9.6h-41.6v13h40.4v9.5h-40.4v13.2H405v9.7H352.3z"/>
</g>
<g>
	<path fill="#010101" d="M69.1,492.5H31.8v-55H66c5.8,0,9.9,1.6,12.5,4.1c2.4,2.2,3.5,5.7,3.5,9.6c0,3.5-1.1,7.1-3,9.4
		c-1.1,1.4-2.8,2.7-4.8,3c4.1,0.3,7.4,2.1,9.5,4.3c2.2,2.2,3.2,5.8,3.2,9.5c0,3.9-0.8,7.2-2.9,9.8C81.4,490.6,76.4,492.5,69.1,492.5
		z M73.2,445.6c-1.8-1.8-4.5-2.7-8-2.7H37.6V462h29.7c2.5,0,4.8-0.8,6.2-2.6c1.4-1.6,2.3-4.2,2.3-7.1
		C75.8,449.8,74.9,447.2,73.2,445.6z M80.8,477c0-2.7-0.6-5-2.5-6.7c-1.9-1.9-4.9-3-9.2-3H37.6v19.8h31.2c4.7,0,8.1-1.3,10.1-3.6
		C80.3,481.9,80.8,479.6,80.8,477z"/>
	<path fill="#010101" d="M108.4,493.2c-6.9,0-12.6-0.6-15.8-1.3v-5.6c2.8,0.6,9,1.2,14.8,1.2c12,0,16.5-4.8,16.5-14.4v-35.6h6v37
		C129.9,487.2,121,493.2,108.4,493.2z"/>
	<path fill="#010101" d="M143.8,492.5h-6.5l28.6-55h6.9l27.9,55h-6.5l-7.5-14.8h-35.1L143.8,492.5z M171.6,447.8l-2.3-5.1l-2.4,5.1
		l-12.6,24.6h29.6L171.6,447.8z"/>
	<path fill="#010101" d="M258.8,461c-1.8,3.3-5.4,5.6-9.5,6l16.7,25.6h-7.1L243.1,468h-27.2v24.6H210v-55h33.8
		c7.9,0,12.5,2.7,14.8,6.8c1.3,2.2,1.9,4.8,1.9,8.3C260.5,456.1,259.9,459.1,258.8,461z M253.4,447.5c-1.5-2.9-4.8-4.4-10.4-4.4
		h-27.1c0,0,0,19.3,0,19.5h28.8c4.6-0.1,7.5-1.4,8.8-4c0.7-1.4,1-3.5,1-5.4C254.5,451,254.1,448.8,253.4,447.5z"/>
	<path fill="#010101" d="M323.1,492.5l-39.4-47.3v47.3h-5.7v-55h7l39.3,47.3v-47.3h5.6v55H323.1z"/>
	<path fill="#010101" d="M347.7,492.5v-55h48.9v5.6h-43.1v18.8h41.9v5.5h-41.9v19.5H397v5.6H347.7z"/>
</g>
<g>
	<path fill="#010101" d="M72.5,602.1H38.4v-55h30.5c5.3,0,9.1,1.4,11.6,3.9c2.4,2.3,3.5,5.9,3.5,9.9c0,3.6-1.1,7.3-3.1,9.7
		c-1,1.3-2.3,2.5-4.1,2.9c4.1,0.3,7.3,1.9,9.4,4.2c2.2,2.3,3.3,5.7,3.3,9.5c0,3.9-0.8,7-2.7,9.5C84.4,600.1,79.6,602.1,72.5,602.1z
		 M78.8,552.4c-2-2-4.9-3.3-8.8-3.3H40.5v23.9h32.1c2.6,0,4.9-1.3,6.5-3.4c1.6-2,2.7-5.1,2.7-8.8C81.7,557.8,80.7,554.5,78.8,552.4z
		 M87.3,587.2c0-3.3-0.8-6.2-2.9-8.3c-2.1-2.4-5.6-3.9-10.3-3.9H40.5v25.1h33.4c5.1,0,9-1.7,11.2-4.8
		C86.7,593.3,87.3,590.5,87.3,587.2z"/>
	<path fill="#010101" d="M111.7,602.8c-6.9,0-12.4-0.6-16.1-1.5v-2c3.3,0.8,9.4,1.5,15.9,1.5c13.1,0,18.7-6.3,18.7-16.7v-36.9h2.2
		v37.5C132.4,597.7,123.4,602.8,111.7,602.8z"/>
	<path fill="#010101" d="M143.6,602.1h-2.3l28.3-55h2.4l27.9,55h-2.3l-8.5-16.5h-36.9L143.6,602.1z M173.4,554.8l-2.7-6l-2.8,6
		l-14.8,28.8H188L173.4,554.8z"/>
	<path fill="#010101" d="M255.2,569.2c-1.8,3.6-5.1,5.7-9.7,6l16.8,26.9h-2.7l-16.7-26.6h-30.3v26.6h-2.2v-55h31.1
		c7.7,0,11.9,2.8,13.9,7.2c0.8,2,1.3,4.3,1.3,7.3C256.6,564.8,256.1,567.4,255.2,569.2z M253,554.8c-1.7-3.6-5.6-5.7-12.1-5.7h-28.4
		c0,0,0,24,0,24.4H243c5.1-0.1,8.4-1.8,9.9-5.1c0.7-1.6,1.1-4.2,1.1-6.6C254.1,559.1,253.7,556.4,253,554.8z"/>
	<path fill="#010101" d="M321.1,602.1L278,549.3v52.9h-2.1v-55h3.1l43.3,53v-53h2v55H321.1z"/>
	<path fill="#010101" d="M344.1,602.1v-55h46.4v1.9h-44.3v24.2h43.1v1.8h-43.1v25.1H391v2H344.1z"/>
</g>
</svg>
