<?xml version="1.0" encoding="utf-8"?>
<!-- Generator: Adobe Illustrator 17.1.0, SVG Export Plug-In . SVG Version: 6.00 Build 0)  -->
<!DOCTYPE svg PUBLIC "-//W3C//DTD SVG 1.1//EN" "http://www.w3.org/Graphics/SVG/1.1/DTD/svg11.dtd">
<svg version="1.1" id="Layer_1" xmlns="http://www.w3.org/2000/svg" xmlns:xlink="http://www.w3.org/1999/xlink" x="0px" y="0px"
	 viewBox="0 0 367.3 99.2" enable-background="new 0 0 367.3 99.2" xml:space="preserve">
<g>
	<path fill="#010101" d="M51.1,38.2c2.3-0.3,4.1-1.4,5.3-3c1.2-1.5,1.8-3.7,1.8-6.1c0-2.4-0.7-4.8-2.6-6.7
		c-2.2-2.2-6.1-3.7-12.4-3.7H-0.6v41.5h23v11.1H7v11.2h15.4v13.7h11.2V82.7H49V71.4H33.6V60.3h10.6c6.7,0,12.2-1.2,14.8-4.7
		c1.5-1.9,2.1-4.5,2.1-7.3c0-2.2-0.6-4.4-1.9-5.9C57.6,40.1,54.6,38.7,51.1,38.2z M14.6,28.8h21.8c2.5,0,4.1,0.2,4.9,1
		c0.6,0.5,0.9,1.1,0.9,1.9s-0.2,1.6-0.7,2.1c-0.8,0.7-2.5,0.9-4.8,0.9h-22V28.8z M44.8,49.1c-0.9,1-2.7,1.3-6.2,1.3h-24v-6.2h24.2
		c3.2,0,4.9,0.3,5.8,1.1c0.5,0.5,0.7,1.1,0.7,1.9C45.3,48,45.2,48.6,44.8,49.1z"/>
	<path fill="#010101" d="M83.8,41.6c0,3.7-2.3,7.4-8.2,7.4c-2.7,0-9.6-0.1-10.4-0.2v11.6c0.8,0.1,7,0.5,12.8,0.5
		c14,0,21.5-7.4,21.5-17.1v-25H83.8V41.6z"/>
	<path fill="#010101" d="M129.9,18.9l-28,41.5h16.7l4.4-6.5H153l4.2,6.5h17.1l-26.7-41.5H129.9z M129.1,43.9l6.8-10.1l2.3-3.6
		l2.1,3.6c0,0,6.6,10.1,6.6,10.1H129.1z"/>
	<path fill="#010101" d="M235.1,38.9c1.5-1.9,2.4-4.8,2.4-7.9c0-3.6-1.1-6.2-3.2-8.1c-2.9-2.5-7.9-4.1-15.3-4.1h-39.7v41.5h15.6
		V45.1H212l13.2,15.2h17.2l-15.2-17.2C230.8,42.7,233.5,40.8,235.1,38.9z M222.1,34.4c-0.6,1.1-2,1.5-5,1.5h-22.2v-6.7h21.9
		c2.7,0,4.3,0.4,5.3,1.8c0.3,0.5,0.5,1,0.5,1.7C222.5,33.1,222.5,33.8,222.1,34.4z"/>
	<polygon fill="#010101" points="290.8,42.2 264.3,18.9 248.2,18.9 248.2,60.3 263.3,60.3 263.3,36.4 290.3,60.3 305.6,60.3 
		305.6,18.9 290.8,18.9 	"/>
	<polygon fill="#010101" points="331.5,49.4 331.5,44.8 366.5,44.8 366.5,34.4 331.5,34.4 331.5,29.8 367.4,29.8 367.4,18.9 
		316.1,18.9 316.1,60.3 367.9,60.3 367.9,49.4 	"/>
</g>
</svg>
