<?xml version="1.0" encoding="utf-8"?>
<!-- Generator: Adobe Illustrator 17.1.0, SVG Export Plug-In . SVG Version: 6.00 Build 0)  -->
<!DOCTYPE svg PUBLIC "-//W3C//DTD SVG 1.1//EN" "http://www.w3.org/Graphics/SVG/1.1/DTD/svg11.dtd">
<svg version="1.1" id="Layer_1" xmlns="http://www.w3.org/2000/svg" xmlns:xlink="http://www.w3.org/1999/xlink" x="0px" y="0px"
	 viewBox="0 0 114.2 43.1" enable-background="new 0 0 114.2 43.1" xml:space="preserve">
<g>
	<path fill="none" d="M48.4,5.1c0,0-0.3,5.9-0.4,8.9c0,0.3-1.1,12.4-1.1,12.6h2.8c0-0.2-0.9-12.4-0.9-12.6
		C48.8,11,48.4,5.1,48.4,5.1z"/>
	<path fill="none" d="M67.2,18.3c3.5,0,6.4-2.9,6.4-6.4s-2.9-6.4-6.4-6.4c-3.5,0-6.4,2.9-6.4,6.4S63.7,18.3,67.2,18.3z"/>
	<path fill="#F39DC3" d="M30.4,33.5c0,1.2-0.4,2.3-1.9,2.4c-0.8,0.1-1.5,0.1-2.3,0v7c1.3,0.2,1.2,0.2,2.9,0.2c6.1,0,8.8-2.1,8.8-8.2
		V0h-7.4V33.5z"/>
	<path fill="#F39DC3" d="M89.9,19L85.7,0h-6.6v7.4c-1.8-4.8-6.5-8.3-12-8.3c-5.8,0-10.8,3.9-12.3,9.3L54.1,0H43.2l-4.7,43h7.4
		c0,0,0.6-7.5,0.7-10.8c0.1,0,3.4,0,3.4,0c0.1,3.3,0.6,10.8,0.6,10.8h7.5l-2.3-25.4c0.8,1.6,2,3.1,3.4,4.2V43h7.2V24.8h0.8L70.4,43
		h7.5L74,22.7c2.4-1.5,4.2-3.7,5.2-6.3V43H86V23.7l4,19.3h6.7V0h-6.9V19z M46.9,26.6c0-0.2,1.1-12.4,1.1-12.6c0.1-3,0.4-8.9,0.4-8.9
		s0.4,6,0.5,8.9c0,0.3,0.9,12.4,0.9,12.6H46.9z M67.2,5.5c3.5,0,6.4,2.9,6.4,6.4s-2.9,6.4-6.4,6.4c-3.5,0-6.4-2.9-6.4-6.4
		S63.7,5.5,67.2,5.5z"/>
	<polygon fill="#F39DC3" points="106.4,36 106.4,24.7 113.6,24.7 113.6,18 106.4,18 106.4,7.2 114.2,7.2 114.2,0 98.9,0 98.9,43 
		114.3,43 114.3,36 	"/>
</g>
<path fill="#F39DC3" d="M12.7,43.9c-7.4,0-13.4-5.7-13.4-12.8c0-7.1,6-12.8,13.4-12.8c7.4,0,13.4,5.7,13.4,12.8
	C26.1,38.2,20.1,43.9,12.7,43.9z M12.7,24.7c-3.8,0-6.9,2.9-6.9,6.4s3.1,6.4,6.9,6.4s6.9-2.9,6.9-6.4S16.6,24.7,12.7,24.7z"/>
<path fill="#43AD49" d="M25.6,27.6h-9.8v-3.3c5.5-1.4,9.6-6.4,9.6-12.4c0-7.1-5.7-12.8-12.8-12.8C5.6-0.9-0.2,4.8-0.2,11.9
	c0,6,4.1,11,9.6,12.4v3.3H0V34h9.4v9.5h6.4V34h9.8V27.6z M6.3,11.9c0-3.5,2.9-6.4,6.4-6.4c3.5,0,6.4,2.9,6.4,6.4s-2.9,6.4-6.4,6.4
	C9.1,18.3,6.3,15.4,6.3,11.9z"/>
</svg>
