<?xml version="1.0" encoding="utf-8"?>
<!-- Generator: Adobe Illustrator 18.0.0, SVG Export Plug-In . SVG Version: 6.00 Build 0)  -->
<!DOCTYPE svg PUBLIC "-//W3C//DTD SVG 1.1//EN" "http://www.w3.org/Graphics/SVG/1.1/DTD/svg11.dtd">
<svg version="1.1" id="Layer_1" xmlns="http://www.w3.org/2000/svg" xmlns:xlink="http://www.w3.org/1999/xlink" x="0px" y="0px"
	 viewBox="0 0 504.7 139" enable-background="new 0 0 504.7 139" xml:space="preserve">
<path fill="#2BACE2" d="M252.8,127.8c130.9,0,237-25.5,237-56.9c0-31.4-106.1-56.9-237-56.9s-237,25.5-237,56.9
	C15.8,102.3,121.9,127.8,252.8,127.8"/>
<ellipse fill="none" stroke="#5A5121" stroke-width="21" cx="252.8" cy="70.9" rx="237" ry="56.9"/>
<path fill="#5A5121" d="M73.7,72.3c0,0,0.3,15.1-7.5,15.1v6.2h53.5c0,0,14.9-0.7,14.9-11c0-10.3-10.2-10.3-10.2-10.3
	s7.8-3.4,7.8-10.1c0-6.7-3.6-11.1-13.8-11.1H68v6.3C68,57.4,73.7,55,73.7,72.3"/>
<path fill="none" stroke="#FFFFFF" stroke-width="6" d="M73.7,72.3c0,0,0.3,15.1-7.5,15.1v6.2h53.5c0,0,14.9-0.7,14.9-11
	c0-10.3-10.2-10.3-10.2-10.3s7.8-3.4,7.8-10.1c0-6.7-3.6-11.1-13.8-11.1H68v6.3C68,57.4,73.7,55,73.7,72.3z"/>
<path fill="#FFFFFF" d="M88.4,83.8v-6.6h25.2c0,0,5,0.6,5,3.6s-1.8,3-4.9,3H88.4z"/>
<path fill="none" stroke="#010101" stroke-width="6" d="M88.4,83.8v-6.6h25.2c0,0,5,0.6,5,3.6s-1.8,3-4.9,3H88.4z"/>
<path fill="#FFFFFF" d="M88.4,68.1v-6.6h22.2c0,0,6,0.7,6,3.7c0,2.9-6,2.9-6,2.9H88.4z"/>
<path fill="none" stroke="#010101" stroke-width="6" d="M88.4,68.1v-6.6h22.2c0,0,6,0.7,6,3.7c0,2.9-6,2.9-6,2.9H88.4z"/>
<path fill="#5A5121" d="M138.2,50.1v6.1h14.5c0,0,4.9,1,4.9,6.5v13.1c0,0,0,6.5-6.7,6.5h-11.8v11.2c0,0,34.3,7.9,34.3-15.5V50.1
	H138.2z"/>
<path fill="none" stroke="#010101" stroke-width="6" d="M138.2,50.1v6.1h14.5c0,0,4.9,1,4.9,6.5v13.1c0,0,0,6.5-6.7,6.5h-11.8v11.2
	c0,0,34.3,7.9,34.3-15.5V50.1H138.2z"/>
<path fill="#5A5121" d="M228.4,89.5l2.9,4h16.8l-28.3-43.6l-6.6,0.2h-35.3v6.1h14.5c0,0,4.9,1,4.9,6.5s-21.9,30.8-21.9,30.8H197
	c0,0-3.4-5-1.3-6.9c2.2-2,4.7-2.6,4.7-2.6h23.9L228.4,89.5z"/>
<path fill="none" stroke="#FFFFFF" stroke-width="4" d="M228.4,89.5l2.9,4h16.8l-28.3-43.6l-6.6,0.2h-35.3v6.1h14.5
	c0,0,4.9,1,4.9,6.5s-21.9,30.8-21.9,30.8H197c0,0-3.4-5-1.3-6.9c2.2-2,4.7-2.6,4.7-2.6h23.9L228.4,89.5z"/>
<path fill="#5A5121" d="M275.6,50.1l-6.6,0.2h-35.3v6.1h14.5c0,0,4.9,1,4.9,6.5v30.7h15.2H281v-2.8c0,0-11.4,0.3-11.4-5v-9.6h16.8
	L299,92.5h18l-17.3-16.4c0,0,12-0.9,12-11.4c0-10.4-9.1-14.6-18.7-14.6S275.6,50.1,275.6,50.1"/>
<path fill="none" stroke="#010101" stroke-width="6" d="M275.6,50.1l-6.6,0.2h-35.3v6.1h14.5c0,0,4.9,1,4.9,6.5v30.7h15.2H281v-2.8
	c0,0-11.4,0.3-11.4-5v-9.6h16.8L299,92.5h18l-17.3-16.4c0,0,12-0.9,12-11.4c0-10.4-9.1-14.6-18.7-14.6S275.6,50.1,275.6,50.1z"/>
<polygon fill="#FFFFFF" points="203.9,74.2 218.8,74.2 210.5,61.2 213.1,61.2 "/>
<polygon fill="none" stroke="#010101" stroke-width="6" points="203.9,74.2 218.8,74.2 210.5,61.2 213.1,61.2 "/>
<g>
	<defs>
		<rect id="SVGID_1_" x="-632.3" y="-21" width="1190.6" height="841.9"/>
	</defs>
	<clipPath id="SVGID_2_">
		<use xlink:href="#SVGID_1_"  overflow="visible"/>
	</clipPath>
	<path clip-path="url(#SVGID_2_)" fill="#5A5121" d="M386.6,57.4c0,0,5.7-2.4,5.7,14.9c0,0,0.3,15.1-7.5,15.1v5.2h60.6l-3.6-8.8
		h-9.4H407v-6.6h25.2l8,0.4v-9.4h-11H407v-6.6h22.2h11.6l2.4-10.4h-56.6V57.4z"/>
	<path clip-path="url(#SVGID_2_)" fill="none" stroke="#FFFFFF" stroke-width="4" d="M386.6,57.4c0,0,5.7-2.4,5.7,14.9
		c0,0,0.3,15.1-7.5,15.1v5.2h60.6l-3.6-8.8h-9.4H407v-6.6h25.2l8,0.4v-9.4h-11H407v-6.6h22.2h11.6l2.4-10.4h-56.6V57.4z"/>
	<path clip-path="url(#SVGID_2_)" fill="#F58220" d="M269.3,60.6h23.3c0,0,7.1,0.7,7.1,3.5c0,2.9-4.9,2.9-7.4,2.9h-22.9L269.3,60.6z
		"/>
	<path clip-path="url(#SVGID_2_)" fill="none" stroke="#010101" stroke-width="4" d="M269.3,60.6h23.3c0,0,7.1,0.7,7.1,3.5
		c0,2.9-4.9,2.9-7.4,2.9h-22.9L269.3,60.6z"/>
	<path clip-path="url(#SVGID_2_)" fill="#43AD49" d="M340.3,51.1H336h-17.8v6.3c0,0,5.7-2.4,5.7,14.9v20.2h13.2V70.1l27,22.4h16.2
		c0,0-1.8-3-1.8-6.8V49.1h-16.8c0,0,5.7,6.9,5.7,11.6v19.8l-29.7-27.3"/>
	<path clip-path="url(#SVGID_2_)" fill="none" stroke="#010101" stroke-width="6" d="M340.3,51.1H336h-17.8v6.3
		c0,0,5.7-2.4,5.7,14.9v20.2h13.2V70.1l27,22.4h16.2c0,0-1.8-3-1.8-6.8V49.1h-16.8c0,0,5.7,6.9,5.7,11.6v19.8l-29.7-27.3"/>
</g>
<g>
	<defs>
		<rect id="SVGID_3_" x="-632.3" y="-21" width="1190.6" height="841.9"/>
	</defs>
	<clipPath id="SVGID_4_">
		<use xlink:href="#SVGID_3_"  overflow="visible"/>
	</clipPath>
	<path clip-path="url(#SVGID_4_)" fill="none" stroke="#5A5121" stroke-width="1.517" stroke-miterlimit="3.034" d="M186.7,664.1
		v-25H171v22.8c0,3.7-2.3,7.4-8.2,7.4c-2.7,0-9.6-0.1-10.4-0.2v11.6c0.8,0.1,7,0.5,12.8,0.5C179.2,681.2,186.7,673.7,186.7,664.1z"
		/>
</g>
<g>
	<defs>
		<rect id="SVGID_5_" x="-632.3" y="-21" width="1190.6" height="841.9"/>
	</defs>
	<clipPath id="SVGID_6_">
		<use xlink:href="#SVGID_5_"  overflow="visible"/>
	</clipPath>
	<path clip-path="url(#SVGID_6_)" fill="none" stroke="#5A5121" stroke-width="1.517" stroke-miterlimit="3.034" d="M234.1,664.2
		h-17.8l6.8-10.1l2.3-3.6l2.1,3.6C227.5,654,234.2,664.2,234.1,664.2z M210.1,674.1h30.1l4.2,6.5h17.1l-26.7-41.5h-17.8l-28,41.5
		h16.7L210.1,674.1z"/>
	<path clip-path="url(#SVGID_6_)" fill="none" stroke="#5A5121" stroke-width="1.517" stroke-miterlimit="3.034" d="M309.7,652.9
		c0,0.5-0.1,1.2-0.4,1.8c-0.6,1.1-2,1.5-5,1.5H282v-6.7H304c2.7,0,4.3,0.4,5.3,1.8C309.5,651.7,309.7,652.2,309.7,652.9z
		 M324.7,651.3c0-3.6-1.1-6.2-3.2-8.1c-2.9-2.5-7.9-4.1-15.3-4.1h-39.7v41.5H282v-15.2h17.2l13.2,15.2h17.1l-15.2-17.2
		c3.6-0.4,6.4-2.3,8-4.2C323.8,657.3,324.7,654.4,324.7,651.3z"/>
	<polygon clip-path="url(#SVGID_6_)" fill="none" stroke="#5A5121" stroke-width="1.517" stroke-miterlimit="3.034" points="
		392.8,680.6 392.8,639.1 377.9,639.1 377.9,662.4 351.5,639.1 335.4,639.1 335.4,680.6 350.4,680.6 350.4,656.7 377.5,680.6 	"/>
	<polygon clip-path="url(#SVGID_6_)" fill="none" stroke="#5A5121" stroke-width="1.517" stroke-miterlimit="3.034" points="
		455,680.6 455,669.7 418.7,669.7 418.7,665 453.7,665 453.7,654.7 418.7,654.7 418.7,650.1 454.6,650.1 454.6,639.1 403.3,639.1 
		403.3,680.6 	"/>
</g>
<g>
	<path fill="none" stroke="#5A5121" stroke-width="0.842" stroke-miterlimit="1.684" d="M-537.8,126l-2.9-13.5l-8.5,1.8l2.6,12.4
		c0.4,2-0.4,4.3-3.6,5c-1.4,0.3-5.2,1.1-5.6,1.1l1.3,6.3c0.5,0,3.8-0.5,7-1.2C-539.9,136.2-536.7,131.3-537.8,126z"/>
</g>
<g>
	<path fill="none" stroke="#5A5121" stroke-width="0.842" stroke-miterlimit="1.684" d="M-34.1-91.4l-9.7,2.1l2.5-6.3l0.8-2.2
		l1.6,1.7C-38.9-96.1-34.1-91.4-34.1-91.4z M-46-83.3l16.3-3.5l3.1,3.1l9.3-2l-19.3-19.4l-9.7,2.1l-10.4,25.7l9.1-1.9L-46-83.3z"/>
	<path fill="none" stroke="#5A5121" stroke-width="0.842" stroke-miterlimit="1.684" d="M5.6-106.2c0.1,0.3,0.1,0.6,0,1
		c-0.2,0.7-0.9,1.1-2.6,1.4l-12,2.6l-0.8-3.7l11.9-2.5c1.4-0.3,2.4-0.3,3.1,0.3C5.4-106.9,5.5-106.6,5.6-106.2z M13.6-108.8
		c-0.4-2-1.3-3.2-2.7-4c-1.8-1-4.7-1.3-8.8-0.4l-21.5,4.6l4.8,22.5l8.4-1.8L-8-96.3l9.3-2l8.9,6.7l9.3-2l-10.3-7.6
		c1.9-0.6,3.2-2,3.8-3.2C13.8-105.5,13.9-107.2,13.6-108.8z"/>
	<polygon fill="none" stroke="#5A5121" stroke-width="0.842" stroke-miterlimit="1.684" points="53.9,-100.8 49.1,-123.3 
		41.1,-121.6 43.8,-108.9 26.7,-118.5 18,-116.7 22.8,-94.2 30.9,-95.9 28.2,-108.9 45.6,-99 	"/>
	<polygon fill="none" stroke="#5A5121" stroke-width="0.842" stroke-miterlimit="1.684" points="87.7,-108 86.5,-113.9 66.7,-109.7 
		66.2,-112.2 85.2,-116.3 84,-121.9 65,-117.8 64.4,-120.3 83.9,-124.5 82.7,-130.4 54.8,-124.5 59.6,-102 	"/>
</g>
</svg>
