<?xml version="1.0" encoding="utf-8"?>
<!-- Generator: Adobe Illustrator 17.1.0, SVG Export Plug-In . SVG Version: 6.00 Build 0)  -->
<!DOCTYPE svg PUBLIC "-//W3C//DTD SVG 1.1//EN" "http://www.w3.org/Graphics/SVG/1.1/DTD/svg11.dtd">
<svg version="1.1" id="Layer_1" xmlns="http://www.w3.org/2000/svg" xmlns:xlink="http://www.w3.org/1999/xlink" x="0px" y="0px"
	 viewBox="0 0 510.2 128" enable-background="new 0 0 510.2 128" xml:space="preserve">
<g>
	<path fill="#010101" d="M68.5,40.7c2.5-4.1,4-8.8,4-14C72.5,12,60.5,0,45.7,0S19,12,19,26.7c0,5.2,1.5,10.1,4.2,14.3
		c-6.4,2-11.7,5.1-15.9,9.3C2.3,55,0,60.8,0,67.5C0,75.3,2.8,81.3,7.7,86c6.4,6.2,16.5,9.9,29.6,11v7.2H23v13.7h14.3V128h19.9v-10.2
		h15.9v-13.7H57.2v-7.3c12.3-1.2,21.8-4.7,27.6-10.7c4.7-4.7,7.3-10.8,7.3-18.5c0-7.4-2.2-13.3-7.4-18.3
		C80.6,45.4,75.2,42.5,68.5,40.7z M45.7,18.1c4.8,0,8.6,3.9,8.6,8.6s-3.9,8.6-8.6,8.6s-8.6-3.9-8.6-8.6S41,18.1,45.7,18.1z M46,81.6
		c-17.1,0-24.1-6.6-24.1-13.9c0-6.6,6.7-13.7,24.1-13.7c18.2,0,24.4,7.3,24.4,13.7C70.3,75.1,62.9,81.6,46,81.6z"/>
	<path fill="#010101" d="M121.8,70.8c0,5.1-3.2,10.1-11.3,10.1c-3.6,0-13.2-0.1-14.2-0.2v15.9c1.2,0.1,9.6,0.7,17.6,0.7
		c19.2,0,29.5-10.2,29.5-23.5V39.5h-21.6V70.8z"/>
	<path fill="#010101" d="M185.1,39.5l-38.5,57h22.9l6.1-9h41.3l5.8,9h23.5l-36.6-57H185.1z M184.1,74l9.3-13.9l3.1-4.9l2.9,4.9
		c0,0,9.1,13.9,9,13.9H184.1z"/>
	<path fill="#010101" d="M329.7,67c2-2.6,3.3-6.6,3.3-10.8c0-5-1.5-8.5-4.4-11.1c-3.9-3.4-10.8-5.6-21.1-5.6H253v57h21.4V75.6h23.6
		l18.2,20.9h23.6l-20.9-23.6C323.7,72.4,327.5,69.7,329.7,67z M311.8,60.8c-0.9,1.5-2.8,2.1-6.9,2.1h-30.5v-9.3h30.1
		c3.6,0,5.9,0.5,7.2,2.4c0.4,0.7,0.7,1.4,0.7,2.3C312.4,59.1,312.3,60,311.8,60.8z"/>
	<polygon fill="#010101" points="406.1,71.6 369.8,39.5 347.7,39.5 347.7,96.5 368.3,96.5 368.3,63.7 405.5,96.5 426.6,96.5 
		426.6,39.5 406.1,39.5 	"/>
	<polygon fill="#010101" points="462.1,81.5 462.1,75.1 510.2,75.1 510.2,60.9 462.1,60.9 462.1,54.6 511.4,54.6 511.4,39.5 
		441,39.5 441,96.5 512.1,96.5 512.1,81.5 	"/>
</g>
</svg>
