<?xml version="1.0" encoding="utf-8"?>
<!-- Generator: Adobe Illustrator 18.0.0, SVG Export Plug-In . SVG Version: 6.00 Build 0)  -->
<!DOCTYPE svg PUBLIC "-//W3C//DTD SVG 1.1//EN" "http://www.w3.org/Graphics/SVG/1.1/DTD/svg11.dtd">
<svg version="1.1" id="Layer_1" xmlns="http://www.w3.org/2000/svg" xmlns:xlink="http://www.w3.org/1999/xlink" x="0px" y="0px"
	 viewBox="0 0 612 792" enable-background="new 0 0 612 792" xml:space="preserve">
<polygon fill="#FFFFFF" points="156,335.2 184.5,308.7 218.5,295.4 225.2,290 221,247.3 211.5,201 210.3,186.6 220.5,169.5 
	253.7,178.1 266.9,205.9 280.3,219.5 325.5,163.5 376,101 390.2,112.2 414.5,157 435.5,112.5 488.3,96.3 496.4,105.1 496.4,125.5 
	475.7,177.8 505.1,263.4 521.8,286.4 559.5,304 559.5,335.2 520,344 472.5,302.5 460.5,294.4 454.5,286.4 435,301.5 437,352.2 
	433.5,382 458.6,388 492.6,389.2 501.1,402.3 505.1,438 525.5,446 514,469.5 557.7,470.1 567,480.5 573.5,490.5 584.5,518.4 
	571.2,528.6 584.5,537.5 575,548.5 551.7,538.5 503,532.7 468,523.5 444.2,527 407.5,509 281.5,562.5 275.3,572.5 281,611 
	288,641.5 306,660.1 325.9,673.9 332.3,677.9 370.2,686.2 385.5,689.2 376.2,694.2 352.5,694.2 315.8,683.2 283,653.2 265,626.7 
	247.2,574.5 235.2,558.5 160.5,508 125,506 94.5,477 57,482 52.1,497.8 41,491 33.8,469 42.4,451.6 80.5,433 37.5,346.1 53.4,327 
	72.5,324 89.5,330 132,349.2 141.6,352.2 "/>
<g>
	<path d="M579.2,526.6c-0.1-0.6-0.2-1.2-0.3-1.8c2.7-1.2,6.1-0.4,8.6-2.4c3.2-2.6,0.6-12-1.3-14.6c-2-1.6-4-3.1-6-4.7
		c-0.5-5.1,1.7-9.8-1.8-14.7c-1.7-2.4-5-2.8-6.5-5.1c-1.2-3.6-2.4-7.2-3.6-10.8c-3.8-7.9-12.4-9.5-19.3-9.8
		c-7.9-0.4-15.5,4.7-23.5,3.4c-0.2-0.2-0.5-0.4-0.7-0.6c4.8-7,10.1-15.4,7.8-21.9c-1.7-5-10.7-10.8-15.1-8.4
		c-9-0.7-4.1-10.6-5.2-15.7c-0.9-4.3-2.5-16.9-6.6-20.1c-3.5-2.7-6.8-4.3-9.6-6.5c-0.9-0.7-1.4-2.6-3.4-3.8
		c-10-5.6-29.8-5.3-40.8-6.7c-4.1-0.6-10.2-0.2-14.2-3.4c-0.3-3.5,2.1-7.1,3.3-10.7c1.7-5.2,2.7-11.1,3.1-16.3
		c1-13.5-1.9-26.7-1.4-40c0.4-2.2,0.8-4.3,1.2-6.5c-0.5-1.8-1-3.6-1.5-5.4c0.6-1.6,3-2,4-2.6c4.8-3.2,8.8-6.7,14.1-2.9
		c1.7,3.5-0.3,7,0.5,10.6c0.9,4.3,3.4,9.1,6.1,13.2c2.5,3.8,8,8.4,10.5,11.1c8.9,9.8,24.8,19.5,33.2,20.8c5.5,0.8,11.1-0.4,16.5-1.5
		c13.1-2.7,26.5-5.2,39.5-11.1c3.6-4.8,1.3-13.2,0.2-17.8c-0.9-4.8-1.8-9.5-2.8-14.3c-9.8-18.4-33.4-25.4-48.6-31.2
		c-0.8-2.3-1-5-2.3-7.3c-2.5-4.5-5.8-7.4-7.2-11.4c-3.2-8.8-7.4-17.1-11-26.3c-4.3-10.9-7.2-23.2-10-34.4c-1.5-6-5.1-13-4.7-19.2
		c0.5-6.7,2.7-12.4,6.3-18.7c1.9-2.3,3.8-4.6,5.7-6.9c1.7-3.3,1.5-6.4,2.7-9.4c3.7-8.9,10-15.5,8-23.6c-1-2-2.1-3.9-3.2-5.9
		c-1.4-4.5-1.4-7.8-6.8-12.3c-2.6-0.6-5.5-3.7-8-4c-3.1-0.3-5.9,1.7-8.9,2.8c-2.7,0.6-5.4,1.3-8.2,1.9c-2.3,1.5-4.6,2.9-7,4.4
		c-7.3,3.8-15.7,4-23.2,7.3c-3.2,1.4-9.3,4.7-11.6,8.6c-6.5,10.5-8.1,19.9-11.7,29.8c-0.2,0.2-0.4,0.5-0.6,0.7
		c-3.1-2.1-3.9-5.6-5.5-8.5c-2.4-4.4-5.3-8.1-7.7-12.7c-2.4-6.3-4.8-12.6-7.3-18.9c-2.3-4.4-8.3-12.4-14.5-13.9
		c-10.6-2.5-21.1,21.7-28.3,30.3c-6.8,7.7-13.6,15.4-20.4,23.1c-4.3,4.3-8,10.3-12.4,14.2c-2.9,4-5.8,7.9-8.7,11.9
		c-6.5,6.1-13,12.3-19.6,18.4c-5.6,5-6.9,11.5-11.1,16.5c-0.5,0.1-1,0.2-1.4,0.3c-6.9-3.5-6.7-14.5-10.7-20.6
		c-9.7-15-37.8-27.5-48.7-22.4c-3.2,1.5-3.6,5.9-4.1,8.2c-1,4.4-2.8,8.1-4.1,12.8c-0.8,3.2-0.5,6.2-1.4,9.6
		c-0.9,3.1-0.2,8.7,1.4,11.6c0.9,1.3,1.9,2.6,2.8,3.8c0.2,2.2,0.4,4.3,0.6,6.5c0.8,1.8,1.5,3.7,2.3,5.5c1.1,13.1,2.3,26.2,3.4,39.4
		c0.7,7.7,3.4,16,2.6,23.8c-3.8,3.6-17.7,6.6-22.9,8.4c-11,4-22.6,12.8-33,21.3c-7.6,6.1-19,20.9-22.3,28.1
		c-1.2,2.6-2.4,10.4-4.2,11.5c-2.5,0.9-8.2-4.7-10.5-7.2c-4.2-4.8-11.8-7.9-17.2-11c-4.6-3.7-9.3-7.3-13.9-11
		c-10.7-6.5-24-9.6-34.4-6.8c-3.2,1.4-6.4,2.9-9.6,4.3c-2.7,0.9-5.4,0.3-8,2c-4.2,2.7-11.1,13.6-11.3,17.5
		c-0.7,10.9,7.4,21.2,13.2,31.6c6.5,11.8,13.1,23.6,16.6,35.4c1.8,5.9,7.5,10.4,6.2,16.6c-2.6,2.9-5.5,3-8.2,4.8
		c-5.2,4.2-10.3,8.3-15.5,12.5c-9.6,8.1-13.6,23.2-14.8,31.1c-1.1,7.2,0.3,12.6,8.3,19.2c2.4,2,4.9,3.2,7.1,2.6
		c7.8-2,10.5-9.5,13.8-15.5c4.7-2.3,29.6-0.1,34.9,2.7c2.8,1.5,2.5,4.3,3.7,6c3.3,5,12.5,12.7,17.8,13.9c3.8,0.5,7.6,0.9,11.4,1.4
		c5.4-0.1,11.1-2.3,16.7,0.4c3.6,1.7,8,6.2,10.6,9.2c5.1,5.6,11.8,9.7,16.2,14.7c8.5,9.5,19.8,15.6,29.3,20.2
		c7.3,2.9,14.7,5.9,22,8.8c5.1,1.6,12.3,1.8,17.5,8c12.2,14.6,14.4,28.5,19.3,43.3c3,9.2,6.8,18.2,11.8,27.2
		c4.6,8.3,11.1,15.7,17.5,23.9c14.9,19,40,28,55.9,30.7c2.7,0.7,5.5,1.4,8.2,2c5.6-0.3,11.3-0.6,16.9-0.9c8.5,0.5,16.7,1.7,24.9-0.8
		c7.5-2.3,15-3.3,22.3-5.9c6.5-2.3,11.8-7,18.3-10.5c8.7-4.6,18.1-8.5,26.8-13.9c13-8.1,23.8-19.3,36.6-30.6
		c9.2-8.1,23.4-25.5,26.6-34.7c0.8-2.3,3-4.7,2.5-6.9c0-0.2,0-0.4-0.1-0.6c-6.2-0.2-14.7,12.8-18.7,19.2c-0.7,1.2-2.8,3.3-4.6,4.8
		c-2.1,2.5-4.1,4.9-6.2,7.4c-6.8,5.7-13.1,11.8-20,16.8c-3.1,2.8-6.2,5.6-9.4,8.4c-3.3,2-7.6,4.3-11.1,6.9c-1.8,1.6-3.6,3.2-5.4,4.7
		c-27.7,15.9-54.2,25-84.1,23.6c-5.6-0.1-11.1-0.3-16.7-0.4c-8.7-3.4-17.4-6.7-26.1-10c-3.9-2.9-7.8-5.7-11.7-8.6
		c-7.9-4.5-12.6-10.4-16.5-16.5c-2.5-3.9-5.1-7.8-7.6-11.7c-6.6-13.3-5.9-29-8-42.9c-0.7-4.8-4.3-24.7,0.2-28.6c4.2-3.6,10.4-3,15-4
		c9.3-2,18.7-6,27.7-9.2c9.1-3.2,17.5-8.7,26.6-13.2c13.8-6.8,29.1-11.3,43.3-16.3c5.5-1.9,10.7-5.3,16.2-6.9c3,2,6,4,9,6
		c6.3,3.4,14.1,7.3,20.5,8.1c4.6,0.6,10.3,0.8,14.8-0.2c2-0.4,4.1-1.6,6.1-1.2c2.7,0.5,4.6,3.8,7.3,5.2c3.2,1.6,7.4,2.3,10.7,2.6
		c5.1,0.5,10.1-1,15.1-0.9c11.1,0.5,22.3,1,33.4,1.5c8.2,1.2,15.6,4,23.9,6.5c2.2,0.4,4.3,0.8,6.5,1.2c1.7,1.4,3.4,2.8,5.1,4.3
		c3.7,2.1,12.6,4.6,15.8,3.6c2.3-0.6,3.6-2.8,5.8-4.8C592.9,541.1,587.6,530.9,579.2,526.6z M489,270.6c8.8-2.2,14.8,16.6,22.3,20.7
		c7.9,3.6,15.9,7.3,23.8,10.9c5.7,3.9,11.5,7.8,17.2,11.7c1.4,1,2.9,2.2,2.9,3.3c0.1,1.3-1.5,2.6-1.8,3.9c-0.7,3.3,1.4,6.9-0.7,9.9
		c-0.1,0.1-0.1,0.1-0.1,0.2c-6.1,2.7-16.9,1-22.1-8c-1.1-2.4-2.2-4.8-3.3-7.2c-2.1-2.4-4.1-4.8-6.2-7.3c-1.8-2.8-3.6-6.3-5.5-8.8
		c-3.8-4.7-9.5-3.9-13.7-5.1c-2.6,2.5-1.9,7-1.2,9.7c-4,1.2-7.2-3.4-11-5.9c-1.3-1.5-2.6-2.9-3.8-4.4c-8.2-6.3-6.1-8-2.2-16.5
		C484.7,275.4,486,271.4,489,270.6z M459.2,660.1c-0.7,2-3.9,2.5-5.2,3.4c-2.5,2.4-5,4.8-7.5,7.2c-4.1,2.6-10.5,4.7-13.7,7.1
		c-0.2-0.2-0.5-0.4-0.7-0.6c-0.2,0-0.3-0.1-0.5-0.1C438.9,671.2,450.4,662.9,459.2,660.1z M413,683.3c0.4,0.8,0,0.1,0.7,0.6
		c-3.2,1.2-4.8,2.8-8.5,4c-1.7,0.6-5.5,0.5-5.5,0.5c-0.1,0.1-0.1,0.1-0.1,0.2c-0.5-0.2,0-0.2-0.5-0.1
		C400.2,683.4,408.5,684.5,413,683.3z M569.2,488.3c1.2,1.7,1.3,2.5,0.9,4.6c0.8-0.2-0.6,3.7-0.9,4c-1.7,1.6-4.5,1.5-7.2,2.1
		c-0.7-0.6-1.3-1.3-2-1.9c0.8-1.3-0.1-4.8,0.7-6.9C563.5,489.6,566.4,489,569.2,488.3z M557.7,470.1c3.6,3.6,2.9,10.4,1.6,14.5
		c-2.4,0.7-4.7,0.6-6.4,2.7c-3.2-2.6-4.5-4.2-6.4-7.1c0.1-0.6,0.1-0.3,0.7-0.1C547.8,476.3,554.2,470,557.7,470.1z M504.8,450.3
		c2.2,0.5,4.4,0.9,6.6,1.4c1.1,2.2,0.7,3.1,1.5,5.7c-0.2-0.1-0.5-0.2-0.7-0.3c0.1,0.1,0.2,0.2,0.4,0.3c0.1,0.3-0.1,0.2,0.5,0.4
		c-0.2,0.1-0.3,0.1-0.5,0.2c0,0.5-0.1,0.1-0.5-0.1c-0.2,0.7-0.4,1.5-0.6,2.2c-3.4,1.3-5.3,1.9-10,1.6c-2.5-4.1-2.7-6.5-2.8-10.7
		c0.1-0.2,0.2-0.5,0.3-0.7C501.3,450.7,503.1,450.3,504.8,450.3z M449.8,188c6.8-3.3,11.9,2.6,18.4,4.5c4.1,3.4,3.2,5.5,4.7,8.7
		c1.3,1.9,2.6,3.8,3.9,5.7c0.8,3.8,1.7,7.6,2.5,11.4c1.8,3.4,3.5,6.8,5.3,10.1c0.1,3.2,0.1,6.3,0.2,9.5c-0.4,1.5-0.7,3-1.1,4.5
		c0.8,3.1,2.2,5.2,2.1,8.3c-0.2,3.2-6.5,13.2-9.6,14.4c-2.4,0.9-5.2-2.9-6.5-4.8c-3.2-4.8-10.7-13-16.3-8.8
		c-3.8,2.8,0.5,15.9,2.2,18.9c1.3,2.4,4.2,4.6,6.3,6.4c-0.2,0.5-0.4,0.9-0.5,1.4c-1.4,0.5-2.9,0.2-4.4-0.4c-2.7,1.4-3.3,5.2-6.2,7.4
		c-2.4,1-4.8,2-7.2,2.9c-2.5,1.6-4.3,6.9-5.2,7.3c-0.1,0-0.2,0-0.3,0l-7.7-0.8c-1.2-1-2.4-2-3.5-2.9c-4.3-0.8-5.4,5-12.4,0.1
		c-1.4,1.2-2.6,2.5-4,3c-3.4-1.7-5.5-4.8-6.4-7.7c-2.6-1.8-2.9,1-4.3,1.2c-0.4,0-0.9,0.1-1.3,0.1c-6-5.8-12.7-23-8.4-29.4
		c1.2-0.6,1.6-0.7,3,0.4c0.4-0.2,0.7-0.4,1.1-0.6c0.2-1.5-0.4-2.3-1.1-3.6c0.5-0.7,1-1.4,1.4-2.1c1.9-0.2,3.5,0.5,5.4,0.7
		c1.4-0.3,2.8-0.7,4.2-1c2.9-0.7,8.4,0.9,11.3,2.6c3.6,2.4,7.2,4.8,10.8,7.2c1.6,1.7,2.9,4.7,5.2,5.2c4.1,1,9.5-4.3,13.5-5.5
		c2.5-4-0.8-6.3-0.2-9.8c0.2-1.4,0.8-1.7,0.7-3c-0.3-0.1-0.6-0.3-0.9-0.4c-0.1-0.1-0.2-0.2-0.4-0.3c-0.6,1.1-1.2,2.2-1.8,3.3
		c-2.7,0.9-8.2-6.7-9.8-9.4c-2-3.2-2.5-16.1-2.5-20c0-2.9,1.3-7.7-2.2-9.6c-1.7-0.4-3.7,1.1-5.4,1.5c-1.9,0.4-4.7,0.5-6.5,1.7
		c-3.8,2.5-2.4,6.5-2.9,8.9c-1.2,5.6-3.7,11.8-6.8,17.1c-3.3,5.6-7.3,3-10.9,4.1c-1.6,1.1-3.3,2.3-4.9,3.4c-2.4-0.2-4.3-1.6-5.7-3.9
		c0.1-2,0.6-2.9,2.5-4.8c-0.5-2.2-1.8-5.4-3.1-7.4c-0.9-1.1-1.7-2.2-2.6-3.4c-0.6-1.9,0.8-4.5-0.4-6.3c-1.2-0.8-2.3-1.5-3.5-2.3
		c0.4-3.5,4.8-4.2,3.9-9.3c1.2-1.2,2-1.3,2.7-2.5c0.5-2-0.7-4.4-2.7-6.1c0.1-0.4,0.3-0.8,0.4-1.2c1.5-0.3,2.8-0.2,4.3-0.9
		c1.8-2.4,0.7-3.5,0.8-5.6c0.4-0.3,0.7-0.6,1.1-0.9c2.7-1.2,5.2,1.1,8,1.2c5.6,0.3,4.5-2.5,8.6-4.5c1,0,2.1-0.1,3.1-0.1
		c1.8-0.7,4.3-4.5,5.5-6.2c1.2-0.3,1.2,0.2,2.4-0.1c1.4-0.7,2.8-1.5,4.2-2.2c2.9-0.2,5.7,2.6,8.6,3.3c1.8-1.2,2.2-2.4,1.4-4.2
		c2.2-2.5,5-2.6,7.5-1.8c0.4,1.4,0.3,6.9-0.2,8.2c-1,2.4-3.9,3.2-4.7,5.7c-1.2,3.7-0.5,9,0.3,12.5c2,2.5,6.1,5.8,8.4,6.4
		c10.6-6,3.7-15.6,5.9-22.9C447.4,188.8,448.8,188.4,449.8,188z M462.7,267c-0.4-0.2-0.8-0.5-1.2-0.7c-0.1,0-0.1-0.1-0.2-0.1
		c0.2-0.5,0.4-1,0.7-1.5c0.3,0,0.6-0.1,1-0.1c0.2,0.3,0.4,0.5,0.6,0.8C463.9,266.4,463.7,266.3,462.7,267z M409.4,300.4
		c0.3-0.2,0.6-0.5,0.9-0.7c0.2,0.2,0.5,0.4,0.7,0.6C410.4,301.3,410.2,301.4,409.4,300.4z M418.7,228.2c0.3-0.4,0.7-0.8,1-1.2
		c2.1,1.9,2.9,4.5,2.2,6.7c-0.2,0.3-0.4,0.7-0.6,1c-0.3,0-0.6-0.1-0.8-0.1C418.7,232.8,418.1,230.2,418.7,228.2z M419.9,247.5
		c2.2-1.5,4-2,6.9-1.4c2.4,2.4,3.5,5.8,3.1,8.5c-0.2,0.2-0.4,0.5-0.6,0.7C425.7,253.3,421.9,250.3,419.9,247.5z M371.8,258.2
		c-0.1-0.2-0.1-0.3-0.2-0.5c-1.9-0.3-3.7-0.5-5.6-0.8c-0.1-0.1-0.2-0.2-0.4-0.3c-0.2-0.8-0.3-0.7,0.2-1.6c1.3-3.1,7.6-3.1,10-2.7
		c0.1,0.2,0.3,0.4,0.4,0.6c0.3,1.3-1.3,2.5-2,3.1c0.1,0.4,0.2,0.7,0.3,1.1c2.5,0.2,5.8-0.2,4.7,3.6c-1.9,2.4-10.7,5.9-11.4,2.5
		C367.5,261.8,371.1,259.6,371.8,258.2z M379.3,238.1c-0.2,0.2-0.4,0.5-0.6,0.7c-0.4-0.2-0.8-0.5-1.2-0.7c-0.1-0.5-0.2-1-0.3-1.4
		c0.2-0.4,0.5-0.8,0.7-1.2c0.4,0.3,0.7,0.6,1.1,0.9C379,237,379.1,237.6,379.3,238.1z M436.2,200c1.2-0.1,2.5-0.1,3.7-0.2
		c0.3,1,0.1,1.5,0.9,2.5c-0.7,0.6-1.3,1.1-2,1.6c-1.3-0.1-1.9-0.1-3.4-1.3c-0.1-0.1-0.1-0.1-0.2-0.1
		C435.4,201.5,435.2,201.2,436.2,200z M454.8,133.8c3.9-1.4,5.5,3.8,10.7-1.3c10-9.7,8.4-31.1,24.5-30.5c1.3,1.1,2.2,1.9,2.6,3
		c-0.6,4.6-1.1,9.2-1.7,13.9c-1.3,1.5-2.6,3.1-3.8,4.6c-7.8,14-15.8,28.4-21.3,41.8c-2.1,4.9-9.5,12-13.5,11.2
		c-2.7-0.5-2.5-6.1-2.3-7.6c0.3-3.9,5.1-17.4,4.2-19.8c-1.2-1.1-2.4-2.2-3.6-3.3C449.4,143.5,450.5,134.6,454.8,133.8z M452.4,118
		c2.7-1.6,4.1-4,6.6-4.7c0.3,1.3-4,12.5-6.1,14.1c-2.1,1.7-5.3,2-7,5.2c-2.2,3.9-1.8,7.7-2.7,11.5c-1,4.4-4.2,8.6-5.2,13
		c-0.5,2.4-1.3,7.3-4.7,5.7c-5.2-2.5-3.4-11.3-2.4-15.5c2.1-8.7,5.5-12.9,10.3-21.7c1.3-2,2.7-3.9,4-5.9
		C447.6,118.1,450.2,119.3,452.4,118z M401.2,181.6c-2.7,1-5.3-0.4-8,0.2c-2.6,0.6-4.8,2-7.5,2.1c-3.6,0.2-5.6-1.2-9.2,1
		c-3.8,2.3-5.4,7.8-9.1,11.3c-0.2-0.1-0.4-0.2-0.7-0.3c-0.3-0.2-0.6-0.5-0.9-0.7c0.8-10.7,5.1-21.1,10.5-32.3
		c1.4-2.9,4.2-10.1,6.7-11.2c0.3-0.1,0.5-0.2,0.8-0.2c2.6,2.2,2.9,4.8,4.7,7.2C393.2,165,404.8,175.3,401.2,181.6z M336.7,156
		c3.2-2.9,6.5-6.4,9.3-8.7c1.4-1.7,2.9-3.4,4.3-5.1c5.3-4.2,10.7-8.5,16-12.7c2-1.8,1.8-4,2.6-5.6c1.1-1.4,2.1-2.8,3.2-4.2
		c2.2-4.9,3.6-11.8,10.9-11c2.4,1.2,4.8,2.4,7.2,3.6c7.2,7.9,6.2,17.2,7.9,25.7c0.6,3,3.4,4.5,5.1,7.5c0.5,1.6,0.9,3.2,1.4,4.8
		c-5.4,13-10-2.5-14-7.2c-0.2-1-4.2-1.4-5.5-1.6c-1.9,1.2-4,4.5-5.7,5.7c-1.4,1-3.4,1.1-5,2.1c-2.9,1.8-8,10-8.8,12.7
		c-1.1,1.1-2.3,2.3-3.4,3.4c-0.1,2.3-0.1,4.7-0.2,7c-0.9,0.8-1.8,1.7-2.7,2.5c-0.1,1-0.3,2-0.4,3c-0.9,1.3-1.7,2.5-2.6,3.8
		c-0.5,3.5,2.4,8.2,3.2,11.6c-1.4,1.8-2.8,3.6-4.2,5.5c-2.4,1.5-8.5-0.5-9,5.1c-0.1,1.3,0.6,1.9,1.3,3.2c1.1,2,2.2,4.4,5.6,5.9
		c1.3,0.5,3.7,0.6,4.9,2.3c0.6,1.7,1.2,3.4,1.8,5.1c1.3,5.7-0.5,12.3-0.8,18.2c-0.3,6.7,1.4,13.5,0.4,20.4c-0.8,5.3-7.9,7.3-3,15.1
		c0.4,1.2,4.2,2.1,5.2,5.2c2,6.3,4.6,10,8,16.6c2.2,4.1,2.7,8.8,5.4,13.2c3.4,5.4,8.9,8.8,13.7,7.6c4.1,3.7,10.4,11.7,14.8,8.5
		c2.2-1.6,1-5,1-7c1.1-0.6,1.7-1,2.9-0.9c3,2.6,2.1,5.4,3.5,8c1.8,3.4,7.8,7.1,9.4,11.7c1.8,5.2,0.4,10.5,2.3,16
		c3.7,0.8,7-1.4,10.5-0.8c-0.1,2.7-0.3,5.4-0.4,8c-0.7,1.6-2,1.9-1.8,3.3c0.7,2.5,3.3,3.4,3.2,5.9c-0.8,12.4-10.9,10.9-17.9,15
		c-2.3,2.1-4.5,4.2-6.8,6.3c-3.2,1.7-15.3,0.9-18.8-2.5c-4.9-4.7,0.1-6.2,2.5-11.7c0.9-2,0.9-11.7,0.1-13.7c-5.5-0.7-8.9,5.1-14,8.9
		c-2.7,1.4-5.5-1.5-8.5,0.4c-0.4,1.8-0.5,3.7,0.3,5.4c-0.1,0.3-0.2,0.7-0.2,1c-1.6-0.2-16.2-0.7-17.3-0.4c-2.9,0.9-4.8,2.1-7.6,2.3
		c-4.7,0.4-9.3-0.6-13.3,2.7c-1.5-1.9-1.8-4.8-3.8-6.2c-0.5,0.2-0.9,0.4-1.4,0.6c-1.9-2.1-3.4-3.8-4.5-6.4c-0.5-1.2-0.3-3.3-1.7-4.4
		c-2.4-1.2-4.8-2.4-7.2-3.6c-2.7-19-5.8-39.6-3.6-58.9c0.7-6.4,4.7-3.9,7-8.8c1.4-3,1.1-11.3,0.8-14.6c-0.6-7.5-2.5-13.8-6.3-21.1
		c-1.5-2.5-3-5.1-4.4-7.6c-0.5-2.4-1-4.8-1.5-7.2c0.7-1.4,1.4-2.8,2.1-4.3c0.9-2.9,0.2-7.2-0.3-10.1c-0.9-5.2-4.7-14.6-3.7-18.9
		c0.8-0.3,0.1-0.7,0.6-1c-0.2,0.3,1-0.9,1.1-1.7c0.7-4.8,3.5-8.4,6.5-13.5c4.1-3.6,8.2-7.2,12.2-10.7c2.5-5,0-9.6,4.7-13.5
		C333.6,167.1,331.3,160.8,336.7,156z M191.7,310.9c2.5-2,4.5-1.1,6.8-2.1c3.6-2.6,7.3-5.1,10.9-7.7c1,0.3,2,0.7,3,1
		c5,6.7,7.1,16.8,9.3,25.4c0.8,3.1,3.5,6.5,3.3,9.7c-0.6,1.7-1.2,3.4-1.8,5.1c-1.5,2.7-8.4,7.1-10.2,7.6c-0.5-0.2-1-0.5-1.5-0.7
		c-1.2-0.1-5.3,1.2-6.4,1.6c-5.1,1.7-8,5.5-13.3,4.8c-2.7-0.4-4.8-2.7-7.7-3.7c-2.1-0.2-4.2-0.5-6.3-0.7c-0.7-0.8-1.3-1.5-2-2.3
		c0.7-3.7,3.3-9.9,5-13.2c0.9-1.8,2.5-1.7,3.5-2.4c1.8-1.4,2.9-4.9,3.3-6.5C188.4,324.3,189.6,312.6,191.7,310.9z M41.9,468.3
		c-0.5,0.1-1,0.2-1.4,0.3c-0.1-0.2-0.3-0.4-0.4-0.6c-0.6-1.5,0.7-3.6,2.4-4.3c-0.1-0.2-0.1-0.3-0.2-0.5c0.2,0.3,0.4,0.5,0.6,0.8
		c0.3,0.6,0.3,2.1,0,3.3C42.5,467.6,42.2,468,41.9,468.3z M59.4,447c0.2-0.1,0.4-0.3,0.6-0.4c0,0.1,0,0.2,0,0.3
		C59.9,446.9,59.6,446.9,59.4,447z M51.8,492.7c-0.1,0-0.2,0-0.3,0c-1.3-1.8-3.8-14.1-3.4-16.3c0.4,0.1,0.9,0.1,1.3,0.2
		c3.5,3,4.1,11.9,3.2,15.2C52.3,492.1,52.1,492.4,51.8,492.7z M65,473.7c-1.2,0.5-2.6,0.2-3.9,0c-4.1-4.4-2.2-14.5-0.1-19.6
		c0.8-0.1,1.5-0.1,2.3-0.2c3.2,3.3,7.2,8.8,11.7,8.2c0.3,0.4,0.6,0.7,0.9,1.1C76,465.2,67.2,472.8,65,473.7z M77,462.2
		c-0.1-0.1-0.1-0.1-0.2-0.1c0.5-4.7-0.5-14.2,2.9-18.5c0.3,0,0.6-0.1,1-0.1C88.9,450,88.9,463.5,77,462.2z M111,451.6
		c-2,0.2-7.6,2-9,1.5c-0.2-0.1-0.4-0.2-0.7-0.3c-0.6-2-0.4-3.2-0.1-5.2c-1.4-1.5-2.8-2.9-4.2-4.4c0.9-2.9,1.1-6.8,4.1-8.9
		c0.9,0.2,1.9,0.4,2.8,0.6c5.8,4.9,1.3,10.2,7.6,15.3c0,0.2,0,0.4,0.1,0.6C111.4,451.1,111.2,451.4,111,451.6z M117.1,447.8
		c-4.7-4.5-0.6-13.8,2.4-18.7c0.2,0.1,0.4,0.2,0.7,0.3c5.3,5.5,5.4,7.9,2.4,14.3c-0.6,1.2-1.2,2.4-1.8,3.6
		C119.6,448,118.5,448,117.1,447.8z M135.8,504.3c-7.5-6.2-3.1-17.5-2.4-24.8c0.3-3.7,0.6-9,0.1-11.3c-0.1,0-3.3-4.5-3.4-4.9
		c-0.4-1.3,0.1-2.7-1.7-4.4c0.9-0.3,0.1-0.5,0.8-0.6c0.9-1.1,0.4,0.2,1.6-0.8c1.2,4.5,5.8,11.3,9.5,16.6c3.3,1.2,5.8,4.1,6.8,6.6
		C150.5,489.2,145.9,502.2,135.8,504.3z M138.6,452.2c0.6-0.2,1.2-0.4,1.7-0.6c1.8,3.3,2.1,6.4,3,9.7c-0.1,0.2-0.3,0.4-0.4,0.5
		c-0.5,0.1-1,0.2-1.4,0.3C138.5,460.3,137.9,455.4,138.6,452.2z M357.5,504.9c-4.4,2.7-7,6.9-11.1,9c-3.2,0.4-6.3,0.9-9.5,1.4
		c-5,1.9-10,3.8-15,5.8c-3.7,0.8-10.4,0.4-14.1-0.7c-2.7-0.8-6.3-3.2-8.9-2.6c-2.5,0.5-4.2,3.1-6.7,3.1c-2.5-0.1-4.9-2.1-7.3-1
		c-2.8,1.3-6.7,5.8-9.1,5.6c-0.1,0.7-0.4,1.1,0.4,2.1c2.2,2.8,6.4,2.6,8.7,6.1c-0.4,2.3-3.2,6.5-0.1,8c2,0.6,3.7-0.8,5.7-0.7
		c2.1,1.6,4.2,3.1,6.3,4.7c-0.1,1.2-0.2,2.3-1.5,3.2c-2.2,1.1-4.4,0.2-6.6,0.8c-2.4,1.9-1.6,5.2-3.3,6.8c-2,1-4.1,2-6.1,3
		c-0.5,1.3-1,2.6-1.4,3.9c-1.2,2-2.5,3.9-3.7,5.9c-0.1,4.2-0.2,8.4-0.3,12.6c-0.6,4.3-2.3,7.8-2.2,12c0.2,5.2,2.9,10.3,4.2,15.8
		c2.3,9.5,3.6,20.8,8.1,29.8c2.7,5.5,6.7,10.5,10.2,15.4c3.7,5,18.3,16.6,23.1,19c3.9,1.8,7.8,3.5,11.7,5.3c1.2,0.2,2.4,0.4,3.6,0.6
		c9.2,4.5,15.7,8,24,8.6c2.9,0.2,20,1,20.9,2.2c0.1,0.2,0.3,0.4,0.4,0.6c-3.7,3.6-9.4,2.1-14.1,1.1c-8.8-1.8-36.5-4.3-42.9-11.8
		c-3-1.7-6-3.4-8.9-5.1c-5.3-4.6-12.4-8.7-16.1-13.4c-2.8-3.6-4.9-7.5-7.8-10.7c-4.8-5.4-10-9.2-13.3-15.6
		c-5.5-10.5-8.9-21.7-10.8-32.6c-1.4-3.7-2.8-7.4-4.3-11c-2-7.8-1.7-16.1-2-24.1c-0.6-13.5-18.7-11.9-6.3-28.3
		c2.6-0.7,9.5,3.1,12.6,3.6c0.8-1.5,1.7-2.4,2.4-4c-0.6-2.1-2.4-3.8-4.3-6c0.9-4.3,5.8-1.6,8.7-1.8c0.9-0.8,2.2-2.1,3-2.6
		c-3-4.3-6.4-4.7-10.3-7.1c5.9-3.4,10.6-5.9,12.9-14.7c-0.5-2.3-1-4.6-1.4-6.9c1.3-2.3,2.6-4.6,3.9-6.9c0.7-3.1-1.9-6-1.8-9
		c0.4-1.7,0.9-3.5,1.3-5.2c0.1-2.3-2.9-4.6-2.7-6.8c0.2-2.2,2.1-3.8,1.9-5.9c0-1.3-1.5-2.1-2.2-2.4c0.2-0.4,0.5-0.8,0.7-1.2
		c0-0.2,0-0.4-0.1-0.7c-1.1,0.7-2,2.2-3.4,2.6c0.2,1.1-0.5,0.2,0.3,1.1c-1.3,0.7-2.6,1.4-3.9,2.1c-0.3,0.2-5.7,12-5.7,12.6
		c0.3,1.4,0.7,2.8,1,4.2c-0.7,1.5-1.4,3.1-2,4.6c-0.6,2.2,2.2,7,3.2,8.7c-1.1,0.9-1.2,2.4-2.8,3c-5.1,2.1-15-2.2-16.3,5.6
		c-0.6,3.4,2.4,7,1.1,10.2c-1.9,4-14.7,5.1-18,4.7c-3-0.8-5.9-1.5-8.9-2.3c-1.9,0.1-3.8,0.2-5.7,0.4c-2.6-0.9-5.3-1.8-7.9-2.7
		c-1.7-0.2-3.4-0.4-5.1-0.7c-2.1-1.5-4.3-3-6.4-4.5c-3.5-1.5-9-2.6-12.4-6.7c-0.9-2-1.9-4-2.8-5.9c-1.4-1.2-2.7-2.5-4.1-3.7
		c-0.9-1.8,0.4-10.4-0.3-11.9c-1-1-1.9-2-2.9-3c-1-1.6,0.1-2.8-0.2-4.4c-0.3-1.8-2.8-2.4-2.7-6.1c1.2-1.7,2.4-3.4,3.6-5.1
		c0.8-0.8,2.2-0.4,3.1-1.9c0.6-1.1,0.2-2.4,1.5-3.6c1.1-0.4,2.2-0.7,3.3-1.1c3.8-2.6,4-7.5,3.5-9.9c-0.7-0.9-1.3-1.1-2.3-1.6
		c-0.7,0.4-1.5,0.8-2.2,1.2c-1-0.1-1.2,0.1-2.4-0.8c-0.3-1.8-0.6-3.7-0.8-5.5c-2.6-0.8-4.8-1.7-7.6,0.5c-0.5-0.5-0.5-0.4-1.2-0.7
		c-0.8-1.9-1.6-13.5-1.1-15.3c1.5-4.7,6.2-5.6,4.3-9.9c-3.9-0.7-8.7,3-12.4,5.5c3,7.2-3,5.6-3.8,10c-0.7,3.4,1.4,2.4-1.4,5.7
		c-1.7-0.3-3.4-0.7-5.2-1c-1.6-0.7-1.6-2.4-2.9-3c-8.5-4.2-6.2-9-8.8-15.7c-1.5-4-5.8-6.9-5.5-10.6c0.3-3.5,8.4-7.6,6.5-11.7
		c-0.3-1.7-3.9-2.7-5.1-3.6c-1.5-0.9,0.1-1.3-0.7-2.7c-1.8-1.7-3.6-3.4-5.4-5.1c-1.1-1.4-1.1-3.7-2.3-5.2c-1-0.7-2.1-1.3-3.1-2
		c-5.1-6.3-16.4-18.2-25.1-15.8c-0.2,0-0.3-0.1-0.5-0.1c0.3,1.6,2.4,2.6,3.5,4.1c4.4,5.9,10.1,11.4,13.9,17.8
		c3.6,6,7.7,12.8,10.6,18.1c2.3,3,4.6,6,6.9,9c1.7,3.3,0.1,6.4,0.7,9.2c1.2,2.8,2.4,5.6,3.5,8.3c1,3.5,0.7,8,0.6,11.5
		c-0.4,0.3-0.8,0.5-1.2,0.8c-2.1-3.5-2.5-7.8-5.1-11.1c-3.9-4.9-18.5-7.4-22.1-6.5c-1.8,1-3.5,2.1-5.3,3.1c-1.6,0.6-2.9-0.6-4.5-1.1
		c-6.3-1.8-10.6-2-14-9.8c-0.1-1.5-0.3-3-0.4-4.5c-3.3-4.8-6.5-9.6-9.8-14.5c-1-3.1-1.4-6.8-3.2-9.8c-2.3-4-4.8-7.3-6.4-11.3
		c-0.6-2.2-1.2-4.4-1.7-6.5c-1.9-1-3.8-1.9-5.7-2.9c-2.2-2.9-5.8-14.8-4.9-17.8c0.6-2,2-1.8,3-2.6c4-3,1.8-8.6,0.9-11.8
		c2.8-5.9,10.5-6.1,13.9-1.9c1,0.2,8.5,0.4,9.7,0.3c5.1-0.6,12.5-2.4,17.9,3.3c1.2,1.2,0.9,3,1.7,4.1c1,1.5,2.8,1.2,3.9,1.8
		c1.2,1.2,2.4,2.4,3.6,3.6c2.2,1,4.4,2.1,6.7,3.1c1.8,2,3.5,3.9,5.3,5.9c12.3,7.2,26.2,19.1,35.9,31.7c3.5,4.6,10.5,7.5,13,12
		c0.3,2.4,0.6,4.7,1,7.1c1.4,2.5,2.7,5.1,4.1,7.6c0.5,0.3,0.9,0.6,1.4,0.9c3.7-2.1,7.4-4.4,11.3-7.4c6.6-5.1,1.1-17.1,14.9-12.5
		c0.8-1.5,1.7-3,2.5-4.5c0.1,0.1,0.2,0.2,0.4,0.3c2.4-0.1,2.1,2.8,4.4,3.4c1.3,0.1,2.7-1.2,3.9-1.8c3.8,1.9,7.7,5.6,11.3,5.8
		c3.2,0.2,7.2-2.5,10.4-0.9c4.6,2.2,0.7,7.5,6,8.9c0.1,0,14.2-1.8,15.1-2.4c1.1-1.4,2.1-2.8,3.2-4.2c2.6-1.4,4.9-1.1,7.2-3.3
		c-2.4-5-22.5-2.3-26.8-4.1c-1.9-1.7-3.8-3.4-5.7-5c-1.6-0.4-3.1-0.8-4.7-1.2c-2.1-2.1-0.7-2.7-1.1-4.8c-0.7-1.4-1.3-2.7-2-4.1
		c0.7-4.1,1.3-8.3,2-12.4c6.5-6.4,15.8-4.9,22.8-7.9c2-3,3.6-10.3-1-12.5c-1.5-0.7-3.3-0.5-4.6-2c-1.1-2.5,0.7-5.2,1.2-7.9
		c0.5-2.3-1.7-9-2.7-11.8c-1.1-3.2-2.6-6.7-3.8-9.4c-1.5-1.6-2.9-3.2-4.4-4.8c-1.9-3.6-7.7-22.2-6.7-26.5c0.5-0.7,0.9-1.3,1.5-1.1
		c1.2-0.7,4.6,0,4.9,0.2c2.1-3.8,1.7-9-0.5-12.4c-0.9-1.4-1.9-2.8-2.8-4.2c-0.3-3.5,4.4-8.8,2.5-12c-2.2-0.4-2,0.4-3.7,0.2
		c-0.3,0-0.5-0.1-0.8-0.1c-0.7-1.5-0.8-2.8,0.1-4.4c0.1-0.2,0.3-0.4,0.4-0.5c2.4-0.5,2.7,0.3,4.7-0.9c0.1-1.3,0.2-2.6,0.3-3.9
		c-0.3-2-2-3.1-2.5-4.5c-1-2.5,0.8-10-3.2-11.3c0.2,0.2-3.5-0.1-4.8-0.7c1.4-3.8,4.8-8.4,7.5-10.5c0.4,0.1,0.9,0.1,1.3,0.2
		c2.4,2.4,0.6,7.5,1.8,10.5c1.3,3.3,7,3.7,8.2,7.4c1.6,5.1-0.8,11,0.7,16.1c0.6,2.3,7,7.7,9.6,6.8c2.7-1,1.7-9.4,1.4-11.1
		c-0.8-4.4-4.6-7.3-5.3-11.6c-0.7-4-0.7-8-1.9-12.1c-0.8-2.1-1.7-4.2-2.5-6.3c-0.3-2,0.8-2.8-0.1-4.9c-7.4-4.8-8.9,2.1-13.2,1.5
		c0,0-4-1.6-4.6-2.4c-0.4-0.5-1.8,0-2.5-0.9c-3.6-4.5-6.7-7.9-7.9-12.8c-0.7-3.2,1-4.7,2.7-8.2c3.6-7.4,6.2-10.4,14.5-9.5
		c1.6,0,3.3-0.1,4.9-0.1c2.3,1.1,4.6,2.2,6.8,3.3c3.2,4.5,7.4,7.9,6.7,13.1c-0.4,3.6-3.5,7.8-3.4,10.9c-0.4,4.1,5.5,3.9,8.2,5.3
		c2.1,1.1,2.2,3.1,3.2,4.4c1.8,2.3,3.8,2.4,5.5,3.1c0.8-0.4,0.4-0.2,1.2-1.1c-1.3-2.4-3.2-4.4-2.5-7.4c0.7-0.6,1.4-1.2,2.1-1.8
		c0.9,0.1,1.1,0,2.2,0.6c3,1,1.9,4.8,2.6,6.6c1,2.7,5.1,5.6,6.3,8.6c1.6,3.7,1.1,7.8,2,11.6c-5.1-2.3-5.3-9-10.3-13.1
		c-0.4,0-0.9,0.1-1.3,0.1c-1.6,5,4.6,10.4,6.9,15.1c1.9,3.7,1.7,7.7,2.8,11.3c2.2,7,7,12.2,10.2,19.3c1.3,2.8,2,8.1,1.5,11.1
		c-0.4,1.5-0.8,2.9-1.2,4.4c0.7,5.2,3.3,9.9,4.2,15.1c-0.3,1.9-0.5,3.7-0.8,5.6c0.9,1.9,1.8,3.9,2.7,5.8c-0.2,2.1-0.4,4.3-0.6,6.4
		c0.4,2.5,0.8,5,1.2,7.6c0,3.2-1,6.5-0.3,9.7c0.8,2.7,1.7,5.4,2.5,8.1c1.7,4,7.2,7.6,5.3,11.9c-5.1,2.1-10.5-1.5-15.5-0.4
		c-3,0.6-6.2,2.7-9.3,1.5c-3.1-1.2-3.7-5.2-6.8-6.9c-9.5-5.1-10.9-0.9-16.7,4.6c0.1,0.8,0.3,1.6,0.4,2.4c2.7,3,6.1,3.1,9.4,6.3
		c2.3,2.3,5.7,8.7,9.2,9.1c0.1,0,0.2,0,0.3,0c0.3,0.1,11.5-7.9,13.4-8.6c4.2-1.5,11.5-2.6,15.8,0c1.6,1.3,3.2,2.6,4.8,4
		c9,4.7,13.4,11.6,10.2,20.1c-2.2,5.8-12.8,5.5-17,8.6c-2,1.5-2.4,4.8-2.9,6c0.3,0.5,0.6,0.9,0.9,1.4c3,2.1,4.7,0,7.4,0.1
		c2.1,0.2,3.8,1.4,5.8,1.3c4.3-0.4,23.2-5.5,24.6-9.4c0.5,0,0.9,0.1,1.5,0c1,1.7,1,3.5,1.7,4.7c3.3,5.4,14.8,4,18,2.1
		c4.9,0.9,9,5.2,13.8,5.8c2.2,2.1,4.4,4.3,6.6,6.4c3,1.4,5.4,0,8.7,3.6c0,0.3,0.1,0.6,0.1,1c-6.1,8-6.9,11.7-2.6,22.1
		c1.1,1.9,2.2,3.8,3.3,5.7c0.5,1.9-1.3,3.7-0.5,5.6c0.8,0.6,1.6,1.2,2.4,1.7c0,0.3,0.1,0.6,0.1,1c-0.2,1.3-2.2,2-3.3,2.9
		c-2.4,2.1-3.2,9.1-1.8,11.1c-0.2,3.1-3,4.3-3,6.2c0,1.6,1.4,3,1.2,4.6c-0.5,4.8-6.9,8.7-9.2,13.6c-1.1,2.4-0.6,4.8-2.1,7.5
		C367.1,501.2,360.3,503.2,357.5,504.9z M215.5,353.4c2,0.3,4.1,0.6,6.1,0.9c1.1,2.8,1.5,5.2-1.1,8.1c-0.6,0.2-1.2,0.4-1.7,0.6
		c-1.5-0.9-5.2-3.3-5.4-3.3C212.9,357.6,215.7,353.7,215.5,353.4z M553.8,531.2c-1.2,0.8-2.4,1.6-3.5,2.4
		c-5.1,1.8-21.3-7.2-28.4-8.4c-4.8-0.8-13.7-0.4-18.6,0.1c-2.9,0.3-4.9,3.2-7.9,2.7c-1.6-0.7-3.3-1.3-4.9-2c-3-0.7-6.9-0.6-10-2.4
		c-2-1.1-1.3-3.2-3.8-4.1c-4.4-1.6-9.3,2.4-13.7,2.1c-3.7-0.3-6.8-2.7-10.7-3.3c-3.8-0.5-6.2,2.1-9.9,2.9c-2,0.4-13.5-3.3-15.7-6.2
		c-4.1-5.5-1.7-10.7-3.1-14.6c3.5-0.8,11.2-0.5,14.8-4.1c0.9-3.8,3-6.4,5.4-10.8c-1.7-5-7.9-5.9-11.2-4.2c-0.4,1.5-3.1,4.3-4.8,4.7
		c-3,1.1-6.1-2.7-8.3-5.1c0.2-3.9,0.6-8.9,5.5-13.1c1.3-1.3,2.6-2.6,3.9-3.9c2.5-5.7,5.1-11.3,7.6-17c3-6.3,7.1-12.3,9.8-18.2
		c-1-1-1.9-2-2.9-3c1.1-1.5,2.1-3,3.2-4.5c0.7-2.2,1.4-4.4,2.2-6.6c0.1,0,0.2,0,0.3,0c1.4-0.5,2.5,0.5,3.9,0c1.9-1,2.3-3.6,4.7-4.2
		c3.7-0.9,5.4,2.6,9.5,3.7c2.7,0.8,3.8-1.1,6-1.9c4.3-1.4,6.1,0.7,10.7-4.9c-0.1-1.2,0.1-1.6-1-2.4c0.1-0.1,0.2-0.2,0.3-0.4
		c-2.9-0.5-5.7,3.1-8.7,2.9c-2-0.6-4-1.2-6-1.7c-2.3,0-4.6,0-6.9,0c-3.6-0.7-8-3.2-11.5-2.4c-2.6,0.6-4.2,2.6-6.8,3.9
		c-1.3,0.4-2.5,0.9-3.8,1.3c-2.7,2.3-4.9,8.3-5.7,11.1c-0.6,2.2,0.6,4.6,0.9,6.8c-1.6,1.3-2.8,1.1-4.2,1.9
		c-4.9,2.7-5.1,8.2-4.8,11.5c-2.5,2.2-6.9,2.6-8.7,6.2c-1.9,3.7,0.2,7.5-0.8,11c-1.2,1.6-2.3,3.3-3.5,4.9
		c-4.4,15.2-7.8,19.6,0.6,34.1c-3.1,6.4-16.8-0.5-20.2-6.3c-0.5-2.3-1.1-4.7-1.6-7c-4.4-16-2.9-31,6.1-45.8c1.9-3.1,2.1-4.9,4.6-6.6
		c0-0.7,0.1-0.4-0.3-1.1c-0.3-1.9-4.5-1.4-6.2-3.4c-5.3-6.2-8-10.1-5.9-16.9c1.3-4.4,5.2-6.3,8.2-7.3c0.1-1.4,6.1-3.2,7.3-3.8
		c5-2.4,9.2-2.6,14.2-3.7c3-0.9,6-1.7,9.1-2.6c0.9,0.3,1.9,0.6,2.9,0.9c3.6,0.2,7-3.9,10.4-0.3c-0.5,1.3-1,2.8-0.6,4
		c0.2,0.3,0.4,0.5,0.6,0.8c3.7,0.2,3.4,0.5,7.3,1.6c3.1,0.1,3.5-4.1,6.1-5.1c2.3-0.7,4.3,0.8,6.8-0.3c1.6,1,4,4.1,6.6,4.3
		c5.3,0.4,11.1-2.8,16.3-3.8c3.4-0.1,6.7-0.2,10.1-0.3c7.3,8.9,8.6,12.3,6.3,22.9c0,1.4-0.1,2.7-0.1,4.1c-1.4,2-2.9,4-4.4,5.9
		c-3.7,5.7-4.3,10.6-2.4,16.2c-0.4,1.3-6.8,11.4-10.6,13c-2.3,1-7.1,0.9-9,3.6c-1.6,2.3-1,4.5-4,6.6c-2.5,1.8-5,3.6-7.5,5.4
		c-2.2,2.9-4.9,7.8-6.8,9.9c0.1,0.3,0.2,0.5,0.2,0.8c8,0.8,15.2-6.9,23.1-6.8c2.4,1.4,4.7,2.7,7.1,4.1c2.2,0.8,4.5,1.6,6.7,2.3
		c1.3-0.1,2.6-0.2,3.9-0.4c3.3,1,4.5,3.4,7.7,3.4c4.3-0.1,4.2-2.6,7.9-5.1c2.2-1.5,15.4-5.6,17.2-3c1.3,1.9-0.5,6,0.3,8.3
		c1.1,0.5,2.3,1.1,3.4,1.6c3.1-0.6,6.2-1.2,9.3-1.8c5.4,0.6,2.5,5.2-0.6,6.4c-5.3,6.5,5.5,11.6,8.6,17c0,1,0,2-0.1,2.9
		c1.5,3.2,3,6.5,4.5,9.7c1.9,2.1,6.5,2.9,8.6,4.8C563.9,528.3,557,529.8,553.8,531.2z M567.7,520.3c-3.3-2.8-8.9-9.2-8.2-12.5
		c0.2-0.3,0.4-0.7,0.6-1c6.3-1.1,10.2,0.6,16.4,2.6c1.7,2.3,2.7,9.8-1.1,11.4C572.9,521.8,569.3,519.2,567.7,520.3z M571.3,543.6
		c-6.7-0.4-10-6.5-6.4-14.6c2.2-0.3,4.1-1,6.3-0.4c0.4,0.8,2.5,1.7,3.6,1.8c0.2,0.3,0.5,0.6,0.7,0.9
		C577.3,534.5,574.8,541.1,571.3,543.6z"/>
	<path d="M496.6,409.9c-0.2,0.2-0.4,0.5-0.6,0.7c0.1,0.1,0.1,0.1,0.2,0.1c1.1,0.3,1.4,0.3,1.6-0.8
		C497.4,409.9,497,409.9,496.6,409.9z"/>
	<path d="M251.8,258.2c-0.8,0.1-0.4-0.3-1.1-0.1c-0.3,0-0.5-0.1-0.8-0.1c-2.3,2.8-1.4,8.7,1.6,10.3c0.3,0.7,1.4,0,2.1-0.4
		C252.9,264.6,255.2,262.1,251.8,258.2z"/>
	<path d="M255.9,295.2c-0.5-2.1,0.3-3.1-0.8-4.8c1.3-0.1,2-0.8,3.1-0.4c0.5-2.7,0.1-5.7-2.5-7.8c-2,0.8-2.7,1.2-4.4,3.5
		c0.2,1.7-0.4,2.1,0.3,3.2c-0.2-0.1-0.5-0.2-0.7-0.3c0.5,2.9,1.8,4.4,2.3,7.6c0.6,4.4-1.5,8,0.8,12.3c1.4-1.7,3.7-3.6,5.3-6.4
		C258.5,299.6,256.7,298.3,255.9,295.2z"/>
	<path d="M505.9,515.5c-4.1-0.5-7.3,1.5-11.2,2c-0.2,0.1-0.4,0.3-0.6,0.4c0.1,0.6,0.1,1.3,0.2,1.9c3.5,2.7,9.4,1.4,12.6,0
		c0.3-0.4,0.7-0.8,1-1.2c-0.2-0.5-0.3-1.1-0.5-1.6C506.8,516.5,506.3,516,505.9,515.5z"/>
	<path d="M254.9,308.7c-0.1-0.1-0.2-0.2-0.4-0.3C254.7,308.8,254.4,308.6,254.9,308.7z"/>
	<path d="M263,325.9c0.9-1.2,0.9-2,1.2-2.6c-0.2-3.5-4.7-4.1-6.5-6.3c-1.3-1.6-0.6-3.6-2.7-4.3c0-0.3,0.1-0.5,0.1-0.8
		c-0.4,0.3-0.1,0.5-0.5,0.2c-0.4,0.8-0.4,2.8,0,3.9c-0.3,0.8-1.9,1-2.2,2.3c-1.1,4.2,0.4,7.4,3.2,11.3c2.3,0.6,2.8,0.3,4.5-0.7
		c0.4-1.5,0.9-2.2,1.7-3.1C261.8,325.1,262.5,325.7,263,325.9z"/>
	<path d="M280,445.2c1.2-4.7,4.4-7.5,3.3-11.9c-2-1.8-3.7-0.7-5.9-1.6c-1.7-3-6.9-5.4-6.2-9.1c0.1-2,2.7-1.6,3.3-2.9
		c2.2-4.6,7.6-13.2,12.2-18.9c-3-6.3-5.3-10.1-9.6-13.7c0.5-0.2,0.3-2.3,0.8-3.8c-0.6-0.7-1.2-1.4-1.8-2.1c-1.5-0.4-2.9-0.8-4.4-1.2
		c-0.3,0.4-0.6,0.7-0.9,1.1c0.1,2.8,3,3.8,2.9,6.9c0,1.7-1.9,2.6-2.5,4.8c-0.7,2.5,2,6.7-0.8,8.9c-2.2,1.2-6.9,0.2-9.5-0.4
		c-2.6,2-2.9,4.5-4.7,7.4c2.5,3,5.7,7.3,7.1,11.6c-0.1,1.6-0.1,3.3-0.2,4.9c0.3,1.5,2,5.2,3,4.3c0.8,2.4-0.3,3.5,0.2,5.9
		c0.7,3.8,3,4.3,2.2,8.5c-1.2,0.7-2.6,1.9-3.9,1.8c-0.2,0.2-0.4,0.5-0.6,0.7c0.3,0.4,0.6,0.7,0.9,1.1c3.8,1.2,4.7,0.2,8.7,2.1
		c0.3,2.3-0.1,4.4,0.4,6.7c0.9,0.5,1.7,1,2.6,1.6c0.9-0.5,2.5-1,2.9-2.1C279.8,452.2,279.9,448.7,280,445.2z"/>
	<path d="M86.6,346.9c-0.9,0-1.8-0.8-2.7-0.7c0.1,0.7,0.2,1.4,0.3,2.1c0.7,1.6,2.8,3.5,4.4,3.7c0.1,0.1,0.2,0.2,0.4,0.3
		c0.1-0.2,0.3-0.4,0.4-0.5C89.5,349.8,88.8,348.5,86.6,346.9z"/>
	<path d="M432.8,677.9c3.2-2.4,9.6-4.5,13.7-7.1c2.5-2.4,5-4.8,7.5-7.2c1.4-0.9,4.5-1.4,5.2-3.4c-8.9,2.8-20.3,11.1-27.7,17
		c0.2,0,0.3,0.1,0.5,0.1C432.3,677.5,432.5,677.7,432.8,677.9z"/>
	<path d="M256,551.6c1.6,2.1,2.8,1.9,4.9,3.1c0.8,2.8,0.4,8.8,3.9,10.7c0.1,0,0.2,0,0.3,0c0.1,0,0.2,0,0.3,0
		c0.1-0.1,0.1-0.1,0.2-0.2c2.3-0.6,2.8-3.4,3.8-5.2c2-0.6,3.9-0.7,5.8-2.3c0.2-2.8-0.3-4.5-1.8-7.2c-0.1,0.2-0.3,0.4-0.4,0.5
		c0-0.7,0-0.3,0.4-0.9c-0.9-1.2-1.8-2.3-2.8-3.5c-0.4-0.1-0.8-0.3-1.2-0.4c-3.9,0.9-4,4.2-6.6,4.4c-1.1-1.1-1.4-1.6-0.9-2.5
		C258.4,545.1,256,548.5,256,551.6z M262.5,551c0.2,0.1,0.3,0.3,0.5,0.4c-0.6-0.2-1.1-0.3-1.7-0.5
		C261.8,550.9,262.1,550.9,262.5,551z"/>
	<path d="M262.5,551c-0.4,0-0.8,0-1.2-0.1c0.6,0.2,1.1,0.3,1.7,0.5C262.9,551.3,262.7,551.1,262.5,551z"/>
</g>
<g>
	<path d="M21.8,288.8L52,230.7c2.1-4.1,4.5-7.4,7-9.9c2.4-2.4,5-4.1,7.7-4.9c1.5-0.5,3-0.7,4.5-0.7c2.7,0,5.5,0.7,8.2,2.1
		c3.7,1.9,6.5,4.6,8,7.7c0.3,0.6,0.5,1.2,0.7,1.8c2.1-1.3,4.3-2.2,6.5-2.6c0.8-0.2,1.7-0.3,2.6-0.3c2.7,0,5.5,0.7,8.2,2.1
		c4.5,2.4,7.7,5.4,9.3,9c0.9,2,1.4,4.3,1.5,6.8c0,5-1.7,10.8-5.3,17.8L80,319.1L21.8,288.8z M77.1,309.9l27.7-53.3
		c3-5.8,4.6-10.9,4.6-14.6c0-1.5-0.3-2.7-0.8-3.9l-0.2-0.5c-1-2.1-3.2-4-6.1-5.5c-1.7-0.9-3.5-1.4-5-1.3c-0.5,0-0.9,0.1-1.4,0.2
		l-0.2,0c-3,0.4-6.1,2.7-8.3,6l-0.9,1.3l-5.7-3l0.5-1.4c0.4-1,0.5-1.9,0.5-2.9c0-1.1-0.2-2.1-0.7-3c-0.8-1.7-2.6-3.4-4.9-4.6
		c-1.7-0.9-3.3-1.3-4.9-1.3c-0.9,0-1.7,0.1-2.6,0.4c-1.7,0.5-3.3,1.6-5,3.3c-2,2-3.9,4.7-5.7,8.2l-27.1,52L77.1,309.9z M63.6,286.4
		L81,252.9c1.2-2.4,2.2-3.9,3.1-5.1c1.2-1.6,2.4-2.6,3.8-3.1c0.7-0.3,1.5-0.4,2.2-0.4c1.2,0,2.3,0.3,3.5,0.9c0.5,0.3,1.3,0.7,2,1.3
		c0.3,0.3,0.6,0.6,0.9,0.9l0.3-0.1l0.6,1.6l0.6,1.6l-0.2,0.1c0,0.2,0,0.5,0,0.7c0,1.3-0.3,2.6-0.8,4.2c-0.5,1.3-1.2,2.8-2.2,4.8
		l-17.3,33.2L63.6,286.4z M74.5,284.4l14.1-27.1c0.9-1.7,1.5-3,1.8-4c0.4-1,0.4-1.5,0.4-1.7c-0.1-0.1-0.2-0.1-0.4-0.2l-0.2-0.1
		c-0.1,0.1-0.4,0.3-0.8,0.8c-0.6,0.8-1.5,2.2-2.4,4.1l-14.3,27.4L74.5,284.4z M44.3,276.3l15.8-30.4c1-2,1.8-3.2,2.6-4.3
		c1.1-1.5,2.3-2.4,3.6-2.9c0.8-0.4,1.7-0.5,2.6-0.5c0.5,0,1.1,0.1,1.6,0.2l0,0l0.1,0c0.5,0.1,0.9,0.3,1.4,0.5l1.6,0.8l-0.1,0.1
		c0.3,0.2,0.5,0.5,0.8,0.7c0.8,0.8,1.4,1.8,1.6,2.8c0.1,0.5,0.2,1,0.2,1.5c0,1.1-0.2,2.3-0.8,3.8c-0.4,1.1-0.9,2.3-1.7,3.8l-16,30.7
		L44.3,276.3z M54.8,274.1l12.8-24.7c0.6-1.2,1.1-2.2,1.4-3c0.2-0.5,0.3-0.9,0.3-1.1l-0.3-0.2l0,0l-0.2,0c0,0-0.3,0.2-0.7,0.7
		c-0.5,0.7-1.2,1.8-2,3.3l-12.7,24.3L54.8,274.1z"/>
	<path fill="#2CB34A" d="M110.1,237.2L110.1,237.2L110.1,237.2c-1.1-2.6-3.7-4.9-7-6.6c-1.9-1-3.9-1.6-5.8-1.5h0h0
		c-0.6,0-1.2,0.1-1.7,0.2l-0.1,0l-0.1,0c-3.3,0.5-6.8,2.9-9.4,6.7l-3-1.6c0.5-1.2,0.7-2.4,0.7-3.5c0-1.3-0.3-2.6-0.9-3.7
		c-1-2-2.9-3.9-5.7-5.4c-1.8-0.9-3.7-1.5-5.8-1.5c-1,0-2,0.2-3.1,0.5c-1.8,0.6-3.7,1.7-5.7,3.7c-2,2-4,4.8-6,8.6l-27.8,53.6
		l49.1,25.5l28.5-54.8c3-5.8,4.8-11.2,4.8-15.4C111.1,240.2,110.8,238.6,110.1,237.2z M71.3,216.9c2.7,0,5.2,0.7,7.4,1.9
		c3.2,1.7,5.8,4,7.2,6.9c0.6,1.2,1,2.6,1.1,4c2.3-2,5-3.4,7.9-3.8l-0.1,0l0.1,0l-0.1,0c0.8-0.2,1.6-0.3,2.4-0.3
		c2.6,0,5.2,0.7,7.4,1.9c3.7,2,6.9,4.7,8.5,8.2c0,0,0.8,1.4,1.3,6.1c0.5,5.2-2,11-5.2,17l-30.1,57.9l-55.2-28.7l29.4-56.6
		c2.1-4.1,4.4-7.2,6.6-9.5c2.3-2.3,4.7-3.8,7.1-4.5C68.6,217.1,70,216.9,71.3,216.9 M69.7,243.6c-0.4-0.2-0.6-0.2-0.8-0.2
		c-0.2,0-0.4,0-0.7,0.2l0,0l0,0c-0.3,0.1-0.8,0.5-1.4,1.3c-0.6,0.8-1.3,2-2.1,3.5l-13.4,25.9l4.3,2.2l13.6-26.2
		c0.6-1.2,1.1-2.3,1.5-3.2c0.3-0.9,0.5-1.6,0.5-2l0-0.3l0,0l0,0v0c0-0.1-0.1-0.3-0.3-0.5C70.4,244,70.1,243.8,69.7,243.6L69.7,243.6
		L69.7,243.6 M68.9,239.9c0.9,0,1.7,0.2,2.4,0.6l0,0c0.6,0.3,1.2,0.8,1.8,1.3c0.5,0.5,1,1.2,1.2,2.1l0,0l0,0c0.1,0.3,0.1,0.7,0.1,1
		c0,1-0.3,2.1-0.7,3.2c-0.4,1.1-1,2.3-1.6,3.6L56.9,281l-10.4-5.4l15-28.9c0.9-1.6,1.6-3,2.4-4c0.8-1.1,1.7-1.9,2.9-2.4l0,0l0,0
		C67.5,240.1,68.2,239.9,68.9,239.9L68.9,239.9L68.9,239.9 M69.7,243.6L69.7,243.6 M92.5,250.7L92.5,250.7c0-0.1-0.1-0.2-0.3-0.4
		c-0.2-0.2-0.5-0.4-0.9-0.6c-0.5-0.3-0.8-0.3-1-0.3c-0.1,0-0.3,0-0.5,0.1l0,0c-0.4,0.1-0.9,0.5-1.6,1.4c-0.7,0.9-1.6,2.3-2.6,4.3
		l-15,28.9l4.7,2.4L90.1,258c0.9-1.7,1.5-3.1,1.9-4.2c0.4-1.1,0.5-1.9,0.5-2.4C92.6,251.1,92.6,250.9,92.5,250.7L92.5,250.7
		 M92.5,250.7 M90.2,246L90.2,246L90.2,246c1,0,1.8,0.3,2.7,0.7c0.6,0.3,1.1,0.6,1.6,1.1c0.5,0.4,1,1,1.2,1.8l0,0l0,0
		c0.2,0.6,0.3,1.1,0.3,1.8c0,1.1-0.3,2.3-0.7,3.6c-0.5,1.3-1.2,2.8-2.1,4.6l-16.5,31.7l-10.8-5.6l16.6-32c1.1-2.1,2-3.6,2.9-4.8
		c0.9-1.2,1.9-2.1,3.1-2.5l0,0C89.1,246.1,89.6,246,90.2,246 M71.3,213.5c-1.7,0-3.4,0.3-5,0.8c-3,0.9-5.8,2.7-8.4,5.4
		c-2.6,2.6-5.1,6.1-7.3,10.3l-29.4,56.6l-1.6,3l3,1.6l55.2,28.7l3,1.6l1.6-3l30.1-57.9c3.8-7.4,5.6-13.3,5.5-18.6
		c0-1.5-0.2-2.9-0.5-4.3l0,0l-0.9-2.9l-0.2-0.4c-1.8-4-5.2-7.3-10-9.8c-3-1.5-6.1-2.3-9.1-2.3c-1,0-2,0.1-3,0.3
		c-1.8,0.3-3.5,0.9-5.2,1.7l0-0.1c-1.6-3.4-4.7-6.4-8.7-8.5C77.3,214.2,74.3,213.4,71.3,213.5z M33.3,285.2l26.3-50.5
		c1.7-3.3,3.5-5.9,5.4-7.8c1.4-1.4,2.9-2.4,4.3-2.8c0.7-0.2,1.4-0.3,2.1-0.3c1.3,0,2.7,0.4,4.1,1.1c2,1,3.5,2.4,4.2,3.8
		c0.4,0.7,0.5,1.5,0.5,2.3c0,0.8-0.1,1.5-0.4,2.3l-1.1,2.8l2.7,1.4l3,1.6l2.7,1.4l1.7-2.5c2-3,4.7-4.9,7.1-5.3l0,0l0.1,0l0.1,0
		l0.1,0l0,0l0.1,0c0.3-0.1,0.6-0.1,1-0.1c1.3,0,2.8,0.4,4.2,1.2c2.6,1.3,4.5,3,5.3,4.7l0.1,0.3l0.1,0.3c0.4,0.9,0.5,1.9,0.5,3.1
		c0,3.5-1.5,8.2-4.4,13.8l-26.9,51.8L33.3,285.2z M69.5,236.5c-0.2,0-0.5,0-0.7,0h0h0c-1.1,0-2.1,0.2-3.2,0.7l-0.2,0.1l-2.7,1.8l0,0
		c-0.5,0.5-1,1-1.4,1.6c-0.9,1.1-1.7,2.5-2.8,4.5l-15,28.9l-1.6,3l3,1.6l10.4,5.4l3,1.6l1.6-3l15.2-29.2c0.8-1.6,1.4-2.8,1.8-4
		c0.4-1.1,0.9-2.7,0.9-4.4c0-0.6-0.1-1.2-0.2-1.8l0-0.1l0-0.1c-0.3-1.3-1-2.4-1.9-3.5C73.2,237,69.5,236.5,69.5,236.5z M90.2,246
		 M99.4,251.8c-0.4-4.1-2.5-6.4-2.5-6.4l0,0l-0.2-0.2c-0.8-0.7-1.7-1.2-2.3-1.5c-1.4-0.7-2.9-1.1-4.3-1.1h0c-0.9,0-1.9,0.2-2.8,0.5
		l-0.1,0l0,0c-1.7,0.7-3.1,1.8-4.5,3.6c-1,1.3-2,2.9-3.2,5.3l-16.6,32l-1.6,3l3,1.6l10.8,5.6l3,1.6l1.6-3l16.5-31.7
		c1.1-2,1.8-3.6,2.3-5C99.1,254.5,99.4,253.1,99.4,251.8L99.4,251.8"/>
	<path d="M114.4,214.1l3.4-2l0.4-0.3c0.3-0.2,0.6-0.5,1.1-0.8c0.9-0.7,2-1.6,3.2-2.5c2.4-1.9,5-4,6.5-5.2c1.3-1.1,2.3-2.2,2.9-3.4
		c0.5-1,0.7-1.9,0.7-2.9c0-1.5-0.6-3-1.7-4.4L108,165l22.5-18.5l25.7,31.3l0,0c3.2,4.4,5,9.5,5,14.8c0.1,9.4-5.1,18.9-14.7,26.7
		c-4.6,3.8-9.6,7.6-12.8,9.9c-1,0.7-1.6,1.1-2,1.4l-2.6,1.6L114.4,214.1z M130.5,223c0.7-0.5,1.6-1.2,2.5-1.9
		c2.3-1.7,5.7-4.3,9.1-7.1c7.9-6.5,12.3-14.1,12.2-21.4c-0.1-4.3-1.6-8.3-4.5-11.9l-20.3-24.7l-11.9,9.8l18.3,22.3
		c2.1,2.6,3.3,5.6,3.3,8.6c0,2.1-0.5,4.2-1.5,6.1c-1,2-2.6,3.9-4.6,5.6c-1.8,1.5-5.9,4.8-8.8,7.1L130.5,223z"/>
	<path fill="#2CB34A" d="M122,215.3l8.3,10.1c0.1-0.1,0.3-0.2,0.5-0.3c0.9-0.6,2.1-1.5,3.4-2.5c2.7-2,6-4.6,9.2-7.2
		c9-7.4,12.9-15.5,12.8-22.7c-0.1-4.7-1.7-9.1-4.9-12.9l-21.4-26l-14.6,12l19.4,23.6c1.7,2.1,2.9,4.7,2.9,7.6c0,1.7-0.4,3.5-1.3,5.3
		c-0.9,1.8-2.3,3.4-4.2,5C129.8,209.1,124.6,213.3,122,215.3z M130.3,148.9l23.6,28.6c3.6,4.4,5.6,9.6,5.7,15.1
		c0.1,8.5-4.5,17.5-14.1,25.4c-4.8,4-10,7.8-12.7,9.8c-0.9,0.7-1.5,1.1-1.9,1.3l-1.3,0.8l-12.6-15.4l1.7-1l0,0l0,0l0.1-0.1l0.4-0.3
		c0.3-0.2,0.7-0.5,1.1-0.9c0.9-0.7,2-1.6,3.2-2.5c2.4-1.9,5-4.1,6.5-5.2c1.6-1.3,2.7-2.7,3.3-3.9c0.7-1.3,0.9-2.5,0.9-3.7
		c0-1.9-0.8-3.8-2.1-5.4l-21.6-26.2L130.3,148.9 M130.7,144.1l-2.6,2.2l-19.8,16.3l-2.6,2.2l2.2,2.6l21.6,26.2
		c0.9,1,1.3,2.2,1.4,3.3c0,0.7-0.2,1.4-0.5,2.1c-0.5,1-1.3,1.9-2.5,2.9c-1.4,1.2-4.1,3.3-6.4,5.2c-1.2,0.9-2.3,1.8-3.2,2.5
		c-0.4,0.3-0.8,0.6-1.1,0.8l-0.3,0.2l-1.6,1l-3.4,2.1l2.5,3l12.6,15.4l1.9,2.3l2.6-1.6l1.3-0.8c0.4-0.3,1-0.7,2-1.4
		c3.2-2.3,8.3-6.1,12.9-9.9c10-8.2,15.4-18.2,15.3-28.1c-0.1-5.1-1.6-10-4.4-14.5l0,0l-2-2.7l0,0l-23.5-28.6L130.7,144.1z
		 M120.1,166.1l9.3-7.6l19.2,23.3c2.7,3.3,4.1,6.9,4.1,10.8c0.1,6.7-4,13.8-11.6,20c-3.4,2.8-6.8,5.4-9,7.1
		c-0.4,0.3-0.8,0.6-1.2,0.9l-4-4.9c2.7-2.1,5.9-4.7,7.4-6c2.2-1.8,3.9-3.9,5.1-6.1c1.1-2.2,1.7-4.6,1.7-6.9c0-3.5-1.3-6.8-3.7-9.7
		L120.1,166.1z"/>
	<path d="M194,114.8l27.8-7.9l58.4,51.6l-31.1,8.8l-8.3-7.3l-37.4,10.6l-3.5,10.6l-30.7,8.7L194,114.8z M179.8,179.9l14.8-4.2
		l3.5-10.6l44.5-12.6l8.3,7.3l15.5-4.4l-46.2-40.9l-20.7,5.9L179.8,179.9z M207.5,134.6l3.3-11l8.3,7.8l17.6,15.4l-36.5,10.3
		L207.5,134.6z M214,136.6l-3.4,10.4l12-3.4l-8.2-7.2l-0.3-0.3L214,136.6z"/>
	<path fill="#2CB34A" d="M199.1,167.4l0.3-0.9l42.7-12.1l8.3,7.3l19.4-5.5l-49.3-43.6l-22.5,6.4l-20.9,63.4l18.8-5.3L199.1,167.4z
		 M221.4,108.9l55.4,48.9l-27.2,7.7l-8.3-7.3l-39.2,11.1l-3.5,10.6l-26.7,7.6l23.5-71.3L221.4,108.9 M226.1,144.4l-10.5-9.2
		l-2.3-2.2l-0.9,3.1l-4.4,13.4L226.1,144.4z M211.6,126.8l6.3,5.9l12.9,11.3l2.4,2.1l-30.4,8.6l6.3-19.5L211.6,126.8 M222.3,105.1
		l-1.8,0.5l-26,7.4l-1.7,0.5l-0.6,1.7l-23.5,71.3l-2,6.1l6.2-1.8l26.7-7.6l1.8-0.5l0.6-1.7l2.9-8.9l35.7-10.1l6.9,6l1.4,1.2l1.8-0.5
		l27.2-7.7l6-1.7l-4.7-4.1l-55.4-48.9L222.3,105.1z M200.7,121.8l18.9-5.4l43.2,38.2l-11.6,3.3l-6.9-6l-1.4-1.2l-1.8,0.5l-42.7,12.1
		l-0.6,0.2l-1-0.3l-1.1,3.2l0,0l-1.1,3.2l0,0l-1.6,4.8l-10.8,3.1L200.7,121.8z M229.5,150.6l4.6-1.3l6.1-1.7l-4.7-4.1l-2.4-2.1
		l-12.8-11.2l-6.2-5.9l-4-3.8l-1.6,5.3l-2.5,8.4l-6.3,19.4l-2,6.1l6.2-1.7l24-6.8L229.5,150.6z M213.2,144.5l1.7-5.3l4.2,3.7
		L213.2,144.5z"/>
	<path d="M350.7,176l-13-25.5l-18.8-4.6l-5.2,21l-28-6.9l15.7-63.7l57.9,14.3c10.5,2.6,17.8,6.7,21.7,12.2c1.9,2.8,2.9,5.9,2.9,9.2
		c0,1.8-0.2,3.7-0.7,5.7c-1.2,5-3.9,9.3-7.2,11.9c-2.6,1.9-5.6,3.2-8.9,3.8l16.1,30.7L350.7,176z M370,173.8l-14.7-28l6.6,0.9
		c0.7,0.1,1.4,0.1,2,0.1c2.8,0,5.7-1,7.8-2.6l0,0c2-1.5,3.9-4.7,4.7-8.1c0.4-1.5,0.5-2.8,0.5-4c0-2.1-0.5-3.7-1.7-5.4
		c-2.8-3.9-9.1-7.3-17.7-9.4l-51.2-12.7L294,155l14.8,3.6l5.2-21l28.4,7l13,25.5L370,173.8z M354.6,140.8c-1.5,0-3.1-0.2-5.4-0.8
		l-33.9-8.4l3.9-15.9l33.5,8.3c1.7,0.4,3.6,1,5.3,2c1.8,1,3,2.5,3.7,4.3c0.3,0.8,0.4,1.6,0.5,2.5c0,0.7-0.1,1.4-0.3,2.1
		c-0.3,1.1-0.8,2.6-2.1,3.9c-0.6,0.7-1.5,1.2-2.4,1.6C356.6,140.7,355.7,140.8,354.6,140.8L354.6,140.8z M350.9,133.4
		c2,0.5,3.1,0.6,3.6,0.6c0.4,0,0.6-0.1,0.6-0.1c0.1-0.1,0.2-0.2,0.3-0.7l0.1-0.4l0-0.2c-0.1-0.2-0.2-0.5-0.8-0.8
		c-0.5-0.3-1.4-0.7-3.4-1.2l-26.8-6.6l-0.7,2.6L350.9,133.4z"/>
	<path fill="#2CB34A" d="M376.8,125.7L376.8,125.7c-2.7-3.9-8.7-7.7-18.7-10.1l-52.9-13.1l-13.3,53.7l18.1,4.5l5.2-21l26,6.4
		l13,25.5l19.1,4.7l-14.9-28.4l3.3,0.5c0.8,0.1,1.6,0.2,2.3,0.2h0c3.6,0,6.7-1.4,8.8-3l0,0c2.3-1.7,4.4-5.1,5.3-9
		c0.4-1.6,0.6-3.1,0.6-4.5C378.7,129.6,378.1,127.6,376.8,125.7L376.8,125.7L376.8,125.7z M302.7,98.4l56.2,13.9
		c10.5,2.6,17.2,6.6,20.7,11.5l0,0l0,0c1.6,2.4,2.5,5.2,2.6,8.2c0,1.7-0.2,3.4-0.7,5.3c-1.1,4.6-3.5,8.6-6.6,10.9l0,0
		c-2.6,1.9-6.2,3.5-10.5,3.6l-0.3,0l0.3,0l15.5,29.5l-28-6.9l-13-25.5l-21.2-5.2l-5.2,21l-24.7-6.1L302.7,98.4 M357,132.1L357,132.1
		c-0.3-0.7-0.7-1.2-1.5-1.7c-0.8-0.5-2.2-1-3.9-1.4l-28.5-7l-1.5,6l28.9,7.1c1.8,0.5,3.2,0.6,4.1,0.6h0c0.5,0,0.9-0.1,1.2-0.2
		c0.3-0.1,0.4-0.2,0.6-0.4l0,0l0,0c0.3-0.3,0.5-0.8,0.7-1.4l0,0c0.1-0.3,0.1-0.6,0.1-0.8C357.1,132.6,357.1,132.4,357,132.1
		L357,132.1L357,132.1z M320.6,117.8l31.8,7.9c1.9,0.5,3.5,1,4.8,1.8c1.3,0.8,2.4,2,3,3.5l0,0l0,0c0.2,0.6,0.3,1.2,0.3,1.8
		c0,0.5-0.1,1.1-0.2,1.6v0c-0.2,0.8-0.6,2-1.6,3.1l0,0l-0.1,0.1l0,0c-0.5,0.5-1.1,0.9-1.8,1.2c-0.7,0.3-1.5,0.4-2.3,0.4
		c-1.4,0-3-0.3-4.9-0.7l-32.2-8L320.6,117.8 M300.2,94.2l-0.8,3.3l-14.9,60.4l-0.8,3.3l3.3,0.8l24.7,6.1l3.3,0.8l0.8-3.3l4.4-17.6
		l16.3,4l12.3,24.1l0.7,1.4l1.5,0.4l28,6.9l7.4,1.8l-3.5-6.7l-13.3-25.3c2.7-0.7,5.2-1.9,7.3-3.6l0.1,0l0.1,0
		c2.9-2.2,5.2-5.5,6.7-9.5l0,0l1-3.3l0.6-3.4l0,0c0.1-1,0.2-1.9,0.2-2.8c0-3.7-1.1-7.1-3.2-10.1l0,0l0,0
		c-4.1-5.8-11.7-10.2-22.7-12.9l-56.2-13.9L300.2,94.2z M296,153.7l11.6-47.1l49.6,12.3c11.1,2.7,15.2,6.6,16.7,8.8
		c0.9,1.4,1.3,2.7,1.4,4.5c0,1-0.1,2.2-0.4,3.5l0,0.1l0,0.1c-0.8,3.4-2.6,5.9-4,7c-0.9,0.7-3.3,2.2-6.8,2.3c-0.6,0-1.2,0-1.8-0.1
		l-3.3-0.5l-6.6-0.9l3.1,5.9l11.4,21.7l-10.3-2.5l-12.3-24.1l-0.7-1.4l-1.5-0.4l-26-6.4l-3.3-0.8l-0.8,3.3l-4.4,17.6L296,153.7z
		 M318.1,113.7l-0.8,3.3l-3.1,12.6l-0.8,3.3l3.3,0.8l32.2,8c2.4,0.6,4.2,0.9,5.8,0.8c1.3,0,2.4-0.2,3.5-0.6c1.1-0.4,2.2-1.1,3.1-2
		c0.5-0.5,0.9-1,1.2-1.5l0,0l1.3-3.2l0,0l0.2-3.4l0,0c-0.1-0.7-0.2-1.4-0.5-2c-0.8-2.2-2.4-4-4.5-5.3c-1.9-1.1-4-1.7-5.8-2.2
		l-31.8-7.9L318.1,113.7z"/>
	<path d="M432.5,229.5l-4.6-44.7l-20.1,21.8l-20.7-19.1l44.5-48.2l20.2,18.6l4.5,43.4l19.6-21.2l20.5,18.9l-44.5,48.2L432.5,229.5z
		 M451.5,237.7l35.2-38.2l-10.5-9.6L451,217.2l-5.8-55.9L431.9,149l-35.2,38.2l10.6,9.8l25.8-27.9l5.9,57.2L451.5,237.7z"/>
	<path fill="#2CB34A" d="M451.6,240.1l37.5-40.7l-13-12l-23.8,25.8l-5.5-52.8l-15-13.9l-37.5,40.7l13.1,12.1l24.4-26.4l5.6,54
		L451.6,240.1z M431.6,141.8l18.5,17.1l4.8,46.6l21-22.8l18,16.6l-41,44.4l-1.2,1.3l-17.7-16.3l-4.9-47.8l-21.5,23.4l-18.2-16.8
		L431.6,141.8 M431.4,136.9l-2.3,2.5L387,185.2l-2.3,2.5l2.5,2.3l18.2,16.8l2.5,2.3l2.3-2.5l16.4-17.8l4.2,40.2l0.1,1.3l1,0.9
		l17.7,16.3l2.5,2.3l1.2-1.3l2.3-2.5l0.1-0.1l2.3-2.5l38.7-41.9l2.3-2.5l-2.5-2.3l-18-16.6l-2.5-2.3l-2.3,2.5l-15.8,17.2l-4-39
		l-0.1-1.3l-0.9-0.9L434,139.3L431.4,136.9z M399.1,187.1l32.9-35.6l11.6,10.7l5.3,51.5l0.8,7.5l5.1-5.6l21.5-23.3l7.9,7.3
		l-32.9,35.6l-10.7-9.9l-5.4-52.7l-0.8-7.5l-5.1,5.6l-22,23.9L399.1,187.1z"/>
	<path d="M460.8,259.9l61.7-22.3l27.1,74.7l-21,7.6l-0.4-1.2l-19.7,7.2l0.7,1.8l-20.9,7.6L460.8,259.9z M492.1,326.5l8.1-2.9
		l-17.6-48.5l12.7-4.6l16.9,46.6l7.4-2.7l-16.9-46.6l12.6-4.6l17.3,47.8l8.1-2.9l-22.4-61.8L469.5,264L492.1,326.5z"/>
	<path fill="#2CB34A" d="M491.1,328.7l11.3-4.1l-17.6-48.5l9.4-3.4l16.9,46.6l10.6-3.8l-16.9-46.6l9.4-3.4l17.3,47.8l11.4-4.1
		l-23.6-65l-52,18.8L491.1,328.7z M490.7,332.5l-1.6,0.6l-26.1-72.1l58.5-21.2l25.9,71.5l-17.8,6.4l-17.3-47.8l-2.9,1.1l16.9,46.6
		l-17,6.2l-16.9-46.6l-3,1.1l17.6,48.5L490.7,332.5 M523.5,235.4l-3.2,1.2l-58.5,21.2l-3.2,1.2l1.2,3.2l26.1,72.1l1.2,3.2l3.2-1.2
		l1.5-0.5l0.1-0.1l16.1-5.8l3.2-1.2l-0.7-1.8l16.5-6l0.4,1.2l3.2-1.2l17.8-6.4l3.2-1.2l-1.2-3.2l-25.9-71.5L523.5,235.4z M471.7,265
		l45.6-16.5l21.2,58.6l-4.9,1.8l-16.2-44.6l-1.2-3.2l-3.2,1.2l-9.4,3.4l-3.2,1.2l1.2,3.2l15.7,43.4l-4.1,1.5l-15.7-43.4l-1.2-3.2
		l-3.2,1.2l-9.4,3.4l-3.2,1.2l1.2,3.2l16.4,45.2l-4.9,1.8L471.7,265z"/>
	<path d="M334.1,571.4l23.8-11.3l43.1,12.4l-12.8-26.8l25.4-12.1l28.2,59.2L417,604.6l-42-12l12.4,26.1l-25.2,12L334.1,571.4z
		 M365.5,621.5l12.8-6.1l-16-33.6l54.1,15.5l16.3-7.8l-22.3-46.9l-13,6.2l16.3,34.3l-55.2-15.8l-15.3,7.3L365.5,621.5z"/>
	<path fill="#2CB34A" d="M340.9,573.8l23.8,50l15.9-7.6l-15.1-31.7l51,14.6l18.5-8.8l-23.8-50l-16.1,7.7l15.4,32.5l-52.2-15
		L340.9,573.8z M412.9,535.8l26.7,56.2l-22.7,10.8l-45-12.9l13.3,28l-22.1,10.5l-26-54.6l-0.7-1.5l21.7-10.3l46.2,13.2l-13.6-28.7
		L412.9,535.8 M414.5,531.2l-3.1,1.5l-22.3,10.6l-3.1,1.5l1.5,3.1l10.4,21.9L359,558.6l-1.2-0.4l-1.2,0.6l-21.7,10.3l-3.1,1.5
		l1.5,3.1l0.7,1.5v0l26,54.6l1.5,3.1l3.1-1.5l22.1-10.5l3.1-1.5l-1.5-3.1l-10-21.1l37.7,10.8l1.2,0.4l1.2-0.6l22.7-10.8l3.1-1.5
		l-1.5-3.1L416,534.3L414.5,531.2z M399.7,549.6l10-4.7l20.8,43.8l-14.2,6.8l-49.8-14.2l-7.3-2.1l3.2,6.8l13.6,28.6l-9.8,4.6
		l-20.8-43.8l13.2-6.3l51,14.6l7.3,2.1l-3.3-6.8L399.7,549.6z"/>
	<path d="M292.6,639.8l-22-23.8l-24,21.6l-35-1.6l45.9-42.1l1-21.3l28.8,1.4l-1,21.2l41.9,46.3L292.6,639.8z M312.2,633.9
		l-32.7-36.2l0.8-17.2l-15.2-0.7l-0.8,17.3l-35.9,32.9l15.8,0.7l26.9-24.2l24.6,26.6L312.2,633.9z"/>
	<path fill="#2CB34A" d="M224.1,631.4l20.6,1l26.2-23.6l24,25.9l21.3,1l-35-38.8l0.9-18.2l-18.6-0.9l-0.9,18.3L224.1,631.4z
		 M260.2,574.3l25.4,1.2l-1,20.2l39.6,43.8l-30.9-1.5l-22.6-24.5L246,635.9l-30.2-1.4l43.4-39.8L260.2,574.3 M216.7,629l-3.3,3
		l-6.1,5.5l8.2,0.4l0.7,0l3.3,0.2l0.2,0l3.4,0.2l22.7,1.1l1.4,0.1l1-0.9l22.2-20l20.3,22l1,1l1.4,0.1l30.9,1.5l8.2,0.4l-5.5-6.1
		l-38.6-42.8l0.9-18.8l0.2-3.4l-3.4-0.2l-25.4-1.2l-3.4-0.2l-0.2,3.4l-0.9,18.9L219,626.9L216.7,629z M232.5,628.4l32.4-29.7l1-1
		l0.1-1.4l0.7-14.9l11.8,0.6l-0.7,14.8l-0.1,1.4l0.9,1l29.5,32.7l-11.7-0.5l-23-24.9l-2.3-2.5l-2.5,2.3l-25.2,22.6L232.5,628.4z"/>
	<path d="M180.3,613.6c-10.1,0.1-21.6-3.6-34.2-11c-10.7-6.3-18.7-13.1-23.7-20.4c-4.2-6-6.3-12.4-6.4-18.9c0-0.9,0-1.7,0.1-2.5
		c0.4-4,1.8-7.1,2.3-8.1l1.6-3.5l25.5,15l-0.6,2.5c0,0.1-0.1,0.5-0.1,0.8c0,0.2,0,0.5,0.1,0.7l0,0.2c0.1,0.6,0.5,2.7,3.1,5.8
		c2.4,2.8,5.9,5.6,10.2,8.1c5.9,3.5,11.5,5.4,15.7,5.3c1.8,0,3.3-0.4,4.5-1c0.9-0.5,1.8-1.4,2.6-2.8c0.7-1.2,1-2.3,1-3.4
		c-0.1-2.3-1.4-5-3.8-7.7c-2.4-2.7-5.8-5.4-9.8-7.7c-3.4-2-6.4-3.5-9-4.5c-2.7-1-5-1.5-6.9-1.5c-1.2,0-2.2,0.2-3.1,0.7l-0.2,0.1
		l-0.1,0.1l-0.3,0.4l-1.8,2.5l-26.2-15.3l2.5-3.1c0.9-1.1,1.8-2.1,2.7-3c1.4-1.4,2.6-2.5,3.7-3.2c4.7-3.3,10.3-5,16.4-5
		c9.7-0.1,21,3.7,34.5,11.7c9.5,5.6,16.9,11.5,22,17.8c4.9,6,7.8,12.3,8.3,18.7c0.1,0.7,0.1,1.4,0.1,2.1c0.1,5.3-1.4,10.6-4.2,15.6
		l-0.2,0.3c-3.3,5.6-7.8,9.7-13,12C189.5,612.6,185,613.5,180.3,613.6L180.3,613.6z M122.9,561.3c0,0.6-0.1,1.3-0.1,1.9
		c0.1,5.2,1.8,10.1,5.2,15.1c4.4,6.4,11.6,12.6,21.5,18.4c11.5,6.8,21.9,10.1,30.7,10c3.9,0,7.4-0.8,10.6-2.1l0,0
		c3.9-1.7,7.3-4.9,9.9-9.2c2.4-4,3.5-8.2,3.5-12.4c0-0.5,0-1-0.1-1.6c-0.5-5-2.8-10-6.8-15c-4.6-5.6-11.4-11.1-20.2-16.2
		c-12.3-7.2-22.7-10.8-30.9-10.7c-4.8,0.1-9,1.3-12.6,3.8c-0.6,0.4-1.4,1.1-2.2,1.9l14.3,8.4c0.3-0.2,0.6-0.4,1-0.5
		c1.7-0.8,3.7-1.3,5.9-1.3c2.8,0,5.9,0.6,9.4,2c3,1.1,6.3,2.8,10,5c4.6,2.7,8.6,5.9,11.5,9.1c3.5,4,5.4,8.1,5.5,12.1
		c0,2.4-0.6,4.8-2,7.1c-1.4,2.5-3.1,4.2-5.2,5.3c-2.2,1.2-4.8,1.9-7.7,1.9c-5.6,0-12.1-2.1-19.3-6.3c-5-2.9-9-6.1-11.9-9.5
		c-2.7-3.1-4.3-6.2-4.7-9.1c-0.1-0.5-0.2-1.1-0.2-1.7l-14.6-8.6C123.1,559.9,123,560.6,122.9,561.3z"/>
	<path fill="#2CB34A" d="M125,547.7l-1.7-1l1.3-1.5c0.6-0.8,1.6-1.8,2.6-2.9c1-1.1,2.2-2.2,3.4-3l0,0l0,0c4.4-3,9.5-4.7,15.4-4.8h0
		c9.2-0.1,20.1,3.6,33.6,11.4c9.6,5.6,16.7,11.5,21.5,17.4c4.8,5.9,7.4,11.9,8,17.7v0l0,0c0.1,0.7,0.1,1.3,0.1,2
		c0.1,5.1-1.3,10.2-4.2,15l0.2-0.3l-0.2,0.3c-3,5.1-7.2,9.1-12.3,11.3l0,0c-3.7,1.6-7.9,2.5-12.5,2.6h0c-9.3,0.1-20.4-3.2-33.3-10.8
		h0c-11.4-6.7-18.7-13.4-23.1-19.9c-4.4-6.5-6-12.6-6.1-17.9c0-0.8,0-1.6,0.1-2.4l0,0l0,0c0.3-3.3,1.5-6.1,2.1-7.5l0.8-1.7
		l22.8,13.4l-0.3,1.2c-0.1,0.3-0.1,0.8-0.1,1.3c0,0.3,0,0.7,0.1,1l0,0.1l0,0.1c0.2,1.6,1.3,3.9,3.5,6.6c2.3,2.6,5.7,5.6,10.6,8.5
		l0,0c6.3,3.7,12.1,5.6,16.6,5.6l0,0c2.1,0,3.8-0.5,5.3-1.3l0,0l0,0c1.2-0.6,2.2-1.7,3.2-3.4v0c0.9-1.5,1.3-2.9,1.3-4.3v0
		 M180.9,591c-2,1.1-4.4,1.7-6.9,1.7h0c-5.5,0-11.8-2.2-18.4-6l0,0c-5.2-3-8.9-6.2-11.5-9.2c-2.5-3-3.9-5.8-4.3-8.3l0,0l0-0.1l0,0
		l0,0.1c-0.1-0.6-0.2-1.1-0.2-1.6c0-0.3,0-0.5,0-0.8l0,0l0,0l0,0c-0.1,0.4,0-0.5,0,0l-17.4-10.2c-0.5,1.3-0.9,2.9-1.1,4.6l0,0l0,0
		l0,0c0,0.7-0.1,1.4-0.1,2.1c0.1,4.7,1.4,10.1,5.5,16c4.1,5.9,10.9,12.4,22,18.9c12.6,7.4,23.1,10.4,31.6,10.3h0
		c4.2,0,7.9-0.9,11.2-2.3l0,0c4.3-1.9,8-5.3,10.7-9.9c2.6-4.4,3.8-8.8,3.7-13.2c0-0.6,0-1.1-0.1-1.7l0,0c-0.5-5.1-2.7-10.4-7.2-15.9
		c-4.5-5.5-11.2-11.1-20.6-16.6c-13.1-7.7-23.6-11.1-31.8-11h0c-5.3,0.1-9.7,1.5-13.6,4.1l0,0l0,0c-0.8,0.5-1.9,1.5-2.8,2.5
		c-0.4,0.4-0.8,0.8-1.1,1.2l17.1,10l0,0c-0.4,0.4,0.3-0.3,0,0l0,0l0,0l0,0c0.4-0.4,0.9-0.7,1.5-1l-0.1,0l0.1-0.1l0,0l-0.1,0
		c1.6-0.8,3.4-1.1,5.2-1.2h0c2.8,0,5.7,0.7,8.8,1.9c3.1,1.2,6.4,2.9,9.8,4.9c4.2,2.5,8.1,5.4,11.1,8.8c2.9,3.3,5,7,5.1,11v0v0
		c0,2.1-0.6,4.1-1.7,6.1l0,0C184.2,588.3,182.8,589.9,180.9,591L180.9,591L180.9,591L180.9,591z M183.7,580.2L183.7,580.2
		c-0.1-2.8-1.6-5.9-4.2-8.8c-2.6-3-6.3-5.8-10.2-8.1c-3.3-1.9-6.4-3.5-9.3-4.6c-2.8-1.1-5.4-1.7-7.5-1.6h0c-1.5,0-2.7,0.3-3.8,0.8
		l-0.1,0l-0.1,0c-0.1,0.1-0.4,0.2-0.6,0.4c-0.2,0.2-0.4,0.4-0.6,0.6l-0.9,1.2L125,547.7 M146,531c-5.2,0.1-10.1,1.3-14.4,3.6
		l-0.1-0.1l-2.3,1.6c-0.2,0.1-0.3,0.2-0.5,0.3v0c-1.2,0.8-2.4,1.9-3.9,3.4c-0.9,0.9-1.8,2-2.8,3.1l-1.3,1.5l-2.5,3.1l0.5,0.3
		l-1.1,2.3l-0.8,1.7c-0.5,1.1-2,4.4-2.4,8.6l0,0l0,0c-0.1,0.9-0.1,1.8-0.1,2.7c0.1,6.8,2.3,13.5,6.7,19.8
		c5.1,7.5,13.3,14.5,24.2,20.9c12.9,7.6,24.7,11.3,35.1,11.2c5-0.1,9.7-1,13.9-2.8c5.6-2.5,10.4-6.9,13.8-12.7l0.2-0.3h0
		c3-5.3,4.5-10.8,4.5-16.5c0-0.7,0-1.4-0.1-2.1l0,0l0-0.1c-0.6-6.7-3.6-13.3-8.7-19.6c-5.2-6.4-12.8-12.5-22.5-18.2
		C167.5,534.8,156,530.9,146,531L146,531L146,531z M150.1,561c0.7-0.3,1.4-0.5,2.3-0.5c1.7,0,3.8,0.5,6.3,1.4c2.5,1,5.4,2.4,8.8,4.4
		c3.8,2.2,7.2,4.9,9.4,7.4c2.1,2.4,3.3,4.7,3.4,6.6c0,0.6-0.1,1.3-0.8,2.5l0,0c-0.6,1.1-1.3,1.8-1.9,2.1l-0.1,0.1l0,0
		c-0.9,0.5-2.1,0.7-3.5,0.8c-3.9,0-9.3-1.8-14.9-5.1c-5.2-3-8.2-5.9-9.7-7.7c-1.8-2.1-2.6-3.9-2.7-4.8l0-0.1l0-0.2l0,0l0-0.1l0-0.3
		c0-0.2,0-0.4,0-0.4l0.3-1.2l0.3-1.2l0.2,0.1l1.8-2.5L150.1,561L150.1,561z M192.7,564.1c1.1,1.2,2.2,2.3,3.2,3.5
		c3.8,4.7,6,9.4,6.5,14c0,0.5,0.1,0.9,0.1,1.4c0,3.9-1.1,7.7-3.2,11.5c-2.3,4-5.5,6.9-9.1,8.5c-3,1.3-6.3,1.9-9.9,2
		c-8.5,0.1-18.5-3.2-29.8-9.8c-9.6-5.6-16.7-11.7-21-17.9c-3.2-4.7-4.8-9.3-4.9-14.1c0-0.5,0-0.9,0-1.4l11.7,6.9
		c0,0.4,0.1,0.7,0.2,1.1c0.5,3.2,2.2,6.5,5.1,9.9c3,3.6,7.2,6.9,12.4,9.9c7.5,4.4,14.3,6.6,20.2,6.5c3.2,0,6.1-0.7,8.5-2.1l0.2-0.1
		l2.6-1.9l0,0c1.1-1.1,2.1-2.4,3-3.9l0.2-0.3l0,0c1.4-2.4,2-5,2-7.5v0l0-0.1c-0.1-1.9-0.4-3.8-1.2-5.7L187,570
		c-0.7-1.1-1.5-2.1-2.4-3.1c-3-3.4-7.1-6.6-11.9-9.5c-3.9-2.3-7.2-3.9-10.3-5.1c-3.8-1.4-7.1-2.1-10.1-2.1c-2.4,0-4.6,0.5-6.6,1.5
		l-0.2,0.1l-11.4-6.7l0.3-0.2c3.5-2.4,7.3-3.5,11.7-3.6c7.9-0.1,18,3.4,30.1,10.5c6,3.5,11.1,7.2,15.1,11"/>
</g>
</svg>
