<?xml version="1.0" encoding="utf-8"?>
<!-- Generator: Adobe Illustrator 17.1.0, SVG Export Plug-In . SVG Version: 6.00 Build 0)  -->
<!DOCTYPE svg PUBLIC "-//W3C//DTD SVG 1.1//EN" "http://www.w3.org/Graphics/SVG/1.1/DTD/svg11.dtd">
<svg version="1.1" id="Layer_1" xmlns="http://www.w3.org/2000/svg" xmlns:xlink="http://www.w3.org/1999/xlink" x="0px" y="0px"
	 viewBox="0 0 387.6 41.5" enable-background="new 0 0 387.6 41.5" xml:space="preserve">
<g>
	<path fill="#010101" d="M44.8,41.5H0V0h43.8C50.1,0,54,1.5,56.2,3.7c1.9,1.9,2.6,4.3,2.6,6.7c0,2.4-0.6,4.5-1.8,6.1
		c-1.2,1.5-3,2.7-5.3,3c3.5,0.4,6.5,1.9,8.1,4.2c1.3,1.5,1.9,3.8,1.9,5.9c0,2.8-0.6,5.4-2.1,7.3C57,40.2,51.5,41.5,44.8,41.5z
		 M41.8,10.9c-0.8-0.7-2.4-1-4.9-1H15.1v5.8h22c2.3,0,4-0.2,4.8-0.9c0.5-0.5,0.7-1.3,0.7-2.1C42.7,12.1,42.5,11.5,41.8,10.9z
		 M45.9,28.4c0-0.8-0.2-1.4-0.7-1.9c-0.9-0.8-2.5-1.1-5.8-1.1H15.1v6.2h24c3.5,0,5.3-0.3,6.2-1.3C45.8,29.8,45.9,29.2,45.9,28.4z"/>
	<path fill="#010101" d="M78.6,42.1c-5.8,0-11.9-0.4-12.8-0.5V30c0.7,0.1,7.7,0.2,10.4,0.2c5.9,0,8.2-3.7,8.2-7.4V0h15.7v25
		C100.1,34.6,92.5,42.1,78.6,42.1z"/>
	<path fill="#010101" d="M119.1,41.5h-16.7l28-41.5h17.8l26.7,41.5h-17.1l-4.2-6.5h-30.1L119.1,41.5z M140.9,14.9l-2.1-3.6l-2.3,3.6
		l-6.8,10.1h17.8C147.6,25.1,140.9,14.9,140.9,14.9z"/>
	<path fill="#010101" d="M235.7,20c-1.6,2-4.4,3.9-8,4.2L243,41.5h-17.2l-13.2-15.2h-17.2v15.2h-15.6V0h39.7
		c7.5,0,12.5,1.6,15.3,4.1c2.1,1.9,3.2,4.5,3.2,8.1C238.1,15.2,237.2,18.2,235.7,20z M222.6,12.1c-1-1.4-2.6-1.8-5.3-1.8h-21.9V17
		h22.2c3,0,4.4-0.4,5-1.5c0.4-0.6,0.4-1.2,0.4-1.8C223.1,13.1,223,12.5,222.6,12.1z"/>
	<path fill="#010101" d="M290.9,41.5l-27.1-23.9v23.9h-15V0h16.1l26.4,23.3V0h14.9v41.5H290.9z"/>
	<path fill="#010101" d="M316.7,41.5V0H368v10.9h-35.9v4.6h35v10.4h-35v4.7h36.4v10.9H316.7z"/>
</g>
<g>
	<defs>
		<rect id="SVGID_1_" x="372.9" y="-1" width="15" height="25.8"/>
	</defs>
	<clipPath id="SVGID_2_">
		<use xlink:href="#SVGID_1_"  overflow="visible"/>
	</clipPath>
	<path clip-path="url(#SVGID_2_)" fill="#010101" d="M380.5,12.3v1.9c1,0,2-0.2,3-0.6c1.4-0.6,2.5-1.5,3.3-2.8c0.4-0.6,0.7-1.3,1-2
		c0.2-0.7,0.3-1.5,0.3-2.3c0-1-0.2-2-0.6-3c-0.6-1.4-1.5-2.5-2.8-3.3c-0.6-0.4-1.3-0.7-2-1C382-0.9,381.3-1,380.5-1
		c-1,0-2,0.2-3,0.6c-1.4,0.6-2.5,1.5-3.3,2.8c-0.4,0.6-0.7,1.3-1,2c-0.2,0.7-0.3,1.5-0.3,2.3c0,1,0.2,2,0.6,3
		c0.6,1.4,1.5,2.5,2.8,3.3c0.6,0.4,1.3,0.7,2,1c0.7,0.2,1.5,0.3,2.3,0.3V12.3v-1.9c-0.5,0-1-0.1-1.5-0.3c-0.7-0.3-1.3-0.8-1.7-1.4
		c-0.2-0.3-0.4-0.6-0.5-1c-0.1-0.4-0.2-0.7-0.2-1.1c0-0.5,0.1-1,0.3-1.5c0.3-0.7,0.8-1.3,1.4-1.7c0.3-0.2,0.6-0.4,1-0.5
		c0.4-0.1,0.7-0.2,1.1-0.2c0.5,0,1,0.1,1.5,0.3c0.7,0.3,1.3,0.8,1.7,1.4c0.2,0.3,0.4,0.6,0.5,1c0.1,0.4,0.2,0.7,0.2,1.1
		c0,0.5-0.1,1-0.3,1.5c-0.3,0.7-0.8,1.3-1.4,1.7c-0.3,0.2-0.6,0.4-1,0.5c-0.4,0.1-0.7,0.2-1.1,0.2V12.3z"/>
</g>
<rect x="378.6" y="12.2" fill="#010101" width="3.8" height="12.6"/>
<polyline fill="#010101" points="373.4,20.7 387.6,20.7 387.6,16.9 373.4,16.9 "/>
</svg>
