<?xml version="1.0" encoding="utf-8"?>
<!-- Generator: Adobe Illustrator 18.0.0, SVG Export Plug-In . SVG Version: 6.00 Build 0)  -->
<!DOCTYPE svg PUBLIC "-//W3C//DTD SVG 1.1//EN" "http://www.w3.org/Graphics/SVG/1.1/DTD/svg11.dtd">
<svg version="1.1" id="Layer_1" xmlns="http://www.w3.org/2000/svg" xmlns:xlink="http://www.w3.org/1999/xlink" x="0px" y="0px"
	 viewBox="0 0 612 792" enable-background="new 0 0 612 792" xml:space="preserve">
<path fill="#FFFFFF" d="M612,379.3v-17.7h-58.6c-20.7,0-32.3,6.3-37.6,16.3c-1.5,2.7-2.3,5.5-3,8.7h-7.3
	c-4.7-17.3-22.8-25.2-47.5-25.2c-28,0-46.6,8.2-50.1,25.2h-17.7c0.3-1.5,0.5-3.2,0.5-5c0-6-1.8-10.3-5.3-13.5
	c-4.8-4.2-13.2-6.8-25.5-6.8h-66.1v25.2h-18.8c-4.7-17.2-22.8-25-47.5-25c-28,0-46.6,8.2-50.1,25.2h-16.5v-25.2h-26.3v25.2h-35
	c-0.7-3.2-1.7-6.2-3-8.8c-5.5-10-17.2-16.3-37.8-16.3H0v69.1h58.6c20.8,0,32.5-6.7,37.8-17.7c1-2.2,1.8-4.7,2.5-7.2h33.8
	c-2,3.5-5.8,6-12.2,6c-4.5,0-16-0.2-17.3-0.3v19.3c1.3,0.2,11.7,0.8,21.3,0.8c22,0,34.3-11,35.6-25.8h16c0,8.5,0,18.8,0,23.3
	c0,1.5,0,2.5,0,2.5h25.8c0,0,0-1,0-2.5c0-4.7,0-15.3,0-23.3h47.5c0,8.2,0,18.7,0,23.3c0,1.5,0,2.5,0,2.5h26.2c0,0,0-1,0-2.5
	c0-4.7,0-15.3,0-23.3h17.5v24.8h26v-24.8h29l21.5,24.8h28.7l-22-24.8h30.5c0,11.3,0,25.8,0,25.8h25.8c0,0,0-15,0-25.8h47.5
	c0,10.8,0,25.8,0,25.8h26.2c0,0,0-15.2,0-25.8h6.5c0.7,2.7,1.3,5.2,2.5,7.5c5.3,11,17,17.7,37.8,17.7h58.6v-17.8h-26l0,0h-28.3
	c-9.5,0-15.2-2.3-18-7.3l0,0h63.1v-19.2h-62.8c2.8-5.2,8.3-7.3,17.7-7.3h28.8l0,0C586.2,379.3,612,379.3,612,379.3z M225.9,380.4
	c10,0,16.8,2.3,20.7,6.2h-40.8C209.4,382.8,216.4,380.4,225.9,380.4z M54.6,379.1c9.3,0,15,2.2,17.7,7.5l0,0H26v-7.5H54.6z
	 M54.3,412.9H26v-7.2h46.3C69.5,410.6,63.8,412.9,54.3,412.9z M456.4,380.4c10,0,16.8,2.3,20.7,6.2h-40.8
	C439.9,382.8,446.9,380.4,456.4,380.4z M319.3,378.6h36.5c4.5,0,7.2,0.7,8.8,3c0.5,0.8,0.8,1.7,0.8,2.8c0,0.7,0,1.5-0.3,2.3h-45.6
	v-8.2H319.3z"/>
</svg>
