<?xml version="1.0" encoding="utf-8"?>
<!-- Generator: Adobe Illustrator 18.0.0, SVG Export Plug-In . SVG Version: 6.00 Build 0)  -->
<!DOCTYPE svg PUBLIC "-//W3C//DTD SVG 1.1//EN" "http://www.w3.org/Graphics/SVG/1.1/DTD/svg11.dtd">
<svg version="1.1" id="Layer_1" xmlns="http://www.w3.org/2000/svg" xmlns:xlink="http://www.w3.org/1999/xlink" x="0px" y="0px"
	 viewBox="0 0 612 792" enable-background="new 0 0 612 792" xml:space="preserve">
<g>
	<path fill="none" stroke="#5A5121" stroke-width="0.842" stroke-miterlimit="1.684" d="M-1304.2,55.2l-5.8-27.2l-17.1,3.6l5.2,24.9
		c0.8,4-0.8,8.6-7.2,10.1c-2.8,0.6-10.5,2.2-11.3,2.2l2.6,12.7c1,0,7.6-1,14.1-2.4C-1308.5,75.7-1302,65.7-1304.2,55.2z"/>
</g>
<g>
	<path fill="#FFFFFF" d="M50.1,323.3H17.9v8.2h32c4.6,0,7-0.4,8.2-1.6c0.6-0.6,0.8-1.4,0.8-2.6c0-1.2-0.2-1.8-1-2.6
		C56.5,323.7,54.5,323.3,50.1,323.3z"/>
	<path fill="#FFFFFF" d="M53.7,309.4c0.8-0.6,1-1.6,1-2.8c0-1.2-0.4-1.8-1.2-2.4c-1.2-1-3.2-1.2-6.6-1.2h-29v7.8h29.4
		C50.3,310.6,52.5,310.2,53.7,309.4z"/>
	<path fill="#FFFFFF" d="M286.8,303.2h-29.2v9.1h29.6c4,0,5.8-0.6,6.6-2c0.4-0.8,0.6-1.6,0.6-2.4c0-1-0.2-1.6-0.6-2.2
		C292.4,303.8,290.4,303.2,286.8,303.2z"/>
	<path fill="#FFFFFF" d="M298.1,344.6l-17.5-20.3h-22.7v20.3h-20.7v-55.1h52.5c10.1,0,16.7,2.2,20.3,5.4c2.8,2.6,4.2,5.8,4.2,10.7
		c0,4-1.2,8-3.2,10.5c-2.2,2.6-5.8,5.2-10.7,5.6l20.3,22.9H298.1z"/>
	<path fill="#FFFFFF" d="M348.5,312.8v31.8h-19.9V340c-8.8,18.3-27.6,31-49.3,31c-30.2,0-54.5-24.5-54.5-54.5
		c0-30.2,24.5-54.5,54.5-54.5c21.7,0,40.4,12.7,49.3,31v-3.2h21.3l35.2,31v-31.2h0.4c-12.1-47.5-55.1-82.5-106-82.5
		c-51.1,0-94.1,35.2-106,82.5h21.5l35.4,55.1h-22.7l-5.6-8.6H172c7.6,42,39.2,75.8,80.2,86.5v42.2h-75.4v54.7H252v67h54.9v-67h75.2
		v-54.9h-75.2v-42.2c38-9.9,68.2-39.8,78.2-77.6h-0.6L348.5,312.8z"/>
	<path fill="#FFFFFF" d="M182.2,304.6l-3,4.8l-9.1,13.5h23.7l-8.8-13.5L182.2,304.6z"/>
	<path fill="#FFFFFF" d="M66.6,315.3c3-0.4,5.4-1.8,7-4c1.6-2.2,2.4-4.8,2.4-8s-1-6.4-3.4-8.8c-2.8-2.8-8-4.8-16.5-4.8H-2.2v55.1
		h59.5c8.8,0,16.1-1.6,19.7-6.2c2-2.4,2.8-5.8,2.8-9.7c0-2.8-0.8-5.8-2.6-7.8C75.2,317.9,71.2,315.9,66.6,315.3z M17.9,302.8h29
		c3.4,0,5.4,0.2,6.6,1.2c0.8,0.8,1.2,1.4,1.2,2.6c0,1.2-0.2,2.2-1,2.8c-1,1-3.2,1.2-6.4,1.2H17.9V302.8z M58.1,329.7
		c-1.2,1.2-3.6,1.6-8.2,1.6h-32v-8.2h32.2c4.2,0,6.4,0.4,7.6,1.4c0.8,0.6,1,1.4,1,2.6C58.7,328.3,58.7,329.1,58.1,329.7z"/>
	<path fill="#FFFFFF" d="M110,319.9c0,5-3,9.9-10.9,9.9c-3.6,0-12.9,0-13.7-0.2V345c1.2,0.2,9.3,0.6,17.1,0.6
		c18.5,0,28.6-9.9,28.6-22.7v-33.4H110V319.9z"/>
	<path fill="#FFFFFF" d="M207.6,344.6h22.7l-35.4-55.1h-21.5h-2.2l-37.2,55.1h22.1l5.8-8.6h9.9h30.2L207.6,344.6z M170.1,322.9
		l9.1-13.5l3-4.8l2.8,4.8l8.8,13.5H170.1z"/>
	<path fill="#FFFFFF" d="M311.1,316.3c2-2.4,3.2-6.4,3.2-10.5c0-4.8-1.4-8.2-4.2-10.7c-3.8-3.4-10.5-5.4-20.3-5.4h-52.7v55.1h20.7
		v-20.3h22.7l17.5,20.3h22.7l-20.3-22.9C305.3,321.3,309.1,318.9,311.1,316.3z M293.8,310.2c-0.8,1.4-2.6,2-6.6,2h-29.6v-9.1h29.2
		c3.6,0,5.6,0.4,7,2.4c0.4,0.6,0.6,1.4,0.6,2.2C294.4,308.6,294.4,309.4,293.8,310.2z"/>
	<polygon fill="#FFFFFF" points="385.1,289.5 385.1,320.5 349.9,289.5 328.6,289.5 328.6,292.7 328.6,340 328.6,344.6 348.5,344.6 
		348.5,312.8 384.5,344.6 385.1,344.6 404.8,344.6 404.8,289.5 385.5,289.5 	"/>
	<polygon fill="#FFFFFF" points="439.2,324.1 485.9,324.1 485.9,310.2 439.2,310.2 439.2,304.2 487.1,304.2 487.1,289.5 
		418.9,289.5 418.9,344.6 487.7,344.6 487.7,330.1 439.2,330.1 	"/>
	<polygon fill="#FFFFFF" points="496.8,311.4 499.8,311.4 501.8,310.8 495.8,317.7 505.8,325.7 521.3,310.6 521.3,288.3 
		496.8,288.3 	"/>
	<path fill="#FFFFFF" d="M588.1,311.2c-2.2-0.2-13.1-1-19.3-1.4c-13.7-1-16.1-1.6-16.1-3.8c0-2.6,3.4-3.6,16.3-3.6
		c8.8,0,14.1,1.4,16.3,3.4c1,1,1.4,1.4,1.6,2.4h22.9c-0.4-2-1.4-4.2-2.8-6.4c-4.4-6.4-14.9-12.9-37.2-12.9c-25.5,0-39.2,8-39.2,18.3
		c0,8.4,6.2,14.9,29.8,16.1c3.6,0.2,10.9,0.6,16.1,1c11.9,0.8,13.7,1.4,13.7,4c0,2.6-2.6,4-16.7,4c-10.3,0-16.7-1.4-18.7-3.4
		c-1-1-1.6-1.8-1.8-2.6h-22.9c0.4,1.8,0.8,3.6,1.8,5.2c4.6,8,15.3,14.5,39.6,14.5c27.2,0,40.8-6.2,40.8-18.7
		C612,317.7,605.4,312.4,588.1,311.2z"/>
</g>
</svg>
