<?xml version="1.0" encoding="utf-8"?>
<!-- Generator: Adobe Illustrator 18.0.0, SVG Export Plug-In . SVG Version: 6.00 Build 0)  -->
<!DOCTYPE svg PUBLIC "-//W3C//DTD SVG 1.1//EN" "http://www.w3.org/Graphics/SVG/1.1/DTD/svg11.dtd">
<svg version="1.1" id="Layer_1" xmlns="http://www.w3.org/2000/svg" xmlns:xlink="http://www.w3.org/1999/xlink" x="0px" y="0px"
	 viewBox="0 0 414 202" enable-background="new 0 0 414 202" xml:space="preserve">
<g>
	<path fill="none" stroke="#5A5121" stroke-width="0.842" stroke-miterlimit="1.684" d="M-648.5,126l-2.9-13.5l-8.5,1.8l2.6,12.4
		c0.4,2-0.4,4.3-3.6,5c-1.4,0.3-5.2,1.1-5.6,1.1l1.3,6.3c0.5,0,3.8-0.5,7-1.2C-650.6,136.2-647.4,131.3-648.5,126z"/>
</g>
<g>
	<path fill="none" stroke="#5A5121" stroke-width="0.842" stroke-miterlimit="1.684" d="M-144.8-91.4l-9.7,2.1l2.5-6.3l0.8-2.2
		l1.6,1.7C-149.5-96.1-144.8-91.4-144.8-91.4z M-156.7-83.3l16.3-3.5l3.1,3.1l9.3-2l-19.3-19.4l-9.7,2.1l-10.4,25.7l9.1-1.9
		L-156.7-83.3z"/>
	<path fill="none" stroke="#5A5121" stroke-width="0.842" stroke-miterlimit="1.684" d="M-105-106.2c0.1,0.3,0.1,0.6,0,1
		c-0.2,0.7-0.9,1.1-2.6,1.4l-12,2.6l-0.8-3.7l11.9-2.5c1.4-0.3,2.4-0.3,3.1,0.3C-105.3-106.9-105.1-106.6-105-106.2z M-97.1-108.8
		c-0.4-2-1.3-3.2-2.7-4c-1.8-1-4.7-1.3-8.8-0.4l-21.5,4.6l4.8,22.5l8.4-1.8l-1.8-8.3l9.3-2l8.9,6.7l9.3-2l-10.3-7.6
		c1.9-0.6,3.2-2,3.8-3.2C-96.9-105.5-96.7-107.2-97.1-108.8z"/>
	<polygon fill="none" stroke="#5A5121" stroke-width="0.842" stroke-miterlimit="1.684" points="-56.7,-100.8 -61.5,-123.3 
		-69.6,-121.6 -66.9,-108.9 -84,-118.5 -92.7,-116.7 -87.9,-94.2 -79.7,-95.9 -82.5,-108.9 -65,-99 	"/>
	<polygon fill="none" stroke="#5A5121" stroke-width="0.842" stroke-miterlimit="1.684" points="-23,-108 -24.2,-113.9 -44,-109.7 
		-44.5,-112.2 -25.5,-116.3 -26.7,-121.9 -45.7,-117.8 -46.2,-120.3 -26.7,-124.5 -28,-130.4 -55.8,-124.5 -51,-102 	"/>
</g>
<ellipse transform="matrix(-0.1994 0.9799 -0.9799 -0.1994 347.1166 -76.853)" fill="none" stroke="#010101" stroke-width="17" cx="205" cy="103.4" rx="66.5" ry="185.8"/>
<ellipse transform="matrix(0.2164 0.9763 -0.9763 0.2164 261.4409 -119.1901)" fill="none" stroke="#5A5121" stroke-width="17" cx="205" cy="103.3" rx="66.5" ry="185.7"/>
<g>
	<g>
		<defs>
			<rect id="SVGID_1_" x="-688" y="-53.5" width="1190.6" height="841.9"/>
		</defs>
		<clipPath id="SVGID_2_">
			<use xlink:href="#SVGID_1_"  overflow="visible"/>
		</clipPath>
		<path clip-path="url(#SVGID_2_)" fill="none" stroke="#010101" stroke-width="20" stroke-miterlimit="2.955" d="M69.4,112.4
			c-0.9,0.9-2.6,1.2-6.1,1.2H40v-6h23.6c3.2,0,4.8,0.3,5.6,1c0.5,0.5,0.7,1,0.7,1.9C69.9,111.3,69.8,112,69.4,112.4z M66.8,95.5
			c0,0.8-0.2,1.6-0.7,2c-0.8,0.7-2.4,0.9-4.7,0.9H40v-5.7h21.2c2.5,0,4,0.2,4.8,0.9C66.6,94.1,66.8,94.7,66.8,95.5z M83.3,118.8
			c1.4-1.8,2.1-4.3,2.1-7.1c0-2.1-0.6-4.3-1.9-5.8c-1.6-2.2-4.5-3.7-7.9-4.1c2.3-0.3,4-1.4,5.2-2.9c1.1-1.5,1.7-3.6,1.7-5.9
			c0-2.3-0.7-4.7-2.5-6.5c-2.1-2.1-5.9-3.6-12-3.6H25.2v40.4h43.7C75.4,123.3,80.7,122.1,83.3,118.8z"/>
		<path clip-path="url(#SVGID_2_)" fill="none" stroke="#010101" stroke-width="20" stroke-miterlimit="2.955" d="M122.7,107.2V82.9
			h-15.3v22.2c0,3.6-2.3,7.2-8,7.2c-2.6,0-9.4-0.1-10.1-0.2v11.3c0.8,0.1,6.8,0.5,12.5,0.5C115.4,123.9,122.7,116.7,122.7,107.2z"/>
		<path clip-path="url(#SVGID_2_)" fill="none" stroke="#010101" stroke-width="20" stroke-miterlimit="2.955" d="M168.8,107.3
			h-17.3l6.6-9.9l2.2-3.5l2.1,3.5C162.4,97.5,168.9,107.3,168.8,107.3z M145.5,117h29.3l4.1,6.4h16.7l-26-40.4h-17.3l-27.3,40.4
			h16.2L145.5,117z"/>
		<path clip-path="url(#SVGID_2_)" fill="none" stroke="#010101" stroke-width="20" stroke-miterlimit="2.955" d="M242.5,96.3
			c0,0.5-0.1,1.1-0.4,1.7c-0.6,1.1-2,1.5-4.9,1.5h-21.6V93h21.4c2.6,0,4.2,0.4,5.1,1.7C242.3,95.1,242.5,95.7,242.5,96.3z
			 M257.1,94.8c0-3.5-1-6-3.1-7.9c-2.8-2.4-7.7-4-14.9-4h-38.6v40.4h15.2v-14.8h16.7l12.9,14.8h16.7L247,106.6
			c3.5-0.4,6.2-2.2,7.8-4.1C256.2,100.6,257.1,97.8,257.1,94.8z"/>
		<polygon clip-path="url(#SVGID_2_)" fill="none" stroke="#010101" stroke-width="20" stroke-miterlimit="2.955" points="
			323.4,123.3 323.4,82.9 308.9,82.9 308.9,105.6 283.2,82.9 267.5,82.9 267.5,123.3 282.1,123.3 282.1,100.1 308.5,123.3 		"/>
		<polygon clip-path="url(#SVGID_2_)" fill="none" stroke="#010101" stroke-width="20" stroke-miterlimit="2.955" points="
			384,123.3 384,112.7 348.6,112.7 348.6,108.2 382.7,108.2 382.7,98.1 348.6,98.1 348.6,93.6 383.6,93.6 383.6,82.9 333.7,82.9 
			333.7,123.3 		"/>
	</g>
	<text transform="matrix(1 0 0 1 20.0407 123.3296)"><tspan x="0" y="0" fill="#FFFFFF" font-family="'TitlingGothicFBExtended-Bold'" font-size="51.718">B</tspan><tspan x="67.6" y="0" fill="#FFFFFF" font-family="'TitlingGothicFBExtended-Bold'" font-size="51.718" letter-spacing="-1">J</tspan><tspan x="105.3" y="0" fill="#FFFFFF" font-family="'TitlingGothicFBExtended-Bold'" font-size="51.718">ARNE</tspan></text>
</g>
</svg>
