<?xml version="1.0" encoding="utf-8"?>
<!-- Generator: Adobe Illustrator 18.0.0, SVG Export Plug-In . SVG Version: 6.00 Build 0)  -->
<!DOCTYPE svg PUBLIC "-//W3C//DTD SVG 1.1//EN" "http://www.w3.org/Graphics/SVG/1.1/DTD/svg11.dtd">
<svg version="1.1" id="Layer_1" xmlns="http://www.w3.org/2000/svg" xmlns:xlink="http://www.w3.org/1999/xlink" x="0px" y="0px"
	 viewBox="0 0 304.3 189.3" enable-background="new 0 0 304.3 189.3" xml:space="preserve">
<g>
	<path fill="none" stroke="#5A5121" stroke-width="0.842" stroke-miterlimit="1.684" d="M-648.5-74.8l-2.9-13.5l-8.5,1.8l2.6,12.4
		c0.4,2-0.4,4.3-3.6,5c-1.4,0.3-5.2,1.1-5.6,1.1l1.3,6.3c0.5,0,3.8-0.5,7-1.2C-650.6-64.6-647.4-69.6-648.5-74.8z"/>
</g>
<g>
	<path fill="none" d="M24.9,58.5h-16v4.1h15.9c2.3,0,3.5-0.2,4.1-0.8c0.3-0.3,0.4-0.7,0.4-1.3c0-0.6-0.1-0.9-0.5-1.3
		C28.1,58.7,27.1,58.5,24.9,58.5z"/>
	<path fill="none" d="M26.7,51.6c0.4-0.3,0.5-0.8,0.5-1.4S27,49.3,26.6,49c-0.6-0.5-1.6-0.6-3.3-0.6H8.9v3.9h14.6
		C25,52.2,26.1,52,26.7,51.6z"/>
	<path fill="none" d="M142.6,48.5h-14.5V53h14.7c2,0,2.9-0.3,3.3-1c0.2-0.4,0.3-0.8,0.3-1.2c0-0.5-0.1-0.8-0.3-1.1
		C145.4,48.8,144.4,48.5,142.6,48.5z"/>
	<path fill="none" d="M138.9,28c-15,0-27.1,12.2-27.1,27.1c0,15,12.2,27.1,27.1,27.1c10.8,0,20.1-6.3,24.5-15.4V43.3
		C159,34.2,149.7,28,138.9,28z M148.2,69.1l-8.7-10.1h-11.3v10.1h-10.3V41.7H144c5,0,8.3,1.1,10.1,2.7c1.4,1.3,2.1,2.9,2.1,5.3
		c0,2-0.6,4-1.6,5.2c-1.1,1.3-2.9,2.6-5.3,2.8l10.1,11.4H148.2z"/>
	<path fill="#010101" d="M173.3,53.3v15.8h-9.9v-2.3c-4.4,9.1-13.7,15.4-24.5,15.4c-15,0-27.1-12.2-27.1-27.1
		c0-15,12.2-27.1,27.1-27.1c10.8,0,20.1,6.3,24.5,15.4v-1.6H174l17.5,15.4V41.7h0.2c-6-23.6-27.4-41-52.7-41
		c-25.4,0-46.8,17.5-52.7,41h10.7l17.6,27.4h-11.3l-2.8-4.3h-15c3.8,20.9,19.5,37.7,39.9,43v21H87.9V156h37.4v33.3h27.3V156h37.4
		v-27.3h-37.4v-21c18.9-4.9,33.9-19.8,38.9-38.6h-0.3L173.3,53.3z"/>
	<path fill="#010101" d="M90.6,49.2l-1.5,2.4l-4.5,6.7h11.8c0,0-4.4-6.7-4.4-6.7L90.6,49.2z"/>
	<path fill="#010101" d="M33.1,54.5c1.5-0.2,2.7-0.9,3.5-2s1.2-2.4,1.2-4s-0.5-3.2-1.7-4.4c-1.4-1.4-4-2.4-8.2-2.4h-29v27.4h29.6
		c4.4,0,8-0.8,9.8-3.1c1-1.2,1.4-2.9,1.4-4.8c0-1.4-0.4-2.9-1.3-3.9C37.4,55.8,35.4,54.8,33.1,54.5z M8.9,48.3h14.4
		c1.7,0,2.7,0.1,3.3,0.6c0.4,0.4,0.6,0.7,0.6,1.3s-0.1,1.1-0.5,1.4c-0.5,0.5-1.6,0.6-3.2,0.6H8.9V48.3z M28.9,61.7
		c-0.6,0.6-1.8,0.8-4.1,0.8H8.9v-4.1h16c2.1,0,3.2,0.2,3.8,0.7c0.4,0.3,0.5,0.7,0.5,1.3C29.2,61,29.2,61.4,28.9,61.7z"/>
	<path fill="#010101" d="M54.7,56.8c0,2.5-1.5,4.9-5.4,4.9c-1.8,0-6.4,0-6.8-0.1v7.7c0.6,0.1,4.6,0.3,8.5,0.3
		c9.2,0,14.2-4.9,14.2-11.3V41.7H54.7V56.8z"/>
	<path fill="#FFFFFF" d="M103.2,69.1h11.3L96.9,41.7H86.2h-1.1L66.6,69.1h11l2.9-4.3h4.9h15L103.2,69.1z M84.6,58.3l4.5-6.7l1.5-2.4
		l1.4,2.4c0,0,4.4,6.7,4.4,6.7H84.6z"/>
	<path fill="#010101" d="M154.7,55c1-1.2,1.6-3.2,1.6-5.2c0-2.4-0.7-4.1-2.1-5.3c-1.9-1.7-5.2-2.7-10.1-2.7h-26.2v27.4h10.3V59.1
		h11.3l8.7,10.1h11.3l-10.1-11.4C151.8,57.5,153.7,56.3,154.7,55z M146.1,52c-0.4,0.7-1.3,1-3.3,1h-14.7v-4.5h14.5
		c1.8,0,2.8,0.2,3.5,1.2c0.2,0.3,0.3,0.7,0.3,1.1C146.4,51.2,146.4,51.6,146.1,52z"/>
	<polygon fill="#FFFFFF" points="191.5,41.7 191.5,57.1 174,41.7 163.4,41.7 163.4,43.3 163.4,66.8 163.4,69.1 173.3,69.1 
		173.3,53.3 191.2,69.1 191.5,69.1 201.3,69.1 201.3,41.7 191.7,41.7 	"/>
	<polygon fill="#010101" points="218.4,58.9 241.6,58.9 241.6,52 218.4,52 218.4,49 242.2,49 242.2,41.7 208.3,41.7 208.3,69.1 
		242.5,69.1 242.5,61.9 218.4,61.9 	"/>
	<polygon fill="#010101" points="247,52.6 248.5,52.6 249.5,52.3 246.5,55.7 251.5,59.7 259.2,52.2 259.2,41.1 247,41.1 	"/>
	<path fill="#010101" d="M292.4,52.5c-1.1-0.1-6.5-0.5-9.6-0.7c-6.8-0.5-8-0.8-8-1.9c0-1.3,1.7-1.8,8.1-1.8c4.4,0,7,0.7,8.1,1.7
		c0.5,0.5,0.7,0.7,0.8,1.2l11.4,0c-0.2-1-0.7-2.1-1.4-3.2c-2.2-3.2-7.4-6.4-18.5-6.4c-12.7,0-19.5,4-19.5,9.1c0,4.2,3.1,7.4,14.8,8
		c1.8,0.1,5.4,0.3,8,0.5c5.9,0.4,6.8,0.7,6.8,2c0,1.3-1.3,2-8.3,2c-5.1,0-8.3-0.7-9.3-1.7c-0.5-0.5-0.8-0.9-0.9-1.3h-11.4
		c0.2,0.9,0.4,1.8,0.9,2.6c2.3,4,7.6,7.2,19.7,7.2c13.5,0,20.3-3.1,20.3-9.3C304.3,55.7,301,53.1,292.4,52.5z"/>
</g>
</svg>
